M48
; DRILL file {KiCad 9.0.7} date 2026-04-30T13:10:12+0200
; FORMAT={-:-/ absolute / metric / decimal}
; #@! TF.CreationDate,2026-04-30T13:10:12+02:00
; #@! TF.GenerationSoftware,Kicad,Pcbnew,9.0.7
; #@! TF.FileFunction,Plated,1,2,PTH
FMAT,2
METRIC
; #@! TA.AperFunction,Plated,PTH,ViaDrill
T1C0.200
; #@! TA.AperFunction,Plated,PTH,ViaDrill
T2C0.300
; #@! TA.AperFunction,Plated,PTH,ComponentDrill
T3C0.330
; #@! TA.AperFunction,Plated,PTH,ComponentDrill
T4C0.800
; #@! TA.AperFunction,Plated,PTH,ComponentDrill
T5C1.000
; #@! TA.AperFunction,Plated,PTH,ComponentDrill
T6C1.100
; #@! TA.AperFunction,Plated,PTH,ComponentDrill
T7C1.300
; #@! TA.AperFunction,Plated,PTH,ComponentDrill
T8C2.200
%
G90
G05
T1
X87.83Y-126.33
X92.63Y-115.72
X94.51Y-111.53
X95.17Y-135.77
X99.32Y-63.125
X100.27Y-115.59
X101.93Y-134.71
X102.15Y-64.215
X105.65Y-120.37
X107.93Y-118.16
X109.09Y-71.07
X109.65Y-115.59
X110.67Y-69.51
X111.88Y-80.8
X114.35Y-104.8
X114.82Y-62.98
X114.85Y-75.69
X114.85Y-77.98
X115.97Y-65.56
X116.41Y-96.1
X116.55Y-93.22
X116.89Y-62.1
X116.92Y-70.47
X119.02Y-62.94
X119.55Y-114.68
X122.91Y-90.06
X123.52Y-78.87
X123.52Y-80.73
X125.03Y-93.06
X127.62Y-100.97
X127.66Y-102.86
X128.6Y-80.68
X128.61Y-78.84
X128.74Y-97.82
X129.35Y-135.99
X130.23Y-88.74
X132.66Y-63.21
X132.78Y-85.32
X133.87Y-92.96
X137.31Y-104.75
X144.21Y-80.6
X144.46Y-91.96
X144.5Y-89.35
X147.56Y-92.85
X157.15Y-88.16
X157.26Y-109.58
X157.55Y-86.42
X158.21Y-103.78
X161.07Y-86.25
X161.55Y-87.18
X161.68Y-85.21
X163.84Y-84.53
X163.92Y-87.9
X164.49Y-123.5
X165.3Y-88.18
X172.76Y-85.84
X174.36Y-107.67
X176.77Y-131.96
T2
X123.651Y-94.901
X124.13Y-111.845
X124.21Y-94.15
X151.98Y-123.43
X176.06Y-105.39
T3
X150.05Y-127.31
X150.05Y-128.61
X151.35Y-127.31
X151.35Y-128.61
X152.65Y-127.31
X152.65Y-128.61
X162.545Y-127.315
X162.545Y-128.615
X163.845Y-127.315
X163.845Y-128.615
X165.145Y-127.315
X165.145Y-128.615
T4
X90.42Y-78.75
X90.42Y-81.25
X105.48Y-58.79
X107.98Y-58.79
X120.96Y-121.33
X120.96Y-126.41
X125.325Y-60.375
X127.825Y-60.375
T5
X80.2Y-75.925
X80.2Y-78.465
X83.752Y-104.373
X83.752Y-108.152
X87.74Y-138.35
X89.7Y-87.38
X89.7Y-89.92
X89.7Y-92.46
X89.7Y-95.0
X89.7Y-97.54
X91.52Y-138.35
X100.91Y-102.08
X100.91Y-107.16
X103.45Y-99.54
X103.45Y-109.7
X105.99Y-99.54
X105.99Y-109.7
X108.53Y-99.54
X108.53Y-109.7
X111.07Y-102.08
X111.07Y-107.16
X117.1Y-138.36
X120.88Y-138.36
X127.42Y-106.8
X129.96Y-106.8
X132.5Y-106.8
X180.925Y-78.96
X180.925Y-81.73
X180.925Y-84.5
X180.925Y-87.27
X180.925Y-90.04
X181.025Y-111.36
X181.025Y-114.13
X181.025Y-116.9
X181.025Y-119.67
X181.025Y-122.44
X183.765Y-80.345
X183.765Y-83.115
X183.765Y-85.885
X183.765Y-88.655
X183.865Y-112.745
X183.865Y-115.515
X183.865Y-118.285
X183.865Y-121.055
T6
X142.7Y-72.1
X147.78Y-72.1
X152.86Y-72.1
X161.85Y-71.9
X166.93Y-71.9
X172.01Y-71.9
T7
X83.752Y-124.532
X83.752Y-129.572
X106.6Y-128.9
X107.9Y-138.35
X111.6Y-128.9
X112.94Y-138.35
X136.468Y-129.702
X137.26Y-138.36
X141.468Y-129.702
X142.3Y-138.36
X149.0Y-138.88
X154.0Y-138.88
X161.76Y-138.82
X166.76Y-138.82
T8
X80.35Y-56.65
X80.55Y-146.15
X189.6Y-145.8
X190.0Y-56.8
M30
