%TF.GenerationSoftware,KiCad,Pcbnew,9.0.7*%
%TF.CreationDate,2026-04-30T13:09:42+02:00*%
%TF.ProjectId,projecte_neteja_parabrises,70726f6a-6563-4746-955f-6e6574656a61,rev?*%
%TF.SameCoordinates,Original*%
%TF.FileFunction,Copper,L2,Bot*%
%TF.FilePolarity,Positive*%
%FSLAX46Y46*%
G04 Gerber Fmt 4.6, Leading zero omitted, Abs format (unit mm)*
G04 Created by KiCad (PCBNEW 9.0.7) date 2026-04-30 13:09:42*
%MOMM*%
%LPD*%
G01*
G04 APERTURE LIST*
G04 Aperture macros list*
%AMRoundRect*
0 Rectangle with rounded corners*
0 $1 Rounding radius*
0 $2 $3 $4 $5 $6 $7 $8 $9 X,Y pos of 4 corners*
0 Add a 4 corners polygon primitive as box body*
4,1,4,$2,$3,$4,$5,$6,$7,$8,$9,$2,$3,0*
0 Add four circle primitives for the rounded corners*
1,1,$1+$1,$2,$3*
1,1,$1+$1,$4,$5*
1,1,$1+$1,$6,$7*
1,1,$1+$1,$8,$9*
0 Add four rect primitives between the rounded corners*
20,1,$1+$1,$2,$3,$4,$5,0*
20,1,$1+$1,$4,$5,$6,$7,0*
20,1,$1+$1,$6,$7,$8,$9,0*
20,1,$1+$1,$8,$9,$2,$3,0*%
G04 Aperture macros list end*
%TA.AperFunction,ComponentPad*%
%ADD10C,0.630000*%
%TD*%
%TA.AperFunction,SMDPad,CuDef*%
%ADD11R,3.300000X2.600000*%
%TD*%
%TA.AperFunction,ComponentPad*%
%ADD12C,3.800000*%
%TD*%
%TA.AperFunction,ComponentPad*%
%ADD13C,2.400000*%
%TD*%
%TA.AperFunction,ComponentPad*%
%ADD14R,2.000000X2.000000*%
%TD*%
%TA.AperFunction,ComponentPad*%
%ADD15C,2.000000*%
%TD*%
%TA.AperFunction,ComponentPad*%
%ADD16RoundRect,0.250001X1.149999X1.149999X-1.149999X1.149999X-1.149999X-1.149999X1.149999X-1.149999X0*%
%TD*%
%TA.AperFunction,ComponentPad*%
%ADD17C,2.800000*%
%TD*%
%TA.AperFunction,ComponentPad*%
%ADD18R,1.700000X1.700000*%
%TD*%
%TA.AperFunction,ComponentPad*%
%ADD19C,1.700000*%
%TD*%
%TA.AperFunction,ComponentPad*%
%ADD20RoundRect,0.250000X0.550000X-0.550000X0.550000X0.550000X-0.550000X0.550000X-0.550000X-0.550000X0*%
%TD*%
%TA.AperFunction,ComponentPad*%
%ADD21C,1.600000*%
%TD*%
%TA.AperFunction,ComponentPad*%
%ADD22R,1.800000X1.800000*%
%TD*%
%TA.AperFunction,ComponentPad*%
%ADD23C,1.800000*%
%TD*%
%TA.AperFunction,ComponentPad*%
%ADD24RoundRect,0.375000X0.375000X-1.375000X0.375000X1.375000X-0.375000X1.375000X-0.375000X-1.375000X0*%
%TD*%
%TA.AperFunction,ComponentPad*%
%ADD25R,1.600000X1.600000*%
%TD*%
%TA.AperFunction,ComponentPad*%
%ADD26RoundRect,0.250001X-1.149999X-1.149999X1.149999X-1.149999X1.149999X1.149999X-1.149999X1.149999X0*%
%TD*%
%TA.AperFunction,ComponentPad*%
%ADD27RoundRect,0.250000X0.550000X0.550000X-0.550000X0.550000X-0.550000X-0.550000X0.550000X-0.550000X0*%
%TD*%
%TA.AperFunction,ViaPad*%
%ADD28C,0.600000*%
%TD*%
%TA.AperFunction,ViaPad*%
%ADD29C,0.700000*%
%TD*%
%TA.AperFunction,Conductor*%
%ADD30C,0.300000*%
%TD*%
G04 APERTURE END LIST*
D10*
%TO.P,U3,9,GND*%
%TO.N,GND_PWR*%
X165145000Y-127315000D03*
X163845000Y-127315000D03*
X162545000Y-127315000D03*
D11*
X163845000Y-127965000D03*
D10*
X165145000Y-128615000D03*
X163845000Y-128615000D03*
X162545000Y-128615000D03*
%TD*%
D12*
%TO.P,REF\u002A\u002A,1*%
%TO.N,N/C*%
X80350000Y-56650000D03*
%TD*%
D13*
%TO.P,K2,13*%
%TO.N,12V*%
X137260000Y-138360000D03*
%TO.P,K2,14*%
%TO.N,Net-(M5-+)*%
X142300000Y-138360000D03*
D14*
%TO.P,K2,A1*%
%TO.N,12V*%
X117100000Y-138360000D03*
D15*
%TO.P,K2,A2*%
%TO.N,Net-(D6-A)*%
X120880000Y-138360000D03*
%TD*%
D16*
%TO.P,M5,1,+*%
%TO.N,Net-(M5-+)*%
X141467500Y-129702500D03*
D17*
%TO.P,M5,2,-*%
%TO.N,GND_PWR*%
X136467500Y-129702500D03*
%TD*%
D18*
%TO.P,J4,1,Pin_1*%
%TO.N,12V*%
X80200000Y-75925000D03*
D19*
%TO.P,J4,2,Pin_2*%
%TO.N,GND*%
X80200000Y-78465000D03*
%TD*%
D13*
%TO.P,K3,13*%
%TO.N,12V*%
X83752500Y-124532500D03*
%TO.P,K3,14*%
%TO.N,Net-(K3-Pad14)*%
X83752500Y-129572500D03*
D14*
%TO.P,K3,A1*%
%TO.N,12V*%
X83752500Y-104372500D03*
D15*
%TO.P,K3,A2*%
%TO.N,Net-(D4-A)*%
X83752500Y-108152500D03*
%TD*%
D20*
%TO.P,C15,1*%
%TO.N,VDD*%
X90420000Y-81250000D03*
D21*
%TO.P,C15,2*%
%TO.N,GND*%
X90420000Y-78750000D03*
%TD*%
D22*
%TO.P,SW5,1,1*%
%TO.N,SW1*%
X103450000Y-109700000D03*
D23*
%TO.P,SW5,2,2*%
%TO.N,SW2*%
X103450000Y-99540000D03*
%TO.P,SW5,3,3*%
%TO.N,SW3*%
X105990000Y-99540000D03*
%TO.P,SW5,4*%
%TO.N,unconnected-(SW5-Pad4)*%
X108530000Y-99540000D03*
%TO.P,SW5,5*%
%TO.N,unconnected-(SW5-Pad5)*%
X108530000Y-109700000D03*
%TO.P,SW5,C,Common*%
%TO.N,GND*%
X105990000Y-109700000D03*
D24*
%TO.P,SW5,MP,MP*%
%TO.N,unconnected-(SW5-PadMP)*%
X100910000Y-107160000D03*
%TO.N,unconnected-(SW5-PadMP)_2*%
X111070000Y-107160000D03*
%TO.N,unconnected-(SW5-PadMP)_1*%
X100910000Y-102080000D03*
%TO.N,unconnected-(SW5-PadMP)_3*%
X111070000Y-102080000D03*
%TD*%
D12*
%TO.P,REF\u002A\u002A,1*%
%TO.N,N/C*%
X80550000Y-146150000D03*
%TD*%
D14*
%TO.P,FINALCARRERA1,1,A*%
%TO.N,unconnected-(FINALCARRERA1-A-Pad1)*%
X142700000Y-72100000D03*
D15*
%TO.P,FINALCARRERA1,2,B*%
%TO.N,FC1*%
X147780000Y-72100000D03*
%TO.P,FINALCARRERA1,3,C*%
%TO.N,GND*%
X152860000Y-72100000D03*
%TD*%
%TO.P,FB1,1*%
%TO.N,GND_PWR*%
X120960000Y-126410000D03*
%TO.P,FB1,2*%
%TO.N,GND*%
X120960000Y-121330000D03*
%TD*%
D25*
%TO.P,J2,1,1*%
%TO.N,unconnected-(J2-Pad1)*%
X180924669Y-90040000D03*
D21*
%TO.P,J2,2,2*%
%TO.N,Net-(U8-CANL)*%
X180924669Y-87270000D03*
%TO.P,J2,3,3*%
%TO.N,unconnected-(J2-Pad3)*%
X180924669Y-84500000D03*
%TO.P,J2,4,4*%
%TO.N,unconnected-(J2-Pad4)*%
X180924669Y-81730000D03*
%TO.P,J2,5,5*%
%TO.N,GND*%
X180924669Y-78960000D03*
%TO.P,J2,6,6*%
%TO.N,unconnected-(J2-Pad6)*%
X183764669Y-88655000D03*
%TO.P,J2,7,7*%
%TO.N,Net-(U8-CANH)*%
X183764669Y-85885000D03*
%TO.P,J2,8,8*%
%TO.N,unconnected-(J2-Pad8)*%
X183764669Y-83115000D03*
%TO.P,J2,9,9*%
%TO.N,unconnected-(J2-Pad9)*%
X183764669Y-80345000D03*
%TD*%
D16*
%TO.P,M3,1,+*%
%TO.N,Net-(M3-+)*%
X111600000Y-128900000D03*
D17*
%TO.P,M3,2,-*%
%TO.N,GND_PWR*%
X106600000Y-128900000D03*
%TD*%
D18*
%TO.P,JP1,1,A*%
%TO.N,Net-(J1-Pin_1)*%
X127420000Y-106800000D03*
D19*
%TO.P,JP1,2,C*%
%TO.N,MCLR*%
X129960000Y-106800000D03*
%TO.P,JP1,3,B*%
%TO.N,Net-(JP1-B)*%
X132500000Y-106800000D03*
%TD*%
D25*
%TO.P,J3,1,1*%
%TO.N,unconnected-(J3-Pad1)*%
X181024669Y-122440000D03*
D21*
%TO.P,J3,2,2*%
%TO.N,Net-(U9-T1OUT)*%
X181024669Y-119670000D03*
%TO.P,J3,3,3*%
%TO.N,Net-(U9-R1IN)*%
X181024669Y-116900000D03*
%TO.P,J3,4,4*%
%TO.N,unconnected-(J3-Pad4)*%
X181024669Y-114130000D03*
%TO.P,J3,5,5*%
%TO.N,GND*%
X181024669Y-111360000D03*
%TO.P,J3,6,6*%
%TO.N,unconnected-(J3-Pad6)*%
X183864669Y-121055000D03*
%TO.P,J3,7,7*%
%TO.N,unconnected-(J3-Pad7)*%
X183864669Y-118285000D03*
%TO.P,J3,8,8*%
%TO.N,unconnected-(J3-Pad8)*%
X183864669Y-115515000D03*
%TO.P,J3,9,9*%
%TO.N,unconnected-(J3-Pad9)*%
X183864669Y-112745000D03*
%TD*%
D26*
%TO.P,M1,1,+*%
%TO.N,Net-(M1-+)*%
X149000000Y-138880000D03*
D17*
%TO.P,M1,2,-*%
%TO.N,Net-(M1--)*%
X154000000Y-138880000D03*
%TD*%
D27*
%TO.P,C13,1*%
%TO.N,5V*%
X107980000Y-58790000D03*
D21*
%TO.P,C13,2*%
%TO.N,GND*%
X105480000Y-58790000D03*
%TD*%
D12*
%TO.P,REF\u002A\u002A,1*%
%TO.N,N/C*%
X190000000Y-56800000D03*
%TD*%
D14*
%TO.P,FINALCARRERA2,1,A*%
%TO.N,unconnected-(FINALCARRERA2-A-Pad1)*%
X161850000Y-71900000D03*
D15*
%TO.P,FINALCARRERA2,2,B*%
%TO.N,FC2*%
X166930000Y-71900000D03*
%TO.P,FINALCARRERA2,3,C*%
%TO.N,GND*%
X172010000Y-71900000D03*
%TD*%
D13*
%TO.P,K4,13*%
%TO.N,12V*%
X107900000Y-138350000D03*
%TO.P,K4,14*%
%TO.N,Net-(M3-+)*%
X112940000Y-138350000D03*
D14*
%TO.P,K4,A1*%
%TO.N,12V*%
X87740000Y-138350000D03*
D15*
%TO.P,K4,A2*%
%TO.N,Net-(D5-A)*%
X91520000Y-138350000D03*
%TD*%
D27*
%TO.P,C14,1*%
%TO.N,Net-(U1-GND)*%
X127825000Y-60375000D03*
D21*
%TO.P,C14,2*%
%TO.N,GND*%
X125325000Y-60375000D03*
%TD*%
D26*
%TO.P,M2,1,+*%
%TO.N,Net-(M2-+)*%
X161760000Y-138820000D03*
D17*
%TO.P,M2,2,-*%
%TO.N,Net-(M2--)*%
X166760000Y-138820000D03*
%TD*%
D12*
%TO.P,REF\u002A\u002A,1*%
%TO.N,N/C*%
X189600000Y-145800000D03*
%TD*%
D18*
%TO.P,J1,1,Pin_1*%
%TO.N,Net-(J1-Pin_1)*%
X89700000Y-97540000D03*
D19*
%TO.P,J1,2,Pin_2*%
%TO.N,VDD*%
X89700000Y-95000000D03*
%TO.P,J1,3,Pin_3*%
%TO.N,GND*%
X89700000Y-92460000D03*
%TO.P,J1,4,Pin_4*%
%TO.N,PGD*%
X89700000Y-89920000D03*
%TO.P,J1,5,Pin_5*%
%TO.N,PGC*%
X89700000Y-87380000D03*
%TD*%
D10*
%TO.P,U7,9,GND*%
%TO.N,GND_PWR*%
X152650000Y-127310000D03*
X151350000Y-127310000D03*
X150050000Y-127310000D03*
D11*
X151350000Y-127960000D03*
D10*
X152650000Y-128610000D03*
X151350000Y-128610000D03*
X150050000Y-128610000D03*
%TD*%
D28*
%TO.N,GND*%
X92630000Y-115720000D03*
X133870000Y-92960000D03*
X99320000Y-63125000D03*
X123520000Y-80730000D03*
X94510000Y-111530000D03*
X127660000Y-102860000D03*
X119550000Y-114680000D03*
X132660000Y-63210000D03*
X119020000Y-62940000D03*
X110670000Y-69510000D03*
X130230000Y-88740000D03*
X158210000Y-103780000D03*
X163840000Y-84530000D03*
X129350000Y-135990000D03*
X116890000Y-62100000D03*
D29*
X176060000Y-105390000D03*
D28*
X125030000Y-93060000D03*
X114820000Y-62980000D03*
D29*
X151980000Y-123430000D03*
D28*
X116920000Y-70470000D03*
X157260000Y-109580000D03*
X172760000Y-85840000D03*
X176770000Y-131960000D03*
X128600000Y-80680000D03*
X102150000Y-64215000D03*
X109090000Y-71070000D03*
X123520000Y-78870000D03*
X164490000Y-123500000D03*
X144460000Y-91960000D03*
X95170000Y-135770000D03*
X116550000Y-93220000D03*
X128740000Y-97820000D03*
X144500000Y-89350000D03*
D29*
X124130000Y-111845000D03*
D28*
X132780000Y-85320000D03*
X137310000Y-104750000D03*
X128610000Y-78840000D03*
X163920000Y-87900000D03*
X101930000Y-134710000D03*
%TO.N,5V*%
X115970000Y-65560000D03*
X161070000Y-86250000D03*
%TO.N,VDD*%
X127620000Y-100970000D03*
X116410000Y-96100000D03*
X147560000Y-92850000D03*
X165300000Y-88180000D03*
%TO.N,FC2*%
X144210000Y-80600000D03*
D29*
%TO.N,PGD*%
X123650800Y-94900800D03*
%TO.N,PGC*%
X124210000Y-94150000D03*
D28*
%TO.N,Net-(U9-T1OUT)*%
X174360000Y-107670000D03*
%TO.N,GATE C*%
X100270000Y-115590000D03*
X109650000Y-115590000D03*
%TO.N,SDA*%
X114850000Y-77980000D03*
X114850000Y-75690000D03*
%TO.N,SCL*%
X111880000Y-80800000D03*
X122910000Y-90060000D03*
%TO.N,SW1*%
X114350000Y-104800000D03*
%TO.N,CANRX*%
X157150000Y-88160000D03*
X161550000Y-87180000D03*
%TO.N,CANTX*%
X157550000Y-86420000D03*
X161680000Y-85210000D03*
%TO.N,GND_PWR*%
X87830000Y-126330000D03*
%TO.N,GATE B2*%
X107930000Y-118160000D03*
X105650000Y-120370000D03*
%TD*%
D30*
%TO.N,FC2*%
X144210000Y-80600000D02*
X161570000Y-80600000D01*
X166930000Y-75240000D02*
X166930000Y-71900000D01*
X161570000Y-80600000D02*
X166930000Y-75240000D01*
%TO.N,PGD*%
X97800000Y-94900000D02*
X123650000Y-94900000D01*
X92820000Y-89920000D02*
X97800000Y-94900000D01*
X89700000Y-89920000D02*
X92820000Y-89920000D01*
%TO.N,Net-(J1-Pin_1)*%
X112800000Y-97600000D02*
X122000000Y-106800000D01*
X122000000Y-106800000D02*
X127420000Y-106800000D01*
X89760000Y-97600000D02*
X112800000Y-97600000D01*
%TO.N,PGC*%
X124250000Y-94200000D02*
X100400000Y-94200000D01*
X100400000Y-94200000D02*
X93580000Y-87380000D01*
X93580000Y-87380000D02*
X89700000Y-87380000D01*
%TO.N,Net-(U9-T1OUT)*%
X174360000Y-107670000D02*
X174360000Y-108090000D01*
X177920000Y-119670000D02*
X181024669Y-119670000D01*
X174350000Y-108100000D02*
X174350000Y-116100000D01*
X174360000Y-108090000D02*
X174350000Y-108100000D01*
X174350000Y-116100000D02*
X177920000Y-119670000D01*
%TO.N,GATE C*%
X100270000Y-115590000D02*
X109650000Y-115590000D01*
%TO.N,SDA*%
X114850000Y-75690000D02*
X114850000Y-77980000D01*
%TO.N,SCL*%
X121140000Y-90060000D02*
X111880000Y-80800000D01*
X122910000Y-90060000D02*
X121140000Y-90060000D01*
%TO.N,SW1*%
X103450000Y-107870000D02*
X106460000Y-104860000D01*
X103450000Y-109700000D02*
X103450000Y-107870000D01*
X114290000Y-104860000D02*
X114350000Y-104800000D01*
X106460000Y-104860000D02*
X114290000Y-104860000D01*
%TO.N,CANRX*%
X157150000Y-88160000D02*
X158130000Y-87180000D01*
X158130000Y-87180000D02*
X161550000Y-87180000D01*
%TO.N,CANTX*%
X157550000Y-86420000D02*
X158760000Y-85210000D01*
X158760000Y-85210000D02*
X161680000Y-85210000D01*
%TO.N,GATE B2*%
X105650000Y-120370000D02*
X107860000Y-118160000D01*
X107860000Y-118160000D02*
X107930000Y-118160000D01*
%TD*%
%TA.AperFunction,Conductor*%
%TO.N,GND*%
G36*
X109769523Y-105530185D02*
G01*
X109815278Y-105582989D01*
X109825222Y-105652147D01*
X109822818Y-105664428D01*
X109822401Y-105666104D01*
X109822401Y-105666106D01*
X109822400Y-105666111D01*
X109822400Y-105666112D01*
X109819500Y-105708879D01*
X109819500Y-108611122D01*
X109819501Y-108611125D01*
X109822399Y-108653886D01*
X109822399Y-108653887D01*
X109835921Y-108708257D01*
X109832997Y-108778065D01*
X109792797Y-108835211D01*
X109728082Y-108861552D01*
X109659400Y-108848723D01*
X109615268Y-108811068D01*
X109598247Y-108787641D01*
X109598243Y-108787636D01*
X109442363Y-108631756D01*
X109442358Y-108631752D01*
X109264025Y-108502187D01*
X109264024Y-108502186D01*
X109264022Y-108502185D01*
X109146791Y-108442452D01*
X109067606Y-108402104D01*
X109067603Y-108402103D01*
X108857952Y-108333985D01*
X108749086Y-108316742D01*
X108640222Y-108299500D01*
X108419778Y-108299500D01*
X108347201Y-108310995D01*
X108202047Y-108333985D01*
X107992396Y-108402103D01*
X107992393Y-108402104D01*
X107795974Y-108502187D01*
X107617641Y-108631752D01*
X107617636Y-108631756D01*
X107461756Y-108787636D01*
X107360008Y-108927681D01*
X107304678Y-108970346D01*
X107235065Y-108976325D01*
X107173270Y-108943719D01*
X107159371Y-108927680D01*
X107141066Y-108902485D01*
X107141065Y-108902485D01*
X106472962Y-109570589D01*
X106455925Y-109507007D01*
X106390099Y-109392993D01*
X106297007Y-109299901D01*
X106182993Y-109234075D01*
X106119407Y-109217037D01*
X106787513Y-108548932D01*
X106723756Y-108502611D01*
X106527410Y-108402567D01*
X106317835Y-108334473D01*
X106100181Y-108300000D01*
X105879819Y-108300000D01*
X105662164Y-108334473D01*
X105452589Y-108402567D01*
X105256233Y-108502616D01*
X105192485Y-108548931D01*
X105192485Y-108548932D01*
X105860590Y-109217037D01*
X105797007Y-109234075D01*
X105682993Y-109299901D01*
X105589901Y-109392993D01*
X105524075Y-109507007D01*
X105507037Y-109570590D01*
X104886818Y-108950371D01*
X104853333Y-108889048D01*
X104850499Y-108862690D01*
X104850499Y-108752129D01*
X104850498Y-108752123D01*
X104847958Y-108728496D01*
X104844091Y-108692517D01*
X104793796Y-108557669D01*
X104793795Y-108557668D01*
X104793793Y-108557664D01*
X104707547Y-108442455D01*
X104707544Y-108442452D01*
X104592335Y-108356206D01*
X104592328Y-108356202D01*
X104457482Y-108305908D01*
X104457483Y-108305908D01*
X104397883Y-108299501D01*
X104397881Y-108299500D01*
X104397873Y-108299500D01*
X104397865Y-108299500D01*
X104239808Y-108299500D01*
X104172769Y-108279815D01*
X104127014Y-108227011D01*
X104117070Y-108157853D01*
X104146095Y-108094297D01*
X104152127Y-108087819D01*
X106693127Y-105546819D01*
X106754450Y-105513334D01*
X106780808Y-105510500D01*
X109702484Y-105510500D01*
X109769523Y-105530185D01*
G37*
%TD.AperFunction*%
%TA.AperFunction,Conductor*%
G36*
X193242900Y-53919832D02*
G01*
X193288792Y-53972518D01*
X193300131Y-54024190D01*
X193399869Y-148526721D01*
X193380255Y-148593781D01*
X193327499Y-148639592D01*
X193276724Y-148650849D01*
X77474855Y-149449139D01*
X77407681Y-149429917D01*
X77361563Y-149377430D01*
X77350000Y-149325142D01*
X77350000Y-146015186D01*
X78149500Y-146015186D01*
X78149500Y-146284813D01*
X78179686Y-146552719D01*
X78179688Y-146552731D01*
X78239684Y-146815594D01*
X78239687Y-146815602D01*
X78328734Y-147070082D01*
X78445714Y-147312994D01*
X78445716Y-147312997D01*
X78589162Y-147541289D01*
X78757266Y-147752085D01*
X78947915Y-147942734D01*
X79158711Y-148110838D01*
X79387003Y-148254284D01*
X79629921Y-148371267D01*
X79821049Y-148438145D01*
X79884397Y-148460312D01*
X79884405Y-148460315D01*
X79884408Y-148460315D01*
X79884409Y-148460316D01*
X80147268Y-148520312D01*
X80415187Y-148550499D01*
X80415188Y-148550500D01*
X80415191Y-148550500D01*
X80684812Y-148550500D01*
X80684812Y-148550499D01*
X80952732Y-148520312D01*
X81215591Y-148460316D01*
X81470079Y-148371267D01*
X81712997Y-148254284D01*
X81941289Y-148110838D01*
X82152085Y-147942734D01*
X82342734Y-147752085D01*
X82510838Y-147541289D01*
X82654284Y-147312997D01*
X82771267Y-147070079D01*
X82860316Y-146815591D01*
X82920312Y-146552732D01*
X82950500Y-146284809D01*
X82950500Y-146015191D01*
X82920312Y-145747268D01*
X82901577Y-145665186D01*
X187199500Y-145665186D01*
X187199500Y-145934813D01*
X187229686Y-146202719D01*
X187229688Y-146202731D01*
X187289684Y-146465594D01*
X187289687Y-146465602D01*
X187378734Y-146720082D01*
X187495714Y-146962994D01*
X187495716Y-146962997D01*
X187639162Y-147191289D01*
X187807266Y-147402085D01*
X187997915Y-147592734D01*
X188208711Y-147760838D01*
X188437003Y-147904284D01*
X188679921Y-148021267D01*
X188871049Y-148088145D01*
X188934397Y-148110312D01*
X188934405Y-148110315D01*
X188934408Y-148110315D01*
X188934409Y-148110316D01*
X189197268Y-148170312D01*
X189465187Y-148200499D01*
X189465188Y-148200500D01*
X189465191Y-148200500D01*
X189734812Y-148200500D01*
X189734812Y-148200499D01*
X190002732Y-148170312D01*
X190265591Y-148110316D01*
X190520079Y-148021267D01*
X190762997Y-147904284D01*
X190991289Y-147760838D01*
X191202085Y-147592734D01*
X191392734Y-147402085D01*
X191560838Y-147191289D01*
X191704284Y-146962997D01*
X191821267Y-146720079D01*
X191910316Y-146465591D01*
X191970312Y-146202732D01*
X192000500Y-145934809D01*
X192000500Y-145665191D01*
X191970312Y-145397268D01*
X191910316Y-145134409D01*
X191821267Y-144879921D01*
X191704284Y-144637003D01*
X191560838Y-144408711D01*
X191392734Y-144197915D01*
X191202085Y-144007266D01*
X190991289Y-143839162D01*
X190762997Y-143695716D01*
X190762994Y-143695714D01*
X190520082Y-143578734D01*
X190265602Y-143489687D01*
X190265594Y-143489684D01*
X190068446Y-143444687D01*
X190002732Y-143429688D01*
X190002728Y-143429687D01*
X190002719Y-143429686D01*
X189734813Y-143399500D01*
X189734809Y-143399500D01*
X189465191Y-143399500D01*
X189465186Y-143399500D01*
X189197280Y-143429686D01*
X189197268Y-143429688D01*
X188934405Y-143489684D01*
X188934397Y-143489687D01*
X188679917Y-143578734D01*
X188437005Y-143695714D01*
X188208712Y-143839161D01*
X187997915Y-144007265D01*
X187807265Y-144197915D01*
X187639161Y-144408712D01*
X187495714Y-144637005D01*
X187378734Y-144879917D01*
X187289687Y-145134397D01*
X187289684Y-145134405D01*
X187229688Y-145397268D01*
X187229686Y-145397280D01*
X187199500Y-145665186D01*
X82901577Y-145665186D01*
X82860316Y-145484409D01*
X82771267Y-145229921D01*
X82654284Y-144987003D01*
X82510838Y-144758711D01*
X82342734Y-144547915D01*
X82152085Y-144357266D01*
X81941289Y-144189162D01*
X81712997Y-144045716D01*
X81712994Y-144045714D01*
X81470082Y-143928734D01*
X81215602Y-143839687D01*
X81215594Y-143839684D01*
X81018446Y-143794687D01*
X80952732Y-143779688D01*
X80952728Y-143779687D01*
X80952719Y-143779686D01*
X80684813Y-143749500D01*
X80684809Y-143749500D01*
X80415191Y-143749500D01*
X80415186Y-143749500D01*
X80147280Y-143779686D01*
X80147268Y-143779688D01*
X79884405Y-143839684D01*
X79884397Y-143839687D01*
X79629917Y-143928734D01*
X79387005Y-144045714D01*
X79158712Y-144189161D01*
X78947915Y-144357265D01*
X78757265Y-144547915D01*
X78589161Y-144758712D01*
X78445714Y-144987005D01*
X78328734Y-145229917D01*
X78239687Y-145484397D01*
X78239684Y-145484405D01*
X78179688Y-145747268D01*
X78179686Y-145747280D01*
X78149500Y-146015186D01*
X77350000Y-146015186D01*
X77350000Y-137302135D01*
X86239500Y-137302135D01*
X86239500Y-139397870D01*
X86239501Y-139397876D01*
X86245908Y-139457483D01*
X86296202Y-139592328D01*
X86296206Y-139592335D01*
X86382452Y-139707544D01*
X86382455Y-139707547D01*
X86497664Y-139793793D01*
X86497671Y-139793797D01*
X86632517Y-139844091D01*
X86632516Y-139844091D01*
X86639444Y-139844835D01*
X86692127Y-139850500D01*
X88787872Y-139850499D01*
X88847483Y-139844091D01*
X88982331Y-139793796D01*
X89097546Y-139707546D01*
X89183796Y-139592331D01*
X89234091Y-139457483D01*
X89240500Y-139397873D01*
X89240499Y-138231902D01*
X90019500Y-138231902D01*
X90019500Y-138468097D01*
X90056446Y-138701368D01*
X90129433Y-138925996D01*
X90219990Y-139103722D01*
X90236657Y-139136433D01*
X90375483Y-139327510D01*
X90542490Y-139494517D01*
X90733567Y-139633343D01*
X90832991Y-139684002D01*
X90944003Y-139740566D01*
X90944005Y-139740566D01*
X90944008Y-139740568D01*
X91025194Y-139766947D01*
X91168631Y-139813553D01*
X91401903Y-139850500D01*
X91401908Y-139850500D01*
X91638097Y-139850500D01*
X91871368Y-139813553D01*
X92095992Y-139740568D01*
X92306433Y-139633343D01*
X92497510Y-139494517D01*
X92664517Y-139327510D01*
X92803343Y-139136433D01*
X92910568Y-138925992D01*
X92983553Y-138701368D01*
X92986549Y-138682452D01*
X93020500Y-138468097D01*
X93020500Y-138238549D01*
X106199500Y-138238549D01*
X106199500Y-138461450D01*
X106199501Y-138461466D01*
X106228594Y-138682452D01*
X106228595Y-138682457D01*
X106228596Y-138682463D01*
X106286290Y-138897780D01*
X106286293Y-138897790D01*
X106330518Y-139004558D01*
X106371595Y-139103726D01*
X106483052Y-139296774D01*
X106483057Y-139296780D01*
X106483058Y-139296782D01*
X106618751Y-139473622D01*
X106618757Y-139473629D01*
X106776370Y-139631242D01*
X106776377Y-139631248D01*
X106792140Y-139643343D01*
X106953226Y-139766948D01*
X107146274Y-139878405D01*
X107352219Y-139963710D01*
X107567537Y-140021404D01*
X107788543Y-140050500D01*
X107788550Y-140050500D01*
X108011450Y-140050500D01*
X108011457Y-140050500D01*
X108232463Y-140021404D01*
X108447781Y-139963710D01*
X108653726Y-139878405D01*
X108846774Y-139766948D01*
X109023624Y-139631247D01*
X109181247Y-139473624D01*
X109316948Y-139296774D01*
X109428405Y-139103726D01*
X109513710Y-138897781D01*
X109571404Y-138682463D01*
X109600500Y-138461457D01*
X109600500Y-138238549D01*
X111239500Y-138238549D01*
X111239500Y-138461450D01*
X111239501Y-138461466D01*
X111268594Y-138682452D01*
X111268595Y-138682457D01*
X111268596Y-138682463D01*
X111326290Y-138897780D01*
X111326293Y-138897790D01*
X111370518Y-139004558D01*
X111411595Y-139103726D01*
X111523052Y-139296774D01*
X111523057Y-139296780D01*
X111523058Y-139296782D01*
X111658751Y-139473622D01*
X111658757Y-139473629D01*
X111816370Y-139631242D01*
X111816377Y-139631248D01*
X111832140Y-139643343D01*
X111993226Y-139766948D01*
X112186274Y-139878405D01*
X112392219Y-139963710D01*
X112607537Y-140021404D01*
X112828543Y-140050500D01*
X112828550Y-140050500D01*
X113051450Y-140050500D01*
X113051457Y-140050500D01*
X113272463Y-140021404D01*
X113487781Y-139963710D01*
X113693726Y-139878405D01*
X113886774Y-139766948D01*
X114063624Y-139631247D01*
X114221247Y-139473624D01*
X114356948Y-139296774D01*
X114468405Y-139103726D01*
X114553710Y-138897781D01*
X114611404Y-138682463D01*
X114640500Y-138461457D01*
X114640500Y-138238543D01*
X114611404Y-138017537D01*
X114553710Y-137802219D01*
X114468405Y-137596274D01*
X114356948Y-137403226D01*
X114341035Y-137382488D01*
X114287052Y-137312135D01*
X115599500Y-137312135D01*
X115599500Y-139407870D01*
X115599501Y-139407876D01*
X115605908Y-139467483D01*
X115656202Y-139602328D01*
X115656206Y-139602335D01*
X115742452Y-139717544D01*
X115742455Y-139717547D01*
X115857664Y-139803793D01*
X115857671Y-139803797D01*
X115992517Y-139854091D01*
X115992516Y-139854091D01*
X115999444Y-139854835D01*
X116052127Y-139860500D01*
X118147872Y-139860499D01*
X118207483Y-139854091D01*
X118342331Y-139803796D01*
X118457546Y-139717546D01*
X118543796Y-139602331D01*
X118594091Y-139467483D01*
X118600500Y-139407873D01*
X118600499Y-138241902D01*
X119379500Y-138241902D01*
X119379500Y-138478097D01*
X119416446Y-138711368D01*
X119489433Y-138935996D01*
X119579990Y-139113722D01*
X119596657Y-139146433D01*
X119735483Y-139337510D01*
X119902490Y-139504517D01*
X120093567Y-139643343D01*
X120192991Y-139694002D01*
X120304003Y-139750566D01*
X120304005Y-139750566D01*
X120304008Y-139750568D01*
X120385194Y-139776947D01*
X120528631Y-139823553D01*
X120761903Y-139860500D01*
X120761908Y-139860500D01*
X120998097Y-139860500D01*
X121231368Y-139823553D01*
X121455992Y-139750568D01*
X121666433Y-139643343D01*
X121857510Y-139504517D01*
X122024517Y-139337510D01*
X122163343Y-139146433D01*
X122270568Y-138935992D01*
X122343553Y-138711368D01*
X122375694Y-138508438D01*
X122380500Y-138478097D01*
X122380500Y-138248549D01*
X135559500Y-138248549D01*
X135559500Y-138471450D01*
X135559501Y-138471466D01*
X135588594Y-138692452D01*
X135588595Y-138692457D01*
X135588596Y-138692463D01*
X135643611Y-138897781D01*
X135646290Y-138907780D01*
X135646293Y-138907790D01*
X135686376Y-139004558D01*
X135731595Y-139113726D01*
X135843052Y-139306774D01*
X135843057Y-139306780D01*
X135843058Y-139306782D01*
X135978751Y-139483622D01*
X135978757Y-139483629D01*
X136136370Y-139641242D01*
X136136377Y-139641248D01*
X136163892Y-139662361D01*
X136313226Y-139776948D01*
X136506274Y-139888405D01*
X136712219Y-139973710D01*
X136927537Y-140031404D01*
X137148543Y-140060500D01*
X137148550Y-140060500D01*
X137371450Y-140060500D01*
X137371457Y-140060500D01*
X137592463Y-140031404D01*
X137807781Y-139973710D01*
X138013726Y-139888405D01*
X138206774Y-139776948D01*
X138383624Y-139641247D01*
X138541247Y-139483624D01*
X138676948Y-139306774D01*
X138788405Y-139113726D01*
X138873710Y-138907781D01*
X138931404Y-138692463D01*
X138960500Y-138471457D01*
X138960500Y-138248549D01*
X140599500Y-138248549D01*
X140599500Y-138471450D01*
X140599501Y-138471466D01*
X140628594Y-138692452D01*
X140628595Y-138692457D01*
X140628596Y-138692463D01*
X140683611Y-138897781D01*
X140686290Y-138907780D01*
X140686293Y-138907790D01*
X140726376Y-139004558D01*
X140771595Y-139113726D01*
X140883052Y-139306774D01*
X140883057Y-139306780D01*
X140883058Y-139306782D01*
X141018751Y-139483622D01*
X141018757Y-139483629D01*
X141176370Y-139641242D01*
X141176377Y-139641248D01*
X141203892Y-139662361D01*
X141353226Y-139776948D01*
X141546274Y-139888405D01*
X141752219Y-139973710D01*
X141967537Y-140031404D01*
X142188543Y-140060500D01*
X142188550Y-140060500D01*
X142411450Y-140060500D01*
X142411457Y-140060500D01*
X142632463Y-140031404D01*
X142847781Y-139973710D01*
X143053726Y-139888405D01*
X143246774Y-139776948D01*
X143423624Y-139641247D01*
X143581247Y-139483624D01*
X143716948Y-139306774D01*
X143828405Y-139113726D01*
X143913710Y-138907781D01*
X143971404Y-138692463D01*
X144000500Y-138471457D01*
X144000500Y-138248543D01*
X143971404Y-138027537D01*
X143913710Y-137812219D01*
X143897880Y-137774003D01*
X143877288Y-137724288D01*
X143858937Y-137679984D01*
X147099500Y-137679984D01*
X147099500Y-140080015D01*
X147110000Y-140182795D01*
X147110001Y-140182797D01*
X147132912Y-140251938D01*
X147165186Y-140349335D01*
X147165187Y-140349337D01*
X147257286Y-140498651D01*
X147257289Y-140498655D01*
X147381344Y-140622710D01*
X147381348Y-140622713D01*
X147530662Y-140714812D01*
X147530664Y-140714813D01*
X147530666Y-140714814D01*
X147697203Y-140769999D01*
X147799992Y-140780500D01*
X147799997Y-140780500D01*
X150200003Y-140780500D01*
X150200008Y-140780500D01*
X150302797Y-140769999D01*
X150469334Y-140714814D01*
X150618655Y-140622711D01*
X150742711Y-140498655D01*
X150834814Y-140349334D01*
X150889999Y-140182797D01*
X150900500Y-140080008D01*
X150900500Y-138755441D01*
X152099500Y-138755441D01*
X152099500Y-139004558D01*
X152099501Y-139004575D01*
X152124118Y-139191565D01*
X152132018Y-139251565D01*
X152171219Y-139397864D01*
X152196498Y-139492207D01*
X152291830Y-139722361D01*
X152291837Y-139722376D01*
X152416400Y-139938126D01*
X152568060Y-140135774D01*
X152568066Y-140135781D01*
X152744218Y-140311933D01*
X152744225Y-140311939D01*
X152941873Y-140463599D01*
X153157623Y-140588162D01*
X153157638Y-140588169D01*
X153242938Y-140623501D01*
X153387793Y-140683502D01*
X153628435Y-140747982D01*
X153875435Y-140780500D01*
X153875442Y-140780500D01*
X154124558Y-140780500D01*
X154124565Y-140780500D01*
X154371565Y-140747982D01*
X154612207Y-140683502D01*
X154842373Y-140588164D01*
X155058127Y-140463599D01*
X155255776Y-140311938D01*
X155431938Y-140135776D01*
X155583599Y-139938127D01*
X155708164Y-139722373D01*
X155803502Y-139492207D01*
X155867982Y-139251565D01*
X155900500Y-139004565D01*
X155900500Y-138755435D01*
X155867982Y-138508435D01*
X155803502Y-138267793D01*
X155708164Y-138037627D01*
X155702344Y-138027547D01*
X155583599Y-137821873D01*
X155484191Y-137692321D01*
X155431939Y-137624225D01*
X155431933Y-137624218D01*
X155427699Y-137619984D01*
X159859500Y-137619984D01*
X159859500Y-140020015D01*
X159870000Y-140122795D01*
X159870001Y-140122797D01*
X159889882Y-140182795D01*
X159925186Y-140289335D01*
X159925187Y-140289337D01*
X160017286Y-140438651D01*
X160017289Y-140438655D01*
X160141344Y-140562710D01*
X160141348Y-140562713D01*
X160290662Y-140654812D01*
X160290664Y-140654813D01*
X160290666Y-140654814D01*
X160457203Y-140709999D01*
X160559992Y-140720500D01*
X160559997Y-140720500D01*
X162960003Y-140720500D01*
X162960008Y-140720500D01*
X163062797Y-140709999D01*
X163229334Y-140654814D01*
X163378655Y-140562711D01*
X163502711Y-140438655D01*
X163594814Y-140289334D01*
X163649999Y-140122797D01*
X163660500Y-140020008D01*
X163660500Y-138695441D01*
X164859500Y-138695441D01*
X164859500Y-138944558D01*
X164859501Y-138944575D01*
X164884759Y-139136433D01*
X164892018Y-139191565D01*
X164947296Y-139397864D01*
X164956498Y-139432207D01*
X165051830Y-139662361D01*
X165051837Y-139662376D01*
X165176400Y-139878126D01*
X165328060Y-140075774D01*
X165328066Y-140075781D01*
X165504218Y-140251933D01*
X165504225Y-140251939D01*
X165701873Y-140403599D01*
X165917623Y-140528162D01*
X165917638Y-140528169D01*
X166016825Y-140569253D01*
X166147793Y-140623502D01*
X166388435Y-140687982D01*
X166635435Y-140720500D01*
X166635442Y-140720500D01*
X166884558Y-140720500D01*
X166884565Y-140720500D01*
X167131565Y-140687982D01*
X167372207Y-140623502D01*
X167602373Y-140528164D01*
X167818127Y-140403599D01*
X168015776Y-140251938D01*
X168191938Y-140075776D01*
X168343599Y-139878127D01*
X168468164Y-139662373D01*
X168563502Y-139432207D01*
X168627982Y-139191565D01*
X168660500Y-138944565D01*
X168660500Y-138695435D01*
X168627982Y-138448435D01*
X168563502Y-138207793D01*
X168509253Y-138076825D01*
X168468169Y-137977638D01*
X168468162Y-137977623D01*
X168343599Y-137761873D01*
X168191939Y-137564225D01*
X168191933Y-137564218D01*
X168015781Y-137388066D01*
X168015774Y-137388060D01*
X167818126Y-137236400D01*
X167602376Y-137111837D01*
X167602361Y-137111830D01*
X167372207Y-137016498D01*
X167319787Y-137002452D01*
X167131565Y-136952018D01*
X167131564Y-136952017D01*
X167131561Y-136952017D01*
X166884575Y-136919501D01*
X166884570Y-136919500D01*
X166884565Y-136919500D01*
X166635435Y-136919500D01*
X166635429Y-136919500D01*
X166635424Y-136919501D01*
X166388438Y-136952017D01*
X166147792Y-137016498D01*
X165917638Y-137111830D01*
X165917623Y-137111837D01*
X165701873Y-137236400D01*
X165504225Y-137388060D01*
X165504218Y-137388066D01*
X165328066Y-137564218D01*
X165328060Y-137564225D01*
X165176400Y-137761873D01*
X165051837Y-137977623D01*
X165051830Y-137977638D01*
X164956498Y-138207792D01*
X164892017Y-138448438D01*
X164859501Y-138695424D01*
X164859500Y-138695441D01*
X163660500Y-138695441D01*
X163660500Y-137619992D01*
X163649999Y-137517203D01*
X163594814Y-137350666D01*
X163571043Y-137312128D01*
X163502713Y-137201348D01*
X163502710Y-137201344D01*
X163378655Y-137077289D01*
X163378651Y-137077286D01*
X163229337Y-136985187D01*
X163229335Y-136985186D01*
X163072022Y-136933058D01*
X163062797Y-136930001D01*
X163062795Y-136930000D01*
X162960015Y-136919500D01*
X162960008Y-136919500D01*
X160559992Y-136919500D01*
X160559984Y-136919500D01*
X160457204Y-136930000D01*
X160457203Y-136930001D01*
X160290664Y-136985186D01*
X160290662Y-136985187D01*
X160141348Y-137077286D01*
X160141344Y-137077289D01*
X160017289Y-137201344D01*
X160017286Y-137201348D01*
X159925187Y-137350662D01*
X159925186Y-137350664D01*
X159870001Y-137517203D01*
X159870000Y-137517204D01*
X159859500Y-137619984D01*
X155427699Y-137619984D01*
X155255781Y-137448066D01*
X155255774Y-137448060D01*
X155058126Y-137296400D01*
X154842376Y-137171837D01*
X154842361Y-137171830D01*
X154612207Y-137076498D01*
X154495349Y-137045186D01*
X154371565Y-137012018D01*
X154371564Y-137012017D01*
X154371561Y-137012017D01*
X154124575Y-136979501D01*
X154124570Y-136979500D01*
X154124565Y-136979500D01*
X153875435Y-136979500D01*
X153875429Y-136979500D01*
X153875424Y-136979501D01*
X153628438Y-137012017D01*
X153387792Y-137076498D01*
X153157638Y-137171830D01*
X153157623Y-137171837D01*
X152941873Y-137296400D01*
X152744225Y-137448060D01*
X152744218Y-137448066D01*
X152568066Y-137624218D01*
X152568060Y-137624225D01*
X152416400Y-137821873D01*
X152291837Y-138037623D01*
X152291830Y-138037638D01*
X152196498Y-138267792D01*
X152132017Y-138508438D01*
X152099501Y-138755424D01*
X152099500Y-138755441D01*
X150900500Y-138755441D01*
X150900500Y-137679992D01*
X150889999Y-137577203D01*
X150834814Y-137410666D01*
X150830219Y-137403217D01*
X150742713Y-137261348D01*
X150742710Y-137261344D01*
X150618655Y-137137289D01*
X150618651Y-137137286D01*
X150469337Y-137045187D01*
X150469335Y-137045186D01*
X150386065Y-137017593D01*
X150302797Y-136990001D01*
X150302795Y-136990000D01*
X150200015Y-136979500D01*
X150200008Y-136979500D01*
X147799992Y-136979500D01*
X147799984Y-136979500D01*
X147697204Y-136990000D01*
X147697203Y-136990001D01*
X147530664Y-137045186D01*
X147530662Y-137045187D01*
X147381348Y-137137286D01*
X147381344Y-137137289D01*
X147257289Y-137261344D01*
X147257286Y-137261348D01*
X147165187Y-137410662D01*
X147165186Y-137410664D01*
X147110001Y-137577203D01*
X147110000Y-137577204D01*
X147099500Y-137679984D01*
X143858937Y-137679984D01*
X143828405Y-137606274D01*
X143716948Y-137413226D01*
X143639373Y-137312128D01*
X143581248Y-137236377D01*
X143581242Y-137236370D01*
X143423629Y-137078757D01*
X143423622Y-137078751D01*
X143246782Y-136943058D01*
X143246780Y-136943057D01*
X143246774Y-136943052D01*
X143053726Y-136831595D01*
X143053722Y-136831593D01*
X142847790Y-136746293D01*
X142847783Y-136746291D01*
X142847781Y-136746290D01*
X142632463Y-136688596D01*
X142632457Y-136688595D01*
X142632452Y-136688594D01*
X142411466Y-136659501D01*
X142411463Y-136659500D01*
X142411457Y-136659500D01*
X142188543Y-136659500D01*
X142188537Y-136659500D01*
X142188533Y-136659501D01*
X141967547Y-136688594D01*
X141967540Y-136688595D01*
X141967537Y-136688596D01*
X141752219Y-136746290D01*
X141752209Y-136746293D01*
X141546277Y-136831593D01*
X141546273Y-136831595D01*
X141353226Y-136943052D01*
X141353217Y-136943058D01*
X141176377Y-137078751D01*
X141176370Y-137078757D01*
X141018757Y-137236370D01*
X141018751Y-137236377D01*
X140883058Y-137413217D01*
X140883052Y-137413226D01*
X140771595Y-137606273D01*
X140771593Y-137606277D01*
X140686293Y-137812209D01*
X140686290Y-137812219D01*
X140631276Y-138017537D01*
X140628597Y-138027534D01*
X140628594Y-138027547D01*
X140599501Y-138248533D01*
X140599500Y-138248549D01*
X138960500Y-138248549D01*
X138960500Y-138248543D01*
X138931404Y-138027537D01*
X138873710Y-137812219D01*
X138857880Y-137774003D01*
X138818937Y-137679984D01*
X138788405Y-137606274D01*
X138676948Y-137413226D01*
X138599373Y-137312128D01*
X138541248Y-137236377D01*
X138541242Y-137236370D01*
X138383629Y-137078757D01*
X138383622Y-137078751D01*
X138206782Y-136943058D01*
X138206780Y-136943057D01*
X138206774Y-136943052D01*
X138013726Y-136831595D01*
X138013722Y-136831593D01*
X137807790Y-136746293D01*
X137807783Y-136746291D01*
X137807781Y-136746290D01*
X137592463Y-136688596D01*
X137592457Y-136688595D01*
X137592452Y-136688594D01*
X137371466Y-136659501D01*
X137371463Y-136659500D01*
X137371457Y-136659500D01*
X137148543Y-136659500D01*
X137148537Y-136659500D01*
X137148533Y-136659501D01*
X136927547Y-136688594D01*
X136927540Y-136688595D01*
X136927537Y-136688596D01*
X136712219Y-136746290D01*
X136712209Y-136746293D01*
X136506277Y-136831593D01*
X136506273Y-136831595D01*
X136313226Y-136943052D01*
X136313217Y-136943058D01*
X136136377Y-137078751D01*
X136136370Y-137078757D01*
X135978757Y-137236370D01*
X135978751Y-137236377D01*
X135843058Y-137413217D01*
X135843052Y-137413226D01*
X135731595Y-137606273D01*
X135731593Y-137606277D01*
X135646293Y-137812209D01*
X135646290Y-137812219D01*
X135591276Y-138017537D01*
X135588597Y-138027534D01*
X135588594Y-138027547D01*
X135559501Y-138248533D01*
X135559500Y-138248549D01*
X122380500Y-138248549D01*
X122380500Y-138241902D01*
X122343553Y-138008631D01*
X122270566Y-137784003D01*
X122214002Y-137672991D01*
X122163343Y-137573567D01*
X122024517Y-137382490D01*
X121857510Y-137215483D01*
X121666433Y-137076657D01*
X121666121Y-137076498D01*
X121455996Y-136969433D01*
X121231368Y-136896446D01*
X120998097Y-136859500D01*
X120998092Y-136859500D01*
X120761908Y-136859500D01*
X120761903Y-136859500D01*
X120528631Y-136896446D01*
X120304003Y-136969433D01*
X120093566Y-137076657D01*
X120010114Y-137137289D01*
X119902490Y-137215483D01*
X119902488Y-137215485D01*
X119902487Y-137215485D01*
X119735485Y-137382487D01*
X119735485Y-137382488D01*
X119735483Y-137382490D01*
X119687842Y-137448062D01*
X119596657Y-137573566D01*
X119489433Y-137784003D01*
X119416446Y-138008631D01*
X119379500Y-138241902D01*
X118600499Y-138241902D01*
X118600499Y-137312128D01*
X118594091Y-137252517D01*
X118590361Y-137242517D01*
X118543797Y-137117671D01*
X118543793Y-137117664D01*
X118457547Y-137002455D01*
X118457544Y-137002452D01*
X118342335Y-136916206D01*
X118342328Y-136916202D01*
X118207482Y-136865908D01*
X118207483Y-136865908D01*
X118147883Y-136859501D01*
X118147881Y-136859500D01*
X118147873Y-136859500D01*
X118147864Y-136859500D01*
X116052129Y-136859500D01*
X116052123Y-136859501D01*
X115992516Y-136865908D01*
X115857671Y-136916202D01*
X115857664Y-136916206D01*
X115742455Y-137002452D01*
X115742452Y-137002455D01*
X115656206Y-137117664D01*
X115656202Y-137117671D01*
X115605908Y-137252517D01*
X115600575Y-137302127D01*
X115599501Y-137312123D01*
X115599500Y-137312135D01*
X114287052Y-137312135D01*
X114221248Y-137226377D01*
X114221242Y-137226370D01*
X114063629Y-137068757D01*
X114063622Y-137068751D01*
X113886782Y-136933058D01*
X113886780Y-136933057D01*
X113886774Y-136933052D01*
X113693726Y-136821595D01*
X113693722Y-136821593D01*
X113487790Y-136736293D01*
X113487783Y-136736291D01*
X113487781Y-136736290D01*
X113272463Y-136678596D01*
X113272457Y-136678595D01*
X113272452Y-136678594D01*
X113051466Y-136649501D01*
X113051463Y-136649500D01*
X113051457Y-136649500D01*
X112828543Y-136649500D01*
X112828537Y-136649500D01*
X112828533Y-136649501D01*
X112607547Y-136678594D01*
X112607540Y-136678595D01*
X112607537Y-136678596D01*
X112570213Y-136688597D01*
X112392219Y-136736290D01*
X112392209Y-136736293D01*
X112186277Y-136821593D01*
X112186273Y-136821595D01*
X111993226Y-136933052D01*
X111993217Y-136933058D01*
X111816377Y-137068751D01*
X111816370Y-137068757D01*
X111658757Y-137226370D01*
X111658751Y-137226377D01*
X111523058Y-137403217D01*
X111523052Y-137403226D01*
X111411595Y-137596273D01*
X111411593Y-137596277D01*
X111326293Y-137802209D01*
X111326290Y-137802219D01*
X111270983Y-138008631D01*
X111268597Y-138017534D01*
X111268594Y-138017547D01*
X111239501Y-138238533D01*
X111239500Y-138238549D01*
X109600500Y-138238549D01*
X109600500Y-138238543D01*
X109571404Y-138017537D01*
X109513710Y-137802219D01*
X109428405Y-137596274D01*
X109316948Y-137403226D01*
X109247047Y-137312129D01*
X109181248Y-137226377D01*
X109181242Y-137226370D01*
X109023629Y-137068757D01*
X109023622Y-137068751D01*
X108846782Y-136933058D01*
X108846780Y-136933057D01*
X108846774Y-136933052D01*
X108653726Y-136821595D01*
X108653722Y-136821593D01*
X108447790Y-136736293D01*
X108447783Y-136736291D01*
X108447781Y-136736290D01*
X108232463Y-136678596D01*
X108232457Y-136678595D01*
X108232452Y-136678594D01*
X108011466Y-136649501D01*
X108011463Y-136649500D01*
X108011457Y-136649500D01*
X107788543Y-136649500D01*
X107788537Y-136649500D01*
X107788533Y-136649501D01*
X107567547Y-136678594D01*
X107567540Y-136678595D01*
X107567537Y-136678596D01*
X107530213Y-136688597D01*
X107352219Y-136736290D01*
X107352209Y-136736293D01*
X107146277Y-136821593D01*
X107146273Y-136821595D01*
X106953226Y-136933052D01*
X106953217Y-136933058D01*
X106776377Y-137068751D01*
X106776370Y-137068757D01*
X106618757Y-137226370D01*
X106618751Y-137226377D01*
X106483058Y-137403217D01*
X106483052Y-137403226D01*
X106371595Y-137596273D01*
X106371593Y-137596277D01*
X106286293Y-137802209D01*
X106286290Y-137802219D01*
X106230983Y-138008631D01*
X106228597Y-138017534D01*
X106228594Y-138017547D01*
X106199501Y-138238533D01*
X106199500Y-138238549D01*
X93020500Y-138238549D01*
X93020500Y-138231902D01*
X92983553Y-137998631D01*
X92926120Y-137821873D01*
X92910568Y-137774008D01*
X92910566Y-137774005D01*
X92910566Y-137774003D01*
X92834246Y-137624218D01*
X92803343Y-137563567D01*
X92664517Y-137372490D01*
X92497510Y-137205483D01*
X92306433Y-137066657D01*
X92264294Y-137045186D01*
X92095996Y-136959433D01*
X91871368Y-136886446D01*
X91638097Y-136849500D01*
X91638092Y-136849500D01*
X91401908Y-136849500D01*
X91401903Y-136849500D01*
X91168631Y-136886446D01*
X90944003Y-136959433D01*
X90733566Y-137066657D01*
X90671382Y-137111837D01*
X90542490Y-137205483D01*
X90542488Y-137205485D01*
X90542487Y-137205485D01*
X90375485Y-137372487D01*
X90375485Y-137372488D01*
X90375483Y-137372490D01*
X90320578Y-137448060D01*
X90236657Y-137563566D01*
X90129433Y-137774003D01*
X90056446Y-137998631D01*
X90019500Y-138231902D01*
X89240499Y-138231902D01*
X89240499Y-137302128D01*
X89234091Y-137242517D01*
X89231798Y-137236370D01*
X89183797Y-137107671D01*
X89183793Y-137107664D01*
X89097547Y-136992455D01*
X89097544Y-136992452D01*
X88982335Y-136906206D01*
X88982328Y-136906202D01*
X88847482Y-136855908D01*
X88847483Y-136855908D01*
X88787883Y-136849501D01*
X88787881Y-136849500D01*
X88787873Y-136849500D01*
X88787864Y-136849500D01*
X86692129Y-136849500D01*
X86692123Y-136849501D01*
X86632516Y-136855908D01*
X86497671Y-136906202D01*
X86497664Y-136906206D01*
X86382455Y-136992452D01*
X86382452Y-136992455D01*
X86296206Y-137107664D01*
X86296202Y-137107671D01*
X86245908Y-137242517D01*
X86239501Y-137302116D01*
X86239501Y-137302123D01*
X86239500Y-137302135D01*
X77350000Y-137302135D01*
X77350000Y-134989759D01*
X77369685Y-134922720D01*
X77422489Y-134876965D01*
X77474181Y-134865759D01*
X101005072Y-134900954D01*
X101110707Y-134901113D01*
X101110707Y-134901112D01*
X101110709Y-134901113D01*
X101238251Y-134884956D01*
X101298812Y-134869265D01*
X101418167Y-134821449D01*
X101532589Y-134734218D01*
X101576624Y-134689404D01*
X101576623Y-134689403D01*
X101594462Y-134671249D01*
X101596090Y-134665519D01*
X101601144Y-134658107D01*
X101604713Y-134653257D01*
X101637530Y-134616725D01*
X101695653Y-134529735D01*
X101697323Y-134527468D01*
X101698791Y-134526350D01*
X101709494Y-134513308D01*
X101733309Y-134489493D01*
X101752094Y-134474077D01*
X101752102Y-134474072D01*
X101780109Y-134455358D01*
X101801545Y-134443899D01*
X101832671Y-134431007D01*
X101855918Y-134423955D01*
X101888970Y-134417381D01*
X101913154Y-134415000D01*
X101946842Y-134415000D01*
X101971027Y-134417381D01*
X102004079Y-134423956D01*
X102027325Y-134431006D01*
X102058458Y-134443902D01*
X102079881Y-134455353D01*
X102107903Y-134474076D01*
X102126686Y-134489493D01*
X102150503Y-134513310D01*
X102165923Y-134532099D01*
X102192329Y-134571617D01*
X102192337Y-134571645D01*
X102220855Y-134614309D01*
X102222516Y-134616794D01*
X102222952Y-134617354D01*
X102245403Y-134649925D01*
X102260658Y-134666484D01*
X102267305Y-134674328D01*
X102267362Y-134674402D01*
X102272007Y-134679201D01*
X102271973Y-134679233D01*
X102275456Y-134682546D01*
X102310683Y-134720784D01*
X102408533Y-134803124D01*
X102539322Y-134863090D01*
X102606332Y-134882875D01*
X102606333Y-134882875D01*
X102748718Y-134903564D01*
X170774408Y-135005312D01*
X170883536Y-134993560D01*
X170935821Y-134982084D01*
X171039838Y-134947054D01*
X171039839Y-134947054D01*
X171077272Y-134922720D01*
X171160473Y-134868634D01*
X171213037Y-134822604D01*
X171213038Y-134822603D01*
X171306690Y-134713374D01*
X171365775Y-134582185D01*
X171383121Y-134521946D01*
X171385108Y-134515047D01*
X171385108Y-134515046D01*
X171385109Y-134515043D01*
X171404840Y-134372524D01*
X171356140Y-125051273D01*
X171344065Y-124944053D01*
X171335983Y-124907753D01*
X171332629Y-124892687D01*
X171298067Y-124790457D01*
X171298066Y-124790453D01*
X171219727Y-124669769D01*
X171207186Y-124655428D01*
X171173734Y-124617176D01*
X171064578Y-124523456D01*
X171064576Y-124523455D01*
X171064575Y-124523454D01*
X170933428Y-124464278D01*
X170933423Y-124464276D01*
X170933415Y-124464273D01*
X170866303Y-124444898D01*
X170866305Y-124444898D01*
X170866299Y-124444897D01*
X170771290Y-124431677D01*
X170723788Y-124425068D01*
X170723786Y-124425068D01*
X121874493Y-124647170D01*
X121769336Y-124658718D01*
X121769333Y-124658719D01*
X121634527Y-124709001D01*
X121605859Y-124724656D01*
X121490683Y-124810877D01*
X121490678Y-124810881D01*
X121393806Y-124907753D01*
X121332482Y-124941237D01*
X121286727Y-124942544D01*
X121078097Y-124909500D01*
X121078092Y-124909500D01*
X120841908Y-124909500D01*
X120841903Y-124909500D01*
X120633269Y-124942544D01*
X120563975Y-124933589D01*
X120526190Y-124907752D01*
X120429318Y-124810880D01*
X120429308Y-124810871D01*
X120345187Y-124743080D01*
X120345185Y-124743079D01*
X120345183Y-124743077D01*
X120333674Y-124735680D01*
X120333566Y-124735610D01*
X120331729Y-124734434D01*
X120331724Y-124734432D01*
X120200574Y-124675257D01*
X120200573Y-124675256D01*
X120075472Y-124657849D01*
X120058066Y-124655428D01*
X120058065Y-124655428D01*
X96069022Y-124764499D01*
X96068458Y-124764500D01*
X96052438Y-124764500D01*
X96051510Y-124764497D01*
X85576072Y-124686112D01*
X85509182Y-124665926D01*
X85463823Y-124612781D01*
X85453000Y-124562115D01*
X85453000Y-124421049D01*
X85453000Y-124421043D01*
X85423904Y-124200037D01*
X85366210Y-123984719D01*
X85280905Y-123778774D01*
X85169448Y-123585726D01*
X85033747Y-123408876D01*
X85033742Y-123408870D01*
X84876129Y-123251257D01*
X84876122Y-123251251D01*
X84699282Y-123115558D01*
X84699280Y-123115557D01*
X84699274Y-123115552D01*
X84506226Y-123004095D01*
X84506222Y-123004093D01*
X84300290Y-122918793D01*
X84300283Y-122918791D01*
X84300281Y-122918790D01*
X84084963Y-122861096D01*
X84084957Y-122861095D01*
X84084952Y-122861094D01*
X83863966Y-122832001D01*
X83863963Y-122832000D01*
X83863957Y-122832000D01*
X83641043Y-122832000D01*
X83641037Y-122832000D01*
X83641033Y-122832001D01*
X83420047Y-122861094D01*
X83420040Y-122861095D01*
X83420037Y-122861096D01*
X83204719Y-122918790D01*
X83204709Y-122918793D01*
X82998777Y-123004093D01*
X82998773Y-123004095D01*
X82805726Y-123115552D01*
X82805717Y-123115558D01*
X82628877Y-123251251D01*
X82628870Y-123251257D01*
X82471257Y-123408870D01*
X82471251Y-123408877D01*
X82335558Y-123585717D01*
X82335552Y-123585726D01*
X82224095Y-123778773D01*
X82224093Y-123778777D01*
X82138793Y-123984709D01*
X82138790Y-123984719D01*
X82081097Y-124200034D01*
X82081094Y-124200047D01*
X82052001Y-124421033D01*
X82052000Y-124421049D01*
X82052000Y-124534810D01*
X82032315Y-124601849D01*
X81979511Y-124647604D01*
X81927072Y-124658807D01*
X77473072Y-124625480D01*
X77406182Y-124605294D01*
X77360823Y-124552149D01*
X77350000Y-124501483D01*
X77350000Y-121211947D01*
X119460000Y-121211947D01*
X119460000Y-121448052D01*
X119496934Y-121681247D01*
X119569897Y-121905802D01*
X119677087Y-122116174D01*
X119737338Y-122199104D01*
X119737340Y-122199105D01*
X120560000Y-121376445D01*
X120560000Y-121382661D01*
X120587259Y-121484394D01*
X120639920Y-121575606D01*
X120714394Y-121650080D01*
X120805606Y-121702741D01*
X120907339Y-121730000D01*
X120913554Y-121730000D01*
X120090893Y-122552658D01*
X120173828Y-122612914D01*
X120384197Y-122720102D01*
X120608752Y-122793065D01*
X120608751Y-122793065D01*
X120841948Y-122830000D01*
X121078052Y-122830000D01*
X121311247Y-122793065D01*
X121535802Y-122720102D01*
X121746163Y-122612918D01*
X121746169Y-122612914D01*
X121829104Y-122552658D01*
X121829105Y-122552658D01*
X121006446Y-121730000D01*
X121012661Y-121730000D01*
X121114394Y-121702741D01*
X121205606Y-121650080D01*
X121280080Y-121575606D01*
X121332741Y-121484394D01*
X121360000Y-121382661D01*
X121360000Y-121376447D01*
X122182658Y-122199105D01*
X122182658Y-122199104D01*
X122242914Y-122116169D01*
X122242918Y-122116163D01*
X122350102Y-121905802D01*
X122423065Y-121681247D01*
X122460000Y-121448052D01*
X122460000Y-121211947D01*
X122423065Y-120978752D01*
X122350102Y-120754197D01*
X122242914Y-120543828D01*
X122182658Y-120460894D01*
X122182658Y-120460893D01*
X121360000Y-121283552D01*
X121360000Y-121277339D01*
X121332741Y-121175606D01*
X121280080Y-121084394D01*
X121205606Y-121009920D01*
X121114394Y-120957259D01*
X121012661Y-120930000D01*
X121006447Y-120930000D01*
X121829105Y-120107340D01*
X121829104Y-120107338D01*
X121746174Y-120047087D01*
X121535802Y-119939897D01*
X121311247Y-119866934D01*
X121311248Y-119866934D01*
X121078052Y-119830000D01*
X120841948Y-119830000D01*
X120608752Y-119866934D01*
X120384197Y-119939897D01*
X120173830Y-120047084D01*
X120090894Y-120107340D01*
X120913554Y-120930000D01*
X120907339Y-120930000D01*
X120805606Y-120957259D01*
X120714394Y-121009920D01*
X120639920Y-121084394D01*
X120587259Y-121175606D01*
X120560000Y-121277339D01*
X120560000Y-121283554D01*
X119737340Y-120460894D01*
X119677084Y-120543830D01*
X119569897Y-120754197D01*
X119496934Y-120978752D01*
X119460000Y-121211947D01*
X77350000Y-121211947D01*
X77350000Y-120291153D01*
X104849500Y-120291153D01*
X104849500Y-120448846D01*
X104880261Y-120603489D01*
X104880264Y-120603501D01*
X104940602Y-120749172D01*
X104940609Y-120749185D01*
X105028210Y-120880288D01*
X105028213Y-120880292D01*
X105139707Y-120991786D01*
X105139711Y-120991789D01*
X105270814Y-121079390D01*
X105270827Y-121079397D01*
X105372926Y-121121687D01*
X105416503Y-121139737D01*
X105571153Y-121170499D01*
X105571156Y-121170500D01*
X105571158Y-121170500D01*
X105728844Y-121170500D01*
X105728845Y-121170499D01*
X105883497Y-121139737D01*
X106029179Y-121079394D01*
X106160289Y-120991789D01*
X106271789Y-120880289D01*
X106359394Y-120749179D01*
X106419737Y-120603497D01*
X106433079Y-120536416D01*
X106465463Y-120474509D01*
X106466958Y-120472986D01*
X107945550Y-118994395D01*
X108006871Y-118960912D01*
X108009038Y-118960461D01*
X108163497Y-118929737D01*
X108309179Y-118869394D01*
X108440289Y-118781789D01*
X108551789Y-118670289D01*
X108639394Y-118539179D01*
X108699737Y-118393497D01*
X108730500Y-118238842D01*
X108730500Y-118081158D01*
X108730500Y-118081155D01*
X108730499Y-118081153D01*
X108699737Y-117926503D01*
X108699694Y-117926399D01*
X108639397Y-117780827D01*
X108639390Y-117780814D01*
X108551789Y-117649711D01*
X108551786Y-117649707D01*
X108440292Y-117538213D01*
X108440288Y-117538210D01*
X108309185Y-117450609D01*
X108309172Y-117450602D01*
X108163501Y-117390264D01*
X108163489Y-117390261D01*
X108008845Y-117359500D01*
X108008842Y-117359500D01*
X107851158Y-117359500D01*
X107851155Y-117359500D01*
X107696510Y-117390261D01*
X107696498Y-117390264D01*
X107550827Y-117450602D01*
X107550814Y-117450609D01*
X107419711Y-117538210D01*
X107419707Y-117538213D01*
X107308213Y-117649707D01*
X107308210Y-117649711D01*
X107220609Y-117780814D01*
X107220604Y-117780824D01*
X107160305Y-117926399D01*
X107133425Y-117966627D01*
X105547068Y-119552984D01*
X105485745Y-119586469D01*
X105483579Y-119586920D01*
X105416508Y-119600261D01*
X105416498Y-119600264D01*
X105270827Y-119660602D01*
X105270814Y-119660609D01*
X105139711Y-119748210D01*
X105139707Y-119748213D01*
X105028213Y-119859707D01*
X105028210Y-119859711D01*
X104940609Y-119990814D01*
X104940602Y-119990827D01*
X104880264Y-120136498D01*
X104880261Y-120136510D01*
X104849500Y-120291153D01*
X77350000Y-120291153D01*
X77350000Y-115511153D01*
X99469500Y-115511153D01*
X99469500Y-115668846D01*
X99500261Y-115823489D01*
X99500264Y-115823501D01*
X99560602Y-115969172D01*
X99560609Y-115969185D01*
X99648210Y-116100288D01*
X99648213Y-116100292D01*
X99759707Y-116211786D01*
X99759711Y-116211789D01*
X99890814Y-116299390D01*
X99890827Y-116299397D01*
X100036498Y-116359735D01*
X100036503Y-116359737D01*
X100191153Y-116390499D01*
X100191156Y-116390500D01*
X100191158Y-116390500D01*
X100348844Y-116390500D01*
X100348845Y-116390499D01*
X100503497Y-116359737D01*
X100649179Y-116299394D01*
X100706044Y-116261397D01*
X100772721Y-116240520D01*
X100774935Y-116240500D01*
X109145065Y-116240500D01*
X109212104Y-116260185D01*
X109213909Y-116261366D01*
X109270821Y-116299394D01*
X109270823Y-116299395D01*
X109270827Y-116299397D01*
X109416498Y-116359735D01*
X109416503Y-116359737D01*
X109571153Y-116390499D01*
X109571156Y-116390500D01*
X109571158Y-116390500D01*
X109728844Y-116390500D01*
X109728845Y-116390499D01*
X109883497Y-116359737D01*
X110029179Y-116299394D01*
X110160289Y-116211789D01*
X110271789Y-116100289D01*
X110359394Y-115969179D01*
X110419737Y-115823497D01*
X110450500Y-115668842D01*
X110450500Y-115511158D01*
X110450500Y-115511155D01*
X110450499Y-115511153D01*
X110419738Y-115356510D01*
X110419737Y-115356503D01*
X110372428Y-115242287D01*
X110359397Y-115210827D01*
X110359390Y-115210814D01*
X110271789Y-115079711D01*
X110271786Y-115079707D01*
X110160292Y-114968213D01*
X110160288Y-114968210D01*
X110029185Y-114880609D01*
X110029172Y-114880602D01*
X109883501Y-114820264D01*
X109883489Y-114820261D01*
X109728845Y-114789500D01*
X109728842Y-114789500D01*
X109571158Y-114789500D01*
X109571155Y-114789500D01*
X109416510Y-114820261D01*
X109416498Y-114820264D01*
X109270827Y-114880602D01*
X109270820Y-114880606D01*
X109241928Y-114899911D01*
X109213955Y-114918602D01*
X109147279Y-114939480D01*
X109145065Y-114939500D01*
X100774935Y-114939500D01*
X100707896Y-114919815D01*
X100706090Y-114918633D01*
X100649179Y-114880606D01*
X100649172Y-114880602D01*
X100503501Y-114820264D01*
X100503489Y-114820261D01*
X100348845Y-114789500D01*
X100348842Y-114789500D01*
X100191158Y-114789500D01*
X100191155Y-114789500D01*
X100036510Y-114820261D01*
X100036498Y-114820264D01*
X99890827Y-114880602D01*
X99890814Y-114880609D01*
X99759711Y-114968210D01*
X99759707Y-114968213D01*
X99648213Y-115079707D01*
X99648210Y-115079711D01*
X99560609Y-115210814D01*
X99560602Y-115210827D01*
X99500264Y-115356498D01*
X99500261Y-115356510D01*
X99469500Y-115511153D01*
X77350000Y-115511153D01*
X77350000Y-108034402D01*
X82252000Y-108034402D01*
X82252000Y-108270597D01*
X82288946Y-108503868D01*
X82361933Y-108728496D01*
X82429729Y-108861552D01*
X82469157Y-108938933D01*
X82607983Y-109130010D01*
X82774990Y-109297017D01*
X82966067Y-109435843D01*
X83065491Y-109486502D01*
X83176503Y-109543066D01*
X83176505Y-109543066D01*
X83176508Y-109543068D01*
X83296912Y-109582189D01*
X83401131Y-109616053D01*
X83634403Y-109653000D01*
X83634408Y-109653000D01*
X83870597Y-109653000D01*
X84103868Y-109616053D01*
X84328492Y-109543068D01*
X84538933Y-109435843D01*
X84730010Y-109297017D01*
X84897017Y-109130010D01*
X85035843Y-108938933D01*
X85143068Y-108728492D01*
X85216053Y-108503868D01*
X85225780Y-108442452D01*
X85253000Y-108270597D01*
X85253000Y-108034402D01*
X85216053Y-107801131D01*
X85176879Y-107680566D01*
X85143068Y-107576508D01*
X85143066Y-107576505D01*
X85143066Y-107576503D01*
X85069164Y-107431463D01*
X85035843Y-107366067D01*
X84897017Y-107174990D01*
X84730010Y-107007983D01*
X84538933Y-106869157D01*
X84328496Y-106761933D01*
X84103868Y-106688946D01*
X83870597Y-106652000D01*
X83870592Y-106652000D01*
X83634408Y-106652000D01*
X83634403Y-106652000D01*
X83401131Y-106688946D01*
X83176503Y-106761933D01*
X82966066Y-106869157D01*
X82914963Y-106906286D01*
X82774990Y-107007983D01*
X82774988Y-107007985D01*
X82774987Y-107007985D01*
X82607985Y-107174987D01*
X82607985Y-107174988D01*
X82607983Y-107174990D01*
X82548362Y-107257050D01*
X82469157Y-107366066D01*
X82361933Y-107576503D01*
X82288946Y-107801131D01*
X82252000Y-108034402D01*
X77350000Y-108034402D01*
X77350000Y-103324635D01*
X82252000Y-103324635D01*
X82252000Y-105420370D01*
X82252001Y-105420376D01*
X82258408Y-105479983D01*
X82308702Y-105614828D01*
X82308706Y-105614835D01*
X82394952Y-105730044D01*
X82394955Y-105730047D01*
X82510164Y-105816293D01*
X82510171Y-105816297D01*
X82645017Y-105866591D01*
X82645016Y-105866591D01*
X82651944Y-105867335D01*
X82704627Y-105873000D01*
X84800372Y-105872999D01*
X84859983Y-105866591D01*
X84994831Y-105816296D01*
X85110046Y-105730046D01*
X85196296Y-105614831D01*
X85246591Y-105479983D01*
X85253000Y-105420373D01*
X85252999Y-103324628D01*
X85246591Y-103265017D01*
X85196296Y-103130169D01*
X85196295Y-103130168D01*
X85196293Y-103130164D01*
X85110047Y-103014955D01*
X85110044Y-103014952D01*
X84994835Y-102928706D01*
X84994828Y-102928702D01*
X84859982Y-102878408D01*
X84859983Y-102878408D01*
X84800383Y-102872001D01*
X84800381Y-102872000D01*
X84800373Y-102872000D01*
X84800364Y-102872000D01*
X82704629Y-102872000D01*
X82704623Y-102872001D01*
X82645016Y-102878408D01*
X82510171Y-102928702D01*
X82510164Y-102928706D01*
X82394955Y-103014952D01*
X82394952Y-103014955D01*
X82308706Y-103130164D01*
X82308702Y-103130171D01*
X82258408Y-103265017D01*
X82252001Y-103324616D01*
X82252001Y-103324623D01*
X82252000Y-103324635D01*
X77350000Y-103324635D01*
X77350000Y-87273713D01*
X88349500Y-87273713D01*
X88349500Y-87486286D01*
X88381810Y-87690288D01*
X88382754Y-87696243D01*
X88416731Y-87800814D01*
X88448444Y-87898414D01*
X88544951Y-88087820D01*
X88669890Y-88259786D01*
X88820213Y-88410109D01*
X88992182Y-88535050D01*
X89000946Y-88539516D01*
X89051742Y-88587491D01*
X89068536Y-88655312D01*
X89045998Y-88721447D01*
X89000946Y-88760484D01*
X88992182Y-88764949D01*
X88820213Y-88889890D01*
X88669890Y-89040213D01*
X88544951Y-89212179D01*
X88448444Y-89401585D01*
X88382753Y-89603760D01*
X88370549Y-89680814D01*
X88349500Y-89813713D01*
X88349500Y-90026287D01*
X88382754Y-90236243D01*
X88401358Y-90293501D01*
X88448444Y-90438414D01*
X88544951Y-90627820D01*
X88669890Y-90799786D01*
X88820213Y-90950109D01*
X88992179Y-91075048D01*
X88992181Y-91075049D01*
X88992184Y-91075051D01*
X89001493Y-91079794D01*
X89052290Y-91127766D01*
X89069087Y-91195587D01*
X89046552Y-91261722D01*
X89001505Y-91300760D01*
X88992446Y-91305376D01*
X88992440Y-91305380D01*
X88938282Y-91344727D01*
X88938282Y-91344728D01*
X89570591Y-91977037D01*
X89507007Y-91994075D01*
X89392993Y-92059901D01*
X89299901Y-92152993D01*
X89234075Y-92267007D01*
X89217037Y-92330591D01*
X88584728Y-91698282D01*
X88584727Y-91698282D01*
X88545380Y-91752439D01*
X88448904Y-91941782D01*
X88383242Y-92143869D01*
X88383242Y-92143872D01*
X88350000Y-92353753D01*
X88350000Y-92566246D01*
X88383242Y-92776127D01*
X88383242Y-92776130D01*
X88448904Y-92978217D01*
X88545375Y-93167550D01*
X88584728Y-93221716D01*
X89217037Y-92589408D01*
X89234075Y-92652993D01*
X89299901Y-92767007D01*
X89392993Y-92860099D01*
X89507007Y-92925925D01*
X89570590Y-92942962D01*
X88938282Y-93575269D01*
X88938282Y-93575270D01*
X88992452Y-93614626D01*
X88992451Y-93614626D01*
X89001495Y-93619234D01*
X89052292Y-93667208D01*
X89069087Y-93735029D01*
X89046550Y-93801164D01*
X89001499Y-93840202D01*
X88992182Y-93844949D01*
X88820213Y-93969890D01*
X88669890Y-94120213D01*
X88544951Y-94292179D01*
X88448444Y-94481585D01*
X88382753Y-94683760D01*
X88349500Y-94893713D01*
X88349500Y-95106286D01*
X88380761Y-95303663D01*
X88382754Y-95316243D01*
X88442298Y-95499501D01*
X88448444Y-95518414D01*
X88544951Y-95707820D01*
X88669890Y-95879786D01*
X88783430Y-95993326D01*
X88816915Y-96054649D01*
X88811931Y-96124341D01*
X88770059Y-96180274D01*
X88739083Y-96197189D01*
X88607669Y-96246203D01*
X88607664Y-96246206D01*
X88492455Y-96332452D01*
X88492452Y-96332455D01*
X88406206Y-96447664D01*
X88406202Y-96447671D01*
X88355908Y-96582517D01*
X88349501Y-96642116D01*
X88349501Y-96642123D01*
X88349500Y-96642135D01*
X88349500Y-98437870D01*
X88349501Y-98437876D01*
X88355908Y-98497483D01*
X88406202Y-98632328D01*
X88406206Y-98632335D01*
X88492452Y-98747544D01*
X88492455Y-98747547D01*
X88607664Y-98833793D01*
X88607671Y-98833797D01*
X88742517Y-98884091D01*
X88742516Y-98884091D01*
X88749444Y-98884835D01*
X88802127Y-98890500D01*
X90597872Y-98890499D01*
X90657483Y-98884091D01*
X90792331Y-98833796D01*
X90907546Y-98747546D01*
X90993796Y-98632331D01*
X91044091Y-98497483D01*
X91050500Y-98437873D01*
X91050500Y-98374500D01*
X91070185Y-98307461D01*
X91122989Y-98261706D01*
X91174500Y-98250500D01*
X102460577Y-98250500D01*
X102527616Y-98270185D01*
X102573371Y-98322989D01*
X102583315Y-98392147D01*
X102554290Y-98455703D01*
X102541119Y-98468781D01*
X102537639Y-98471753D01*
X102381756Y-98627636D01*
X102381752Y-98627641D01*
X102252187Y-98805974D01*
X102152104Y-99002393D01*
X102152103Y-99002396D01*
X102083985Y-99212047D01*
X102049500Y-99429778D01*
X102049500Y-99650221D01*
X102083985Y-99867954D01*
X102112370Y-99955316D01*
X102114365Y-100025157D01*
X102078284Y-100084990D01*
X102015583Y-100115817D01*
X101946168Y-100107852D01*
X101913482Y-100085842D01*
X101912962Y-100086490D01*
X101759295Y-99962969D01*
X101759292Y-99962967D01*
X101588697Y-99878360D01*
X101403892Y-99832400D01*
X101382506Y-99830950D01*
X101361123Y-99829500D01*
X101361120Y-99829500D01*
X100458877Y-99829500D01*
X100458874Y-99829501D01*
X100416113Y-99832399D01*
X100416112Y-99832399D01*
X100231303Y-99878360D01*
X100060707Y-99962967D01*
X100060704Y-99962969D01*
X99912278Y-100082277D01*
X99912277Y-100082278D01*
X99792969Y-100230704D01*
X99792967Y-100230707D01*
X99708360Y-100401302D01*
X99662400Y-100586107D01*
X99659500Y-100628879D01*
X99659500Y-103531122D01*
X99659501Y-103531125D01*
X99662399Y-103573886D01*
X99662399Y-103573887D01*
X99708360Y-103758696D01*
X99792967Y-103929292D01*
X99792969Y-103929295D01*
X99912277Y-104077721D01*
X99912278Y-104077722D01*
X100060704Y-104197030D01*
X100060707Y-104197032D01*
X100231302Y-104281639D01*
X100231303Y-104281639D01*
X100231307Y-104281641D01*
X100416111Y-104327600D01*
X100458877Y-104330500D01*
X101361122Y-104330499D01*
X101403889Y-104327600D01*
X101588693Y-104281641D01*
X101759296Y-104197030D01*
X101907722Y-104077722D01*
X102027030Y-103929296D01*
X102111641Y-103758693D01*
X102157600Y-103573889D01*
X102160500Y-103531123D01*
X102160499Y-100628878D01*
X102157600Y-100586111D01*
X102144079Y-100531742D01*
X102147001Y-100461935D01*
X102187201Y-100404789D01*
X102251915Y-100378447D01*
X102320597Y-100391275D01*
X102364731Y-100428930D01*
X102381756Y-100452363D01*
X102537636Y-100608243D01*
X102537641Y-100608247D01*
X102693192Y-100721260D01*
X102715978Y-100737815D01*
X102844375Y-100803237D01*
X102912393Y-100837895D01*
X102912396Y-100837896D01*
X103017221Y-100871955D01*
X103122049Y-100906015D01*
X103339778Y-100940500D01*
X103339779Y-100940500D01*
X103560221Y-100940500D01*
X103560222Y-100940500D01*
X103777951Y-100906015D01*
X103987606Y-100837895D01*
X104184022Y-100737815D01*
X104362365Y-100608242D01*
X104518242Y-100452365D01*
X104555338Y-100401307D01*
X104619682Y-100312745D01*
X104675011Y-100270079D01*
X104744625Y-100264100D01*
X104806420Y-100296705D01*
X104820318Y-100312745D01*
X104921752Y-100452358D01*
X104921756Y-100452363D01*
X105077636Y-100608243D01*
X105077641Y-100608247D01*
X105233192Y-100721260D01*
X105255978Y-100737815D01*
X105384375Y-100803237D01*
X105452393Y-100837895D01*
X105452396Y-100837896D01*
X105557221Y-100871955D01*
X105662049Y-100906015D01*
X105879778Y-100940500D01*
X105879779Y-100940500D01*
X106100221Y-100940500D01*
X106100222Y-100940500D01*
X106317951Y-100906015D01*
X106527606Y-100837895D01*
X106724022Y-100737815D01*
X106902365Y-100608242D01*
X107058242Y-100452365D01*
X107095338Y-100401307D01*
X107159682Y-100312745D01*
X107215011Y-100270079D01*
X107284625Y-100264100D01*
X107346420Y-100296705D01*
X107360318Y-100312745D01*
X107461752Y-100452358D01*
X107461756Y-100452363D01*
X107617636Y-100608243D01*
X107617641Y-100608247D01*
X107773192Y-100721260D01*
X107795978Y-100737815D01*
X107924375Y-100803237D01*
X107992393Y-100837895D01*
X107992396Y-100837896D01*
X108097221Y-100871955D01*
X108202049Y-100906015D01*
X108419778Y-100940500D01*
X108419779Y-100940500D01*
X108640221Y-100940500D01*
X108640222Y-100940500D01*
X108857951Y-100906015D01*
X109067606Y-100837895D01*
X109264022Y-100737815D01*
X109442365Y-100608242D01*
X109598242Y-100452365D01*
X109615266Y-100428933D01*
X109670594Y-100386267D01*
X109740207Y-100380286D01*
X109802003Y-100412890D01*
X109836362Y-100473728D01*
X109835920Y-100531742D01*
X109822401Y-100586104D01*
X109822401Y-100586107D01*
X109822400Y-100586111D01*
X109820899Y-100608247D01*
X109819500Y-100628879D01*
X109819500Y-103531122D01*
X109819501Y-103531125D01*
X109822399Y-103573886D01*
X109822399Y-103573887D01*
X109868360Y-103758696D01*
X109952967Y-103929292D01*
X109952969Y-103929294D01*
X109952970Y-103929296D01*
X110016084Y-104007813D01*
X110042743Y-104072397D01*
X110030253Y-104141141D01*
X109982579Y-104192219D01*
X109919437Y-104209500D01*
X106395929Y-104209500D01*
X106270261Y-104234497D01*
X106270255Y-104234499D01*
X106156451Y-104281639D01*
X106151871Y-104283535D01*
X106151865Y-104283538D01*
X106045332Y-104354721D01*
X106045325Y-104354727D01*
X102944726Y-107455326D01*
X102873534Y-107561874D01*
X102824499Y-107680255D01*
X102824497Y-107680261D01*
X102799500Y-107805928D01*
X102799500Y-108175500D01*
X102779815Y-108242539D01*
X102727011Y-108288294D01*
X102675501Y-108299500D01*
X102502130Y-108299500D01*
X102502123Y-108299501D01*
X102442516Y-108305908D01*
X102327832Y-108348683D01*
X102258140Y-108353667D01*
X102196817Y-108320182D01*
X102163333Y-108258858D01*
X102160499Y-108232501D01*
X102160499Y-105708877D01*
X102160498Y-105708876D01*
X102157600Y-105666111D01*
X102111641Y-105481307D01*
X102082123Y-105421789D01*
X102027032Y-105310707D01*
X102027030Y-105310704D01*
X101907722Y-105162278D01*
X101907721Y-105162277D01*
X101759295Y-105042969D01*
X101759292Y-105042967D01*
X101588697Y-104958360D01*
X101403892Y-104912400D01*
X101382506Y-104910950D01*
X101361123Y-104909500D01*
X101361120Y-104909500D01*
X100458877Y-104909500D01*
X100458874Y-104909501D01*
X100416113Y-104912399D01*
X100416112Y-104912399D01*
X100231303Y-104958360D01*
X100060707Y-105042967D01*
X100060704Y-105042969D01*
X99912278Y-105162277D01*
X99912277Y-105162278D01*
X99792969Y-105310704D01*
X99792967Y-105310707D01*
X99708360Y-105481302D01*
X99662400Y-105666107D01*
X99659500Y-105708879D01*
X99659500Y-108611122D01*
X99659501Y-108611125D01*
X99662399Y-108653886D01*
X99662399Y-108653887D01*
X99708360Y-108838696D01*
X99792967Y-109009292D01*
X99792969Y-109009295D01*
X99912277Y-109157721D01*
X99912278Y-109157722D01*
X100060704Y-109277030D01*
X100060707Y-109277032D01*
X100231302Y-109361639D01*
X100231303Y-109361639D01*
X100231307Y-109361641D01*
X100416111Y-109407600D01*
X100458877Y-109410500D01*
X101361122Y-109410499D01*
X101403889Y-109407600D01*
X101588693Y-109361641D01*
X101719002Y-109297014D01*
X101759291Y-109277033D01*
X101759292Y-109277031D01*
X101759296Y-109277030D01*
X101847816Y-109205874D01*
X101912396Y-109179218D01*
X101981140Y-109191708D01*
X102032219Y-109239381D01*
X102049500Y-109302524D01*
X102049500Y-110647870D01*
X102049501Y-110647876D01*
X102055908Y-110707483D01*
X102106202Y-110842328D01*
X102106206Y-110842335D01*
X102192452Y-110957544D01*
X102192455Y-110957547D01*
X102307664Y-111043793D01*
X102307671Y-111043797D01*
X102442517Y-111094091D01*
X102442516Y-111094091D01*
X102449444Y-111094835D01*
X102502127Y-111100500D01*
X104397872Y-111100499D01*
X104457483Y-111094091D01*
X104592331Y-111043796D01*
X104707546Y-110957546D01*
X104793796Y-110842331D01*
X104821429Y-110768243D01*
X104824327Y-110760474D01*
X104829883Y-110745575D01*
X104844091Y-110707483D01*
X104850500Y-110647873D01*
X104850499Y-110537304D01*
X104870183Y-110470268D01*
X104886818Y-110449626D01*
X105507037Y-109829408D01*
X105524075Y-109892993D01*
X105589901Y-110007007D01*
X105682993Y-110100099D01*
X105797007Y-110165925D01*
X105860590Y-110182962D01*
X105192485Y-110851065D01*
X105192485Y-110851066D01*
X105256243Y-110897388D01*
X105452589Y-110997432D01*
X105662164Y-111065526D01*
X105879819Y-111100000D01*
X106100181Y-111100000D01*
X106317835Y-111065526D01*
X106527410Y-110997432D01*
X106723760Y-110897386D01*
X106787513Y-110851066D01*
X106787514Y-110851066D01*
X106119409Y-110182962D01*
X106182993Y-110165925D01*
X106297007Y-110100099D01*
X106390099Y-110007007D01*
X106455925Y-109892993D01*
X106472962Y-109829410D01*
X107141066Y-110497514D01*
X107141066Y-110497513D01*
X107159372Y-110472319D01*
X107214701Y-110429653D01*
X107284315Y-110423674D01*
X107346110Y-110456279D01*
X107360008Y-110472319D01*
X107461752Y-110612358D01*
X107461756Y-110612363D01*
X107617636Y-110768243D01*
X107617641Y-110768247D01*
X107719606Y-110842328D01*
X107795978Y-110897815D01*
X107917827Y-110959901D01*
X107992393Y-110997895D01*
X107992396Y-110997896D01*
X108097221Y-111031955D01*
X108202049Y-111066015D01*
X108419778Y-111100500D01*
X108419779Y-111100500D01*
X108640221Y-111100500D01*
X108640222Y-111100500D01*
X108857951Y-111066015D01*
X109067606Y-110997895D01*
X109264022Y-110897815D01*
X109442365Y-110768242D01*
X109598242Y-110612365D01*
X109727815Y-110434022D01*
X109827895Y-110237606D01*
X109896015Y-110027951D01*
X109930500Y-109810222D01*
X109930500Y-109589778D01*
X109896015Y-109372049D01*
X109867629Y-109284684D01*
X109865634Y-109214843D01*
X109901715Y-109155010D01*
X109964416Y-109124182D01*
X110033830Y-109132147D01*
X110066517Y-109154157D01*
X110067038Y-109153510D01*
X110220704Y-109277030D01*
X110220707Y-109277032D01*
X110391302Y-109361639D01*
X110391303Y-109361639D01*
X110391307Y-109361641D01*
X110576111Y-109407600D01*
X110618877Y-109410500D01*
X111521122Y-109410499D01*
X111563889Y-109407600D01*
X111748693Y-109361641D01*
X111919296Y-109277030D01*
X112067722Y-109157722D01*
X112187030Y-109009296D01*
X112271641Y-108838693D01*
X112317600Y-108653889D01*
X112320500Y-108611123D01*
X112320499Y-105708878D01*
X112317600Y-105666111D01*
X112317599Y-105666106D01*
X112317181Y-105664424D01*
X112317213Y-105663648D01*
X112316753Y-105660715D01*
X112317340Y-105660622D01*
X112320105Y-105594616D01*
X112360307Y-105537470D01*
X112425022Y-105511131D01*
X112437516Y-105510500D01*
X113948827Y-105510500D01*
X113996278Y-105519938D01*
X114116503Y-105569737D01*
X114116506Y-105569737D01*
X114116511Y-105569739D01*
X114271153Y-105600499D01*
X114271156Y-105600500D01*
X114271158Y-105600500D01*
X114428844Y-105600500D01*
X114428845Y-105600499D01*
X114583497Y-105569737D01*
X114719667Y-105513334D01*
X114729172Y-105509397D01*
X114729172Y-105509396D01*
X114729179Y-105509394D01*
X114860289Y-105421789D01*
X114971789Y-105310289D01*
X115059394Y-105179179D01*
X115119737Y-105033497D01*
X115150500Y-104878842D01*
X115150500Y-104721158D01*
X115150500Y-104721155D01*
X115150499Y-104721153D01*
X115119738Y-104566510D01*
X115119737Y-104566503D01*
X115119735Y-104566498D01*
X115059397Y-104420827D01*
X115059390Y-104420814D01*
X114971789Y-104289711D01*
X114971786Y-104289707D01*
X114860292Y-104178213D01*
X114860288Y-104178210D01*
X114729185Y-104090609D01*
X114729172Y-104090602D01*
X114583501Y-104030264D01*
X114583489Y-104030261D01*
X114428845Y-103999500D01*
X114428842Y-103999500D01*
X114271158Y-103999500D01*
X114271155Y-103999500D01*
X114116510Y-104030261D01*
X114116498Y-104030264D01*
X113970827Y-104090602D01*
X113970814Y-104090609D01*
X113839710Y-104178210D01*
X113835882Y-104181353D01*
X113771572Y-104208666D01*
X113757217Y-104209500D01*
X112220563Y-104209500D01*
X112153524Y-104189815D01*
X112107769Y-104137011D01*
X112097825Y-104067853D01*
X112123916Y-104007813D01*
X112187030Y-103929296D01*
X112271641Y-103758693D01*
X112317600Y-103573889D01*
X112320500Y-103531123D01*
X112320499Y-100628878D01*
X112317600Y-100586111D01*
X112271641Y-100401307D01*
X112245308Y-100348211D01*
X112187032Y-100230707D01*
X112187030Y-100230704D01*
X112067722Y-100082278D01*
X112067721Y-100082277D01*
X111919295Y-99962969D01*
X111919292Y-99962967D01*
X111748697Y-99878360D01*
X111563892Y-99832400D01*
X111542506Y-99830950D01*
X111521123Y-99829500D01*
X111521120Y-99829500D01*
X110618877Y-99829500D01*
X110618874Y-99829501D01*
X110576113Y-99832399D01*
X110576112Y-99832399D01*
X110391303Y-99878360D01*
X110220707Y-99962967D01*
X110220704Y-99962969D01*
X110067038Y-100086490D01*
X110066041Y-100085250D01*
X110011902Y-100114803D01*
X109942211Y-100109809D01*
X109886283Y-100067930D01*
X109861875Y-100002463D01*
X109867629Y-99955315D01*
X109896015Y-99867951D01*
X109930500Y-99650222D01*
X109930500Y-99429778D01*
X109896015Y-99212049D01*
X109827895Y-99002394D01*
X109827895Y-99002393D01*
X109793237Y-98934375D01*
X109727815Y-98805978D01*
X109685362Y-98747546D01*
X109598247Y-98627641D01*
X109598243Y-98627636D01*
X109442360Y-98471753D01*
X109438881Y-98468781D01*
X109400694Y-98410270D01*
X109400203Y-98340402D01*
X109437564Y-98281360D01*
X109500914Y-98251889D01*
X109519423Y-98250500D01*
X112479192Y-98250500D01*
X112546231Y-98270185D01*
X112566873Y-98286819D01*
X121585325Y-107305272D01*
X121585328Y-107305275D01*
X121674302Y-107364725D01*
X121674301Y-107364725D01*
X121691871Y-107376464D01*
X121691872Y-107376464D01*
X121691873Y-107376465D01*
X121810256Y-107425501D01*
X121810260Y-107425501D01*
X121810261Y-107425502D01*
X121935928Y-107450500D01*
X121935931Y-107450500D01*
X125945501Y-107450500D01*
X126012540Y-107470185D01*
X126058295Y-107522989D01*
X126069501Y-107574500D01*
X126069501Y-107697876D01*
X126075908Y-107757483D01*
X126126202Y-107892328D01*
X126126206Y-107892335D01*
X126212452Y-108007544D01*
X126212455Y-108007547D01*
X126327664Y-108093793D01*
X126327671Y-108093797D01*
X126462517Y-108144091D01*
X126462516Y-108144091D01*
X126469444Y-108144835D01*
X126522127Y-108150500D01*
X128317872Y-108150499D01*
X128377483Y-108144091D01*
X128512331Y-108093796D01*
X128627546Y-108007546D01*
X128713796Y-107892331D01*
X128762810Y-107760916D01*
X128804681Y-107704984D01*
X128870145Y-107680566D01*
X128938418Y-107695417D01*
X128966673Y-107716569D01*
X129080213Y-107830109D01*
X129252179Y-107955048D01*
X129252181Y-107955049D01*
X129252184Y-107955051D01*
X129441588Y-108051557D01*
X129643757Y-108117246D01*
X129853713Y-108150500D01*
X129853714Y-108150500D01*
X130066286Y-108150500D01*
X130066287Y-108150500D01*
X130276243Y-108117246D01*
X130478412Y-108051557D01*
X130667816Y-107955051D01*
X130738769Y-107903501D01*
X130839786Y-107830109D01*
X130839788Y-107830106D01*
X130839792Y-107830104D01*
X130990104Y-107679792D01*
X130990106Y-107679788D01*
X130990109Y-107679786D01*
X131115048Y-107507820D01*
X131115047Y-107507820D01*
X131115051Y-107507816D01*
X131119514Y-107499054D01*
X131167488Y-107448259D01*
X131235308Y-107431463D01*
X131301444Y-107453999D01*
X131340486Y-107499056D01*
X131344951Y-107507820D01*
X131469890Y-107679786D01*
X131620213Y-107830109D01*
X131792179Y-107955048D01*
X131792181Y-107955049D01*
X131792184Y-107955051D01*
X131981588Y-108051557D01*
X132183757Y-108117246D01*
X132393713Y-108150500D01*
X132393714Y-108150500D01*
X132606286Y-108150500D01*
X132606287Y-108150500D01*
X132816243Y-108117246D01*
X133018412Y-108051557D01*
X133207816Y-107955051D01*
X133278769Y-107903501D01*
X133379786Y-107830109D01*
X133379788Y-107830106D01*
X133379792Y-107830104D01*
X133530104Y-107679792D01*
X133594504Y-107591153D01*
X173559500Y-107591153D01*
X173559500Y-107748846D01*
X173590261Y-107903489D01*
X173590264Y-107903501D01*
X173650603Y-108049174D01*
X173650604Y-108049175D01*
X173650606Y-108049179D01*
X173676425Y-108087819D01*
X173678602Y-108091077D01*
X173699480Y-108157754D01*
X173699500Y-108159968D01*
X173699500Y-116164071D01*
X173719023Y-116262215D01*
X173719023Y-116262216D01*
X173724497Y-116289737D01*
X173724498Y-116289741D01*
X173724499Y-116289744D01*
X173773535Y-116408127D01*
X173844723Y-116514669D01*
X173844726Y-116514673D01*
X177505327Y-120175274D01*
X177505330Y-120175276D01*
X177553978Y-120207781D01*
X177611873Y-120246465D01*
X177730256Y-120295501D01*
X177730260Y-120295501D01*
X177730261Y-120295502D01*
X177855928Y-120320500D01*
X177855931Y-120320500D01*
X179826598Y-120320500D01*
X179893637Y-120340185D01*
X179926914Y-120371613D01*
X179983025Y-120448842D01*
X180032703Y-120517219D01*
X180177455Y-120661971D01*
X180304396Y-120754197D01*
X180343059Y-120782287D01*
X180525450Y-120875220D01*
X180594236Y-120897570D01*
X180651910Y-120937006D01*
X180679109Y-121001365D01*
X180667195Y-121070211D01*
X180619951Y-121121687D01*
X180555917Y-121139500D01*
X180176799Y-121139500D01*
X180176792Y-121139501D01*
X180117185Y-121145908D01*
X179982340Y-121196202D01*
X179982333Y-121196206D01*
X179867124Y-121282452D01*
X179867121Y-121282455D01*
X179780875Y-121397664D01*
X179780871Y-121397671D01*
X179730577Y-121532517D01*
X179728244Y-121554223D01*
X179724170Y-121592123D01*
X179724169Y-121592135D01*
X179724169Y-123287870D01*
X179724170Y-123287876D01*
X179730577Y-123347483D01*
X179780871Y-123482328D01*
X179780875Y-123482335D01*
X179867121Y-123597544D01*
X179867124Y-123597547D01*
X179982333Y-123683793D01*
X179982340Y-123683797D01*
X180117186Y-123734091D01*
X180117185Y-123734091D01*
X180124113Y-123734835D01*
X180176796Y-123740500D01*
X181872541Y-123740499D01*
X181932152Y-123734091D01*
X182067000Y-123683796D01*
X182182215Y-123597546D01*
X182268465Y-123482331D01*
X182318760Y-123347483D01*
X182325169Y-123287873D01*
X182325168Y-121592128D01*
X182318760Y-121532517D01*
X182300811Y-121484394D01*
X182268466Y-121397671D01*
X182268462Y-121397664D01*
X182182216Y-121282455D01*
X182182213Y-121282452D01*
X182067004Y-121196206D01*
X182066997Y-121196202D01*
X181932151Y-121145908D01*
X181932152Y-121145908D01*
X181872552Y-121139501D01*
X181872550Y-121139500D01*
X181872542Y-121139500D01*
X181872534Y-121139500D01*
X181493422Y-121139500D01*
X181426383Y-121119815D01*
X181380628Y-121067011D01*
X181370684Y-120997853D01*
X181399709Y-120934297D01*
X181455103Y-120897569D01*
X181523888Y-120875220D01*
X181706279Y-120782287D01*
X181799259Y-120714732D01*
X181871882Y-120661971D01*
X181871884Y-120661968D01*
X181871888Y-120661966D01*
X182016635Y-120517219D01*
X182016637Y-120517215D01*
X182016640Y-120517213D01*
X182069401Y-120444590D01*
X182136956Y-120351610D01*
X182229889Y-120169219D01*
X182293146Y-119974534D01*
X182325169Y-119772352D01*
X182325169Y-119567648D01*
X182324561Y-119563812D01*
X182293146Y-119365465D01*
X182229887Y-119170776D01*
X182148502Y-119011051D01*
X182136956Y-118988390D01*
X182116665Y-118960461D01*
X182016640Y-118822786D01*
X181871882Y-118678028D01*
X181706282Y-118557715D01*
X181706281Y-118557714D01*
X181706279Y-118557713D01*
X181649322Y-118528691D01*
X181523892Y-118464781D01*
X181333537Y-118402931D01*
X181275862Y-118363493D01*
X181248664Y-118299134D01*
X181260579Y-118230288D01*
X181307823Y-118178812D01*
X181333537Y-118167069D01*
X181376177Y-118153213D01*
X181523888Y-118105220D01*
X181706279Y-118012287D01*
X181824352Y-117926503D01*
X181871882Y-117891971D01*
X181871884Y-117891968D01*
X181871888Y-117891966D01*
X182016635Y-117747219D01*
X182016637Y-117747215D01*
X182016640Y-117747213D01*
X182087481Y-117649707D01*
X182136956Y-117581610D01*
X182229889Y-117399219D01*
X182293146Y-117204534D01*
X182325169Y-117002352D01*
X182325169Y-116797648D01*
X182324561Y-116793812D01*
X182293146Y-116595465D01*
X182229887Y-116400776D01*
X182178231Y-116299397D01*
X182136956Y-116218390D01*
X182121132Y-116196610D01*
X182016640Y-116052786D01*
X181871882Y-115908028D01*
X181706282Y-115787715D01*
X181706281Y-115787714D01*
X181706279Y-115787713D01*
X181649322Y-115758691D01*
X181523892Y-115694781D01*
X181333537Y-115632931D01*
X181275862Y-115593493D01*
X181248664Y-115529134D01*
X181260579Y-115460288D01*
X181307823Y-115408812D01*
X181333537Y-115397069D01*
X181376177Y-115383213D01*
X181523888Y-115335220D01*
X181706279Y-115242287D01*
X181799259Y-115174732D01*
X181871882Y-115121971D01*
X181871884Y-115121968D01*
X181871888Y-115121966D01*
X182016635Y-114977219D01*
X182016637Y-114977215D01*
X182016640Y-114977213D01*
X182069401Y-114904590D01*
X182136956Y-114811610D01*
X182229889Y-114629219D01*
X182293146Y-114434534D01*
X182325169Y-114232352D01*
X182325169Y-114027648D01*
X182324561Y-114023812D01*
X182293146Y-113825465D01*
X182229887Y-113630776D01*
X182196172Y-113564607D01*
X182136956Y-113448390D01*
X182121132Y-113426610D01*
X182016640Y-113282786D01*
X181871882Y-113138028D01*
X181706282Y-113017715D01*
X181706281Y-113017714D01*
X181706279Y-113017713D01*
X181649322Y-112988691D01*
X181523892Y-112924781D01*
X181332729Y-112862668D01*
X181275054Y-112823230D01*
X181247856Y-112758871D01*
X181259771Y-112690025D01*
X181303253Y-112642648D01*
X182564169Y-112642648D01*
X182564169Y-112847351D01*
X182596191Y-113049534D01*
X182659450Y-113244223D01*
X182752384Y-113426613D01*
X182872697Y-113592213D01*
X183017455Y-113736971D01*
X183172418Y-113849556D01*
X183183059Y-113857287D01*
X183299276Y-113916503D01*
X183365445Y-113950218D01*
X183365447Y-113950218D01*
X183365450Y-113950220D01*
X183444625Y-113975945D01*
X183555800Y-114012069D01*
X183613475Y-114051507D01*
X183640673Y-114115866D01*
X183628758Y-114184712D01*
X183581514Y-114236188D01*
X183555800Y-114247931D01*
X183365445Y-114309781D01*
X183183055Y-114402715D01*
X183017455Y-114523028D01*
X182872697Y-114667786D01*
X182752384Y-114833386D01*
X182659450Y-115015776D01*
X182596191Y-115210465D01*
X182564169Y-115412648D01*
X182564169Y-115617351D01*
X182596191Y-115819534D01*
X182659450Y-116014223D01*
X182752384Y-116196613D01*
X182872697Y-116362213D01*
X183017455Y-116506971D01*
X183172418Y-116619556D01*
X183183059Y-116627287D01*
X183299276Y-116686503D01*
X183365445Y-116720218D01*
X183365447Y-116720218D01*
X183365450Y-116720220D01*
X183444625Y-116745945D01*
X183555800Y-116782069D01*
X183613475Y-116821507D01*
X183640673Y-116885866D01*
X183628758Y-116954712D01*
X183581514Y-117006188D01*
X183555800Y-117017931D01*
X183365445Y-117079781D01*
X183183055Y-117172715D01*
X183017455Y-117293028D01*
X182872697Y-117437786D01*
X182752384Y-117603386D01*
X182659450Y-117785776D01*
X182596191Y-117980465D01*
X182564169Y-118182648D01*
X182564169Y-118387351D01*
X182596191Y-118589534D01*
X182659450Y-118784223D01*
X182752384Y-118966613D01*
X182872697Y-119132213D01*
X183017455Y-119276971D01*
X183172418Y-119389556D01*
X183183059Y-119397287D01*
X183299276Y-119456503D01*
X183365445Y-119490218D01*
X183365447Y-119490218D01*
X183365450Y-119490220D01*
X183444625Y-119515945D01*
X183555800Y-119552069D01*
X183613475Y-119591507D01*
X183640673Y-119655866D01*
X183628758Y-119724712D01*
X183581514Y-119776188D01*
X183555800Y-119787931D01*
X183365445Y-119849781D01*
X183183055Y-119942715D01*
X183017455Y-120063028D01*
X183017451Y-120063032D01*
X182872703Y-120207781D01*
X182872697Y-120207786D01*
X182752384Y-120373386D01*
X182659450Y-120555776D01*
X182596191Y-120750465D01*
X182564169Y-120952648D01*
X182564169Y-121157352D01*
X182567060Y-121175606D01*
X182596191Y-121359534D01*
X182659450Y-121554223D01*
X182752384Y-121736613D01*
X182872697Y-121902213D01*
X183017455Y-122046971D01*
X183112707Y-122116174D01*
X183183059Y-122167287D01*
X183299276Y-122226503D01*
X183365445Y-122260218D01*
X183365447Y-122260218D01*
X183365450Y-122260220D01*
X183469806Y-122294127D01*
X183560134Y-122323477D01*
X183661226Y-122339488D01*
X183762317Y-122355500D01*
X183762318Y-122355500D01*
X183967020Y-122355500D01*
X183967021Y-122355500D01*
X184169203Y-122323477D01*
X184363888Y-122260220D01*
X184546279Y-122167287D01*
X184639259Y-122099732D01*
X184711882Y-122046971D01*
X184711884Y-122046968D01*
X184711888Y-122046966D01*
X184856635Y-121902219D01*
X184856637Y-121902215D01*
X184856640Y-121902213D01*
X184909401Y-121829590D01*
X184976956Y-121736610D01*
X185069889Y-121554219D01*
X185133146Y-121359534D01*
X185165169Y-121157352D01*
X185165169Y-120952648D01*
X185133146Y-120750465D01*
X185069887Y-120555776D01*
X185027674Y-120472929D01*
X184976956Y-120373390D01*
X184961132Y-120351610D01*
X184856640Y-120207786D01*
X184711882Y-120063028D01*
X184546282Y-119942715D01*
X184546281Y-119942714D01*
X184546279Y-119942713D01*
X184489322Y-119913691D01*
X184363892Y-119849781D01*
X184173537Y-119787931D01*
X184115862Y-119748493D01*
X184088664Y-119684134D01*
X184100579Y-119615288D01*
X184147823Y-119563812D01*
X184173537Y-119552069D01*
X184216177Y-119538213D01*
X184363888Y-119490220D01*
X184546279Y-119397287D01*
X184639259Y-119329732D01*
X184711882Y-119276971D01*
X184711884Y-119276968D01*
X184711888Y-119276966D01*
X184856635Y-119132219D01*
X184856637Y-119132215D01*
X184856640Y-119132213D01*
X184952831Y-118999815D01*
X184976956Y-118966610D01*
X185069889Y-118784219D01*
X185133146Y-118589534D01*
X185165169Y-118387352D01*
X185165169Y-118182648D01*
X185164561Y-118178812D01*
X185133146Y-117980465D01*
X185069887Y-117785776D01*
X185036172Y-117719607D01*
X184976956Y-117603390D01*
X184929603Y-117538213D01*
X184856640Y-117437786D01*
X184711882Y-117293028D01*
X184546282Y-117172715D01*
X184546281Y-117172714D01*
X184546279Y-117172713D01*
X184489322Y-117143691D01*
X184363892Y-117079781D01*
X184173537Y-117017931D01*
X184115862Y-116978493D01*
X184088664Y-116914134D01*
X184100579Y-116845288D01*
X184147823Y-116793812D01*
X184173537Y-116782069D01*
X184216177Y-116768213D01*
X184363888Y-116720220D01*
X184546279Y-116627287D01*
X184639259Y-116559732D01*
X184711882Y-116506971D01*
X184711884Y-116506968D01*
X184711888Y-116506966D01*
X184856635Y-116362219D01*
X184856637Y-116362215D01*
X184856640Y-116362213D01*
X184929291Y-116262216D01*
X184976956Y-116196610D01*
X185069889Y-116014219D01*
X185133146Y-115819534D01*
X185165169Y-115617352D01*
X185165169Y-115412648D01*
X185164561Y-115408812D01*
X185133146Y-115210465D01*
X185069887Y-115015776D01*
X185020992Y-114919815D01*
X184976956Y-114833390D01*
X184969225Y-114822749D01*
X184856640Y-114667786D01*
X184711882Y-114523028D01*
X184546282Y-114402715D01*
X184546281Y-114402714D01*
X184546279Y-114402713D01*
X184489322Y-114373691D01*
X184363892Y-114309781D01*
X184173537Y-114247931D01*
X184115862Y-114208493D01*
X184088664Y-114144134D01*
X184100579Y-114075288D01*
X184147823Y-114023812D01*
X184173537Y-114012069D01*
X184216177Y-113998213D01*
X184363888Y-113950220D01*
X184546279Y-113857287D01*
X184639259Y-113789732D01*
X184711882Y-113736971D01*
X184711884Y-113736968D01*
X184711888Y-113736966D01*
X184856635Y-113592219D01*
X184856637Y-113592215D01*
X184856640Y-113592213D01*
X184909401Y-113519590D01*
X184976956Y-113426610D01*
X185069889Y-113244219D01*
X185133146Y-113049534D01*
X185165169Y-112847352D01*
X185165169Y-112642648D01*
X185133146Y-112440466D01*
X185069889Y-112245781D01*
X185069887Y-112245778D01*
X185069887Y-112245776D01*
X185036172Y-112179607D01*
X184976956Y-112063390D01*
X184960943Y-112041350D01*
X184856640Y-111897786D01*
X184711882Y-111753028D01*
X184546282Y-111632715D01*
X184546281Y-111632714D01*
X184546279Y-111632713D01*
X184489322Y-111603691D01*
X184363892Y-111539781D01*
X184169203Y-111476522D01*
X183994664Y-111448878D01*
X183967021Y-111444500D01*
X183762317Y-111444500D01*
X183737998Y-111448351D01*
X183560134Y-111476522D01*
X183365445Y-111539781D01*
X183183055Y-111632715D01*
X183017455Y-111753028D01*
X182872697Y-111897786D01*
X182752384Y-112063386D01*
X182659450Y-112245776D01*
X182596191Y-112440465D01*
X182564169Y-112642648D01*
X181303253Y-112642648D01*
X181307015Y-112638549D01*
X181332730Y-112626806D01*
X181523698Y-112564755D01*
X181597228Y-112527291D01*
X181706018Y-112471859D01*
X181750590Y-112439474D01*
X181154078Y-111842962D01*
X181217662Y-111825925D01*
X181331676Y-111760099D01*
X181424768Y-111667007D01*
X181490594Y-111552993D01*
X181507631Y-111489409D01*
X182104143Y-112085921D01*
X182136528Y-112041349D01*
X182229424Y-111859031D01*
X182292659Y-111664417D01*
X182324669Y-111462317D01*
X182324669Y-111257682D01*
X182292659Y-111055582D01*
X182229424Y-110860968D01*
X182136528Y-110678650D01*
X182104143Y-110634077D01*
X182104143Y-110634076D01*
X181507631Y-111230589D01*
X181490594Y-111167007D01*
X181424768Y-111052993D01*
X181331676Y-110959901D01*
X181217662Y-110894075D01*
X181154077Y-110877037D01*
X181750591Y-110280524D01*
X181750590Y-110280523D01*
X181706028Y-110248147D01*
X181706019Y-110248141D01*
X181523700Y-110155244D01*
X181329086Y-110092009D01*
X181126986Y-110060000D01*
X180922352Y-110060000D01*
X180720251Y-110092009D01*
X180525637Y-110155244D01*
X180343313Y-110248143D01*
X180298746Y-110280523D01*
X180298746Y-110280524D01*
X180895260Y-110877037D01*
X180831676Y-110894075D01*
X180717662Y-110959901D01*
X180624570Y-111052993D01*
X180558744Y-111167007D01*
X180541706Y-111230590D01*
X179945193Y-110634077D01*
X179945192Y-110634077D01*
X179912812Y-110678644D01*
X179819913Y-110860968D01*
X179756678Y-111055582D01*
X179724669Y-111257682D01*
X179724669Y-111462317D01*
X179756678Y-111664417D01*
X179819913Y-111859031D01*
X179912810Y-112041350D01*
X179912816Y-112041359D01*
X179945192Y-112085921D01*
X179945193Y-112085922D01*
X180541706Y-111489409D01*
X180558744Y-111552993D01*
X180624570Y-111667007D01*
X180717662Y-111760099D01*
X180831676Y-111825925D01*
X180895259Y-111842962D01*
X180298745Y-112439474D01*
X180343319Y-112471859D01*
X180525637Y-112564755D01*
X180716608Y-112626806D01*
X180774283Y-112666244D01*
X180801481Y-112730603D01*
X180789566Y-112799449D01*
X180742322Y-112850925D01*
X180716608Y-112862668D01*
X180525445Y-112924781D01*
X180343055Y-113017715D01*
X180177455Y-113138028D01*
X180032697Y-113282786D01*
X179912384Y-113448386D01*
X179819450Y-113630776D01*
X179756191Y-113825465D01*
X179724169Y-114027648D01*
X179724169Y-114232351D01*
X179756191Y-114434534D01*
X179819450Y-114629223D01*
X179883360Y-114754653D01*
X179901116Y-114789500D01*
X179912384Y-114811613D01*
X180032697Y-114977213D01*
X180177455Y-115121971D01*
X180332418Y-115234556D01*
X180343059Y-115242287D01*
X180459276Y-115301503D01*
X180525445Y-115335218D01*
X180525447Y-115335218D01*
X180525450Y-115335220D01*
X180590974Y-115356510D01*
X180715800Y-115397069D01*
X180773475Y-115436507D01*
X180800673Y-115500866D01*
X180788758Y-115569712D01*
X180741514Y-115621188D01*
X180715800Y-115632931D01*
X180525445Y-115694781D01*
X180343055Y-115787715D01*
X180177455Y-115908028D01*
X180032697Y-116052786D01*
X179912384Y-116218386D01*
X179819450Y-116400776D01*
X179756191Y-116595465D01*
X179724169Y-116797648D01*
X179724169Y-117002351D01*
X179756191Y-117204534D01*
X179819450Y-117399223D01*
X179912384Y-117581613D01*
X180032697Y-117747213D01*
X180177455Y-117891971D01*
X180332418Y-118004556D01*
X180343059Y-118012287D01*
X180459276Y-118071503D01*
X180525445Y-118105218D01*
X180525447Y-118105218D01*
X180525450Y-118105220D01*
X180604625Y-118130945D01*
X180715800Y-118167069D01*
X180773475Y-118206507D01*
X180800673Y-118270866D01*
X180788758Y-118339712D01*
X180741514Y-118391188D01*
X180715800Y-118402931D01*
X180525445Y-118464781D01*
X180343055Y-118557715D01*
X180177455Y-118678028D01*
X180032703Y-118822780D01*
X179976266Y-118900460D01*
X179926915Y-118968386D01*
X179871587Y-119011051D01*
X179826598Y-119019500D01*
X178240808Y-119019500D01*
X178173769Y-118999815D01*
X178153127Y-118983181D01*
X175036819Y-115866873D01*
X175003334Y-115805550D01*
X175000500Y-115779192D01*
X175000500Y-108216553D01*
X175002883Y-108192362D01*
X175010432Y-108154411D01*
X175028948Y-108109710D01*
X175039582Y-108093796D01*
X175069394Y-108049179D01*
X175129737Y-107903497D01*
X175160500Y-107748842D01*
X175160500Y-107591158D01*
X175160500Y-107591155D01*
X175160499Y-107591153D01*
X175143923Y-107507820D01*
X175129737Y-107436503D01*
X175125180Y-107425501D01*
X175069397Y-107290827D01*
X175069390Y-107290814D01*
X174981789Y-107159711D01*
X174981786Y-107159707D01*
X174870292Y-107048213D01*
X174870288Y-107048210D01*
X174739185Y-106960609D01*
X174739172Y-106960602D01*
X174593501Y-106900264D01*
X174593489Y-106900261D01*
X174438845Y-106869500D01*
X174438842Y-106869500D01*
X174281158Y-106869500D01*
X174281155Y-106869500D01*
X174126510Y-106900261D01*
X174126498Y-106900264D01*
X173980827Y-106960602D01*
X173980814Y-106960609D01*
X173849711Y-107048210D01*
X173849707Y-107048213D01*
X173738213Y-107159707D01*
X173738210Y-107159711D01*
X173650609Y-107290814D01*
X173650602Y-107290827D01*
X173590264Y-107436498D01*
X173590261Y-107436510D01*
X173559500Y-107591153D01*
X133594504Y-107591153D01*
X133655051Y-107507816D01*
X133751557Y-107318412D01*
X133817246Y-107116243D01*
X133850500Y-106906287D01*
X133850500Y-106693713D01*
X133817246Y-106483757D01*
X133751557Y-106281588D01*
X133655051Y-106092184D01*
X133655049Y-106092181D01*
X133655048Y-106092179D01*
X133530109Y-105920213D01*
X133379786Y-105769890D01*
X133207820Y-105644951D01*
X133018414Y-105548444D01*
X133018413Y-105548443D01*
X133018412Y-105548443D01*
X132816243Y-105482754D01*
X132816241Y-105482753D01*
X132816240Y-105482753D01*
X132654957Y-105457208D01*
X132606287Y-105449500D01*
X132393713Y-105449500D01*
X132345042Y-105457208D01*
X132183760Y-105482753D01*
X131981585Y-105548444D01*
X131792179Y-105644951D01*
X131620213Y-105769890D01*
X131469890Y-105920213D01*
X131344949Y-106092182D01*
X131340484Y-106100946D01*
X131292509Y-106151742D01*
X131224688Y-106168536D01*
X131158553Y-106145998D01*
X131119516Y-106100946D01*
X131115050Y-106092182D01*
X130990109Y-105920213D01*
X130839786Y-105769890D01*
X130667820Y-105644951D01*
X130478414Y-105548444D01*
X130478413Y-105548443D01*
X130478412Y-105548443D01*
X130276243Y-105482754D01*
X130276241Y-105482753D01*
X130276240Y-105482753D01*
X130114957Y-105457208D01*
X130066287Y-105449500D01*
X129853713Y-105449500D01*
X129805042Y-105457208D01*
X129643760Y-105482753D01*
X129441585Y-105548444D01*
X129252179Y-105644951D01*
X129080215Y-105769889D01*
X128966673Y-105883431D01*
X128905350Y-105916915D01*
X128835658Y-105911931D01*
X128779725Y-105870059D01*
X128762810Y-105839082D01*
X128713797Y-105707671D01*
X128713793Y-105707664D01*
X128627547Y-105592455D01*
X128627544Y-105592452D01*
X128512335Y-105506206D01*
X128512328Y-105506202D01*
X128377482Y-105455908D01*
X128377483Y-105455908D01*
X128317883Y-105449501D01*
X128317881Y-105449500D01*
X128317873Y-105449500D01*
X128317864Y-105449500D01*
X126522129Y-105449500D01*
X126522123Y-105449501D01*
X126462516Y-105455908D01*
X126327671Y-105506202D01*
X126327664Y-105506206D01*
X126212455Y-105592452D01*
X126212452Y-105592455D01*
X126126206Y-105707664D01*
X126126202Y-105707671D01*
X126075908Y-105842517D01*
X126069501Y-105902116D01*
X126069500Y-105902135D01*
X126069500Y-106025500D01*
X126049815Y-106092539D01*
X125997011Y-106138294D01*
X125945500Y-106149500D01*
X122320808Y-106149500D01*
X122253769Y-106129815D01*
X122233127Y-106113181D01*
X117092694Y-100972747D01*
X117011100Y-100891153D01*
X126819500Y-100891153D01*
X126819500Y-101048846D01*
X126850261Y-101203489D01*
X126850264Y-101203501D01*
X126910602Y-101349172D01*
X126910609Y-101349185D01*
X126998210Y-101480288D01*
X126998213Y-101480292D01*
X127109707Y-101591786D01*
X127109711Y-101591789D01*
X127240814Y-101679390D01*
X127240827Y-101679397D01*
X127386498Y-101739735D01*
X127386503Y-101739737D01*
X127541153Y-101770499D01*
X127541156Y-101770500D01*
X127541158Y-101770500D01*
X127698844Y-101770500D01*
X127698845Y-101770499D01*
X127853497Y-101739737D01*
X127999179Y-101679394D01*
X128130289Y-101591789D01*
X128241789Y-101480289D01*
X128329394Y-101349179D01*
X128389737Y-101203497D01*
X128420500Y-101048842D01*
X128420500Y-100891158D01*
X128420500Y-100891155D01*
X128420499Y-100891153D01*
X128389738Y-100736510D01*
X128389737Y-100736503D01*
X128345158Y-100628878D01*
X128329397Y-100590827D01*
X128329390Y-100590814D01*
X128241789Y-100459711D01*
X128241786Y-100459707D01*
X128130292Y-100348213D01*
X128130288Y-100348210D01*
X127999185Y-100260609D01*
X127999172Y-100260602D01*
X127853501Y-100200264D01*
X127853489Y-100200261D01*
X127698845Y-100169500D01*
X127698842Y-100169500D01*
X127541158Y-100169500D01*
X127541155Y-100169500D01*
X127386510Y-100200261D01*
X127386498Y-100200264D01*
X127240827Y-100260602D01*
X127240814Y-100260609D01*
X127109711Y-100348210D01*
X127109707Y-100348213D01*
X126998213Y-100459707D01*
X126998210Y-100459711D01*
X126910609Y-100590814D01*
X126910602Y-100590827D01*
X126850264Y-100736498D01*
X126850261Y-100736510D01*
X126819500Y-100891153D01*
X117011100Y-100891153D01*
X113214673Y-97094726D01*
X113214669Y-97094723D01*
X113108127Y-97023535D01*
X112989744Y-96974499D01*
X112989738Y-96974497D01*
X112864071Y-96949500D01*
X112864069Y-96949500D01*
X91174499Y-96949500D01*
X91107460Y-96929815D01*
X91061705Y-96877011D01*
X91050499Y-96825500D01*
X91050499Y-96642129D01*
X91050498Y-96642123D01*
X91050497Y-96642116D01*
X91044091Y-96582517D01*
X91005548Y-96479179D01*
X90993797Y-96447671D01*
X90993793Y-96447664D01*
X90907547Y-96332455D01*
X90907544Y-96332452D01*
X90792335Y-96246206D01*
X90792328Y-96246202D01*
X90660917Y-96197189D01*
X90604983Y-96155318D01*
X90580566Y-96089853D01*
X90595418Y-96021580D01*
X90616563Y-95993332D01*
X90730104Y-95879792D01*
X90855051Y-95707816D01*
X90951557Y-95518412D01*
X91017246Y-95316243D01*
X91050500Y-95106287D01*
X91050500Y-94893713D01*
X91017246Y-94683757D01*
X90951557Y-94481588D01*
X90855051Y-94292184D01*
X90855049Y-94292181D01*
X90855048Y-94292179D01*
X90730109Y-94120213D01*
X90579786Y-93969890D01*
X90407817Y-93844949D01*
X90398504Y-93840204D01*
X90347707Y-93792230D01*
X90330912Y-93724409D01*
X90353449Y-93658274D01*
X90398507Y-93619232D01*
X90407555Y-93614622D01*
X90461716Y-93575270D01*
X90461717Y-93575270D01*
X89829408Y-92942962D01*
X89892993Y-92925925D01*
X90007007Y-92860099D01*
X90100099Y-92767007D01*
X90165925Y-92652993D01*
X90182962Y-92589408D01*
X90815270Y-93221717D01*
X90815270Y-93221716D01*
X90854622Y-93167554D01*
X90951095Y-92978217D01*
X91016757Y-92776130D01*
X91016757Y-92776127D01*
X91050000Y-92566246D01*
X91050000Y-92353753D01*
X91016757Y-92143872D01*
X91016757Y-92143869D01*
X90951095Y-91941782D01*
X90854624Y-91752449D01*
X90815270Y-91698282D01*
X90815269Y-91698282D01*
X90182962Y-92330590D01*
X90165925Y-92267007D01*
X90100099Y-92152993D01*
X90007007Y-92059901D01*
X89892993Y-91994075D01*
X89829409Y-91977037D01*
X90461716Y-91344728D01*
X90407547Y-91305373D01*
X90407547Y-91305372D01*
X90398500Y-91300763D01*
X90347706Y-91252788D01*
X90330912Y-91184966D01*
X90353451Y-91118832D01*
X90398508Y-91079793D01*
X90407816Y-91075051D01*
X90487007Y-91017515D01*
X90579786Y-90950109D01*
X90579788Y-90950106D01*
X90579792Y-90950104D01*
X90730104Y-90799792D01*
X90730106Y-90799788D01*
X90730109Y-90799786D01*
X90857915Y-90623875D01*
X90859259Y-90624851D01*
X90905705Y-90582834D01*
X90959618Y-90570500D01*
X92499192Y-90570500D01*
X92566231Y-90590185D01*
X92586873Y-90606819D01*
X97385325Y-95405272D01*
X97385332Y-95405278D01*
X97491863Y-95476459D01*
X97491867Y-95476461D01*
X97491874Y-95476466D01*
X97547484Y-95499500D01*
X97547485Y-95499500D01*
X97547486Y-95499501D01*
X97593146Y-95518414D01*
X97610256Y-95525501D01*
X97610260Y-95525501D01*
X97610261Y-95525502D01*
X97735928Y-95550500D01*
X97735931Y-95550500D01*
X97735932Y-95550500D01*
X97864069Y-95550500D01*
X115585576Y-95550500D01*
X115652615Y-95570185D01*
X115698370Y-95622989D01*
X115708314Y-95692147D01*
X115700137Y-95721952D01*
X115640264Y-95866498D01*
X115640261Y-95866510D01*
X115609500Y-96021153D01*
X115609500Y-96178846D01*
X115640261Y-96333489D01*
X115640264Y-96333501D01*
X115700602Y-96479172D01*
X115700609Y-96479185D01*
X115788210Y-96610288D01*
X115788213Y-96610292D01*
X115899707Y-96721786D01*
X115899711Y-96721789D01*
X116030814Y-96809390D01*
X116030827Y-96809397D01*
X116176498Y-96869735D01*
X116176503Y-96869737D01*
X116331153Y-96900499D01*
X116331156Y-96900500D01*
X116331158Y-96900500D01*
X116488844Y-96900500D01*
X116488845Y-96900499D01*
X116643497Y-96869737D01*
X116789179Y-96809394D01*
X116920289Y-96721789D01*
X117031789Y-96610289D01*
X117119394Y-96479179D01*
X117179737Y-96333497D01*
X117210500Y-96178842D01*
X117210500Y-96021158D01*
X117210500Y-96021155D01*
X117210499Y-96021153D01*
X117182379Y-95879786D01*
X117179737Y-95866503D01*
X117132019Y-95751300D01*
X117119863Y-95721952D01*
X117112394Y-95652483D01*
X117143669Y-95590004D01*
X117203759Y-95554352D01*
X117234424Y-95550500D01*
X123054671Y-95550500D01*
X123121710Y-95570185D01*
X123123562Y-95571398D01*
X123247937Y-95654503D01*
X123402718Y-95718616D01*
X123567028Y-95751299D01*
X123567032Y-95751300D01*
X123567033Y-95751300D01*
X123734568Y-95751300D01*
X123734569Y-95751299D01*
X123898882Y-95718616D01*
X124053663Y-95654503D01*
X124192962Y-95561426D01*
X124311426Y-95442962D01*
X124404503Y-95303663D01*
X124468616Y-95148882D01*
X124495882Y-95011805D01*
X124528265Y-94949897D01*
X124570043Y-94921439D01*
X124612863Y-94903703D01*
X124752162Y-94810626D01*
X124870626Y-94692162D01*
X124963703Y-94552863D01*
X125027816Y-94398082D01*
X125060500Y-94233767D01*
X125060500Y-94066233D01*
X125027816Y-93901918D01*
X124963703Y-93747137D01*
X124932537Y-93700494D01*
X124870626Y-93607837D01*
X124752162Y-93489373D01*
X124612860Y-93396295D01*
X124458082Y-93332184D01*
X124458074Y-93332182D01*
X124293771Y-93299500D01*
X124293767Y-93299500D01*
X124126233Y-93299500D01*
X124126228Y-93299500D01*
X123961925Y-93332182D01*
X123961917Y-93332184D01*
X123807139Y-93396295D01*
X123667837Y-93489373D01*
X123667834Y-93489376D01*
X123644030Y-93513181D01*
X123582707Y-93546666D01*
X123556349Y-93549500D01*
X100720808Y-93549500D01*
X100653769Y-93529815D01*
X100633127Y-93513181D01*
X99972693Y-92852747D01*
X99891099Y-92771153D01*
X146759500Y-92771153D01*
X146759500Y-92928846D01*
X146790261Y-93083489D01*
X146790264Y-93083501D01*
X146850602Y-93229172D01*
X146850609Y-93229185D01*
X146938210Y-93360288D01*
X146938213Y-93360292D01*
X147049707Y-93471786D01*
X147049711Y-93471789D01*
X147180814Y-93559390D01*
X147180827Y-93559397D01*
X147326498Y-93619735D01*
X147326503Y-93619737D01*
X147476131Y-93649500D01*
X147481153Y-93650499D01*
X147481156Y-93650500D01*
X147481158Y-93650500D01*
X147638844Y-93650500D01*
X147638845Y-93650499D01*
X147793497Y-93619737D01*
X147939179Y-93559394D01*
X148070289Y-93471789D01*
X148181789Y-93360289D01*
X148269394Y-93229179D01*
X148329737Y-93083497D01*
X148360500Y-92928842D01*
X148360500Y-92771158D01*
X148360500Y-92771155D01*
X148360499Y-92771153D01*
X148329738Y-92616510D01*
X148329737Y-92616503D01*
X148292178Y-92525826D01*
X148269397Y-92470827D01*
X148269390Y-92470814D01*
X148181789Y-92339711D01*
X148181786Y-92339707D01*
X148070292Y-92228213D01*
X148070288Y-92228210D01*
X147939185Y-92140609D01*
X147939172Y-92140602D01*
X147793501Y-92080264D01*
X147793489Y-92080261D01*
X147638845Y-92049500D01*
X147638842Y-92049500D01*
X147481158Y-92049500D01*
X147481155Y-92049500D01*
X147326510Y-92080261D01*
X147326498Y-92080264D01*
X147180827Y-92140602D01*
X147180814Y-92140609D01*
X147049711Y-92228210D01*
X147049707Y-92228213D01*
X146938213Y-92339707D01*
X146938210Y-92339711D01*
X146850609Y-92470814D01*
X146850602Y-92470827D01*
X146790264Y-92616498D01*
X146790261Y-92616510D01*
X146759500Y-92771153D01*
X99891099Y-92771153D01*
X93994674Y-86874727D01*
X93994673Y-86874726D01*
X93994669Y-86874723D01*
X93888127Y-86803535D01*
X93881589Y-86800827D01*
X93769744Y-86754499D01*
X93769738Y-86754497D01*
X93644071Y-86729500D01*
X93644069Y-86729500D01*
X90959618Y-86729500D01*
X90892579Y-86709815D01*
X90858900Y-86675408D01*
X90857915Y-86676125D01*
X90730109Y-86500213D01*
X90579786Y-86349890D01*
X90407820Y-86224951D01*
X90218414Y-86128444D01*
X90218413Y-86128443D01*
X90218412Y-86128443D01*
X90016243Y-86062754D01*
X90016241Y-86062753D01*
X90016240Y-86062753D01*
X89854957Y-86037208D01*
X89806287Y-86029500D01*
X89593713Y-86029500D01*
X89545042Y-86037208D01*
X89383760Y-86062753D01*
X89181585Y-86128444D01*
X88992179Y-86224951D01*
X88820213Y-86349890D01*
X88669890Y-86500213D01*
X88544951Y-86672179D01*
X88448444Y-86861585D01*
X88382753Y-87063760D01*
X88349500Y-87273713D01*
X77350000Y-87273713D01*
X77350000Y-80649983D01*
X89119500Y-80649983D01*
X89119500Y-81850001D01*
X89119501Y-81850018D01*
X89130000Y-81952796D01*
X89130001Y-81952799D01*
X89146542Y-82002715D01*
X89185186Y-82119334D01*
X89277288Y-82268656D01*
X89401344Y-82392712D01*
X89550666Y-82484814D01*
X89717203Y-82539999D01*
X89819991Y-82550500D01*
X91020008Y-82550499D01*
X91122797Y-82539999D01*
X91289334Y-82484814D01*
X91438656Y-82392712D01*
X91562712Y-82268656D01*
X91654814Y-82119334D01*
X91709999Y-81952797D01*
X91720500Y-81850009D01*
X91720499Y-80721153D01*
X111079500Y-80721153D01*
X111079500Y-80878845D01*
X111110261Y-81033489D01*
X111110264Y-81033501D01*
X111170602Y-81179172D01*
X111170609Y-81179185D01*
X111258210Y-81310288D01*
X111258213Y-81310292D01*
X111369707Y-81421786D01*
X111369711Y-81421789D01*
X111500814Y-81509390D01*
X111500827Y-81509397D01*
X111588230Y-81545599D01*
X111646503Y-81569737D01*
X111685125Y-81577419D01*
X111713578Y-81583079D01*
X111775489Y-81615463D01*
X111777068Y-81617015D01*
X120725325Y-90565272D01*
X120725332Y-90565278D01*
X120831863Y-90636459D01*
X120831867Y-90636461D01*
X120831874Y-90636466D01*
X120889898Y-90660500D01*
X120950256Y-90685501D01*
X120950260Y-90685501D01*
X120950261Y-90685502D01*
X121075928Y-90710500D01*
X121075931Y-90710500D01*
X122405065Y-90710500D01*
X122472104Y-90730185D01*
X122473909Y-90731366D01*
X122530821Y-90769394D01*
X122530823Y-90769395D01*
X122530827Y-90769397D01*
X122676498Y-90829735D01*
X122676503Y-90829737D01*
X122831153Y-90860499D01*
X122831156Y-90860500D01*
X122831158Y-90860500D01*
X122988844Y-90860500D01*
X122988845Y-90860499D01*
X123143497Y-90829737D01*
X123289179Y-90769394D01*
X123420289Y-90681789D01*
X123531789Y-90570289D01*
X123619394Y-90439179D01*
X123679737Y-90293497D01*
X123710500Y-90138842D01*
X123710500Y-89981158D01*
X123710500Y-89981155D01*
X123710499Y-89981153D01*
X123699026Y-89923477D01*
X123679737Y-89826503D01*
X123655208Y-89767284D01*
X123619397Y-89680827D01*
X123619390Y-89680814D01*
X123531789Y-89549711D01*
X123531786Y-89549707D01*
X123420292Y-89438213D01*
X123420288Y-89438210D01*
X123289185Y-89350609D01*
X123289172Y-89350602D01*
X123143501Y-89290264D01*
X123143489Y-89290261D01*
X122988845Y-89259500D01*
X122988842Y-89259500D01*
X122831158Y-89259500D01*
X122831155Y-89259500D01*
X122676510Y-89290261D01*
X122676498Y-89290264D01*
X122530827Y-89350602D01*
X122530820Y-89350606D01*
X122501928Y-89369911D01*
X122473955Y-89388602D01*
X122407279Y-89409480D01*
X122405065Y-89409500D01*
X121460808Y-89409500D01*
X121393769Y-89389815D01*
X121373127Y-89373181D01*
X120081099Y-88081153D01*
X156349500Y-88081153D01*
X156349500Y-88238846D01*
X156380261Y-88393489D01*
X156380264Y-88393501D01*
X156440602Y-88539172D01*
X156440609Y-88539185D01*
X156528210Y-88670288D01*
X156528213Y-88670292D01*
X156639707Y-88781786D01*
X156639711Y-88781789D01*
X156770814Y-88869390D01*
X156770827Y-88869397D01*
X156916498Y-88929735D01*
X156916503Y-88929737D01*
X157066302Y-88959534D01*
X157071153Y-88960499D01*
X157071156Y-88960500D01*
X157071158Y-88960500D01*
X157228844Y-88960500D01*
X157228845Y-88960499D01*
X157383497Y-88929737D01*
X157529179Y-88869394D01*
X157660289Y-88781789D01*
X157771789Y-88670289D01*
X157859394Y-88539179D01*
X157919737Y-88393497D01*
X157933079Y-88326416D01*
X157965463Y-88264509D01*
X157966956Y-88262988D01*
X158128792Y-88101153D01*
X164499500Y-88101153D01*
X164499500Y-88258846D01*
X164530261Y-88413489D01*
X164530264Y-88413501D01*
X164590602Y-88559172D01*
X164590609Y-88559185D01*
X164678210Y-88690288D01*
X164678213Y-88690292D01*
X164789707Y-88801786D01*
X164789711Y-88801789D01*
X164920814Y-88889390D01*
X164920827Y-88889397D01*
X165066498Y-88949735D01*
X165066503Y-88949737D01*
X165221153Y-88980499D01*
X165221156Y-88980500D01*
X165221158Y-88980500D01*
X165378844Y-88980500D01*
X165378845Y-88980499D01*
X165533497Y-88949737D01*
X165679179Y-88889394D01*
X165810289Y-88801789D01*
X165921789Y-88690289D01*
X166009394Y-88559179D01*
X166019389Y-88535050D01*
X166023067Y-88526166D01*
X166069737Y-88413497D01*
X166100500Y-88258842D01*
X166100500Y-88101158D01*
X166100500Y-88101155D01*
X166100499Y-88101153D01*
X166096521Y-88081153D01*
X166069737Y-87946503D01*
X166046082Y-87889394D01*
X166009397Y-87800827D01*
X166009390Y-87800814D01*
X165921789Y-87669711D01*
X165921786Y-87669707D01*
X165810292Y-87558213D01*
X165810288Y-87558210D01*
X165679185Y-87470609D01*
X165679172Y-87470602D01*
X165533501Y-87410264D01*
X165533489Y-87410261D01*
X165378845Y-87379500D01*
X165378842Y-87379500D01*
X165221158Y-87379500D01*
X165221155Y-87379500D01*
X165066510Y-87410261D01*
X165066498Y-87410264D01*
X164920827Y-87470602D01*
X164920814Y-87470609D01*
X164789711Y-87558210D01*
X164789707Y-87558213D01*
X164678213Y-87669707D01*
X164678210Y-87669711D01*
X164590609Y-87800814D01*
X164590602Y-87800827D01*
X164530264Y-87946498D01*
X164530261Y-87946510D01*
X164499500Y-88101153D01*
X158128792Y-88101153D01*
X158363127Y-87866819D01*
X158424450Y-87833334D01*
X158450808Y-87830500D01*
X161045065Y-87830500D01*
X161112104Y-87850185D01*
X161113909Y-87851366D01*
X161170821Y-87889394D01*
X161170823Y-87889395D01*
X161170827Y-87889397D01*
X161308683Y-87946498D01*
X161316503Y-87949737D01*
X161471153Y-87980499D01*
X161471156Y-87980500D01*
X161471158Y-87980500D01*
X161628844Y-87980500D01*
X161628845Y-87980499D01*
X161639179Y-87978443D01*
X161664287Y-87973450D01*
X161664292Y-87973449D01*
X161749800Y-87956439D01*
X161783497Y-87949737D01*
X161907403Y-87898414D01*
X161929172Y-87889397D01*
X161929172Y-87889396D01*
X161929179Y-87889394D01*
X162060289Y-87801789D01*
X162171789Y-87690289D01*
X162259394Y-87559179D01*
X162319737Y-87413497D01*
X162350500Y-87258842D01*
X162350500Y-87101158D01*
X162350500Y-87101155D01*
X162350499Y-87101153D01*
X162338690Y-87041786D01*
X162319737Y-86946503D01*
X162290007Y-86874727D01*
X162259397Y-86800827D01*
X162259390Y-86800814D01*
X162171789Y-86669711D01*
X162171786Y-86669707D01*
X162060292Y-86558213D01*
X162060288Y-86558210D01*
X161924114Y-86467221D01*
X161925219Y-86465566D01*
X161881903Y-86423005D01*
X161866452Y-86354865D01*
X161868591Y-86338434D01*
X161870500Y-86328842D01*
X161870500Y-86171158D01*
X161858448Y-86110569D01*
X161864675Y-86040980D01*
X161907537Y-85985802D01*
X161932603Y-85971822D01*
X162059179Y-85919394D01*
X162190289Y-85831789D01*
X162301789Y-85720289D01*
X162389394Y-85589179D01*
X162393004Y-85580465D01*
X162403067Y-85556166D01*
X162449737Y-85443497D01*
X162480500Y-85288842D01*
X162480500Y-85131158D01*
X162480500Y-85131155D01*
X162480499Y-85131153D01*
X162454256Y-84999223D01*
X162449737Y-84976503D01*
X162449735Y-84976498D01*
X162389397Y-84830827D01*
X162389390Y-84830814D01*
X162301789Y-84699711D01*
X162301786Y-84699707D01*
X162190292Y-84588213D01*
X162190288Y-84588210D01*
X162059185Y-84500609D01*
X162059172Y-84500602D01*
X161913501Y-84440264D01*
X161913489Y-84440261D01*
X161758845Y-84409500D01*
X161758842Y-84409500D01*
X161601158Y-84409500D01*
X161601155Y-84409500D01*
X161446510Y-84440261D01*
X161446498Y-84440264D01*
X161300827Y-84500602D01*
X161300820Y-84500606D01*
X161280575Y-84514134D01*
X161243955Y-84538602D01*
X161177279Y-84559480D01*
X161175065Y-84559500D01*
X158695929Y-84559500D01*
X158570261Y-84584497D01*
X158570255Y-84584499D01*
X158451870Y-84633535D01*
X158345331Y-84704722D01*
X158345324Y-84704728D01*
X157447068Y-85602984D01*
X157385745Y-85636469D01*
X157383579Y-85636920D01*
X157316508Y-85650261D01*
X157316498Y-85650264D01*
X157170827Y-85710602D01*
X157170814Y-85710609D01*
X157039711Y-85798210D01*
X157039707Y-85798213D01*
X156928213Y-85909707D01*
X156928210Y-85909711D01*
X156840609Y-86040814D01*
X156840602Y-86040827D01*
X156780264Y-86186498D01*
X156780261Y-86186510D01*
X156749500Y-86341153D01*
X156749500Y-86498846D01*
X156780261Y-86653489D01*
X156780264Y-86653501D01*
X156840602Y-86799172D01*
X156840609Y-86799185D01*
X156928210Y-86930288D01*
X156928213Y-86930292D01*
X157039707Y-87041786D01*
X157039711Y-87041789D01*
X157099044Y-87081435D01*
X157112554Y-87097601D01*
X157129420Y-87110227D01*
X157134509Y-87123872D01*
X157143849Y-87135048D01*
X157146474Y-87155951D01*
X157153837Y-87175691D01*
X157150741Y-87189922D01*
X157152556Y-87204373D01*
X157143463Y-87223377D01*
X157138985Y-87243964D01*
X157124101Y-87263845D01*
X157122401Y-87267400D01*
X157117834Y-87272218D01*
X157047068Y-87342984D01*
X156985745Y-87376469D01*
X156983579Y-87376920D01*
X156916508Y-87390261D01*
X156916498Y-87390264D01*
X156770827Y-87450602D01*
X156770814Y-87450609D01*
X156639711Y-87538210D01*
X156639707Y-87538213D01*
X156528213Y-87649707D01*
X156528210Y-87649711D01*
X156440609Y-87780814D01*
X156440602Y-87780827D01*
X156380264Y-87926498D01*
X156380261Y-87926510D01*
X156349500Y-88081153D01*
X120081099Y-88081153D01*
X113627594Y-81627648D01*
X179624169Y-81627648D01*
X179624169Y-81832352D01*
X179626966Y-81850009D01*
X179656191Y-82034534D01*
X179719450Y-82229223D01*
X179812384Y-82411613D01*
X179932697Y-82577213D01*
X180077455Y-82721971D01*
X180232418Y-82834556D01*
X180243059Y-82842287D01*
X180359276Y-82901503D01*
X180425445Y-82935218D01*
X180425447Y-82935218D01*
X180425450Y-82935220D01*
X180504625Y-82960945D01*
X180615800Y-82997069D01*
X180673475Y-83036507D01*
X180700673Y-83100866D01*
X180688758Y-83169712D01*
X180641514Y-83221188D01*
X180615800Y-83232931D01*
X180425445Y-83294781D01*
X180243055Y-83387715D01*
X180077455Y-83508028D01*
X179932697Y-83652786D01*
X179812384Y-83818386D01*
X179719450Y-84000776D01*
X179656191Y-84195465D01*
X179624169Y-84397648D01*
X179624169Y-84602351D01*
X179656191Y-84804534D01*
X179719450Y-84999223D01*
X179812384Y-85181613D01*
X179932697Y-85347213D01*
X180077455Y-85491971D01*
X180230254Y-85602984D01*
X180243059Y-85612287D01*
X180359276Y-85671503D01*
X180425445Y-85705218D01*
X180425447Y-85705218D01*
X180425450Y-85705220D01*
X180471825Y-85720288D01*
X180615800Y-85767069D01*
X180673475Y-85806507D01*
X180700673Y-85870866D01*
X180688758Y-85939712D01*
X180641514Y-85991188D01*
X180615800Y-86002931D01*
X180425445Y-86064781D01*
X180243055Y-86157715D01*
X180077455Y-86278028D01*
X179932697Y-86422786D01*
X179812384Y-86588386D01*
X179719450Y-86770776D01*
X179656191Y-86965465D01*
X179624169Y-87167648D01*
X179624169Y-87372351D01*
X179656191Y-87574534D01*
X179719450Y-87769223D01*
X179750673Y-87830500D01*
X179811428Y-87949738D01*
X179812384Y-87951613D01*
X179932697Y-88117213D01*
X180077455Y-88261971D01*
X180232418Y-88374556D01*
X180243059Y-88382287D01*
X180425450Y-88475220D01*
X180494236Y-88497570D01*
X180551910Y-88537006D01*
X180579109Y-88601365D01*
X180567195Y-88670211D01*
X180519951Y-88721687D01*
X180455917Y-88739500D01*
X180076799Y-88739500D01*
X180076792Y-88739501D01*
X180017185Y-88745908D01*
X179882340Y-88796202D01*
X179882333Y-88796206D01*
X179767124Y-88882452D01*
X179767121Y-88882455D01*
X179680875Y-88997664D01*
X179680871Y-88997671D01*
X179630577Y-89132517D01*
X179628244Y-89154223D01*
X179624170Y-89192123D01*
X179624169Y-89192135D01*
X179624169Y-90887870D01*
X179624170Y-90887876D01*
X179630577Y-90947483D01*
X179680871Y-91082328D01*
X179680875Y-91082335D01*
X179767121Y-91197544D01*
X179767124Y-91197547D01*
X179882333Y-91283793D01*
X179882340Y-91283797D01*
X180017186Y-91334091D01*
X180017185Y-91334091D01*
X180024113Y-91334835D01*
X180076796Y-91340500D01*
X181772541Y-91340499D01*
X181832152Y-91334091D01*
X181967000Y-91283796D01*
X182082215Y-91197546D01*
X182168465Y-91082331D01*
X182218760Y-90947483D01*
X182225169Y-90887873D01*
X182225168Y-89192128D01*
X182218760Y-89132517D01*
X182168465Y-88997669D01*
X182168464Y-88997668D01*
X182168462Y-88997664D01*
X182082216Y-88882455D01*
X182082213Y-88882452D01*
X181967004Y-88796206D01*
X181966997Y-88796202D01*
X181832151Y-88745908D01*
X181832152Y-88745908D01*
X181772552Y-88739501D01*
X181772550Y-88739500D01*
X181772542Y-88739500D01*
X181772534Y-88739500D01*
X181393422Y-88739500D01*
X181326383Y-88719815D01*
X181280628Y-88667011D01*
X181270684Y-88597853D01*
X181299709Y-88534297D01*
X181355103Y-88497569D01*
X181423888Y-88475220D01*
X181606279Y-88382287D01*
X181733952Y-88289528D01*
X181771882Y-88261971D01*
X181771884Y-88261968D01*
X181771888Y-88261966D01*
X181916635Y-88117219D01*
X181916637Y-88117215D01*
X181916640Y-88117213D01*
X181970678Y-88042834D01*
X182036956Y-87951610D01*
X182129889Y-87769219D01*
X182193146Y-87574534D01*
X182225169Y-87372352D01*
X182225169Y-87167648D01*
X182223278Y-87155707D01*
X182193146Y-86965465D01*
X182140531Y-86803534D01*
X182129889Y-86770781D01*
X182129887Y-86770778D01*
X182129887Y-86770776D01*
X182079651Y-86672184D01*
X182036956Y-86588390D01*
X182015029Y-86558210D01*
X181916640Y-86422786D01*
X181771882Y-86278028D01*
X181606282Y-86157715D01*
X181606281Y-86157714D01*
X181606279Y-86157713D01*
X181513760Y-86110572D01*
X181423892Y-86064781D01*
X181233537Y-86002931D01*
X181175862Y-85963493D01*
X181148664Y-85899134D01*
X181160579Y-85830288D01*
X181207823Y-85778812D01*
X181233537Y-85767069D01*
X181276177Y-85753213D01*
X181423888Y-85705220D01*
X181606279Y-85612287D01*
X181699259Y-85544732D01*
X181771882Y-85491971D01*
X181771884Y-85491968D01*
X181771888Y-85491966D01*
X181916635Y-85347219D01*
X181916637Y-85347215D01*
X181916640Y-85347213D01*
X181969401Y-85274590D01*
X182036956Y-85181610D01*
X182129889Y-84999219D01*
X182193146Y-84804534D01*
X182225169Y-84602352D01*
X182225169Y-84397648D01*
X182224561Y-84393812D01*
X182193146Y-84195465D01*
X182129887Y-84000776D01*
X182096172Y-83934607D01*
X182036956Y-83818390D01*
X182021132Y-83796610D01*
X181916640Y-83652786D01*
X181771882Y-83508028D01*
X181606282Y-83387715D01*
X181606281Y-83387714D01*
X181606279Y-83387713D01*
X181549322Y-83358691D01*
X181423892Y-83294781D01*
X181233537Y-83232931D01*
X181175862Y-83193493D01*
X181148664Y-83129134D01*
X181160579Y-83060288D01*
X181207823Y-83008812D01*
X181233537Y-82997069D01*
X181276177Y-82983213D01*
X181423888Y-82935220D01*
X181606279Y-82842287D01*
X181699259Y-82774732D01*
X181771882Y-82721971D01*
X181771884Y-82721968D01*
X181771888Y-82721966D01*
X181916635Y-82577219D01*
X181916637Y-82577215D01*
X181916640Y-82577213D01*
X181969401Y-82504590D01*
X182036956Y-82411610D01*
X182129889Y-82229219D01*
X182193146Y-82034534D01*
X182225169Y-81832352D01*
X182225169Y-81627648D01*
X182223239Y-81615463D01*
X182193146Y-81425465D01*
X182155432Y-81309394D01*
X182129889Y-81230781D01*
X182129887Y-81230778D01*
X182129887Y-81230776D01*
X182093609Y-81159577D01*
X182036956Y-81048390D01*
X182021132Y-81026610D01*
X181916640Y-80882786D01*
X181771882Y-80738028D01*
X181606282Y-80617715D01*
X181606281Y-80617714D01*
X181606279Y-80617713D01*
X181505788Y-80566510D01*
X181423892Y-80524781D01*
X181232729Y-80462668D01*
X181175054Y-80423230D01*
X181147856Y-80358871D01*
X181159771Y-80290025D01*
X181203253Y-80242648D01*
X182464169Y-80242648D01*
X182464169Y-80447351D01*
X182496191Y-80649534D01*
X182559450Y-80844223D01*
X182652384Y-81026613D01*
X182772697Y-81192213D01*
X182917455Y-81336971D01*
X183072418Y-81449556D01*
X183083059Y-81457287D01*
X183199276Y-81516503D01*
X183265445Y-81550218D01*
X183265447Y-81550218D01*
X183265450Y-81550220D01*
X183325511Y-81569735D01*
X183455800Y-81612069D01*
X183513475Y-81651507D01*
X183540673Y-81715866D01*
X183528758Y-81784712D01*
X183481514Y-81836188D01*
X183455800Y-81847931D01*
X183265445Y-81909781D01*
X183083055Y-82002715D01*
X182917455Y-82123028D01*
X182772697Y-82267786D01*
X182652384Y-82433386D01*
X182559450Y-82615776D01*
X182496191Y-82810465D01*
X182464169Y-83012648D01*
X182464169Y-83217351D01*
X182496191Y-83419534D01*
X182559450Y-83614223D01*
X182652384Y-83796613D01*
X182772697Y-83962213D01*
X182917455Y-84106971D01*
X183072418Y-84219556D01*
X183083059Y-84227287D01*
X183199276Y-84286503D01*
X183265445Y-84320218D01*
X183265447Y-84320218D01*
X183265450Y-84320220D01*
X183344625Y-84345945D01*
X183455800Y-84382069D01*
X183513475Y-84421507D01*
X183540673Y-84485866D01*
X183528758Y-84554712D01*
X183481514Y-84606188D01*
X183455800Y-84617931D01*
X183265445Y-84679781D01*
X183083055Y-84772715D01*
X182917455Y-84893028D01*
X182772697Y-85037786D01*
X182652384Y-85203386D01*
X182559450Y-85385776D01*
X182496191Y-85580465D01*
X182464169Y-85782648D01*
X182464169Y-85987351D01*
X182496191Y-86189534D01*
X182559450Y-86384223D01*
X182603465Y-86470606D01*
X182648102Y-86558211D01*
X182652384Y-86566613D01*
X182772697Y-86732213D01*
X182917455Y-86876971D01*
X183072418Y-86989556D01*
X183083059Y-86997287D01*
X183170399Y-87041789D01*
X183265445Y-87090218D01*
X183265447Y-87090218D01*
X183265450Y-87090220D01*
X183299114Y-87101158D01*
X183455800Y-87152069D01*
X183513475Y-87191507D01*
X183540673Y-87255866D01*
X183528758Y-87324712D01*
X183481514Y-87376188D01*
X183455800Y-87387931D01*
X183265445Y-87449781D01*
X183083055Y-87542715D01*
X182917455Y-87663028D01*
X182772697Y-87807786D01*
X182652384Y-87973386D01*
X182559450Y-88155776D01*
X182496191Y-88350465D01*
X182466303Y-88539172D01*
X182464169Y-88552648D01*
X182464169Y-88757352D01*
X182465372Y-88764949D01*
X182496191Y-88959534D01*
X182559450Y-89154223D01*
X182613092Y-89259500D01*
X182630050Y-89292782D01*
X182652384Y-89336613D01*
X182772697Y-89502213D01*
X182917455Y-89646971D01*
X183072418Y-89759556D01*
X183083059Y-89767287D01*
X183174175Y-89813713D01*
X183265445Y-89860218D01*
X183265447Y-89860218D01*
X183265450Y-89860220D01*
X183369806Y-89894127D01*
X183460134Y-89923477D01*
X183561226Y-89939488D01*
X183662317Y-89955500D01*
X183662318Y-89955500D01*
X183867020Y-89955500D01*
X183867021Y-89955500D01*
X184069203Y-89923477D01*
X184263888Y-89860220D01*
X184446279Y-89767287D01*
X184565282Y-89680827D01*
X184611882Y-89646971D01*
X184611884Y-89646968D01*
X184611888Y-89646966D01*
X184756635Y-89502219D01*
X184756637Y-89502215D01*
X184756640Y-89502213D01*
X184829749Y-89401585D01*
X184876956Y-89336610D01*
X184969889Y-89154219D01*
X185033146Y-88959534D01*
X185065169Y-88757352D01*
X185065169Y-88552648D01*
X185063035Y-88539172D01*
X185033146Y-88350465D01*
X184969887Y-88155776D01*
X184931864Y-88081153D01*
X184876956Y-87973390D01*
X184842891Y-87926503D01*
X184756640Y-87807786D01*
X184611882Y-87663028D01*
X184446282Y-87542715D01*
X184446281Y-87542714D01*
X184446279Y-87542713D01*
X184389322Y-87513691D01*
X184263892Y-87449781D01*
X184073537Y-87387931D01*
X184015862Y-87348493D01*
X183988664Y-87284134D01*
X184000579Y-87215288D01*
X184047823Y-87163812D01*
X184073537Y-87152069D01*
X184116177Y-87138213D01*
X184263888Y-87090220D01*
X184446279Y-86997287D01*
X184539259Y-86929732D01*
X184611882Y-86876971D01*
X184611884Y-86876968D01*
X184611888Y-86876966D01*
X184756635Y-86732219D01*
X184756637Y-86732215D01*
X184756640Y-86732213D01*
X184809401Y-86659590D01*
X184876956Y-86566610D01*
X184969889Y-86384219D01*
X185033146Y-86189534D01*
X185065169Y-85987352D01*
X185065169Y-85782648D01*
X185064561Y-85778812D01*
X185033146Y-85580465D01*
X184969887Y-85385776D01*
X184920496Y-85288842D01*
X184876956Y-85203390D01*
X184824475Y-85131155D01*
X184756640Y-85037786D01*
X184611882Y-84893028D01*
X184446282Y-84772715D01*
X184446281Y-84772714D01*
X184446279Y-84772713D01*
X184389322Y-84743691D01*
X184263892Y-84679781D01*
X184073537Y-84617931D01*
X184015862Y-84578493D01*
X183988664Y-84514134D01*
X184000579Y-84445288D01*
X184047823Y-84393812D01*
X184073537Y-84382069D01*
X184116177Y-84368213D01*
X184263888Y-84320220D01*
X184446279Y-84227287D01*
X184539259Y-84159732D01*
X184611882Y-84106971D01*
X184611884Y-84106968D01*
X184611888Y-84106966D01*
X184756635Y-83962219D01*
X184756637Y-83962215D01*
X184756640Y-83962213D01*
X184809401Y-83889590D01*
X184876956Y-83796610D01*
X184969889Y-83614219D01*
X185033146Y-83419534D01*
X185065169Y-83217352D01*
X185065169Y-83012648D01*
X185064561Y-83008812D01*
X185033146Y-82810465D01*
X184969887Y-82615776D01*
X184931276Y-82539999D01*
X184876956Y-82433390D01*
X184847402Y-82392712D01*
X184756640Y-82267786D01*
X184611882Y-82123028D01*
X184446282Y-82002715D01*
X184446281Y-82002714D01*
X184446279Y-82002713D01*
X184389322Y-81973691D01*
X184263892Y-81909781D01*
X184073537Y-81847931D01*
X184015862Y-81808493D01*
X183988664Y-81744134D01*
X184000579Y-81675288D01*
X184047823Y-81623812D01*
X184073537Y-81612069D01*
X184162758Y-81583079D01*
X184263888Y-81550220D01*
X184446279Y-81457287D01*
X184566781Y-81369738D01*
X184611882Y-81336971D01*
X184611884Y-81336968D01*
X184611888Y-81336966D01*
X184756635Y-81192219D01*
X184756637Y-81192215D01*
X184756640Y-81192213D01*
X184816161Y-81110288D01*
X184876956Y-81026610D01*
X184969889Y-80844219D01*
X185033146Y-80649534D01*
X185065169Y-80447352D01*
X185065169Y-80242648D01*
X185033146Y-80040466D01*
X185024932Y-80015187D01*
X184996799Y-79928602D01*
X184969889Y-79845781D01*
X184969887Y-79845778D01*
X184969887Y-79845776D01*
X184936172Y-79779607D01*
X184876956Y-79663390D01*
X184860943Y-79641350D01*
X184756640Y-79497786D01*
X184611882Y-79353028D01*
X184446282Y-79232715D01*
X184446281Y-79232714D01*
X184446279Y-79232713D01*
X184389322Y-79203691D01*
X184263892Y-79139781D01*
X184069203Y-79076522D01*
X183894664Y-79048878D01*
X183867021Y-79044500D01*
X183662317Y-79044500D01*
X183637998Y-79048351D01*
X183460134Y-79076522D01*
X183265445Y-79139781D01*
X183083055Y-79232715D01*
X182917455Y-79353028D01*
X182772697Y-79497786D01*
X182652384Y-79663386D01*
X182559450Y-79845776D01*
X182496191Y-80040465D01*
X182464169Y-80242648D01*
X181203253Y-80242648D01*
X181207015Y-80238549D01*
X181232730Y-80226806D01*
X181423698Y-80164755D01*
X181497228Y-80127291D01*
X181606018Y-80071859D01*
X181650590Y-80039474D01*
X181054078Y-79442962D01*
X181117662Y-79425925D01*
X181231676Y-79360099D01*
X181324768Y-79267007D01*
X181390594Y-79152993D01*
X181407631Y-79089410D01*
X182004143Y-79685922D01*
X182004143Y-79685921D01*
X182036528Y-79641349D01*
X182129424Y-79459031D01*
X182192659Y-79264417D01*
X182224669Y-79062317D01*
X182224669Y-78857682D01*
X182192659Y-78655582D01*
X182129424Y-78460968D01*
X182036528Y-78278650D01*
X182004143Y-78234077D01*
X182004143Y-78234076D01*
X181407631Y-78830589D01*
X181390594Y-78767007D01*
X181324768Y-78652993D01*
X181231676Y-78559901D01*
X181117662Y-78494075D01*
X181054077Y-78477037D01*
X181650591Y-77880524D01*
X181650590Y-77880523D01*
X181606028Y-77848147D01*
X181606019Y-77848141D01*
X181423700Y-77755244D01*
X181229086Y-77692009D01*
X181026986Y-77660000D01*
X180822352Y-77660000D01*
X180620251Y-77692009D01*
X180425637Y-77755244D01*
X180243313Y-77848143D01*
X180198746Y-77880523D01*
X180198746Y-77880524D01*
X180795260Y-78477037D01*
X180731676Y-78494075D01*
X180617662Y-78559901D01*
X180524570Y-78652993D01*
X180458744Y-78767007D01*
X180441706Y-78830590D01*
X179845193Y-78234077D01*
X179845192Y-78234077D01*
X179812812Y-78278644D01*
X179719913Y-78460968D01*
X179656678Y-78655582D01*
X179624669Y-78857682D01*
X179624669Y-79062317D01*
X179656678Y-79264417D01*
X179719913Y-79459031D01*
X179812810Y-79641350D01*
X179812816Y-79641359D01*
X179845192Y-79685921D01*
X179845193Y-79685922D01*
X180441706Y-79089409D01*
X180458744Y-79152993D01*
X180524570Y-79267007D01*
X180617662Y-79360099D01*
X180731676Y-79425925D01*
X180795259Y-79442962D01*
X180198745Y-80039474D01*
X180243319Y-80071859D01*
X180425637Y-80164755D01*
X180616608Y-80226806D01*
X180674283Y-80266244D01*
X180701481Y-80330603D01*
X180689566Y-80399449D01*
X180642322Y-80450925D01*
X180616608Y-80462668D01*
X180425445Y-80524781D01*
X180243055Y-80617715D01*
X180077455Y-80738028D01*
X179932697Y-80882786D01*
X179812384Y-81048386D01*
X179719450Y-81230776D01*
X179656191Y-81425465D01*
X179626099Y-81615463D01*
X179624169Y-81627648D01*
X113627594Y-81627648D01*
X112697015Y-80697069D01*
X112688597Y-80681931D01*
X112676794Y-80670488D01*
X112665840Y-80641011D01*
X112663951Y-80637614D01*
X112663484Y-80635620D01*
X112649737Y-80566503D01*
X112630953Y-80521153D01*
X143409500Y-80521153D01*
X143409500Y-80678846D01*
X143440261Y-80833489D01*
X143440264Y-80833501D01*
X143500602Y-80979172D01*
X143500609Y-80979185D01*
X143588210Y-81110288D01*
X143588213Y-81110292D01*
X143699707Y-81221786D01*
X143699711Y-81221789D01*
X143830814Y-81309390D01*
X143830827Y-81309397D01*
X143897398Y-81336971D01*
X143976503Y-81369737D01*
X144131153Y-81400499D01*
X144131156Y-81400500D01*
X144131158Y-81400500D01*
X144288844Y-81400500D01*
X144288845Y-81400499D01*
X144443497Y-81369737D01*
X144589179Y-81309394D01*
X144646044Y-81271397D01*
X144712721Y-81250520D01*
X144714935Y-81250500D01*
X161634071Y-81250500D01*
X161733200Y-81230781D01*
X161759744Y-81225501D01*
X161878127Y-81176465D01*
X161903402Y-81159577D01*
X161984669Y-81105277D01*
X163154287Y-79935659D01*
X164324812Y-78765135D01*
X165249845Y-77840102D01*
X167435272Y-75654674D01*
X167435273Y-75654673D01*
X167435277Y-75654669D01*
X167506465Y-75548127D01*
X167544417Y-75456503D01*
X167555501Y-75429744D01*
X167579157Y-75310821D01*
X167580500Y-75304071D01*
X167580500Y-73328591D01*
X167600185Y-73261552D01*
X167648206Y-73218106D01*
X167707847Y-73187718D01*
X167716433Y-73183343D01*
X167907510Y-73044517D01*
X168074517Y-72877510D01*
X168213343Y-72686433D01*
X168320568Y-72475992D01*
X168393553Y-72251368D01*
X168406059Y-72172409D01*
X168430500Y-72018097D01*
X168430500Y-71781947D01*
X170510000Y-71781947D01*
X170510000Y-72018052D01*
X170546934Y-72251247D01*
X170619897Y-72475802D01*
X170727087Y-72686174D01*
X170787338Y-72769104D01*
X170787340Y-72769105D01*
X171486212Y-72070233D01*
X171497482Y-72112292D01*
X171569890Y-72237708D01*
X171672292Y-72340110D01*
X171797708Y-72412518D01*
X171839765Y-72423787D01*
X171140893Y-73122658D01*
X171223828Y-73182914D01*
X171434197Y-73290102D01*
X171658752Y-73363065D01*
X171658751Y-73363065D01*
X171891948Y-73400000D01*
X172128052Y-73400000D01*
X172361247Y-73363065D01*
X172585802Y-73290102D01*
X172796163Y-73182918D01*
X172796169Y-73182914D01*
X172879104Y-73122658D01*
X172879105Y-73122658D01*
X172180233Y-72423787D01*
X172222292Y-72412518D01*
X172347708Y-72340110D01*
X172450110Y-72237708D01*
X172522518Y-72112292D01*
X172533787Y-72070233D01*
X173232658Y-72769105D01*
X173232658Y-72769104D01*
X173292914Y-72686169D01*
X173292918Y-72686163D01*
X173400102Y-72475802D01*
X173473065Y-72251247D01*
X173510000Y-72018052D01*
X173510000Y-71781947D01*
X173473065Y-71548752D01*
X173400102Y-71324197D01*
X173292914Y-71113828D01*
X173232658Y-71030894D01*
X173232658Y-71030893D01*
X172533787Y-71729765D01*
X172522518Y-71687708D01*
X172450110Y-71562292D01*
X172347708Y-71459890D01*
X172222292Y-71387482D01*
X172180234Y-71376212D01*
X172879105Y-70677340D01*
X172879104Y-70677338D01*
X172796174Y-70617087D01*
X172585802Y-70509897D01*
X172361247Y-70436934D01*
X172361248Y-70436934D01*
X172128052Y-70400000D01*
X171891948Y-70400000D01*
X171658752Y-70436934D01*
X171434197Y-70509897D01*
X171223830Y-70617084D01*
X171140894Y-70677340D01*
X171839766Y-71376212D01*
X171797708Y-71387482D01*
X171672292Y-71459890D01*
X171569890Y-71562292D01*
X171497482Y-71687708D01*
X171486212Y-71729765D01*
X170787340Y-71030894D01*
X170727084Y-71113830D01*
X170619897Y-71324197D01*
X170546934Y-71548752D01*
X170510000Y-71781947D01*
X168430500Y-71781947D01*
X168430500Y-71781902D01*
X168393553Y-71548631D01*
X168320566Y-71324003D01*
X168213477Y-71113830D01*
X168213343Y-71113567D01*
X168074517Y-70922490D01*
X167907510Y-70755483D01*
X167716433Y-70616657D01*
X167683742Y-70600000D01*
X167505996Y-70509433D01*
X167281368Y-70436446D01*
X167048097Y-70399500D01*
X167048092Y-70399500D01*
X166811908Y-70399500D01*
X166811903Y-70399500D01*
X166578631Y-70436446D01*
X166354003Y-70509433D01*
X166143566Y-70616657D01*
X166087119Y-70657669D01*
X165952490Y-70755483D01*
X165952488Y-70755485D01*
X165952487Y-70755485D01*
X165785485Y-70922487D01*
X165785485Y-70922488D01*
X165785483Y-70922490D01*
X165761512Y-70955483D01*
X165646657Y-71113566D01*
X165539433Y-71324003D01*
X165466446Y-71548631D01*
X165429500Y-71781902D01*
X165429500Y-72018097D01*
X165466446Y-72251368D01*
X165539433Y-72475996D01*
X165608995Y-72612518D01*
X165646657Y-72686433D01*
X165785483Y-72877510D01*
X165952490Y-73044517D01*
X166094743Y-73147870D01*
X166143568Y-73183344D01*
X166211794Y-73218106D01*
X166262590Y-73266080D01*
X166279500Y-73328591D01*
X166279500Y-74919192D01*
X166259815Y-74986231D01*
X166243181Y-75006873D01*
X161336873Y-79913181D01*
X161275550Y-79946666D01*
X161249192Y-79949500D01*
X144714935Y-79949500D01*
X144647896Y-79929815D01*
X144646090Y-79928633D01*
X144589179Y-79890606D01*
X144589172Y-79890602D01*
X144443501Y-79830264D01*
X144443489Y-79830261D01*
X144288845Y-79799500D01*
X144288842Y-79799500D01*
X144131158Y-79799500D01*
X144131155Y-79799500D01*
X143976510Y-79830261D01*
X143976498Y-79830264D01*
X143830827Y-79890602D01*
X143830814Y-79890609D01*
X143699711Y-79978210D01*
X143699707Y-79978213D01*
X143588213Y-80089707D01*
X143588210Y-80089711D01*
X143500609Y-80220814D01*
X143500602Y-80220827D01*
X143440264Y-80366498D01*
X143440261Y-80366510D01*
X143409500Y-80521153D01*
X112630953Y-80521153D01*
X112589397Y-80420826D01*
X112589390Y-80420814D01*
X112501789Y-80289711D01*
X112501786Y-80289707D01*
X112390292Y-80178213D01*
X112390288Y-80178210D01*
X112259185Y-80090609D01*
X112259172Y-80090602D01*
X112113501Y-80030264D01*
X112113489Y-80030261D01*
X111958845Y-79999500D01*
X111958842Y-79999500D01*
X111801158Y-79999500D01*
X111801155Y-79999500D01*
X111646510Y-80030261D01*
X111646498Y-80030264D01*
X111500827Y-80090602D01*
X111500814Y-80090609D01*
X111369711Y-80178210D01*
X111369707Y-80178213D01*
X111258213Y-80289707D01*
X111258210Y-80289711D01*
X111170609Y-80420814D01*
X111170602Y-80420827D01*
X111110264Y-80566498D01*
X111110261Y-80566510D01*
X111079500Y-80721153D01*
X91720499Y-80721153D01*
X91720499Y-80649992D01*
X91709999Y-80547203D01*
X91654814Y-80380666D01*
X91562712Y-80231344D01*
X91438656Y-80107288D01*
X91328711Y-80039474D01*
X91289336Y-80015187D01*
X91289335Y-80015186D01*
X91289334Y-80015186D01*
X91227558Y-79994715D01*
X91170115Y-79954943D01*
X91143292Y-79890427D01*
X91142946Y-79867280D01*
X91145921Y-79829473D01*
X90466447Y-79150000D01*
X90472661Y-79150000D01*
X90574394Y-79122741D01*
X90665606Y-79070080D01*
X90740080Y-78995606D01*
X90792741Y-78904394D01*
X90820000Y-78802661D01*
X90820000Y-78796447D01*
X91499474Y-79475921D01*
X91531859Y-79431349D01*
X91624755Y-79249031D01*
X91687990Y-79054417D01*
X91720000Y-78852317D01*
X91720000Y-78647682D01*
X91687990Y-78445582D01*
X91624755Y-78250968D01*
X91531859Y-78068650D01*
X91499474Y-78024077D01*
X91499474Y-78024076D01*
X90820000Y-78703551D01*
X90820000Y-78697339D01*
X90792741Y-78595606D01*
X90740080Y-78504394D01*
X90665606Y-78429920D01*
X90574394Y-78377259D01*
X90472661Y-78350000D01*
X90466446Y-78350000D01*
X91145922Y-77670524D01*
X91145921Y-77670523D01*
X91101359Y-77638147D01*
X91101350Y-77638141D01*
X90919031Y-77545244D01*
X90724417Y-77482009D01*
X90522317Y-77450000D01*
X90317683Y-77450000D01*
X90115582Y-77482009D01*
X89920968Y-77545244D01*
X89738644Y-77638143D01*
X89694077Y-77670523D01*
X89694077Y-77670524D01*
X90373554Y-78350000D01*
X90367339Y-78350000D01*
X90265606Y-78377259D01*
X90174394Y-78429920D01*
X90099920Y-78504394D01*
X90047259Y-78595606D01*
X90020000Y-78697339D01*
X90020000Y-78703553D01*
X89340524Y-78024077D01*
X89340523Y-78024077D01*
X89308143Y-78068644D01*
X89215244Y-78250968D01*
X89152009Y-78445582D01*
X89120000Y-78647682D01*
X89120000Y-78852317D01*
X89152009Y-79054417D01*
X89215244Y-79249031D01*
X89308141Y-79431350D01*
X89308147Y-79431359D01*
X89340523Y-79475921D01*
X89340524Y-79475922D01*
X90020000Y-78796446D01*
X90020000Y-78802661D01*
X90047259Y-78904394D01*
X90099920Y-78995606D01*
X90174394Y-79070080D01*
X90265606Y-79122741D01*
X90367339Y-79150000D01*
X90373553Y-79150000D01*
X89694076Y-79829474D01*
X89697052Y-79867282D01*
X89682687Y-79935659D01*
X89633636Y-79985415D01*
X89612440Y-79994715D01*
X89550672Y-80015184D01*
X89550663Y-80015187D01*
X89401342Y-80107289D01*
X89277289Y-80231342D01*
X89185187Y-80380663D01*
X89185185Y-80380668D01*
X89169004Y-80429500D01*
X89130001Y-80547203D01*
X89130001Y-80547204D01*
X89130000Y-80547204D01*
X89119500Y-80649983D01*
X77350000Y-80649983D01*
X77350000Y-75027135D01*
X78849500Y-75027135D01*
X78849500Y-76822870D01*
X78849501Y-76822876D01*
X78855908Y-76882483D01*
X78906202Y-77017328D01*
X78906206Y-77017335D01*
X78992452Y-77132544D01*
X78992455Y-77132547D01*
X79107664Y-77218793D01*
X79107671Y-77218797D01*
X79152618Y-77235561D01*
X79242517Y-77269091D01*
X79302127Y-77275500D01*
X79312685Y-77275499D01*
X79379723Y-77295179D01*
X79400372Y-77311818D01*
X80070591Y-77982037D01*
X80007007Y-77999075D01*
X79892993Y-78064901D01*
X79799901Y-78157993D01*
X79734075Y-78272007D01*
X79717037Y-78335591D01*
X79084728Y-77703282D01*
X79084727Y-77703282D01*
X79045380Y-77757439D01*
X78948904Y-77946782D01*
X78883242Y-78148869D01*
X78883242Y-78148872D01*
X78850000Y-78358753D01*
X78850000Y-78571246D01*
X78883242Y-78781127D01*
X78883242Y-78781130D01*
X78948904Y-78983217D01*
X79045375Y-79172550D01*
X79084728Y-79226716D01*
X79717037Y-78594408D01*
X79734075Y-78657993D01*
X79799901Y-78772007D01*
X79892993Y-78865099D01*
X80007007Y-78930925D01*
X80070590Y-78947962D01*
X79438282Y-79580269D01*
X79438282Y-79580270D01*
X79492449Y-79619624D01*
X79681782Y-79716095D01*
X79883870Y-79781757D01*
X80093754Y-79815000D01*
X80306246Y-79815000D01*
X80516127Y-79781757D01*
X80516130Y-79781757D01*
X80718217Y-79716095D01*
X80907554Y-79619622D01*
X80961716Y-79580270D01*
X80961717Y-79580270D01*
X80329408Y-78947962D01*
X80392993Y-78930925D01*
X80507007Y-78865099D01*
X80600099Y-78772007D01*
X80665925Y-78657993D01*
X80682962Y-78594408D01*
X81315270Y-79226717D01*
X81315270Y-79226716D01*
X81354622Y-79172554D01*
X81451095Y-78983217D01*
X81516757Y-78781130D01*
X81516757Y-78781127D01*
X81541737Y-78623418D01*
X81541737Y-78623417D01*
X81550000Y-78571247D01*
X81550000Y-78358753D01*
X81516757Y-78148872D01*
X81516757Y-78148869D01*
X81451095Y-77946782D01*
X81363097Y-77774078D01*
X81363096Y-77774076D01*
X81354626Y-77757451D01*
X81315270Y-77703282D01*
X81315269Y-77703282D01*
X80682962Y-78335590D01*
X80665925Y-78272007D01*
X80600099Y-78157993D01*
X80507007Y-78064901D01*
X80392993Y-77999075D01*
X80329409Y-77982037D01*
X80999627Y-77311818D01*
X81060950Y-77278333D01*
X81087307Y-77275499D01*
X81097872Y-77275499D01*
X81157483Y-77269091D01*
X81292331Y-77218796D01*
X81407546Y-77132546D01*
X81493796Y-77017331D01*
X81544091Y-76882483D01*
X81550500Y-76822873D01*
X81550499Y-75611153D01*
X114049500Y-75611153D01*
X114049500Y-75768846D01*
X114080261Y-75923489D01*
X114080264Y-75923501D01*
X114140602Y-76069172D01*
X114140606Y-76069179D01*
X114178602Y-76126044D01*
X114199480Y-76192721D01*
X114199500Y-76194935D01*
X114199500Y-77475064D01*
X114179815Y-77542103D01*
X114178603Y-77543954D01*
X114140608Y-77600817D01*
X114140602Y-77600828D01*
X114080264Y-77746498D01*
X114080261Y-77746510D01*
X114049500Y-77901153D01*
X114049500Y-78058846D01*
X114080261Y-78213489D01*
X114080264Y-78213501D01*
X114140602Y-78359172D01*
X114140609Y-78359185D01*
X114228210Y-78490288D01*
X114228213Y-78490292D01*
X114339707Y-78601786D01*
X114339711Y-78601789D01*
X114470814Y-78689390D01*
X114470827Y-78689397D01*
X114616498Y-78749735D01*
X114616503Y-78749737D01*
X114771153Y-78780499D01*
X114771156Y-78780500D01*
X114771158Y-78780500D01*
X114928844Y-78780500D01*
X114928845Y-78780499D01*
X115083497Y-78749737D01*
X115229179Y-78689394D01*
X115360289Y-78601789D01*
X115471789Y-78490289D01*
X115559394Y-78359179D01*
X115559571Y-78358753D01*
X115592752Y-78278644D01*
X115619737Y-78213497D01*
X115650500Y-78058842D01*
X115650500Y-77901158D01*
X115650500Y-77901155D01*
X115650499Y-77901153D01*
X115639955Y-77848147D01*
X115619737Y-77746503D01*
X115559394Y-77600821D01*
X115521396Y-77543953D01*
X115500520Y-77477276D01*
X115500500Y-77475064D01*
X115500500Y-76194935D01*
X115520185Y-76127896D01*
X115521366Y-76126090D01*
X115559394Y-76069179D01*
X115619737Y-75923497D01*
X115650500Y-75768842D01*
X115650500Y-75611158D01*
X115650500Y-75611155D01*
X115650499Y-75611153D01*
X115619738Y-75456510D01*
X115619737Y-75456503D01*
X115608651Y-75429738D01*
X115559397Y-75310827D01*
X115559390Y-75310814D01*
X115471789Y-75179711D01*
X115471786Y-75179707D01*
X115360292Y-75068213D01*
X115360288Y-75068210D01*
X115229185Y-74980609D01*
X115229172Y-74980602D01*
X115083501Y-74920264D01*
X115083489Y-74920261D01*
X114928845Y-74889500D01*
X114928842Y-74889500D01*
X114771158Y-74889500D01*
X114771155Y-74889500D01*
X114616510Y-74920261D01*
X114616498Y-74920264D01*
X114470827Y-74980602D01*
X114470814Y-74980609D01*
X114339711Y-75068210D01*
X114339707Y-75068213D01*
X114228213Y-75179707D01*
X114228210Y-75179711D01*
X114140609Y-75310814D01*
X114140602Y-75310827D01*
X114080264Y-75456498D01*
X114080261Y-75456510D01*
X114049500Y-75611153D01*
X81550499Y-75611153D01*
X81550499Y-75027128D01*
X81545299Y-74978757D01*
X81544091Y-74967516D01*
X81493797Y-74832671D01*
X81493793Y-74832664D01*
X81407547Y-74717455D01*
X81407544Y-74717452D01*
X81292335Y-74631206D01*
X81292328Y-74631202D01*
X81157482Y-74580908D01*
X81157483Y-74580908D01*
X81097883Y-74574501D01*
X81097881Y-74574500D01*
X81097873Y-74574500D01*
X81097864Y-74574500D01*
X79302129Y-74574500D01*
X79302123Y-74574501D01*
X79242516Y-74580908D01*
X79107671Y-74631202D01*
X79107664Y-74631206D01*
X78992455Y-74717452D01*
X78992452Y-74717455D01*
X78906206Y-74832664D01*
X78906202Y-74832671D01*
X78855908Y-74967517D01*
X78849501Y-75027116D01*
X78849501Y-75027123D01*
X78849500Y-75027135D01*
X77350000Y-75027135D01*
X77350000Y-71052135D01*
X141199500Y-71052135D01*
X141199500Y-73147870D01*
X141199501Y-73147876D01*
X141205908Y-73207483D01*
X141256202Y-73342328D01*
X141256206Y-73342335D01*
X141342452Y-73457544D01*
X141342455Y-73457547D01*
X141457664Y-73543793D01*
X141457671Y-73543797D01*
X141592517Y-73594091D01*
X141592516Y-73594091D01*
X141599444Y-73594835D01*
X141652127Y-73600500D01*
X143747872Y-73600499D01*
X143807483Y-73594091D01*
X143942331Y-73543796D01*
X144057546Y-73457546D01*
X144143796Y-73342331D01*
X144194091Y-73207483D01*
X144200500Y-73147873D01*
X144200499Y-71981902D01*
X146279500Y-71981902D01*
X146279500Y-72218097D01*
X146316446Y-72451368D01*
X146389433Y-72675996D01*
X146496519Y-72886163D01*
X146496657Y-72886433D01*
X146635483Y-73077510D01*
X146802490Y-73244517D01*
X146993567Y-73383343D01*
X147027236Y-73400498D01*
X147204003Y-73490566D01*
X147204005Y-73490566D01*
X147204008Y-73490568D01*
X147324412Y-73529689D01*
X147428631Y-73563553D01*
X147661903Y-73600500D01*
X147661908Y-73600500D01*
X147898097Y-73600500D01*
X148131368Y-73563553D01*
X148132870Y-73563065D01*
X148355992Y-73490568D01*
X148566433Y-73383343D01*
X148757510Y-73244517D01*
X148924517Y-73077510D01*
X149063343Y-72886433D01*
X149170568Y-72675992D01*
X149243553Y-72451368D01*
X149249706Y-72412518D01*
X149280500Y-72218097D01*
X149280500Y-71981947D01*
X151360000Y-71981947D01*
X151360000Y-72218052D01*
X151396934Y-72451247D01*
X151469897Y-72675802D01*
X151577087Y-72886174D01*
X151637338Y-72969104D01*
X151637340Y-72969105D01*
X152336212Y-72270233D01*
X152347482Y-72312292D01*
X152419890Y-72437708D01*
X152522292Y-72540110D01*
X152647708Y-72612518D01*
X152689765Y-72623787D01*
X151990893Y-73322658D01*
X152073828Y-73382914D01*
X152284197Y-73490102D01*
X152508752Y-73563065D01*
X152508751Y-73563065D01*
X152741948Y-73600000D01*
X152978052Y-73600000D01*
X153211247Y-73563065D01*
X153435802Y-73490102D01*
X153646163Y-73382918D01*
X153646169Y-73382914D01*
X153729104Y-73322658D01*
X153729105Y-73322658D01*
X153030233Y-72623787D01*
X153072292Y-72612518D01*
X153197708Y-72540110D01*
X153300110Y-72437708D01*
X153372518Y-72312292D01*
X153383787Y-72270234D01*
X154082658Y-72969105D01*
X154082658Y-72969104D01*
X154142914Y-72886169D01*
X154142918Y-72886163D01*
X154250102Y-72675802D01*
X154323065Y-72451247D01*
X154360000Y-72218052D01*
X154360000Y-71981947D01*
X154323065Y-71748752D01*
X154250102Y-71524197D01*
X154142914Y-71313828D01*
X154082658Y-71230894D01*
X154082658Y-71230893D01*
X153383787Y-71929765D01*
X153372518Y-71887708D01*
X153300110Y-71762292D01*
X153197708Y-71659890D01*
X153072292Y-71587482D01*
X153030234Y-71576212D01*
X153729105Y-70877341D01*
X153729104Y-70877338D01*
X153694414Y-70852135D01*
X160349500Y-70852135D01*
X160349500Y-72947870D01*
X160349501Y-72947876D01*
X160355908Y-73007483D01*
X160406202Y-73142328D01*
X160406206Y-73142335D01*
X160492452Y-73257544D01*
X160492455Y-73257547D01*
X160607664Y-73343793D01*
X160607671Y-73343797D01*
X160742517Y-73394091D01*
X160742516Y-73394091D01*
X160749444Y-73394835D01*
X160802127Y-73400500D01*
X162897872Y-73400499D01*
X162957483Y-73394091D01*
X163092331Y-73343796D01*
X163207546Y-73257546D01*
X163293796Y-73142331D01*
X163344091Y-73007483D01*
X163350500Y-72947873D01*
X163350499Y-70852128D01*
X163344091Y-70792517D01*
X163330278Y-70755483D01*
X163293797Y-70657671D01*
X163293793Y-70657664D01*
X163207547Y-70542455D01*
X163207544Y-70542452D01*
X163092335Y-70456206D01*
X163092328Y-70456202D01*
X162957482Y-70405908D01*
X162957483Y-70405908D01*
X162897883Y-70399501D01*
X162897881Y-70399500D01*
X162897873Y-70399500D01*
X162897864Y-70399500D01*
X160802129Y-70399500D01*
X160802123Y-70399501D01*
X160742516Y-70405908D01*
X160607671Y-70456202D01*
X160607664Y-70456206D01*
X160492455Y-70542452D01*
X160492452Y-70542455D01*
X160406206Y-70657664D01*
X160406202Y-70657671D01*
X160355908Y-70792517D01*
X160353267Y-70817087D01*
X160349501Y-70852123D01*
X160349500Y-70852135D01*
X153694414Y-70852135D01*
X153646174Y-70817087D01*
X153435802Y-70709897D01*
X153211247Y-70636934D01*
X153211248Y-70636934D01*
X152978052Y-70600000D01*
X152741948Y-70600000D01*
X152508752Y-70636934D01*
X152284197Y-70709897D01*
X152073830Y-70817084D01*
X151990894Y-70877340D01*
X152689766Y-71576212D01*
X152647708Y-71587482D01*
X152522292Y-71659890D01*
X152419890Y-71762292D01*
X152347482Y-71887708D01*
X152336212Y-71929766D01*
X151637340Y-71230894D01*
X151577084Y-71313830D01*
X151469897Y-71524197D01*
X151396934Y-71748752D01*
X151360000Y-71981947D01*
X149280500Y-71981947D01*
X149280500Y-71981902D01*
X149243553Y-71748631D01*
X149178569Y-71548632D01*
X149170568Y-71524008D01*
X149170566Y-71524005D01*
X149170566Y-71524003D01*
X149114002Y-71412991D01*
X149063343Y-71313567D01*
X148924517Y-71122490D01*
X148757510Y-70955483D01*
X148566433Y-70816657D01*
X148519054Y-70792516D01*
X148355996Y-70709433D01*
X148131368Y-70636446D01*
X147898097Y-70599500D01*
X147898092Y-70599500D01*
X147661908Y-70599500D01*
X147661903Y-70599500D01*
X147428631Y-70636446D01*
X147204003Y-70709433D01*
X146993566Y-70816657D01*
X146937119Y-70857669D01*
X146802490Y-70955483D01*
X146802488Y-70955485D01*
X146802487Y-70955485D01*
X146635485Y-71122487D01*
X146635485Y-71122488D01*
X146635483Y-71122490D01*
X146575862Y-71204550D01*
X146496657Y-71313566D01*
X146389433Y-71524003D01*
X146316446Y-71748631D01*
X146279500Y-71981902D01*
X144200499Y-71981902D01*
X144200499Y-71052128D01*
X144194091Y-70992517D01*
X144180278Y-70955483D01*
X144143797Y-70857671D01*
X144143793Y-70857664D01*
X144057547Y-70742455D01*
X144057544Y-70742452D01*
X143942335Y-70656206D01*
X143942328Y-70656202D01*
X143807482Y-70605908D01*
X143807483Y-70605908D01*
X143747883Y-70599501D01*
X143747881Y-70599500D01*
X143747873Y-70599500D01*
X143747864Y-70599500D01*
X141652129Y-70599500D01*
X141652123Y-70599501D01*
X141592516Y-70605908D01*
X141457671Y-70656202D01*
X141457664Y-70656206D01*
X141342455Y-70742452D01*
X141342452Y-70742455D01*
X141256206Y-70857664D01*
X141256202Y-70857671D01*
X141205908Y-70992517D01*
X141199501Y-71052116D01*
X141199501Y-71052123D01*
X141199500Y-71052135D01*
X77350000Y-71052135D01*
X77350000Y-65481153D01*
X115169500Y-65481153D01*
X115169500Y-65638846D01*
X115200261Y-65793489D01*
X115200264Y-65793501D01*
X115260602Y-65939172D01*
X115260609Y-65939185D01*
X115348210Y-66070288D01*
X115348213Y-66070292D01*
X115459707Y-66181786D01*
X115459711Y-66181789D01*
X115590814Y-66269390D01*
X115590827Y-66269397D01*
X115736498Y-66329735D01*
X115736503Y-66329737D01*
X115891153Y-66360499D01*
X115891156Y-66360500D01*
X115891158Y-66360500D01*
X116048844Y-66360500D01*
X116048845Y-66360499D01*
X116203497Y-66329737D01*
X116349179Y-66269394D01*
X116480289Y-66181789D01*
X116591789Y-66070289D01*
X116679394Y-65939179D01*
X116739737Y-65793497D01*
X116770500Y-65638842D01*
X116770500Y-65481158D01*
X116770500Y-65481155D01*
X116770499Y-65481153D01*
X116739738Y-65326510D01*
X116739737Y-65326503D01*
X116739735Y-65326498D01*
X116679397Y-65180827D01*
X116679390Y-65180814D01*
X116591789Y-65049711D01*
X116591786Y-65049707D01*
X116480292Y-64938213D01*
X116480288Y-64938210D01*
X116349185Y-64850609D01*
X116349172Y-64850602D01*
X116203501Y-64790264D01*
X116203489Y-64790261D01*
X116048845Y-64759500D01*
X116048842Y-64759500D01*
X115891158Y-64759500D01*
X115891155Y-64759500D01*
X115736510Y-64790261D01*
X115736498Y-64790264D01*
X115590827Y-64850602D01*
X115590814Y-64850609D01*
X115459711Y-64938210D01*
X115459707Y-64938213D01*
X115348213Y-65049707D01*
X115348210Y-65049711D01*
X115260609Y-65180814D01*
X115260602Y-65180827D01*
X115200264Y-65326498D01*
X115200261Y-65326510D01*
X115169500Y-65481153D01*
X77350000Y-65481153D01*
X77350000Y-60272682D01*
X124025000Y-60272682D01*
X124025000Y-60477317D01*
X124057009Y-60679417D01*
X124120244Y-60874031D01*
X124213141Y-61056350D01*
X124213147Y-61056359D01*
X124245523Y-61100921D01*
X124245524Y-61100922D01*
X124925000Y-60421446D01*
X124925000Y-60427661D01*
X124952259Y-60529394D01*
X125004920Y-60620606D01*
X125079394Y-60695080D01*
X125170606Y-60747741D01*
X125272339Y-60775000D01*
X125278553Y-60775000D01*
X124599076Y-61454474D01*
X124643650Y-61486859D01*
X124825968Y-61579755D01*
X125020582Y-61642990D01*
X125222683Y-61675000D01*
X125427317Y-61675000D01*
X125629417Y-61642990D01*
X125824031Y-61579755D01*
X126006349Y-61486859D01*
X126050921Y-61454474D01*
X125371447Y-60775000D01*
X125377661Y-60775000D01*
X125479394Y-60747741D01*
X125570606Y-60695080D01*
X125645080Y-60620606D01*
X125697741Y-60529394D01*
X125725000Y-60427661D01*
X125725000Y-60421448D01*
X126404473Y-61100921D01*
X126442280Y-61097946D01*
X126510658Y-61112310D01*
X126560415Y-61161361D01*
X126569714Y-61182556D01*
X126590186Y-61244334D01*
X126682288Y-61393656D01*
X126806344Y-61517712D01*
X126955666Y-61609814D01*
X127122203Y-61664999D01*
X127224991Y-61675500D01*
X128425008Y-61675499D01*
X128527797Y-61664999D01*
X128694334Y-61609814D01*
X128843656Y-61517712D01*
X128967712Y-61393656D01*
X129059814Y-61244334D01*
X129114999Y-61077797D01*
X129125500Y-60975009D01*
X129125499Y-59774992D01*
X129114999Y-59672203D01*
X129059814Y-59505666D01*
X128967712Y-59356344D01*
X128843656Y-59232288D01*
X128694334Y-59140186D01*
X128527797Y-59085001D01*
X128527795Y-59085000D01*
X128425010Y-59074500D01*
X127224998Y-59074500D01*
X127224981Y-59074501D01*
X127122203Y-59085000D01*
X127122200Y-59085001D01*
X126955668Y-59140185D01*
X126955663Y-59140187D01*
X126806342Y-59232289D01*
X126682289Y-59356342D01*
X126590187Y-59505663D01*
X126590185Y-59505668D01*
X126569717Y-59567438D01*
X126529944Y-59624883D01*
X126465428Y-59651706D01*
X126442283Y-59652052D01*
X126404474Y-59649076D01*
X125725000Y-60328551D01*
X125725000Y-60322339D01*
X125697741Y-60220606D01*
X125645080Y-60129394D01*
X125570606Y-60054920D01*
X125479394Y-60002259D01*
X125377661Y-59975000D01*
X125371446Y-59975000D01*
X126050922Y-59295524D01*
X126050921Y-59295523D01*
X126006359Y-59263147D01*
X126006350Y-59263141D01*
X125824031Y-59170244D01*
X125629417Y-59107009D01*
X125427317Y-59075000D01*
X125222683Y-59075000D01*
X125020582Y-59107009D01*
X124825968Y-59170244D01*
X124643644Y-59263143D01*
X124599077Y-59295523D01*
X124599077Y-59295524D01*
X125278554Y-59975000D01*
X125272339Y-59975000D01*
X125170606Y-60002259D01*
X125079394Y-60054920D01*
X125004920Y-60129394D01*
X124952259Y-60220606D01*
X124925000Y-60322339D01*
X124925000Y-60328553D01*
X124245524Y-59649077D01*
X124245523Y-59649077D01*
X124213143Y-59693644D01*
X124120244Y-59875968D01*
X124057009Y-60070582D01*
X124025000Y-60272682D01*
X77350000Y-60272682D01*
X77350000Y-54323680D01*
X77369685Y-54256641D01*
X77422489Y-54210886D01*
X77473678Y-54199680D01*
X79372153Y-54194768D01*
X79439243Y-54214279D01*
X79485135Y-54266965D01*
X79495257Y-54336097D01*
X79466397Y-54399728D01*
X79426276Y-54430488D01*
X79187005Y-54545714D01*
X78958712Y-54689161D01*
X78747915Y-54857265D01*
X78557265Y-55047915D01*
X78389161Y-55258712D01*
X78245714Y-55487005D01*
X78128734Y-55729917D01*
X78039687Y-55984397D01*
X78039684Y-55984405D01*
X77979688Y-56247268D01*
X77979686Y-56247280D01*
X77949500Y-56515186D01*
X77949500Y-56784813D01*
X77979686Y-57052719D01*
X77979688Y-57052731D01*
X78039684Y-57315594D01*
X78039687Y-57315602D01*
X78128734Y-57570082D01*
X78245714Y-57812994D01*
X78245716Y-57812997D01*
X78389162Y-58041289D01*
X78557266Y-58252085D01*
X78747915Y-58442734D01*
X78958711Y-58610838D01*
X79187003Y-58754284D01*
X79187005Y-58754285D01*
X79261166Y-58789999D01*
X79429921Y-58871267D01*
X79621049Y-58938145D01*
X79684397Y-58960312D01*
X79684405Y-58960315D01*
X79684408Y-58960315D01*
X79684409Y-58960316D01*
X79947268Y-59020312D01*
X80215187Y-59050499D01*
X80215188Y-59050500D01*
X80215191Y-59050500D01*
X80484812Y-59050500D01*
X80484812Y-59050499D01*
X80752732Y-59020312D01*
X81015591Y-58960316D01*
X81270079Y-58871267D01*
X81512997Y-58754284D01*
X81618993Y-58687682D01*
X104180000Y-58687682D01*
X104180000Y-58892317D01*
X104212009Y-59094417D01*
X104275244Y-59289031D01*
X104368141Y-59471350D01*
X104368147Y-59471359D01*
X104400523Y-59515921D01*
X104400524Y-59515922D01*
X105080000Y-58836446D01*
X105080000Y-58842661D01*
X105107259Y-58944394D01*
X105159920Y-59035606D01*
X105234394Y-59110080D01*
X105325606Y-59162741D01*
X105427339Y-59190000D01*
X105433553Y-59190000D01*
X104754076Y-59869474D01*
X104798650Y-59901859D01*
X104980968Y-59994755D01*
X105175582Y-60057990D01*
X105377683Y-60090000D01*
X105582317Y-60090000D01*
X105784417Y-60057990D01*
X105979031Y-59994755D01*
X106161349Y-59901859D01*
X106205921Y-59869474D01*
X105526447Y-59190000D01*
X105532661Y-59190000D01*
X105634394Y-59162741D01*
X105725606Y-59110080D01*
X105800080Y-59035606D01*
X105852741Y-58944394D01*
X105880000Y-58842661D01*
X105880000Y-58836447D01*
X106559473Y-59515921D01*
X106597280Y-59512946D01*
X106665658Y-59527310D01*
X106715415Y-59576361D01*
X106724714Y-59597556D01*
X106742658Y-59651706D01*
X106745186Y-59659333D01*
X106745187Y-59659336D01*
X106766348Y-59693644D01*
X106837288Y-59808656D01*
X106961344Y-59932712D01*
X107110666Y-60024814D01*
X107277203Y-60079999D01*
X107379991Y-60090500D01*
X108580008Y-60090499D01*
X108682797Y-60079999D01*
X108849334Y-60024814D01*
X108998656Y-59932712D01*
X109122712Y-59808656D01*
X109214814Y-59659334D01*
X109269999Y-59492797D01*
X109280500Y-59390009D01*
X109280499Y-58790000D01*
X109280499Y-58189998D01*
X109280498Y-58189981D01*
X109269999Y-58087203D01*
X109269998Y-58087200D01*
X109262335Y-58064076D01*
X109214814Y-57920666D01*
X109122712Y-57771344D01*
X108998656Y-57647288D01*
X108898066Y-57585244D01*
X108849336Y-57555187D01*
X108849331Y-57555185D01*
X108847862Y-57554698D01*
X108682797Y-57500001D01*
X108682795Y-57500000D01*
X108580010Y-57489500D01*
X107379998Y-57489500D01*
X107379981Y-57489501D01*
X107277203Y-57500000D01*
X107277200Y-57500001D01*
X107110668Y-57555185D01*
X107110663Y-57555187D01*
X106961342Y-57647289D01*
X106837289Y-57771342D01*
X106745187Y-57920663D01*
X106745185Y-57920668D01*
X106724717Y-57982438D01*
X106684944Y-58039883D01*
X106620428Y-58066706D01*
X106597283Y-58067052D01*
X106559474Y-58064076D01*
X105880000Y-58743551D01*
X105880000Y-58737339D01*
X105852741Y-58635606D01*
X105800080Y-58544394D01*
X105725606Y-58469920D01*
X105634394Y-58417259D01*
X105532661Y-58390000D01*
X105526446Y-58390000D01*
X106205922Y-57710524D01*
X106205921Y-57710523D01*
X106161359Y-57678147D01*
X106161350Y-57678141D01*
X105979031Y-57585244D01*
X105784417Y-57522009D01*
X105582317Y-57490000D01*
X105377683Y-57490000D01*
X105175582Y-57522009D01*
X104980968Y-57585244D01*
X104798644Y-57678143D01*
X104754077Y-57710523D01*
X104754077Y-57710524D01*
X105433554Y-58390000D01*
X105427339Y-58390000D01*
X105325606Y-58417259D01*
X105234394Y-58469920D01*
X105159920Y-58544394D01*
X105107259Y-58635606D01*
X105080000Y-58737339D01*
X105080000Y-58743553D01*
X104400524Y-58064077D01*
X104400523Y-58064077D01*
X104368143Y-58108644D01*
X104275244Y-58290968D01*
X104212009Y-58485582D01*
X104180000Y-58687682D01*
X81618993Y-58687682D01*
X81741289Y-58610838D01*
X81952085Y-58442734D01*
X82142734Y-58252085D01*
X82310838Y-58041289D01*
X82454284Y-57812997D01*
X82474344Y-57771342D01*
X82506784Y-57703981D01*
X82506785Y-57703979D01*
X82571262Y-57570090D01*
X82571263Y-57570087D01*
X82571267Y-57570079D01*
X82660316Y-57315591D01*
X82720312Y-57052732D01*
X82750500Y-56784809D01*
X82750500Y-56665186D01*
X187599500Y-56665186D01*
X187599500Y-56934813D01*
X187629686Y-57202719D01*
X187629688Y-57202731D01*
X187689684Y-57465594D01*
X187689687Y-57465602D01*
X187778734Y-57720082D01*
X187895714Y-57962994D01*
X187895716Y-57962997D01*
X188039162Y-58191289D01*
X188087645Y-58252085D01*
X188197628Y-58390000D01*
X188207266Y-58402085D01*
X188397915Y-58592734D01*
X188608711Y-58760838D01*
X188837003Y-58904284D01*
X189079921Y-59021267D01*
X189262060Y-59085000D01*
X189334397Y-59110312D01*
X189334405Y-59110315D01*
X189334408Y-59110315D01*
X189334409Y-59110316D01*
X189597268Y-59170312D01*
X189865187Y-59200499D01*
X189865188Y-59200500D01*
X189865191Y-59200500D01*
X190134812Y-59200500D01*
X190134812Y-59200499D01*
X190402732Y-59170312D01*
X190665591Y-59110316D01*
X190920079Y-59021267D01*
X191162997Y-58904284D01*
X191391289Y-58760838D01*
X191602085Y-58592734D01*
X191792734Y-58402085D01*
X191960838Y-58191289D01*
X192104284Y-57962997D01*
X192221267Y-57720079D01*
X192310316Y-57465591D01*
X192370312Y-57202732D01*
X192400500Y-56934809D01*
X192400500Y-56665191D01*
X192370312Y-56397268D01*
X192310316Y-56134409D01*
X192221267Y-55879921D01*
X192104284Y-55637003D01*
X191960838Y-55408711D01*
X191792734Y-55197915D01*
X191602085Y-55007266D01*
X191391289Y-54839162D01*
X191162997Y-54695716D01*
X191162994Y-54695714D01*
X190920082Y-54578734D01*
X190665602Y-54489687D01*
X190665594Y-54489684D01*
X190468446Y-54444687D01*
X190402732Y-54429688D01*
X190402728Y-54429687D01*
X190402719Y-54429686D01*
X190134813Y-54399500D01*
X190134809Y-54399500D01*
X189865191Y-54399500D01*
X189865186Y-54399500D01*
X189597280Y-54429686D01*
X189597268Y-54429688D01*
X189334405Y-54489684D01*
X189334397Y-54489687D01*
X189079917Y-54578734D01*
X188837005Y-54695714D01*
X188608712Y-54839161D01*
X188397915Y-55007265D01*
X188207265Y-55197915D01*
X188039161Y-55408712D01*
X187895714Y-55637005D01*
X187778734Y-55879917D01*
X187689687Y-56134397D01*
X187689684Y-56134405D01*
X187629688Y-56397268D01*
X187629686Y-56397280D01*
X187599500Y-56665186D01*
X82750500Y-56665186D01*
X82750500Y-56515191D01*
X82720312Y-56247268D01*
X82660316Y-55984409D01*
X82571267Y-55729921D01*
X82454284Y-55487003D01*
X82310838Y-55258711D01*
X82142734Y-55047915D01*
X81952085Y-54857266D01*
X81741289Y-54689162D01*
X81512997Y-54545716D01*
X81512994Y-54545714D01*
X81270095Y-54428740D01*
X81270084Y-54428735D01*
X81270079Y-54428733D01*
X81270072Y-54428730D01*
X81269048Y-54428307D01*
X81268829Y-54428131D01*
X81266944Y-54427223D01*
X81267155Y-54426782D01*
X81214638Y-54384474D01*
X81192563Y-54318184D01*
X81209831Y-54250481D01*
X81260961Y-54202863D01*
X81316160Y-54189738D01*
X193175811Y-53900321D01*
X193242900Y-53919832D01*
G37*
%TD.AperFunction*%
%TD*%
%TA.AperFunction,Conductor*%
%TO.N,GND_PWR*%
G36*
X170793213Y-124949943D02*
G01*
X170839208Y-125002538D01*
X170850647Y-125053914D01*
X170899347Y-134375165D01*
X170880013Y-134442307D01*
X170827449Y-134488337D01*
X170775164Y-134499813D01*
X102749474Y-134398065D01*
X102682464Y-134378280D01*
X102643168Y-134335625D01*
X102642779Y-134335886D01*
X102641118Y-134333401D01*
X102640294Y-134332506D01*
X102639389Y-134330812D01*
X102551789Y-134199711D01*
X102551786Y-134199707D01*
X102440292Y-134088213D01*
X102440288Y-134088210D01*
X102309185Y-134000609D01*
X102309172Y-134000602D01*
X102163501Y-133940264D01*
X102163489Y-133940261D01*
X102008845Y-133909500D01*
X102008842Y-133909500D01*
X101851158Y-133909500D01*
X101851155Y-133909500D01*
X101696510Y-133940261D01*
X101696498Y-133940264D01*
X101550827Y-134000602D01*
X101550814Y-134000609D01*
X101419711Y-134088210D01*
X101419707Y-134088213D01*
X101308213Y-134199707D01*
X101308207Y-134199715D01*
X101217222Y-134335885D01*
X101216061Y-134335109D01*
X101172026Y-134379923D01*
X101111465Y-134395614D01*
X77424352Y-134360185D01*
X77357342Y-134340400D01*
X77311666Y-134287528D01*
X77300538Y-134235652D01*
X77321230Y-129461049D01*
X82052000Y-129461049D01*
X82052000Y-129683950D01*
X82052001Y-129683966D01*
X82081094Y-129904952D01*
X82081095Y-129904957D01*
X82081096Y-129904963D01*
X82133358Y-130100008D01*
X82138790Y-130120280D01*
X82138793Y-130120290D01*
X82224093Y-130326222D01*
X82224095Y-130326226D01*
X82335552Y-130519274D01*
X82335557Y-130519280D01*
X82335558Y-130519282D01*
X82471251Y-130696122D01*
X82471257Y-130696129D01*
X82628870Y-130853742D01*
X82628877Y-130853748D01*
X82692415Y-130902502D01*
X82805726Y-130989448D01*
X82998774Y-131100905D01*
X83128640Y-131154697D01*
X83170014Y-131171835D01*
X83204719Y-131186210D01*
X83420037Y-131243904D01*
X83641043Y-131273000D01*
X83641050Y-131273000D01*
X83863950Y-131273000D01*
X83863957Y-131273000D01*
X84084963Y-131243904D01*
X84300281Y-131186210D01*
X84506226Y-131100905D01*
X84699274Y-130989448D01*
X84876124Y-130853747D01*
X85033747Y-130696124D01*
X85169448Y-130519274D01*
X85280905Y-130326226D01*
X85286302Y-130313197D01*
X85286304Y-130313193D01*
X85366206Y-130120290D01*
X85366210Y-130120281D01*
X85423904Y-129904963D01*
X85453000Y-129683957D01*
X85453000Y-129461043D01*
X85423904Y-129240037D01*
X85366210Y-129024719D01*
X85280905Y-128818774D01*
X85255901Y-128775466D01*
X104700000Y-128775466D01*
X104700000Y-129024533D01*
X104732508Y-129271463D01*
X104796973Y-129512049D01*
X104892283Y-129742148D01*
X104892288Y-129742159D01*
X105016813Y-129957841D01*
X105016819Y-129957849D01*
X105091400Y-130055045D01*
X105998958Y-129147487D01*
X106023978Y-129207890D01*
X106095112Y-129314351D01*
X106185649Y-129404888D01*
X106292110Y-129476022D01*
X106352511Y-129501041D01*
X105444953Y-130408598D01*
X105542150Y-130483180D01*
X105542158Y-130483186D01*
X105757840Y-130607711D01*
X105757851Y-130607716D01*
X105987950Y-130703026D01*
X106228536Y-130767491D01*
X106475466Y-130800000D01*
X106724534Y-130800000D01*
X106971463Y-130767491D01*
X107212049Y-130703026D01*
X107442148Y-130607716D01*
X107442159Y-130607711D01*
X107657855Y-130483178D01*
X107755045Y-130408600D01*
X107755045Y-130408597D01*
X106847488Y-129501041D01*
X106907890Y-129476022D01*
X107014351Y-129404888D01*
X107104888Y-129314351D01*
X107176022Y-129207890D01*
X107201041Y-129147489D01*
X108108597Y-130055045D01*
X108108600Y-130055045D01*
X108183178Y-129957855D01*
X108307711Y-129742159D01*
X108307716Y-129742148D01*
X108403026Y-129512049D01*
X108467491Y-129271463D01*
X108500000Y-129024533D01*
X108500000Y-128775466D01*
X108467491Y-128528536D01*
X108403026Y-128287950D01*
X108307716Y-128057851D01*
X108307711Y-128057840D01*
X108183186Y-127842158D01*
X108183174Y-127842140D01*
X108129600Y-127772322D01*
X108129599Y-127772321D01*
X108108598Y-127744953D01*
X107201041Y-128652510D01*
X107176022Y-128592110D01*
X107104888Y-128485649D01*
X107014351Y-128395112D01*
X106907890Y-128323978D01*
X106847487Y-128298957D01*
X107446461Y-127699984D01*
X109699500Y-127699984D01*
X109699500Y-130100015D01*
X109710000Y-130202795D01*
X109710001Y-130202797D01*
X109735094Y-130278522D01*
X109765186Y-130369335D01*
X109765187Y-130369337D01*
X109857286Y-130518651D01*
X109857289Y-130518655D01*
X109981344Y-130642710D01*
X109981348Y-130642713D01*
X110130662Y-130734812D01*
X110130664Y-130734813D01*
X110130666Y-130734814D01*
X110297203Y-130789999D01*
X110399992Y-130800500D01*
X110399997Y-130800500D01*
X112800003Y-130800500D01*
X112800008Y-130800500D01*
X112902797Y-130789999D01*
X113069334Y-130734814D01*
X113218655Y-130642711D01*
X113342711Y-130518655D01*
X113434814Y-130369334D01*
X113489999Y-130202797D01*
X113500500Y-130100008D01*
X113500500Y-129577966D01*
X134567500Y-129577966D01*
X134567500Y-129827033D01*
X134600008Y-130073963D01*
X134664473Y-130314549D01*
X134759783Y-130544648D01*
X134759788Y-130544659D01*
X134884313Y-130760341D01*
X134884319Y-130760349D01*
X134958900Y-130857545D01*
X135866458Y-129949987D01*
X135891478Y-130010390D01*
X135962612Y-130116851D01*
X136053149Y-130207388D01*
X136159610Y-130278522D01*
X136220011Y-130303541D01*
X135312453Y-131211098D01*
X135409650Y-131285680D01*
X135409658Y-131285686D01*
X135625340Y-131410211D01*
X135625351Y-131410216D01*
X135855450Y-131505526D01*
X136096036Y-131569991D01*
X136342966Y-131602500D01*
X136592034Y-131602500D01*
X136838963Y-131569991D01*
X137079549Y-131505526D01*
X137309648Y-131410216D01*
X137309659Y-131410211D01*
X137525355Y-131285678D01*
X137622545Y-131211100D01*
X137622545Y-131211097D01*
X136714988Y-130303541D01*
X136775390Y-130278522D01*
X136881851Y-130207388D01*
X136972388Y-130116851D01*
X137043522Y-130010390D01*
X137068541Y-129949989D01*
X137976097Y-130857545D01*
X137976100Y-130857545D01*
X138050678Y-130760355D01*
X138175211Y-130544659D01*
X138175216Y-130544648D01*
X138270526Y-130314549D01*
X138334991Y-130073963D01*
X138367500Y-129827033D01*
X138367500Y-129577966D01*
X138334991Y-129331036D01*
X138270526Y-129090450D01*
X138175216Y-128860351D01*
X138175211Y-128860340D01*
X138050686Y-128644658D01*
X138050674Y-128644640D01*
X137997100Y-128574822D01*
X137997099Y-128574821D01*
X137976098Y-128547453D01*
X137068541Y-129455010D01*
X137043522Y-129394610D01*
X136972388Y-129288149D01*
X136881851Y-129197612D01*
X136775390Y-129126478D01*
X136714987Y-129101457D01*
X137313961Y-128502484D01*
X139567000Y-128502484D01*
X139567000Y-130902515D01*
X139577500Y-131005295D01*
X139577501Y-131005297D01*
X139605093Y-131088565D01*
X139632686Y-131171835D01*
X139632687Y-131171837D01*
X139724786Y-131321151D01*
X139724789Y-131321155D01*
X139848844Y-131445210D01*
X139848848Y-131445213D01*
X139998162Y-131537312D01*
X139998164Y-131537313D01*
X139998166Y-131537314D01*
X140164703Y-131592499D01*
X140267492Y-131603000D01*
X140267497Y-131603000D01*
X142667503Y-131603000D01*
X142667508Y-131603000D01*
X142770297Y-131592499D01*
X142936834Y-131537314D01*
X143086155Y-131445211D01*
X143210211Y-131321155D01*
X143302314Y-131171834D01*
X143357499Y-131005297D01*
X143368000Y-130902508D01*
X143368000Y-129307844D01*
X149200000Y-129307844D01*
X149206401Y-129367372D01*
X149206403Y-129367379D01*
X149256645Y-129502086D01*
X149256649Y-129502093D01*
X149342809Y-129617187D01*
X149342812Y-129617190D01*
X149457906Y-129703350D01*
X149457913Y-129703354D01*
X149592620Y-129753596D01*
X149592627Y-129753598D01*
X149652155Y-129759999D01*
X149652172Y-129760000D01*
X151100000Y-129760000D01*
X151100000Y-129213554D01*
X151099998Y-129213553D01*
X151600000Y-129213553D01*
X151600000Y-129760000D01*
X153047828Y-129760000D01*
X153047844Y-129759999D01*
X153107372Y-129753598D01*
X153107379Y-129753596D01*
X153242086Y-129703354D01*
X153242093Y-129703350D01*
X153357187Y-129617190D01*
X153357190Y-129617187D01*
X153443350Y-129502093D01*
X153443354Y-129502086D01*
X153493596Y-129367379D01*
X153493598Y-129367372D01*
X153499461Y-129312844D01*
X161695000Y-129312844D01*
X161701401Y-129372372D01*
X161701403Y-129372379D01*
X161751645Y-129507086D01*
X161751649Y-129507093D01*
X161837809Y-129622187D01*
X161837812Y-129622190D01*
X161952906Y-129708350D01*
X161952913Y-129708354D01*
X162087620Y-129758596D01*
X162087627Y-129758598D01*
X162147155Y-129764999D01*
X162147172Y-129765000D01*
X163595000Y-129765000D01*
X163595000Y-129218554D01*
X163594998Y-129218553D01*
X164095000Y-129218553D01*
X164095000Y-129765000D01*
X165542828Y-129765000D01*
X165542844Y-129764999D01*
X165602372Y-129758598D01*
X165602379Y-129758596D01*
X165737086Y-129708354D01*
X165737093Y-129708350D01*
X165852187Y-129622190D01*
X165852190Y-129622187D01*
X165938350Y-129507093D01*
X165938354Y-129507086D01*
X165988596Y-129372379D01*
X165988598Y-129372372D01*
X165994999Y-129312844D01*
X165995000Y-129312827D01*
X165995000Y-128215000D01*
X165898553Y-128215000D01*
X164741242Y-129372312D01*
X164679919Y-129405797D01*
X164610227Y-129400813D01*
X164565880Y-129372312D01*
X164495000Y-129301432D01*
X164424120Y-129372312D01*
X164362797Y-129405796D01*
X164293105Y-129400812D01*
X164248758Y-129372311D01*
X164095000Y-129218553D01*
X163594998Y-129218553D01*
X163441241Y-129372311D01*
X163379918Y-129405796D01*
X163310226Y-129400812D01*
X163265879Y-129372311D01*
X163195000Y-129301432D01*
X163124120Y-129372312D01*
X163062797Y-129405797D01*
X162993105Y-129400813D01*
X162948758Y-129372312D01*
X162158625Y-128582179D01*
X162380000Y-128582179D01*
X162380000Y-128647821D01*
X162405119Y-128708465D01*
X162451535Y-128754881D01*
X162512179Y-128780000D01*
X162577821Y-128780000D01*
X162638465Y-128754881D01*
X162684881Y-128708465D01*
X162710000Y-128647821D01*
X162710000Y-128615000D01*
X162898554Y-128615000D01*
X163195000Y-128911446D01*
X163491446Y-128615000D01*
X163458625Y-128582179D01*
X163680000Y-128582179D01*
X163680000Y-128647821D01*
X163705119Y-128708465D01*
X163751535Y-128754881D01*
X163812179Y-128780000D01*
X163877821Y-128780000D01*
X163938465Y-128754881D01*
X163984881Y-128708465D01*
X164010000Y-128647821D01*
X164010000Y-128615000D01*
X164198554Y-128615000D01*
X164495000Y-128911446D01*
X164791446Y-128615000D01*
X164758625Y-128582179D01*
X164980000Y-128582179D01*
X164980000Y-128647821D01*
X165005119Y-128708465D01*
X165051535Y-128754881D01*
X165112179Y-128780000D01*
X165177821Y-128780000D01*
X165238465Y-128754881D01*
X165284881Y-128708465D01*
X165310000Y-128647821D01*
X165310000Y-128582179D01*
X165284881Y-128521535D01*
X165238465Y-128475119D01*
X165177821Y-128450000D01*
X165112179Y-128450000D01*
X165051535Y-128475119D01*
X165005119Y-128521535D01*
X164980000Y-128582179D01*
X164758625Y-128582179D01*
X164495000Y-128318554D01*
X164198554Y-128615000D01*
X164010000Y-128615000D01*
X164010000Y-128582179D01*
X163984881Y-128521535D01*
X163938465Y-128475119D01*
X163877821Y-128450000D01*
X163812179Y-128450000D01*
X163751535Y-128475119D01*
X163705119Y-128521535D01*
X163680000Y-128582179D01*
X163458625Y-128582179D01*
X163195000Y-128318554D01*
X162898554Y-128615000D01*
X162710000Y-128615000D01*
X162710000Y-128582179D01*
X162684881Y-128521535D01*
X162638465Y-128475119D01*
X162577821Y-128450000D01*
X162512179Y-128450000D01*
X162451535Y-128475119D01*
X162405119Y-128521535D01*
X162380000Y-128582179D01*
X162158625Y-128582179D01*
X161791446Y-128215000D01*
X162498554Y-128215000D01*
X162545000Y-128261445D01*
X162591446Y-128215000D01*
X165098554Y-128215000D01*
X165145000Y-128261445D01*
X165191446Y-128215000D01*
X165098554Y-128215000D01*
X162591446Y-128215000D01*
X162498554Y-128215000D01*
X161791446Y-128215000D01*
X161695000Y-128215000D01*
X161695000Y-129312844D01*
X153499461Y-129312844D01*
X153499999Y-129307844D01*
X153500000Y-129307827D01*
X153500000Y-128210000D01*
X153403553Y-128210000D01*
X152246242Y-129367312D01*
X152184919Y-129400797D01*
X152115227Y-129395813D01*
X152070880Y-129367312D01*
X152000000Y-129296432D01*
X151929120Y-129367312D01*
X151867797Y-129400796D01*
X151798105Y-129395812D01*
X151753758Y-129367311D01*
X151600000Y-129213553D01*
X151099998Y-129213553D01*
X150946241Y-129367311D01*
X150884918Y-129400796D01*
X150815226Y-129395812D01*
X150770879Y-129367311D01*
X150700000Y-129296432D01*
X150629120Y-129367312D01*
X150567797Y-129400797D01*
X150498105Y-129395813D01*
X150453758Y-129367312D01*
X149663625Y-128577179D01*
X149885000Y-128577179D01*
X149885000Y-128642821D01*
X149910119Y-128703465D01*
X149956535Y-128749881D01*
X150017179Y-128775000D01*
X150082821Y-128775000D01*
X150143465Y-128749881D01*
X150189881Y-128703465D01*
X150215000Y-128642821D01*
X150215000Y-128610000D01*
X150403554Y-128610000D01*
X150700000Y-128906446D01*
X150996446Y-128610000D01*
X150963625Y-128577179D01*
X151185000Y-128577179D01*
X151185000Y-128642821D01*
X151210119Y-128703465D01*
X151256535Y-128749881D01*
X151317179Y-128775000D01*
X151382821Y-128775000D01*
X151443465Y-128749881D01*
X151489881Y-128703465D01*
X151515000Y-128642821D01*
X151515000Y-128610000D01*
X151703554Y-128610000D01*
X152000000Y-128906446D01*
X152296446Y-128610000D01*
X152263625Y-128577179D01*
X152485000Y-128577179D01*
X152485000Y-128642821D01*
X152510119Y-128703465D01*
X152556535Y-128749881D01*
X152617179Y-128775000D01*
X152682821Y-128775000D01*
X152743465Y-128749881D01*
X152789881Y-128703465D01*
X152815000Y-128642821D01*
X152815000Y-128577179D01*
X152789881Y-128516535D01*
X152743465Y-128470119D01*
X152682821Y-128445000D01*
X152617179Y-128445000D01*
X152556535Y-128470119D01*
X152510119Y-128516535D01*
X152485000Y-128577179D01*
X152263625Y-128577179D01*
X152000000Y-128313554D01*
X151703554Y-128610000D01*
X151515000Y-128610000D01*
X151515000Y-128577179D01*
X151489881Y-128516535D01*
X151443465Y-128470119D01*
X151382821Y-128445000D01*
X151317179Y-128445000D01*
X151256535Y-128470119D01*
X151210119Y-128516535D01*
X151185000Y-128577179D01*
X150963625Y-128577179D01*
X150700000Y-128313554D01*
X150403554Y-128610000D01*
X150215000Y-128610000D01*
X150215000Y-128577179D01*
X150189881Y-128516535D01*
X150143465Y-128470119D01*
X150082821Y-128445000D01*
X150017179Y-128445000D01*
X149956535Y-128470119D01*
X149910119Y-128516535D01*
X149885000Y-128577179D01*
X149663625Y-128577179D01*
X149296446Y-128210000D01*
X150003554Y-128210000D01*
X150050000Y-128256445D01*
X150096446Y-128210000D01*
X152603554Y-128210000D01*
X152650000Y-128256445D01*
X152696446Y-128210000D01*
X152603554Y-128210000D01*
X150096446Y-128210000D01*
X150003554Y-128210000D01*
X149296446Y-128210000D01*
X149200000Y-128210000D01*
X149200000Y-129307844D01*
X143368000Y-129307844D01*
X143368000Y-128502492D01*
X143357499Y-128399703D01*
X143302314Y-128233166D01*
X143254444Y-128155558D01*
X143210213Y-128083848D01*
X143210210Y-128083844D01*
X143086155Y-127959789D01*
X143086151Y-127959786D01*
X142936837Y-127867687D01*
X142936835Y-127867686D01*
X142853565Y-127840093D01*
X142770297Y-127812501D01*
X142770295Y-127812500D01*
X142667515Y-127802000D01*
X142667508Y-127802000D01*
X140267492Y-127802000D01*
X140267484Y-127802000D01*
X140164704Y-127812500D01*
X140164703Y-127812501D01*
X139998164Y-127867686D01*
X139998162Y-127867687D01*
X139848848Y-127959786D01*
X139848844Y-127959789D01*
X139724789Y-128083844D01*
X139724786Y-128083848D01*
X139632687Y-128233162D01*
X139632686Y-128233164D01*
X139577501Y-128399703D01*
X139577500Y-128399704D01*
X139567000Y-128502484D01*
X137313961Y-128502484D01*
X137622545Y-128193900D01*
X137525349Y-128119319D01*
X137525341Y-128119313D01*
X137309659Y-127994788D01*
X137309648Y-127994783D01*
X137079549Y-127899473D01*
X136838963Y-127835008D01*
X136592034Y-127802500D01*
X136342966Y-127802500D01*
X136096036Y-127835008D01*
X135855450Y-127899473D01*
X135625351Y-127994783D01*
X135625347Y-127994785D01*
X135409643Y-128119323D01*
X135312453Y-128193899D01*
X135312453Y-128193900D01*
X136220011Y-129101458D01*
X136159610Y-129126478D01*
X136053149Y-129197612D01*
X135962612Y-129288149D01*
X135891478Y-129394610D01*
X135866458Y-129455011D01*
X134958900Y-128547453D01*
X134958899Y-128547453D01*
X134884323Y-128644643D01*
X134759785Y-128860347D01*
X134759783Y-128860351D01*
X134664473Y-129090450D01*
X134600008Y-129331036D01*
X134567500Y-129577966D01*
X113500500Y-129577966D01*
X113500500Y-127699992D01*
X113497288Y-127668554D01*
X113490081Y-127598001D01*
X113490081Y-127598000D01*
X113490000Y-127597211D01*
X113489999Y-127597209D01*
X113489999Y-127597203D01*
X113434814Y-127430666D01*
X113421120Y-127408465D01*
X113342713Y-127281348D01*
X113342710Y-127281344D01*
X113218655Y-127157289D01*
X113218651Y-127157286D01*
X113069337Y-127065187D01*
X113069335Y-127065186D01*
X112986065Y-127037593D01*
X112902797Y-127010001D01*
X112902795Y-127010000D01*
X112800015Y-126999500D01*
X112800008Y-126999500D01*
X110399992Y-126999500D01*
X110399984Y-126999500D01*
X110297204Y-127010000D01*
X110297203Y-127010001D01*
X110130664Y-127065186D01*
X110130662Y-127065187D01*
X109981348Y-127157286D01*
X109981344Y-127157289D01*
X109857289Y-127281344D01*
X109857286Y-127281348D01*
X109765187Y-127430662D01*
X109765186Y-127430664D01*
X109710001Y-127597203D01*
X109710000Y-127597204D01*
X109699500Y-127699984D01*
X107446461Y-127699984D01*
X107755045Y-127391400D01*
X107657849Y-127316819D01*
X107657841Y-127316813D01*
X107442159Y-127192288D01*
X107442148Y-127192283D01*
X107212049Y-127096973D01*
X106971463Y-127032508D01*
X106724534Y-127000000D01*
X106475466Y-127000000D01*
X106228536Y-127032508D01*
X105987950Y-127096973D01*
X105757851Y-127192283D01*
X105757847Y-127192285D01*
X105542143Y-127316823D01*
X105444953Y-127391399D01*
X105444953Y-127391400D01*
X106352511Y-128298958D01*
X106292110Y-128323978D01*
X106185649Y-128395112D01*
X106095112Y-128485649D01*
X106023978Y-128592110D01*
X105998958Y-128652511D01*
X105091400Y-127744953D01*
X105091399Y-127744953D01*
X105016823Y-127842143D01*
X104892285Y-128057847D01*
X104892283Y-128057851D01*
X104796973Y-128287950D01*
X104732508Y-128528536D01*
X104700000Y-128775466D01*
X85255901Y-128775466D01*
X85169448Y-128625726D01*
X85050047Y-128470119D01*
X85033748Y-128448877D01*
X85033742Y-128448870D01*
X84876129Y-128291257D01*
X84876122Y-128291251D01*
X84699282Y-128155558D01*
X84699280Y-128155557D01*
X84699274Y-128155552D01*
X84506226Y-128044095D01*
X84506222Y-128044093D01*
X84300290Y-127958793D01*
X84300283Y-127958791D01*
X84300281Y-127958790D01*
X84084963Y-127901096D01*
X84084957Y-127901095D01*
X84084952Y-127901094D01*
X83863966Y-127872001D01*
X83863963Y-127872000D01*
X83863957Y-127872000D01*
X83641043Y-127872000D01*
X83641037Y-127872000D01*
X83641033Y-127872001D01*
X83420047Y-127901094D01*
X83420040Y-127901095D01*
X83420037Y-127901096D01*
X83386807Y-127910000D01*
X83204719Y-127958790D01*
X83204709Y-127958793D01*
X82998777Y-128044093D01*
X82998773Y-128044095D01*
X82805726Y-128155552D01*
X82805717Y-128155558D01*
X82628877Y-128291251D01*
X82628870Y-128291257D01*
X82471257Y-128448870D01*
X82471251Y-128448877D01*
X82335558Y-128625717D01*
X82335552Y-128625726D01*
X82224095Y-128818773D01*
X82224093Y-128818777D01*
X82138793Y-129024709D01*
X82138790Y-129024719D01*
X82086853Y-129218554D01*
X82081097Y-129240034D01*
X82081094Y-129240047D01*
X82052001Y-129461033D01*
X82052000Y-129461049D01*
X77321230Y-129461049D01*
X77339460Y-125254386D01*
X77359435Y-125187436D01*
X77412437Y-125141910D01*
X77464383Y-125130930D01*
X82092187Y-125165558D01*
X82159075Y-125185744D01*
X82204434Y-125238889D01*
X82205817Y-125242100D01*
X82224095Y-125286226D01*
X82335552Y-125479274D01*
X82335557Y-125479280D01*
X82335558Y-125479282D01*
X82471251Y-125656122D01*
X82471257Y-125656129D01*
X82628870Y-125813742D01*
X82628876Y-125813747D01*
X82805726Y-125949448D01*
X82998774Y-126060905D01*
X83204719Y-126146210D01*
X83420037Y-126203904D01*
X83641043Y-126233000D01*
X83641050Y-126233000D01*
X83863950Y-126233000D01*
X83863957Y-126233000D01*
X84084963Y-126203904D01*
X84300281Y-126146210D01*
X84506226Y-126060905D01*
X84699274Y-125949448D01*
X84876124Y-125813747D01*
X85033747Y-125656124D01*
X85169448Y-125479274D01*
X85280905Y-125286226D01*
X85288915Y-125266886D01*
X85332752Y-125212485D01*
X85399045Y-125190417D01*
X85404314Y-125190342D01*
X96050000Y-125270000D01*
X96069938Y-125270000D01*
X96070000Y-125270000D01*
X120060364Y-125160923D01*
X120071873Y-125168320D01*
X120913554Y-126010000D01*
X120907339Y-126010000D01*
X120805606Y-126037259D01*
X120714394Y-126089920D01*
X120639920Y-126164394D01*
X120587259Y-126255606D01*
X120560000Y-126357339D01*
X120560000Y-126363554D01*
X119737340Y-125540894D01*
X119677084Y-125623830D01*
X119569897Y-125834197D01*
X119496934Y-126058752D01*
X119460000Y-126291947D01*
X119460000Y-126528052D01*
X119496934Y-126761247D01*
X119569897Y-126985802D01*
X119677087Y-127196174D01*
X119737338Y-127279104D01*
X119737340Y-127279105D01*
X120560000Y-126456445D01*
X120560000Y-126462661D01*
X120587259Y-126564394D01*
X120639920Y-126655606D01*
X120714394Y-126730080D01*
X120805606Y-126782741D01*
X120907339Y-126810000D01*
X120913554Y-126810000D01*
X120090893Y-127632658D01*
X120173828Y-127692914D01*
X120384197Y-127800102D01*
X120608752Y-127873065D01*
X120608751Y-127873065D01*
X120841948Y-127910000D01*
X121078052Y-127910000D01*
X121311247Y-127873065D01*
X121535802Y-127800102D01*
X121746163Y-127692918D01*
X121746169Y-127692914D01*
X121829104Y-127632658D01*
X121829105Y-127632658D01*
X121006446Y-126810000D01*
X121012661Y-126810000D01*
X121114394Y-126782741D01*
X121205606Y-126730080D01*
X121280080Y-126655606D01*
X121332741Y-126564394D01*
X121360000Y-126462661D01*
X121360000Y-126456447D01*
X122182658Y-127279105D01*
X122182658Y-127279104D01*
X122242914Y-127196169D01*
X122242918Y-127196163D01*
X122350102Y-126985802D01*
X122423065Y-126761247D01*
X122446679Y-126612155D01*
X149200000Y-126612155D01*
X149200000Y-127710000D01*
X149296446Y-127710000D01*
X150003554Y-127710000D01*
X150096445Y-127710000D01*
X152603554Y-127710000D01*
X152696445Y-127710000D01*
X152650000Y-127663554D01*
X152603554Y-127710000D01*
X150096445Y-127710000D01*
X150050000Y-127663554D01*
X150003554Y-127710000D01*
X149296446Y-127710000D01*
X149296446Y-127709999D01*
X149413222Y-127593224D01*
X149729267Y-127277179D01*
X149885000Y-127277179D01*
X149885000Y-127342821D01*
X149910119Y-127403465D01*
X149956535Y-127449881D01*
X150017179Y-127475000D01*
X150082821Y-127475000D01*
X150143465Y-127449881D01*
X150189881Y-127403465D01*
X150215000Y-127342821D01*
X150215000Y-127310000D01*
X150403554Y-127310000D01*
X150700000Y-127606446D01*
X150996446Y-127310000D01*
X150963625Y-127277179D01*
X151185000Y-127277179D01*
X151185000Y-127342821D01*
X151210119Y-127403465D01*
X151256535Y-127449881D01*
X151317179Y-127475000D01*
X151382821Y-127475000D01*
X151443465Y-127449881D01*
X151489881Y-127403465D01*
X151515000Y-127342821D01*
X151515000Y-127310000D01*
X151703554Y-127310000D01*
X152000000Y-127606446D01*
X152296446Y-127310000D01*
X152263625Y-127277179D01*
X152485000Y-127277179D01*
X152485000Y-127342821D01*
X152510119Y-127403465D01*
X152556535Y-127449881D01*
X152617179Y-127475000D01*
X152682821Y-127475000D01*
X152743465Y-127449881D01*
X152789881Y-127403465D01*
X152815000Y-127342821D01*
X152815000Y-127277179D01*
X152789881Y-127216535D01*
X152743465Y-127170119D01*
X152682821Y-127145000D01*
X152617179Y-127145000D01*
X152556535Y-127170119D01*
X152510119Y-127216535D01*
X152485000Y-127277179D01*
X152263625Y-127277179D01*
X152000000Y-127013554D01*
X151703554Y-127310000D01*
X151515000Y-127310000D01*
X151515000Y-127277179D01*
X151489881Y-127216535D01*
X151443465Y-127170119D01*
X151382821Y-127145000D01*
X151317179Y-127145000D01*
X151256535Y-127170119D01*
X151210119Y-127216535D01*
X151185000Y-127277179D01*
X150963625Y-127277179D01*
X150700000Y-127013554D01*
X150403554Y-127310000D01*
X150215000Y-127310000D01*
X150215000Y-127277179D01*
X150189881Y-127216535D01*
X150143465Y-127170119D01*
X150082821Y-127145000D01*
X150017179Y-127145000D01*
X149956535Y-127170119D01*
X149910119Y-127216535D01*
X149885000Y-127277179D01*
X149729267Y-127277179D01*
X150453758Y-126552688D01*
X150515081Y-126519203D01*
X150584773Y-126524187D01*
X150629120Y-126552688D01*
X150699999Y-126623567D01*
X150770878Y-126552688D01*
X150832201Y-126519203D01*
X150901893Y-126524187D01*
X150946241Y-126552688D01*
X151099999Y-126706446D01*
X151600000Y-126706446D01*
X151753758Y-126552688D01*
X151815081Y-126519203D01*
X151884772Y-126524187D01*
X151929120Y-126552688D01*
X152000000Y-126623568D01*
X152070880Y-126552688D01*
X152132203Y-126519203D01*
X152201895Y-126524187D01*
X152246242Y-126552688D01*
X153403554Y-127710000D01*
X153500000Y-127710000D01*
X153500000Y-126617155D01*
X161695000Y-126617155D01*
X161695000Y-127715000D01*
X161791446Y-127715000D01*
X162498554Y-127715000D01*
X162591445Y-127715000D01*
X165098554Y-127715000D01*
X165191445Y-127715000D01*
X165145000Y-127668554D01*
X165098554Y-127715000D01*
X162591445Y-127715000D01*
X162545000Y-127668554D01*
X162498554Y-127715000D01*
X161791446Y-127715000D01*
X161791446Y-127714999D01*
X161908222Y-127598224D01*
X162224267Y-127282179D01*
X162380000Y-127282179D01*
X162380000Y-127347821D01*
X162405119Y-127408465D01*
X162451535Y-127454881D01*
X162512179Y-127480000D01*
X162577821Y-127480000D01*
X162638465Y-127454881D01*
X162684881Y-127408465D01*
X162710000Y-127347821D01*
X162710000Y-127315000D01*
X162898554Y-127315000D01*
X163195000Y-127611446D01*
X163491446Y-127315000D01*
X163458625Y-127282179D01*
X163680000Y-127282179D01*
X163680000Y-127347821D01*
X163705119Y-127408465D01*
X163751535Y-127454881D01*
X163812179Y-127480000D01*
X163877821Y-127480000D01*
X163938465Y-127454881D01*
X163984881Y-127408465D01*
X164010000Y-127347821D01*
X164010000Y-127315000D01*
X164198554Y-127315000D01*
X164495000Y-127611446D01*
X164791446Y-127315000D01*
X164758625Y-127282179D01*
X164980000Y-127282179D01*
X164980000Y-127347821D01*
X165005119Y-127408465D01*
X165051535Y-127454881D01*
X165112179Y-127480000D01*
X165177821Y-127480000D01*
X165238465Y-127454881D01*
X165284881Y-127408465D01*
X165310000Y-127347821D01*
X165310000Y-127282179D01*
X165284881Y-127221535D01*
X165238465Y-127175119D01*
X165177821Y-127150000D01*
X165112179Y-127150000D01*
X165051535Y-127175119D01*
X165005119Y-127221535D01*
X164980000Y-127282179D01*
X164758625Y-127282179D01*
X164495000Y-127018554D01*
X164198554Y-127315000D01*
X164010000Y-127315000D01*
X164010000Y-127282179D01*
X163984881Y-127221535D01*
X163938465Y-127175119D01*
X163877821Y-127150000D01*
X163812179Y-127150000D01*
X163751535Y-127175119D01*
X163705119Y-127221535D01*
X163680000Y-127282179D01*
X163458625Y-127282179D01*
X163195000Y-127018554D01*
X162898554Y-127315000D01*
X162710000Y-127315000D01*
X162710000Y-127282179D01*
X162684881Y-127221535D01*
X162638465Y-127175119D01*
X162577821Y-127150000D01*
X162512179Y-127150000D01*
X162451535Y-127175119D01*
X162405119Y-127221535D01*
X162380000Y-127282179D01*
X162224267Y-127282179D01*
X162948758Y-126557688D01*
X163010081Y-126524203D01*
X163079773Y-126529187D01*
X163124120Y-126557688D01*
X163194999Y-126628567D01*
X163265878Y-126557688D01*
X163327201Y-126524203D01*
X163396893Y-126529187D01*
X163441241Y-126557688D01*
X163594999Y-126711446D01*
X164095000Y-126711446D01*
X164248758Y-126557688D01*
X164310081Y-126524203D01*
X164379772Y-126529187D01*
X164424120Y-126557688D01*
X164495000Y-126628568D01*
X164565880Y-126557688D01*
X164627203Y-126524203D01*
X164696895Y-126529187D01*
X164741242Y-126557688D01*
X165898554Y-127715000D01*
X165995000Y-127715000D01*
X165995000Y-126617172D01*
X165994999Y-126617155D01*
X165988598Y-126557627D01*
X165988596Y-126557620D01*
X165938354Y-126422913D01*
X165938350Y-126422906D01*
X165852190Y-126307812D01*
X165852187Y-126307809D01*
X165737093Y-126221649D01*
X165737086Y-126221645D01*
X165602379Y-126171403D01*
X165602372Y-126171401D01*
X165542844Y-126165000D01*
X164095000Y-126165000D01*
X164095000Y-126711446D01*
X163594999Y-126711446D01*
X163595000Y-126711445D01*
X163595000Y-126165000D01*
X162147155Y-126165000D01*
X162087627Y-126171401D01*
X162087620Y-126171403D01*
X161952913Y-126221645D01*
X161952906Y-126221649D01*
X161837812Y-126307809D01*
X161837809Y-126307812D01*
X161751649Y-126422906D01*
X161751645Y-126422913D01*
X161701403Y-126557620D01*
X161701401Y-126557627D01*
X161695000Y-126617155D01*
X153500000Y-126617155D01*
X153500000Y-126612172D01*
X153499999Y-126612155D01*
X153493598Y-126552627D01*
X153493596Y-126552620D01*
X153443354Y-126417913D01*
X153443350Y-126417906D01*
X153357190Y-126302812D01*
X153357187Y-126302809D01*
X153242093Y-126216649D01*
X153242086Y-126216645D01*
X153107379Y-126166403D01*
X153107372Y-126166401D01*
X153047844Y-126160000D01*
X151600000Y-126160000D01*
X151600000Y-126706446D01*
X151099999Y-126706446D01*
X151100000Y-126706445D01*
X151100000Y-126160000D01*
X149652155Y-126160000D01*
X149592627Y-126166401D01*
X149592620Y-126166403D01*
X149457913Y-126216645D01*
X149457906Y-126216649D01*
X149342812Y-126302809D01*
X149342809Y-126302812D01*
X149256649Y-126417906D01*
X149256645Y-126417913D01*
X149206403Y-126552620D01*
X149206401Y-126552627D01*
X149200000Y-126612155D01*
X122446679Y-126612155D01*
X122450275Y-126589453D01*
X122460000Y-126528052D01*
X122460000Y-126291947D01*
X122423065Y-126058752D01*
X122350102Y-125834197D01*
X122242914Y-125623828D01*
X122182658Y-125540894D01*
X122182658Y-125540893D01*
X121360000Y-126363552D01*
X121360000Y-126357339D01*
X121332741Y-126255606D01*
X121280080Y-126164394D01*
X121205606Y-126089920D01*
X121114394Y-126037259D01*
X121012661Y-126010000D01*
X121006447Y-126010000D01*
X121848125Y-125168320D01*
X121876794Y-125152665D01*
X170726086Y-124930563D01*
X170793213Y-124949943D01*
G37*
%TD.AperFunction*%
%TD*%
M02*
