%TF.GenerationSoftware,KiCad,Pcbnew,9.0.7*%
%TF.CreationDate,2026-04-30T13:09:42+02:00*%
%TF.ProjectId,projecte_neteja_parabrises,70726f6a-6563-4746-955f-6e6574656a61,rev?*%
%TF.SameCoordinates,Original*%
%TF.FileFunction,Legend,Top*%
%TF.FilePolarity,Positive*%
%FSLAX46Y46*%
G04 Gerber Fmt 4.6, Leading zero omitted, Abs format (unit mm)*
G04 Created by KiCad (PCBNEW 9.0.7) date 2026-04-30 13:09:42*
%MOMM*%
%LPD*%
G01*
G04 APERTURE LIST*
%ADD10C,0.150000*%
%ADD11C,0.153000*%
%ADD12C,0.120000*%
%ADD13C,0.100000*%
G04 APERTURE END LIST*
D10*
X119307142Y-80204819D02*
X118973809Y-79728628D01*
X118735714Y-80204819D02*
X118735714Y-79204819D01*
X118735714Y-79204819D02*
X119116666Y-79204819D01*
X119116666Y-79204819D02*
X119211904Y-79252438D01*
X119211904Y-79252438D02*
X119259523Y-79300057D01*
X119259523Y-79300057D02*
X119307142Y-79395295D01*
X119307142Y-79395295D02*
X119307142Y-79538152D01*
X119307142Y-79538152D02*
X119259523Y-79633390D01*
X119259523Y-79633390D02*
X119211904Y-79681009D01*
X119211904Y-79681009D02*
X119116666Y-79728628D01*
X119116666Y-79728628D02*
X118735714Y-79728628D01*
X120259523Y-80204819D02*
X119688095Y-80204819D01*
X119973809Y-80204819D02*
X119973809Y-79204819D01*
X119973809Y-79204819D02*
X119878571Y-79347676D01*
X119878571Y-79347676D02*
X119783333Y-79442914D01*
X119783333Y-79442914D02*
X119688095Y-79490533D01*
X121164285Y-79204819D02*
X120688095Y-79204819D01*
X120688095Y-79204819D02*
X120640476Y-79681009D01*
X120640476Y-79681009D02*
X120688095Y-79633390D01*
X120688095Y-79633390D02*
X120783333Y-79585771D01*
X120783333Y-79585771D02*
X121021428Y-79585771D01*
X121021428Y-79585771D02*
X121116666Y-79633390D01*
X121116666Y-79633390D02*
X121164285Y-79681009D01*
X121164285Y-79681009D02*
X121211904Y-79776247D01*
X121211904Y-79776247D02*
X121211904Y-80014342D01*
X121211904Y-80014342D02*
X121164285Y-80109580D01*
X121164285Y-80109580D02*
X121116666Y-80157200D01*
X121116666Y-80157200D02*
X121021428Y-80204819D01*
X121021428Y-80204819D02*
X120783333Y-80204819D01*
X120783333Y-80204819D02*
X120688095Y-80157200D01*
X120688095Y-80157200D02*
X120640476Y-80109580D01*
X166799819Y-128726904D02*
X167609342Y-128726904D01*
X167609342Y-128726904D02*
X167704580Y-128679285D01*
X167704580Y-128679285D02*
X167752200Y-128631666D01*
X167752200Y-128631666D02*
X167799819Y-128536428D01*
X167799819Y-128536428D02*
X167799819Y-128345952D01*
X167799819Y-128345952D02*
X167752200Y-128250714D01*
X167752200Y-128250714D02*
X167704580Y-128203095D01*
X167704580Y-128203095D02*
X167609342Y-128155476D01*
X167609342Y-128155476D02*
X166799819Y-128155476D01*
X166799819Y-127774523D02*
X166799819Y-127155476D01*
X166799819Y-127155476D02*
X167180771Y-127488809D01*
X167180771Y-127488809D02*
X167180771Y-127345952D01*
X167180771Y-127345952D02*
X167228390Y-127250714D01*
X167228390Y-127250714D02*
X167276009Y-127203095D01*
X167276009Y-127203095D02*
X167371247Y-127155476D01*
X167371247Y-127155476D02*
X167609342Y-127155476D01*
X167609342Y-127155476D02*
X167704580Y-127203095D01*
X167704580Y-127203095D02*
X167752200Y-127250714D01*
X167752200Y-127250714D02*
X167799819Y-127345952D01*
X167799819Y-127345952D02*
X167799819Y-127631666D01*
X167799819Y-127631666D02*
X167752200Y-127726904D01*
X167752200Y-127726904D02*
X167704580Y-127774523D01*
X136348628Y-91621190D02*
X136824819Y-91621190D01*
X135824819Y-91954523D02*
X136348628Y-91621190D01*
X136348628Y-91621190D02*
X135824819Y-91287857D01*
X136824819Y-90430714D02*
X136824819Y-91002142D01*
X136824819Y-90716428D02*
X135824819Y-90716428D01*
X135824819Y-90716428D02*
X135967676Y-90811666D01*
X135967676Y-90811666D02*
X136062914Y-90906904D01*
X136062914Y-90906904D02*
X136110533Y-91002142D01*
X122366667Y-78907200D02*
X122509524Y-78954819D01*
X122509524Y-78954819D02*
X122747619Y-78954819D01*
X122747619Y-78954819D02*
X122842857Y-78907200D01*
X122842857Y-78907200D02*
X122890476Y-78859580D01*
X122890476Y-78859580D02*
X122938095Y-78764342D01*
X122938095Y-78764342D02*
X122938095Y-78669104D01*
X122938095Y-78669104D02*
X122890476Y-78573866D01*
X122890476Y-78573866D02*
X122842857Y-78526247D01*
X122842857Y-78526247D02*
X122747619Y-78478628D01*
X122747619Y-78478628D02*
X122557143Y-78431009D01*
X122557143Y-78431009D02*
X122461905Y-78383390D01*
X122461905Y-78383390D02*
X122414286Y-78335771D01*
X122414286Y-78335771D02*
X122366667Y-78240533D01*
X122366667Y-78240533D02*
X122366667Y-78145295D01*
X122366667Y-78145295D02*
X122414286Y-78050057D01*
X122414286Y-78050057D02*
X122461905Y-78002438D01*
X122461905Y-78002438D02*
X122557143Y-77954819D01*
X122557143Y-77954819D02*
X122795238Y-77954819D01*
X122795238Y-77954819D02*
X122938095Y-78002438D01*
X123271429Y-77954819D02*
X123509524Y-78954819D01*
X123509524Y-78954819D02*
X123700000Y-78240533D01*
X123700000Y-78240533D02*
X123890476Y-78954819D01*
X123890476Y-78954819D02*
X124128572Y-77954819D01*
X124461905Y-78050057D02*
X124509524Y-78002438D01*
X124509524Y-78002438D02*
X124604762Y-77954819D01*
X124604762Y-77954819D02*
X124842857Y-77954819D01*
X124842857Y-77954819D02*
X124938095Y-78002438D01*
X124938095Y-78002438D02*
X124985714Y-78050057D01*
X124985714Y-78050057D02*
X125033333Y-78145295D01*
X125033333Y-78145295D02*
X125033333Y-78240533D01*
X125033333Y-78240533D02*
X124985714Y-78383390D01*
X124985714Y-78383390D02*
X124414286Y-78954819D01*
X124414286Y-78954819D02*
X125033333Y-78954819D01*
X79016666Y-54254819D02*
X78683333Y-53778628D01*
X78445238Y-54254819D02*
X78445238Y-53254819D01*
X78445238Y-53254819D02*
X78826190Y-53254819D01*
X78826190Y-53254819D02*
X78921428Y-53302438D01*
X78921428Y-53302438D02*
X78969047Y-53350057D01*
X78969047Y-53350057D02*
X79016666Y-53445295D01*
X79016666Y-53445295D02*
X79016666Y-53588152D01*
X79016666Y-53588152D02*
X78969047Y-53683390D01*
X78969047Y-53683390D02*
X78921428Y-53731009D01*
X78921428Y-53731009D02*
X78826190Y-53778628D01*
X78826190Y-53778628D02*
X78445238Y-53778628D01*
X79445238Y-53731009D02*
X79778571Y-53731009D01*
X79921428Y-54254819D02*
X79445238Y-54254819D01*
X79445238Y-54254819D02*
X79445238Y-53254819D01*
X79445238Y-53254819D02*
X79921428Y-53254819D01*
X80683333Y-53731009D02*
X80350000Y-53731009D01*
X80350000Y-54254819D02*
X80350000Y-53254819D01*
X80350000Y-53254819D02*
X80826190Y-53254819D01*
X81350000Y-53254819D02*
X81350000Y-53492914D01*
X81111905Y-53397676D02*
X81350000Y-53492914D01*
X81350000Y-53492914D02*
X81588095Y-53397676D01*
X81207143Y-53683390D02*
X81350000Y-53492914D01*
X81350000Y-53492914D02*
X81492857Y-53683390D01*
X82111905Y-53254819D02*
X82111905Y-53492914D01*
X81873810Y-53397676D02*
X82111905Y-53492914D01*
X82111905Y-53492914D02*
X82350000Y-53397676D01*
X81969048Y-53683390D02*
X82111905Y-53492914D01*
X82111905Y-53492914D02*
X82254762Y-53683390D01*
X129661905Y-136564819D02*
X129661905Y-135564819D01*
X130233333Y-136564819D02*
X129804762Y-135993390D01*
X130233333Y-135564819D02*
X129661905Y-136136247D01*
X130614286Y-135660057D02*
X130661905Y-135612438D01*
X130661905Y-135612438D02*
X130757143Y-135564819D01*
X130757143Y-135564819D02*
X130995238Y-135564819D01*
X130995238Y-135564819D02*
X131090476Y-135612438D01*
X131090476Y-135612438D02*
X131138095Y-135660057D01*
X131138095Y-135660057D02*
X131185714Y-135755295D01*
X131185714Y-135755295D02*
X131185714Y-135850533D01*
X131185714Y-135850533D02*
X131138095Y-135993390D01*
X131138095Y-135993390D02*
X130566667Y-136564819D01*
X130566667Y-136564819D02*
X131185714Y-136564819D01*
X140927976Y-132677319D02*
X140927976Y-131677319D01*
X140927976Y-131677319D02*
X141261309Y-132391604D01*
X141261309Y-132391604D02*
X141594642Y-131677319D01*
X141594642Y-131677319D02*
X141594642Y-132677319D01*
X142547023Y-131677319D02*
X142070833Y-131677319D01*
X142070833Y-131677319D02*
X142023214Y-132153509D01*
X142023214Y-132153509D02*
X142070833Y-132105890D01*
X142070833Y-132105890D02*
X142166071Y-132058271D01*
X142166071Y-132058271D02*
X142404166Y-132058271D01*
X142404166Y-132058271D02*
X142499404Y-132105890D01*
X142499404Y-132105890D02*
X142547023Y-132153509D01*
X142547023Y-132153509D02*
X142594642Y-132248747D01*
X142594642Y-132248747D02*
X142594642Y-132486842D01*
X142594642Y-132486842D02*
X142547023Y-132582080D01*
X142547023Y-132582080D02*
X142499404Y-132629700D01*
X142499404Y-132629700D02*
X142404166Y-132677319D01*
X142404166Y-132677319D02*
X142166071Y-132677319D01*
X142166071Y-132677319D02*
X142070833Y-132629700D01*
X142070833Y-132629700D02*
X142023214Y-132582080D01*
X127316667Y-78707200D02*
X127459524Y-78754819D01*
X127459524Y-78754819D02*
X127697619Y-78754819D01*
X127697619Y-78754819D02*
X127792857Y-78707200D01*
X127792857Y-78707200D02*
X127840476Y-78659580D01*
X127840476Y-78659580D02*
X127888095Y-78564342D01*
X127888095Y-78564342D02*
X127888095Y-78469104D01*
X127888095Y-78469104D02*
X127840476Y-78373866D01*
X127840476Y-78373866D02*
X127792857Y-78326247D01*
X127792857Y-78326247D02*
X127697619Y-78278628D01*
X127697619Y-78278628D02*
X127507143Y-78231009D01*
X127507143Y-78231009D02*
X127411905Y-78183390D01*
X127411905Y-78183390D02*
X127364286Y-78135771D01*
X127364286Y-78135771D02*
X127316667Y-78040533D01*
X127316667Y-78040533D02*
X127316667Y-77945295D01*
X127316667Y-77945295D02*
X127364286Y-77850057D01*
X127364286Y-77850057D02*
X127411905Y-77802438D01*
X127411905Y-77802438D02*
X127507143Y-77754819D01*
X127507143Y-77754819D02*
X127745238Y-77754819D01*
X127745238Y-77754819D02*
X127888095Y-77802438D01*
X128221429Y-77754819D02*
X128459524Y-78754819D01*
X128459524Y-78754819D02*
X128650000Y-78040533D01*
X128650000Y-78040533D02*
X128840476Y-78754819D01*
X128840476Y-78754819D02*
X129078572Y-77754819D01*
X129983333Y-78754819D02*
X129411905Y-78754819D01*
X129697619Y-78754819D02*
X129697619Y-77754819D01*
X129697619Y-77754819D02*
X129602381Y-77897676D01*
X129602381Y-77897676D02*
X129507143Y-77992914D01*
X129507143Y-77992914D02*
X129411905Y-78040533D01*
X79866666Y-72999819D02*
X79866666Y-73714104D01*
X79866666Y-73714104D02*
X79819047Y-73856961D01*
X79819047Y-73856961D02*
X79723809Y-73952200D01*
X79723809Y-73952200D02*
X79580952Y-73999819D01*
X79580952Y-73999819D02*
X79485714Y-73999819D01*
X80771428Y-73333152D02*
X80771428Y-73999819D01*
X80533333Y-72952200D02*
X80295238Y-73666485D01*
X80295238Y-73666485D02*
X80914285Y-73666485D01*
X133914819Y-73691904D02*
X133914819Y-73120476D01*
X134914819Y-73406190D02*
X133914819Y-73406190D01*
X134914819Y-72787142D02*
X133914819Y-72787142D01*
X133914819Y-72787142D02*
X133914819Y-72406190D01*
X133914819Y-72406190D02*
X133962438Y-72310952D01*
X133962438Y-72310952D02*
X134010057Y-72263333D01*
X134010057Y-72263333D02*
X134105295Y-72215714D01*
X134105295Y-72215714D02*
X134248152Y-72215714D01*
X134248152Y-72215714D02*
X134343390Y-72263333D01*
X134343390Y-72263333D02*
X134391009Y-72310952D01*
X134391009Y-72310952D02*
X134438628Y-72406190D01*
X134438628Y-72406190D02*
X134438628Y-72787142D01*
X133914819Y-71882380D02*
X133914819Y-71263333D01*
X133914819Y-71263333D02*
X134295771Y-71596666D01*
X134295771Y-71596666D02*
X134295771Y-71453809D01*
X134295771Y-71453809D02*
X134343390Y-71358571D01*
X134343390Y-71358571D02*
X134391009Y-71310952D01*
X134391009Y-71310952D02*
X134486247Y-71263333D01*
X134486247Y-71263333D02*
X134724342Y-71263333D01*
X134724342Y-71263333D02*
X134819580Y-71310952D01*
X134819580Y-71310952D02*
X134867200Y-71358571D01*
X134867200Y-71358571D02*
X134914819Y-71453809D01*
X134914819Y-71453809D02*
X134914819Y-71739523D01*
X134914819Y-71739523D02*
X134867200Y-71834761D01*
X134867200Y-71834761D02*
X134819580Y-71882380D01*
X142233333Y-88159580D02*
X142185714Y-88207200D01*
X142185714Y-88207200D02*
X142042857Y-88254819D01*
X142042857Y-88254819D02*
X141947619Y-88254819D01*
X141947619Y-88254819D02*
X141804762Y-88207200D01*
X141804762Y-88207200D02*
X141709524Y-88111961D01*
X141709524Y-88111961D02*
X141661905Y-88016723D01*
X141661905Y-88016723D02*
X141614286Y-87826247D01*
X141614286Y-87826247D02*
X141614286Y-87683390D01*
X141614286Y-87683390D02*
X141661905Y-87492914D01*
X141661905Y-87492914D02*
X141709524Y-87397676D01*
X141709524Y-87397676D02*
X141804762Y-87302438D01*
X141804762Y-87302438D02*
X141947619Y-87254819D01*
X141947619Y-87254819D02*
X142042857Y-87254819D01*
X142042857Y-87254819D02*
X142185714Y-87302438D01*
X142185714Y-87302438D02*
X142233333Y-87350057D01*
X143090476Y-87588152D02*
X143090476Y-88254819D01*
X142852381Y-87207200D02*
X142614286Y-87921485D01*
X142614286Y-87921485D02*
X143233333Y-87921485D01*
X86457319Y-118410594D02*
X85457319Y-118410594D01*
X86457319Y-117839166D02*
X85885890Y-118267737D01*
X85457319Y-117839166D02*
X86028747Y-118410594D01*
X85457319Y-117505832D02*
X85457319Y-116886785D01*
X85457319Y-116886785D02*
X85838271Y-117220118D01*
X85838271Y-117220118D02*
X85838271Y-117077261D01*
X85838271Y-117077261D02*
X85885890Y-116982023D01*
X85885890Y-116982023D02*
X85933509Y-116934404D01*
X85933509Y-116934404D02*
X86028747Y-116886785D01*
X86028747Y-116886785D02*
X86266842Y-116886785D01*
X86266842Y-116886785D02*
X86362080Y-116934404D01*
X86362080Y-116934404D02*
X86409700Y-116982023D01*
X86409700Y-116982023D02*
X86457319Y-117077261D01*
X86457319Y-117077261D02*
X86457319Y-117362975D01*
X86457319Y-117362975D02*
X86409700Y-117458213D01*
X86409700Y-117458213D02*
X86362080Y-117505832D01*
X91504819Y-107003094D02*
X90504819Y-107003094D01*
X90504819Y-107003094D02*
X90504819Y-106764999D01*
X90504819Y-106764999D02*
X90552438Y-106622142D01*
X90552438Y-106622142D02*
X90647676Y-106526904D01*
X90647676Y-106526904D02*
X90742914Y-106479285D01*
X90742914Y-106479285D02*
X90933390Y-106431666D01*
X90933390Y-106431666D02*
X91076247Y-106431666D01*
X91076247Y-106431666D02*
X91266723Y-106479285D01*
X91266723Y-106479285D02*
X91361961Y-106526904D01*
X91361961Y-106526904D02*
X91457200Y-106622142D01*
X91457200Y-106622142D02*
X91504819Y-106764999D01*
X91504819Y-106764999D02*
X91504819Y-107003094D01*
X90838152Y-105574523D02*
X91504819Y-105574523D01*
X90457200Y-105812618D02*
X91171485Y-106050713D01*
X91171485Y-106050713D02*
X91171485Y-105431666D01*
X89777142Y-83759580D02*
X89729523Y-83807200D01*
X89729523Y-83807200D02*
X89586666Y-83854819D01*
X89586666Y-83854819D02*
X89491428Y-83854819D01*
X89491428Y-83854819D02*
X89348571Y-83807200D01*
X89348571Y-83807200D02*
X89253333Y-83711961D01*
X89253333Y-83711961D02*
X89205714Y-83616723D01*
X89205714Y-83616723D02*
X89158095Y-83426247D01*
X89158095Y-83426247D02*
X89158095Y-83283390D01*
X89158095Y-83283390D02*
X89205714Y-83092914D01*
X89205714Y-83092914D02*
X89253333Y-82997676D01*
X89253333Y-82997676D02*
X89348571Y-82902438D01*
X89348571Y-82902438D02*
X89491428Y-82854819D01*
X89491428Y-82854819D02*
X89586666Y-82854819D01*
X89586666Y-82854819D02*
X89729523Y-82902438D01*
X89729523Y-82902438D02*
X89777142Y-82950057D01*
X90729523Y-83854819D02*
X90158095Y-83854819D01*
X90443809Y-83854819D02*
X90443809Y-82854819D01*
X90443809Y-82854819D02*
X90348571Y-82997676D01*
X90348571Y-82997676D02*
X90253333Y-83092914D01*
X90253333Y-83092914D02*
X90158095Y-83140533D01*
X91634285Y-82854819D02*
X91158095Y-82854819D01*
X91158095Y-82854819D02*
X91110476Y-83331009D01*
X91110476Y-83331009D02*
X91158095Y-83283390D01*
X91158095Y-83283390D02*
X91253333Y-83235771D01*
X91253333Y-83235771D02*
X91491428Y-83235771D01*
X91491428Y-83235771D02*
X91586666Y-83283390D01*
X91586666Y-83283390D02*
X91634285Y-83331009D01*
X91634285Y-83331009D02*
X91681904Y-83426247D01*
X91681904Y-83426247D02*
X91681904Y-83664342D01*
X91681904Y-83664342D02*
X91634285Y-83759580D01*
X91634285Y-83759580D02*
X91586666Y-83807200D01*
X91586666Y-83807200D02*
X91491428Y-83854819D01*
X91491428Y-83854819D02*
X91253333Y-83854819D01*
X91253333Y-83854819D02*
X91158095Y-83807200D01*
X91158095Y-83807200D02*
X91110476Y-83759580D01*
X89468095Y-56879819D02*
X90039523Y-56879819D01*
X89753809Y-57879819D02*
X89753809Y-56879819D01*
X90372857Y-57879819D02*
X90372857Y-56879819D01*
X90372857Y-56879819D02*
X90753809Y-56879819D01*
X90753809Y-56879819D02*
X90849047Y-56927438D01*
X90849047Y-56927438D02*
X90896666Y-56975057D01*
X90896666Y-56975057D02*
X90944285Y-57070295D01*
X90944285Y-57070295D02*
X90944285Y-57213152D01*
X90944285Y-57213152D02*
X90896666Y-57308390D01*
X90896666Y-57308390D02*
X90849047Y-57356009D01*
X90849047Y-57356009D02*
X90753809Y-57403628D01*
X90753809Y-57403628D02*
X90372857Y-57403628D01*
X91325238Y-56975057D02*
X91372857Y-56927438D01*
X91372857Y-56927438D02*
X91468095Y-56879819D01*
X91468095Y-56879819D02*
X91706190Y-56879819D01*
X91706190Y-56879819D02*
X91801428Y-56927438D01*
X91801428Y-56927438D02*
X91849047Y-56975057D01*
X91849047Y-56975057D02*
X91896666Y-57070295D01*
X91896666Y-57070295D02*
X91896666Y-57165533D01*
X91896666Y-57165533D02*
X91849047Y-57308390D01*
X91849047Y-57308390D02*
X91277619Y-57879819D01*
X91277619Y-57879819D02*
X91896666Y-57879819D01*
X99412200Y-105953332D02*
X99459819Y-105810475D01*
X99459819Y-105810475D02*
X99459819Y-105572380D01*
X99459819Y-105572380D02*
X99412200Y-105477142D01*
X99412200Y-105477142D02*
X99364580Y-105429523D01*
X99364580Y-105429523D02*
X99269342Y-105381904D01*
X99269342Y-105381904D02*
X99174104Y-105381904D01*
X99174104Y-105381904D02*
X99078866Y-105429523D01*
X99078866Y-105429523D02*
X99031247Y-105477142D01*
X99031247Y-105477142D02*
X98983628Y-105572380D01*
X98983628Y-105572380D02*
X98936009Y-105762856D01*
X98936009Y-105762856D02*
X98888390Y-105858094D01*
X98888390Y-105858094D02*
X98840771Y-105905713D01*
X98840771Y-105905713D02*
X98745533Y-105953332D01*
X98745533Y-105953332D02*
X98650295Y-105953332D01*
X98650295Y-105953332D02*
X98555057Y-105905713D01*
X98555057Y-105905713D02*
X98507438Y-105858094D01*
X98507438Y-105858094D02*
X98459819Y-105762856D01*
X98459819Y-105762856D02*
X98459819Y-105524761D01*
X98459819Y-105524761D02*
X98507438Y-105381904D01*
X98459819Y-105048570D02*
X99459819Y-104810475D01*
X99459819Y-104810475D02*
X98745533Y-104619999D01*
X98745533Y-104619999D02*
X99459819Y-104429523D01*
X99459819Y-104429523D02*
X98459819Y-104191428D01*
X98459819Y-103334285D02*
X98459819Y-103810475D01*
X98459819Y-103810475D02*
X98936009Y-103858094D01*
X98936009Y-103858094D02*
X98888390Y-103810475D01*
X98888390Y-103810475D02*
X98840771Y-103715237D01*
X98840771Y-103715237D02*
X98840771Y-103477142D01*
X98840771Y-103477142D02*
X98888390Y-103381904D01*
X98888390Y-103381904D02*
X98936009Y-103334285D01*
X98936009Y-103334285D02*
X99031247Y-103286666D01*
X99031247Y-103286666D02*
X99269342Y-103286666D01*
X99269342Y-103286666D02*
X99364580Y-103334285D01*
X99364580Y-103334285D02*
X99412200Y-103381904D01*
X99412200Y-103381904D02*
X99459819Y-103477142D01*
X99459819Y-103477142D02*
X99459819Y-103715237D01*
X99459819Y-103715237D02*
X99412200Y-103810475D01*
X99412200Y-103810475D02*
X99364580Y-103858094D01*
X101949819Y-129700357D02*
X101473628Y-130033690D01*
X101949819Y-130271785D02*
X100949819Y-130271785D01*
X100949819Y-130271785D02*
X100949819Y-129890833D01*
X100949819Y-129890833D02*
X100997438Y-129795595D01*
X100997438Y-129795595D02*
X101045057Y-129747976D01*
X101045057Y-129747976D02*
X101140295Y-129700357D01*
X101140295Y-129700357D02*
X101283152Y-129700357D01*
X101283152Y-129700357D02*
X101378390Y-129747976D01*
X101378390Y-129747976D02*
X101426009Y-129795595D01*
X101426009Y-129795595D02*
X101473628Y-129890833D01*
X101473628Y-129890833D02*
X101473628Y-130271785D01*
X101949819Y-128747976D02*
X101949819Y-129319404D01*
X101949819Y-129033690D02*
X100949819Y-129033690D01*
X100949819Y-129033690D02*
X101092676Y-129128928D01*
X101092676Y-129128928D02*
X101187914Y-129224166D01*
X101187914Y-129224166D02*
X101235533Y-129319404D01*
X100949819Y-128414642D02*
X100949819Y-127795595D01*
X100949819Y-127795595D02*
X101330771Y-128128928D01*
X101330771Y-128128928D02*
X101330771Y-127986071D01*
X101330771Y-127986071D02*
X101378390Y-127890833D01*
X101378390Y-127890833D02*
X101426009Y-127843214D01*
X101426009Y-127843214D02*
X101521247Y-127795595D01*
X101521247Y-127795595D02*
X101759342Y-127795595D01*
X101759342Y-127795595D02*
X101854580Y-127843214D01*
X101854580Y-127843214D02*
X101902200Y-127890833D01*
X101902200Y-127890833D02*
X101949819Y-127986071D01*
X101949819Y-127986071D02*
X101949819Y-128271785D01*
X101949819Y-128271785D02*
X101902200Y-128367023D01*
X101902200Y-128367023D02*
X101854580Y-128414642D01*
X114554642Y-95504819D02*
X114221309Y-95028628D01*
X113983214Y-95504819D02*
X113983214Y-94504819D01*
X113983214Y-94504819D02*
X114364166Y-94504819D01*
X114364166Y-94504819D02*
X114459404Y-94552438D01*
X114459404Y-94552438D02*
X114507023Y-94600057D01*
X114507023Y-94600057D02*
X114554642Y-94695295D01*
X114554642Y-94695295D02*
X114554642Y-94838152D01*
X114554642Y-94838152D02*
X114507023Y-94933390D01*
X114507023Y-94933390D02*
X114459404Y-94981009D01*
X114459404Y-94981009D02*
X114364166Y-95028628D01*
X114364166Y-95028628D02*
X113983214Y-95028628D01*
X114935595Y-94600057D02*
X114983214Y-94552438D01*
X114983214Y-94552438D02*
X115078452Y-94504819D01*
X115078452Y-94504819D02*
X115316547Y-94504819D01*
X115316547Y-94504819D02*
X115411785Y-94552438D01*
X115411785Y-94552438D02*
X115459404Y-94600057D01*
X115459404Y-94600057D02*
X115507023Y-94695295D01*
X115507023Y-94695295D02*
X115507023Y-94790533D01*
X115507023Y-94790533D02*
X115459404Y-94933390D01*
X115459404Y-94933390D02*
X114887976Y-95504819D01*
X114887976Y-95504819D02*
X115507023Y-95504819D01*
X116126071Y-94504819D02*
X116221309Y-94504819D01*
X116221309Y-94504819D02*
X116316547Y-94552438D01*
X116316547Y-94552438D02*
X116364166Y-94600057D01*
X116364166Y-94600057D02*
X116411785Y-94695295D01*
X116411785Y-94695295D02*
X116459404Y-94885771D01*
X116459404Y-94885771D02*
X116459404Y-95123866D01*
X116459404Y-95123866D02*
X116411785Y-95314342D01*
X116411785Y-95314342D02*
X116364166Y-95409580D01*
X116364166Y-95409580D02*
X116316547Y-95457200D01*
X116316547Y-95457200D02*
X116221309Y-95504819D01*
X116221309Y-95504819D02*
X116126071Y-95504819D01*
X116126071Y-95504819D02*
X116030833Y-95457200D01*
X116030833Y-95457200D02*
X115983214Y-95409580D01*
X115983214Y-95409580D02*
X115935595Y-95314342D01*
X115935595Y-95314342D02*
X115887976Y-95123866D01*
X115887976Y-95123866D02*
X115887976Y-94885771D01*
X115887976Y-94885771D02*
X115935595Y-94695295D01*
X115935595Y-94695295D02*
X115983214Y-94600057D01*
X115983214Y-94600057D02*
X116030833Y-94552438D01*
X116030833Y-94552438D02*
X116126071Y-94504819D01*
X96112261Y-132180057D02*
X96017023Y-132132438D01*
X96017023Y-132132438D02*
X95921785Y-132037200D01*
X95921785Y-132037200D02*
X95778928Y-131894342D01*
X95778928Y-131894342D02*
X95683690Y-131846723D01*
X95683690Y-131846723D02*
X95588452Y-131846723D01*
X95636071Y-132084819D02*
X95540833Y-132037200D01*
X95540833Y-132037200D02*
X95445595Y-131941961D01*
X95445595Y-131941961D02*
X95397976Y-131751485D01*
X95397976Y-131751485D02*
X95397976Y-131418152D01*
X95397976Y-131418152D02*
X95445595Y-131227676D01*
X95445595Y-131227676D02*
X95540833Y-131132438D01*
X95540833Y-131132438D02*
X95636071Y-131084819D01*
X95636071Y-131084819D02*
X95826547Y-131084819D01*
X95826547Y-131084819D02*
X95921785Y-131132438D01*
X95921785Y-131132438D02*
X96017023Y-131227676D01*
X96017023Y-131227676D02*
X96064642Y-131418152D01*
X96064642Y-131418152D02*
X96064642Y-131751485D01*
X96064642Y-131751485D02*
X96017023Y-131941961D01*
X96017023Y-131941961D02*
X95921785Y-132037200D01*
X95921785Y-132037200D02*
X95826547Y-132084819D01*
X95826547Y-132084819D02*
X95636071Y-132084819D01*
X96445595Y-131180057D02*
X96493214Y-131132438D01*
X96493214Y-131132438D02*
X96588452Y-131084819D01*
X96588452Y-131084819D02*
X96826547Y-131084819D01*
X96826547Y-131084819D02*
X96921785Y-131132438D01*
X96921785Y-131132438D02*
X96969404Y-131180057D01*
X96969404Y-131180057D02*
X97017023Y-131275295D01*
X97017023Y-131275295D02*
X97017023Y-131370533D01*
X97017023Y-131370533D02*
X96969404Y-131513390D01*
X96969404Y-131513390D02*
X96397976Y-132084819D01*
X96397976Y-132084819D02*
X97017023Y-132084819D01*
X91700057Y-109407738D02*
X91652438Y-109502976D01*
X91652438Y-109502976D02*
X91557200Y-109598214D01*
X91557200Y-109598214D02*
X91414342Y-109741071D01*
X91414342Y-109741071D02*
X91366723Y-109836309D01*
X91366723Y-109836309D02*
X91366723Y-109931547D01*
X91604819Y-109883928D02*
X91557200Y-109979166D01*
X91557200Y-109979166D02*
X91461961Y-110074404D01*
X91461961Y-110074404D02*
X91271485Y-110122023D01*
X91271485Y-110122023D02*
X90938152Y-110122023D01*
X90938152Y-110122023D02*
X90747676Y-110074404D01*
X90747676Y-110074404D02*
X90652438Y-109979166D01*
X90652438Y-109979166D02*
X90604819Y-109883928D01*
X90604819Y-109883928D02*
X90604819Y-109693452D01*
X90604819Y-109693452D02*
X90652438Y-109598214D01*
X90652438Y-109598214D02*
X90747676Y-109502976D01*
X90747676Y-109502976D02*
X90938152Y-109455357D01*
X90938152Y-109455357D02*
X91271485Y-109455357D01*
X91271485Y-109455357D02*
X91461961Y-109502976D01*
X91461961Y-109502976D02*
X91557200Y-109598214D01*
X91557200Y-109598214D02*
X91604819Y-109693452D01*
X91604819Y-109693452D02*
X91604819Y-109883928D01*
X90604819Y-109122023D02*
X90604819Y-108502976D01*
X90604819Y-108502976D02*
X90985771Y-108836309D01*
X90985771Y-108836309D02*
X90985771Y-108693452D01*
X90985771Y-108693452D02*
X91033390Y-108598214D01*
X91033390Y-108598214D02*
X91081009Y-108550595D01*
X91081009Y-108550595D02*
X91176247Y-108502976D01*
X91176247Y-108502976D02*
X91414342Y-108502976D01*
X91414342Y-108502976D02*
X91509580Y-108550595D01*
X91509580Y-108550595D02*
X91557200Y-108598214D01*
X91557200Y-108598214D02*
X91604819Y-108693452D01*
X91604819Y-108693452D02*
X91604819Y-108979166D01*
X91604819Y-108979166D02*
X91557200Y-109074404D01*
X91557200Y-109074404D02*
X91509580Y-109122023D01*
X101757142Y-112504819D02*
X101423809Y-112028628D01*
X101185714Y-112504819D02*
X101185714Y-111504819D01*
X101185714Y-111504819D02*
X101566666Y-111504819D01*
X101566666Y-111504819D02*
X101661904Y-111552438D01*
X101661904Y-111552438D02*
X101709523Y-111600057D01*
X101709523Y-111600057D02*
X101757142Y-111695295D01*
X101757142Y-111695295D02*
X101757142Y-111838152D01*
X101757142Y-111838152D02*
X101709523Y-111933390D01*
X101709523Y-111933390D02*
X101661904Y-111981009D01*
X101661904Y-111981009D02*
X101566666Y-112028628D01*
X101566666Y-112028628D02*
X101185714Y-112028628D01*
X102709523Y-112504819D02*
X102138095Y-112504819D01*
X102423809Y-112504819D02*
X102423809Y-111504819D01*
X102423809Y-111504819D02*
X102328571Y-111647676D01*
X102328571Y-111647676D02*
X102233333Y-111742914D01*
X102233333Y-111742914D02*
X102138095Y-111790533D01*
X103185714Y-112504819D02*
X103376190Y-112504819D01*
X103376190Y-112504819D02*
X103471428Y-112457200D01*
X103471428Y-112457200D02*
X103519047Y-112409580D01*
X103519047Y-112409580D02*
X103614285Y-112266723D01*
X103614285Y-112266723D02*
X103661904Y-112076247D01*
X103661904Y-112076247D02*
X103661904Y-111695295D01*
X103661904Y-111695295D02*
X103614285Y-111600057D01*
X103614285Y-111600057D02*
X103566666Y-111552438D01*
X103566666Y-111552438D02*
X103471428Y-111504819D01*
X103471428Y-111504819D02*
X103280952Y-111504819D01*
X103280952Y-111504819D02*
X103185714Y-111552438D01*
X103185714Y-111552438D02*
X103138095Y-111600057D01*
X103138095Y-111600057D02*
X103090476Y-111695295D01*
X103090476Y-111695295D02*
X103090476Y-111933390D01*
X103090476Y-111933390D02*
X103138095Y-112028628D01*
X103138095Y-112028628D02*
X103185714Y-112076247D01*
X103185714Y-112076247D02*
X103280952Y-112123866D01*
X103280952Y-112123866D02*
X103471428Y-112123866D01*
X103471428Y-112123866D02*
X103566666Y-112076247D01*
X103566666Y-112076247D02*
X103614285Y-112028628D01*
X103614285Y-112028628D02*
X103661904Y-111933390D01*
X168739580Y-86552857D02*
X168787200Y-86600476D01*
X168787200Y-86600476D02*
X168834819Y-86743333D01*
X168834819Y-86743333D02*
X168834819Y-86838571D01*
X168834819Y-86838571D02*
X168787200Y-86981428D01*
X168787200Y-86981428D02*
X168691961Y-87076666D01*
X168691961Y-87076666D02*
X168596723Y-87124285D01*
X168596723Y-87124285D02*
X168406247Y-87171904D01*
X168406247Y-87171904D02*
X168263390Y-87171904D01*
X168263390Y-87171904D02*
X168072914Y-87124285D01*
X168072914Y-87124285D02*
X167977676Y-87076666D01*
X167977676Y-87076666D02*
X167882438Y-86981428D01*
X167882438Y-86981428D02*
X167834819Y-86838571D01*
X167834819Y-86838571D02*
X167834819Y-86743333D01*
X167834819Y-86743333D02*
X167882438Y-86600476D01*
X167882438Y-86600476D02*
X167930057Y-86552857D01*
X168834819Y-85600476D02*
X168834819Y-86171904D01*
X168834819Y-85886190D02*
X167834819Y-85886190D01*
X167834819Y-85886190D02*
X167977676Y-85981428D01*
X167977676Y-85981428D02*
X168072914Y-86076666D01*
X168072914Y-86076666D02*
X168120533Y-86171904D01*
X168834819Y-85124285D02*
X168834819Y-84933809D01*
X168834819Y-84933809D02*
X168787200Y-84838571D01*
X168787200Y-84838571D02*
X168739580Y-84790952D01*
X168739580Y-84790952D02*
X168596723Y-84695714D01*
X168596723Y-84695714D02*
X168406247Y-84648095D01*
X168406247Y-84648095D02*
X168025295Y-84648095D01*
X168025295Y-84648095D02*
X167930057Y-84695714D01*
X167930057Y-84695714D02*
X167882438Y-84743333D01*
X167882438Y-84743333D02*
X167834819Y-84838571D01*
X167834819Y-84838571D02*
X167834819Y-85029047D01*
X167834819Y-85029047D02*
X167882438Y-85124285D01*
X167882438Y-85124285D02*
X167930057Y-85171904D01*
X167930057Y-85171904D02*
X168025295Y-85219523D01*
X168025295Y-85219523D02*
X168263390Y-85219523D01*
X168263390Y-85219523D02*
X168358628Y-85171904D01*
X168358628Y-85171904D02*
X168406247Y-85124285D01*
X168406247Y-85124285D02*
X168453866Y-85029047D01*
X168453866Y-85029047D02*
X168453866Y-84838571D01*
X168453866Y-84838571D02*
X168406247Y-84743333D01*
X168406247Y-84743333D02*
X168358628Y-84695714D01*
X168358628Y-84695714D02*
X168263390Y-84648095D01*
X95810833Y-114754819D02*
X95477500Y-114278628D01*
X95239405Y-114754819D02*
X95239405Y-113754819D01*
X95239405Y-113754819D02*
X95620357Y-113754819D01*
X95620357Y-113754819D02*
X95715595Y-113802438D01*
X95715595Y-113802438D02*
X95763214Y-113850057D01*
X95763214Y-113850057D02*
X95810833Y-113945295D01*
X95810833Y-113945295D02*
X95810833Y-114088152D01*
X95810833Y-114088152D02*
X95763214Y-114183390D01*
X95763214Y-114183390D02*
X95715595Y-114231009D01*
X95715595Y-114231009D02*
X95620357Y-114278628D01*
X95620357Y-114278628D02*
X95239405Y-114278628D01*
X96667976Y-114088152D02*
X96667976Y-114754819D01*
X96429881Y-113707200D02*
X96191786Y-114421485D01*
X96191786Y-114421485D02*
X96810833Y-114421485D01*
X79216666Y-143754819D02*
X78883333Y-143278628D01*
X78645238Y-143754819D02*
X78645238Y-142754819D01*
X78645238Y-142754819D02*
X79026190Y-142754819D01*
X79026190Y-142754819D02*
X79121428Y-142802438D01*
X79121428Y-142802438D02*
X79169047Y-142850057D01*
X79169047Y-142850057D02*
X79216666Y-142945295D01*
X79216666Y-142945295D02*
X79216666Y-143088152D01*
X79216666Y-143088152D02*
X79169047Y-143183390D01*
X79169047Y-143183390D02*
X79121428Y-143231009D01*
X79121428Y-143231009D02*
X79026190Y-143278628D01*
X79026190Y-143278628D02*
X78645238Y-143278628D01*
X79645238Y-143231009D02*
X79978571Y-143231009D01*
X80121428Y-143754819D02*
X79645238Y-143754819D01*
X79645238Y-143754819D02*
X79645238Y-142754819D01*
X79645238Y-142754819D02*
X80121428Y-142754819D01*
X80883333Y-143231009D02*
X80550000Y-143231009D01*
X80550000Y-143754819D02*
X80550000Y-142754819D01*
X80550000Y-142754819D02*
X81026190Y-142754819D01*
X81550000Y-142754819D02*
X81550000Y-142992914D01*
X81311905Y-142897676D02*
X81550000Y-142992914D01*
X81550000Y-142992914D02*
X81788095Y-142897676D01*
X81407143Y-143183390D02*
X81550000Y-142992914D01*
X81550000Y-142992914D02*
X81692857Y-143183390D01*
X82311905Y-142754819D02*
X82311905Y-142992914D01*
X82073810Y-142897676D02*
X82311905Y-142992914D01*
X82311905Y-142992914D02*
X82550000Y-142897676D01*
X82169048Y-143183390D02*
X82311905Y-142992914D01*
X82311905Y-142992914D02*
X82454762Y-143183390D01*
X97061905Y-131084819D02*
X97061905Y-130084819D01*
X97061905Y-130084819D02*
X97300000Y-130084819D01*
X97300000Y-130084819D02*
X97442857Y-130132438D01*
X97442857Y-130132438D02*
X97538095Y-130227676D01*
X97538095Y-130227676D02*
X97585714Y-130322914D01*
X97585714Y-130322914D02*
X97633333Y-130513390D01*
X97633333Y-130513390D02*
X97633333Y-130656247D01*
X97633333Y-130656247D02*
X97585714Y-130846723D01*
X97585714Y-130846723D02*
X97538095Y-130941961D01*
X97538095Y-130941961D02*
X97442857Y-131037200D01*
X97442857Y-131037200D02*
X97300000Y-131084819D01*
X97300000Y-131084819D02*
X97061905Y-131084819D01*
X98538095Y-130084819D02*
X98061905Y-130084819D01*
X98061905Y-130084819D02*
X98014286Y-130561009D01*
X98014286Y-130561009D02*
X98061905Y-130513390D01*
X98061905Y-130513390D02*
X98157143Y-130465771D01*
X98157143Y-130465771D02*
X98395238Y-130465771D01*
X98395238Y-130465771D02*
X98490476Y-130513390D01*
X98490476Y-130513390D02*
X98538095Y-130561009D01*
X98538095Y-130561009D02*
X98585714Y-130656247D01*
X98585714Y-130656247D02*
X98585714Y-130894342D01*
X98585714Y-130894342D02*
X98538095Y-130989580D01*
X98538095Y-130989580D02*
X98490476Y-131037200D01*
X98490476Y-131037200D02*
X98395238Y-131084819D01*
X98395238Y-131084819D02*
X98157143Y-131084819D01*
X98157143Y-131084819D02*
X98061905Y-131037200D01*
X98061905Y-131037200D02*
X98014286Y-130989580D01*
X105283333Y-64159819D02*
X104807143Y-64159819D01*
X104807143Y-64159819D02*
X104807143Y-63159819D01*
X106140476Y-64159819D02*
X105569048Y-64159819D01*
X105854762Y-64159819D02*
X105854762Y-63159819D01*
X105854762Y-63159819D02*
X105759524Y-63302676D01*
X105759524Y-63302676D02*
X105664286Y-63397914D01*
X105664286Y-63397914D02*
X105569048Y-63445533D01*
X142541904Y-65031009D02*
X142208571Y-65031009D01*
X142208571Y-65554819D02*
X142208571Y-64554819D01*
X142208571Y-64554819D02*
X142684761Y-64554819D01*
X143065714Y-65554819D02*
X143065714Y-64554819D01*
X143541904Y-65554819D02*
X143541904Y-64554819D01*
X143541904Y-64554819D02*
X144113332Y-65554819D01*
X144113332Y-65554819D02*
X144113332Y-64554819D01*
X144541904Y-65269104D02*
X145018094Y-65269104D01*
X144446666Y-65554819D02*
X144779999Y-64554819D01*
X144779999Y-64554819D02*
X145113332Y-65554819D01*
X145922856Y-65554819D02*
X145446666Y-65554819D01*
X145446666Y-65554819D02*
X145446666Y-64554819D01*
X146827618Y-65459580D02*
X146779999Y-65507200D01*
X146779999Y-65507200D02*
X146637142Y-65554819D01*
X146637142Y-65554819D02*
X146541904Y-65554819D01*
X146541904Y-65554819D02*
X146399047Y-65507200D01*
X146399047Y-65507200D02*
X146303809Y-65411961D01*
X146303809Y-65411961D02*
X146256190Y-65316723D01*
X146256190Y-65316723D02*
X146208571Y-65126247D01*
X146208571Y-65126247D02*
X146208571Y-64983390D01*
X146208571Y-64983390D02*
X146256190Y-64792914D01*
X146256190Y-64792914D02*
X146303809Y-64697676D01*
X146303809Y-64697676D02*
X146399047Y-64602438D01*
X146399047Y-64602438D02*
X146541904Y-64554819D01*
X146541904Y-64554819D02*
X146637142Y-64554819D01*
X146637142Y-64554819D02*
X146779999Y-64602438D01*
X146779999Y-64602438D02*
X146827618Y-64650057D01*
X147208571Y-65269104D02*
X147684761Y-65269104D01*
X147113333Y-65554819D02*
X147446666Y-64554819D01*
X147446666Y-64554819D02*
X147779999Y-65554819D01*
X148684761Y-65554819D02*
X148351428Y-65078628D01*
X148113333Y-65554819D02*
X148113333Y-64554819D01*
X148113333Y-64554819D02*
X148494285Y-64554819D01*
X148494285Y-64554819D02*
X148589523Y-64602438D01*
X148589523Y-64602438D02*
X148637142Y-64650057D01*
X148637142Y-64650057D02*
X148684761Y-64745295D01*
X148684761Y-64745295D02*
X148684761Y-64888152D01*
X148684761Y-64888152D02*
X148637142Y-64983390D01*
X148637142Y-64983390D02*
X148589523Y-65031009D01*
X148589523Y-65031009D02*
X148494285Y-65078628D01*
X148494285Y-65078628D02*
X148113333Y-65078628D01*
X149684761Y-65554819D02*
X149351428Y-65078628D01*
X149113333Y-65554819D02*
X149113333Y-64554819D01*
X149113333Y-64554819D02*
X149494285Y-64554819D01*
X149494285Y-64554819D02*
X149589523Y-64602438D01*
X149589523Y-64602438D02*
X149637142Y-64650057D01*
X149637142Y-64650057D02*
X149684761Y-64745295D01*
X149684761Y-64745295D02*
X149684761Y-64888152D01*
X149684761Y-64888152D02*
X149637142Y-64983390D01*
X149637142Y-64983390D02*
X149589523Y-65031009D01*
X149589523Y-65031009D02*
X149494285Y-65078628D01*
X149494285Y-65078628D02*
X149113333Y-65078628D01*
X150113333Y-65031009D02*
X150446666Y-65031009D01*
X150589523Y-65554819D02*
X150113333Y-65554819D01*
X150113333Y-65554819D02*
X150113333Y-64554819D01*
X150113333Y-64554819D02*
X150589523Y-64554819D01*
X151589523Y-65554819D02*
X151256190Y-65078628D01*
X151018095Y-65554819D02*
X151018095Y-64554819D01*
X151018095Y-64554819D02*
X151399047Y-64554819D01*
X151399047Y-64554819D02*
X151494285Y-64602438D01*
X151494285Y-64602438D02*
X151541904Y-64650057D01*
X151541904Y-64650057D02*
X151589523Y-64745295D01*
X151589523Y-64745295D02*
X151589523Y-64888152D01*
X151589523Y-64888152D02*
X151541904Y-64983390D01*
X151541904Y-64983390D02*
X151494285Y-65031009D01*
X151494285Y-65031009D02*
X151399047Y-65078628D01*
X151399047Y-65078628D02*
X151018095Y-65078628D01*
X151970476Y-65269104D02*
X152446666Y-65269104D01*
X151875238Y-65554819D02*
X152208571Y-64554819D01*
X152208571Y-64554819D02*
X152541904Y-65554819D01*
X153399047Y-65554819D02*
X152827619Y-65554819D01*
X153113333Y-65554819D02*
X153113333Y-64554819D01*
X153113333Y-64554819D02*
X153018095Y-64697676D01*
X153018095Y-64697676D02*
X152922857Y-64792914D01*
X152922857Y-64792914D02*
X152827619Y-64840533D01*
X152074286Y-70954819D02*
X152074286Y-69954819D01*
X152074286Y-69954819D02*
X152645714Y-70954819D01*
X152645714Y-70954819D02*
X152645714Y-69954819D01*
X153693333Y-70859580D02*
X153645714Y-70907200D01*
X153645714Y-70907200D02*
X153502857Y-70954819D01*
X153502857Y-70954819D02*
X153407619Y-70954819D01*
X153407619Y-70954819D02*
X153264762Y-70907200D01*
X153264762Y-70907200D02*
X153169524Y-70811961D01*
X153169524Y-70811961D02*
X153121905Y-70716723D01*
X153121905Y-70716723D02*
X153074286Y-70526247D01*
X153074286Y-70526247D02*
X153074286Y-70383390D01*
X153074286Y-70383390D02*
X153121905Y-70192914D01*
X153121905Y-70192914D02*
X153169524Y-70097676D01*
X153169524Y-70097676D02*
X153264762Y-70002438D01*
X153264762Y-70002438D02*
X153407619Y-69954819D01*
X153407619Y-69954819D02*
X153502857Y-69954819D01*
X153502857Y-69954819D02*
X153645714Y-70002438D01*
X153645714Y-70002438D02*
X153693333Y-70050057D01*
X143009523Y-70859580D02*
X142961904Y-70907200D01*
X142961904Y-70907200D02*
X142819047Y-70954819D01*
X142819047Y-70954819D02*
X142723809Y-70954819D01*
X142723809Y-70954819D02*
X142580952Y-70907200D01*
X142580952Y-70907200D02*
X142485714Y-70811961D01*
X142485714Y-70811961D02*
X142438095Y-70716723D01*
X142438095Y-70716723D02*
X142390476Y-70526247D01*
X142390476Y-70526247D02*
X142390476Y-70383390D01*
X142390476Y-70383390D02*
X142438095Y-70192914D01*
X142438095Y-70192914D02*
X142485714Y-70097676D01*
X142485714Y-70097676D02*
X142580952Y-70002438D01*
X142580952Y-70002438D02*
X142723809Y-69954819D01*
X142723809Y-69954819D02*
X142819047Y-69954819D01*
X142819047Y-69954819D02*
X142961904Y-70002438D01*
X142961904Y-70002438D02*
X143009523Y-70050057D01*
X146970476Y-70954819D02*
X146970476Y-69954819D01*
X146970476Y-69954819D02*
X147541904Y-70954819D01*
X147541904Y-70954819D02*
X147541904Y-69954819D01*
X148208571Y-69954819D02*
X148399047Y-69954819D01*
X148399047Y-69954819D02*
X148494285Y-70002438D01*
X148494285Y-70002438D02*
X148589523Y-70097676D01*
X148589523Y-70097676D02*
X148637142Y-70288152D01*
X148637142Y-70288152D02*
X148637142Y-70621485D01*
X148637142Y-70621485D02*
X148589523Y-70811961D01*
X148589523Y-70811961D02*
X148494285Y-70907200D01*
X148494285Y-70907200D02*
X148399047Y-70954819D01*
X148399047Y-70954819D02*
X148208571Y-70954819D01*
X148208571Y-70954819D02*
X148113333Y-70907200D01*
X148113333Y-70907200D02*
X148018095Y-70811961D01*
X148018095Y-70811961D02*
X147970476Y-70621485D01*
X147970476Y-70621485D02*
X147970476Y-70288152D01*
X147970476Y-70288152D02*
X148018095Y-70097676D01*
X148018095Y-70097676D02*
X148113333Y-70002438D01*
X148113333Y-70002438D02*
X148208571Y-69954819D01*
X163078095Y-83204819D02*
X163078095Y-84014342D01*
X163078095Y-84014342D02*
X163125714Y-84109580D01*
X163125714Y-84109580D02*
X163173333Y-84157200D01*
X163173333Y-84157200D02*
X163268571Y-84204819D01*
X163268571Y-84204819D02*
X163459047Y-84204819D01*
X163459047Y-84204819D02*
X163554285Y-84157200D01*
X163554285Y-84157200D02*
X163601904Y-84109580D01*
X163601904Y-84109580D02*
X163649523Y-84014342D01*
X163649523Y-84014342D02*
X163649523Y-83204819D01*
X164268571Y-83633390D02*
X164173333Y-83585771D01*
X164173333Y-83585771D02*
X164125714Y-83538152D01*
X164125714Y-83538152D02*
X164078095Y-83442914D01*
X164078095Y-83442914D02*
X164078095Y-83395295D01*
X164078095Y-83395295D02*
X164125714Y-83300057D01*
X164125714Y-83300057D02*
X164173333Y-83252438D01*
X164173333Y-83252438D02*
X164268571Y-83204819D01*
X164268571Y-83204819D02*
X164459047Y-83204819D01*
X164459047Y-83204819D02*
X164554285Y-83252438D01*
X164554285Y-83252438D02*
X164601904Y-83300057D01*
X164601904Y-83300057D02*
X164649523Y-83395295D01*
X164649523Y-83395295D02*
X164649523Y-83442914D01*
X164649523Y-83442914D02*
X164601904Y-83538152D01*
X164601904Y-83538152D02*
X164554285Y-83585771D01*
X164554285Y-83585771D02*
X164459047Y-83633390D01*
X164459047Y-83633390D02*
X164268571Y-83633390D01*
X164268571Y-83633390D02*
X164173333Y-83681009D01*
X164173333Y-83681009D02*
X164125714Y-83728628D01*
X164125714Y-83728628D02*
X164078095Y-83823866D01*
X164078095Y-83823866D02*
X164078095Y-84014342D01*
X164078095Y-84014342D02*
X164125714Y-84109580D01*
X164125714Y-84109580D02*
X164173333Y-84157200D01*
X164173333Y-84157200D02*
X164268571Y-84204819D01*
X164268571Y-84204819D02*
X164459047Y-84204819D01*
X164459047Y-84204819D02*
X164554285Y-84157200D01*
X164554285Y-84157200D02*
X164601904Y-84109580D01*
X164601904Y-84109580D02*
X164649523Y-84014342D01*
X164649523Y-84014342D02*
X164649523Y-83823866D01*
X164649523Y-83823866D02*
X164601904Y-83728628D01*
X164601904Y-83728628D02*
X164554285Y-83681009D01*
X164554285Y-83681009D02*
X164459047Y-83633390D01*
X90793095Y-73779819D02*
X90793095Y-74589342D01*
X90793095Y-74589342D02*
X90840714Y-74684580D01*
X90840714Y-74684580D02*
X90888333Y-74732200D01*
X90888333Y-74732200D02*
X90983571Y-74779819D01*
X90983571Y-74779819D02*
X91174047Y-74779819D01*
X91174047Y-74779819D02*
X91269285Y-74732200D01*
X91269285Y-74732200D02*
X91316904Y-74684580D01*
X91316904Y-74684580D02*
X91364523Y-74589342D01*
X91364523Y-74589342D02*
X91364523Y-73779819D01*
X91793095Y-73875057D02*
X91840714Y-73827438D01*
X91840714Y-73827438D02*
X91935952Y-73779819D01*
X91935952Y-73779819D02*
X92174047Y-73779819D01*
X92174047Y-73779819D02*
X92269285Y-73827438D01*
X92269285Y-73827438D02*
X92316904Y-73875057D01*
X92316904Y-73875057D02*
X92364523Y-73970295D01*
X92364523Y-73970295D02*
X92364523Y-74065533D01*
X92364523Y-74065533D02*
X92316904Y-74208390D01*
X92316904Y-74208390D02*
X91745476Y-74779819D01*
X91745476Y-74779819D02*
X92364523Y-74779819D01*
X116827009Y-124703333D02*
X116827009Y-125036666D01*
X117350819Y-125036666D02*
X116350819Y-125036666D01*
X116350819Y-125036666D02*
X116350819Y-124560476D01*
X116827009Y-123846190D02*
X116874628Y-123703333D01*
X116874628Y-123703333D02*
X116922247Y-123655714D01*
X116922247Y-123655714D02*
X117017485Y-123608095D01*
X117017485Y-123608095D02*
X117160342Y-123608095D01*
X117160342Y-123608095D02*
X117255580Y-123655714D01*
X117255580Y-123655714D02*
X117303200Y-123703333D01*
X117303200Y-123703333D02*
X117350819Y-123798571D01*
X117350819Y-123798571D02*
X117350819Y-124179523D01*
X117350819Y-124179523D02*
X116350819Y-124179523D01*
X116350819Y-124179523D02*
X116350819Y-123846190D01*
X116350819Y-123846190D02*
X116398438Y-123750952D01*
X116398438Y-123750952D02*
X116446057Y-123703333D01*
X116446057Y-123703333D02*
X116541295Y-123655714D01*
X116541295Y-123655714D02*
X116636533Y-123655714D01*
X116636533Y-123655714D02*
X116731771Y-123703333D01*
X116731771Y-123703333D02*
X116779390Y-123750952D01*
X116779390Y-123750952D02*
X116827009Y-123846190D01*
X116827009Y-123846190D02*
X116827009Y-124179523D01*
X117350819Y-122655714D02*
X117350819Y-123227142D01*
X117350819Y-122941428D02*
X116350819Y-122941428D01*
X116350819Y-122941428D02*
X116493676Y-123036666D01*
X116493676Y-123036666D02*
X116588914Y-123131904D01*
X116588914Y-123131904D02*
X116636533Y-123227142D01*
D11*
X157174124Y-109492266D02*
X157221744Y-109539885D01*
X157221744Y-109539885D02*
X157269363Y-109682742D01*
X157269363Y-109682742D02*
X157269363Y-109777980D01*
X157269363Y-109777980D02*
X157221744Y-109920837D01*
X157221744Y-109920837D02*
X157126505Y-110016075D01*
X157126505Y-110016075D02*
X157031267Y-110063694D01*
X157031267Y-110063694D02*
X156840791Y-110111313D01*
X156840791Y-110111313D02*
X156697934Y-110111313D01*
X156697934Y-110111313D02*
X156507458Y-110063694D01*
X156507458Y-110063694D02*
X156412220Y-110016075D01*
X156412220Y-110016075D02*
X156316982Y-109920837D01*
X156316982Y-109920837D02*
X156269363Y-109777980D01*
X156269363Y-109777980D02*
X156269363Y-109682742D01*
X156269363Y-109682742D02*
X156316982Y-109539885D01*
X156316982Y-109539885D02*
X156364601Y-109492266D01*
X156269363Y-109158932D02*
X156269363Y-108492266D01*
X156269363Y-108492266D02*
X157269363Y-108920837D01*
D10*
X175723333Y-101179580D02*
X175675714Y-101227200D01*
X175675714Y-101227200D02*
X175532857Y-101274819D01*
X175532857Y-101274819D02*
X175437619Y-101274819D01*
X175437619Y-101274819D02*
X175294762Y-101227200D01*
X175294762Y-101227200D02*
X175199524Y-101131961D01*
X175199524Y-101131961D02*
X175151905Y-101036723D01*
X175151905Y-101036723D02*
X175104286Y-100846247D01*
X175104286Y-100846247D02*
X175104286Y-100703390D01*
X175104286Y-100703390D02*
X175151905Y-100512914D01*
X175151905Y-100512914D02*
X175199524Y-100417676D01*
X175199524Y-100417676D02*
X175294762Y-100322438D01*
X175294762Y-100322438D02*
X175437619Y-100274819D01*
X175437619Y-100274819D02*
X175532857Y-100274819D01*
X175532857Y-100274819D02*
X175675714Y-100322438D01*
X175675714Y-100322438D02*
X175723333Y-100370057D01*
X176199524Y-101274819D02*
X176390000Y-101274819D01*
X176390000Y-101274819D02*
X176485238Y-101227200D01*
X176485238Y-101227200D02*
X176532857Y-101179580D01*
X176532857Y-101179580D02*
X176628095Y-101036723D01*
X176628095Y-101036723D02*
X176675714Y-100846247D01*
X176675714Y-100846247D02*
X176675714Y-100465295D01*
X176675714Y-100465295D02*
X176628095Y-100370057D01*
X176628095Y-100370057D02*
X176580476Y-100322438D01*
X176580476Y-100322438D02*
X176485238Y-100274819D01*
X176485238Y-100274819D02*
X176294762Y-100274819D01*
X176294762Y-100274819D02*
X176199524Y-100322438D01*
X176199524Y-100322438D02*
X176151905Y-100370057D01*
X176151905Y-100370057D02*
X176104286Y-100465295D01*
X176104286Y-100465295D02*
X176104286Y-100703390D01*
X176104286Y-100703390D02*
X176151905Y-100798628D01*
X176151905Y-100798628D02*
X176199524Y-100846247D01*
X176199524Y-100846247D02*
X176294762Y-100893866D01*
X176294762Y-100893866D02*
X176485238Y-100893866D01*
X176485238Y-100893866D02*
X176580476Y-100846247D01*
X176580476Y-100846247D02*
X176628095Y-100798628D01*
X176628095Y-100798628D02*
X176675714Y-100703390D01*
X178579488Y-84833333D02*
X179293773Y-84833333D01*
X179293773Y-84833333D02*
X179436630Y-84880952D01*
X179436630Y-84880952D02*
X179531869Y-84976190D01*
X179531869Y-84976190D02*
X179579488Y-85119047D01*
X179579488Y-85119047D02*
X179579488Y-85214285D01*
X178674726Y-84404761D02*
X178627107Y-84357142D01*
X178627107Y-84357142D02*
X178579488Y-84261904D01*
X178579488Y-84261904D02*
X178579488Y-84023809D01*
X178579488Y-84023809D02*
X178627107Y-83928571D01*
X178627107Y-83928571D02*
X178674726Y-83880952D01*
X178674726Y-83880952D02*
X178769964Y-83833333D01*
X178769964Y-83833333D02*
X178865202Y-83833333D01*
X178865202Y-83833333D02*
X179008059Y-83880952D01*
X179008059Y-83880952D02*
X179579488Y-84452380D01*
X179579488Y-84452380D02*
X179579488Y-83833333D01*
X130223333Y-65514819D02*
X129890000Y-65038628D01*
X129651905Y-65514819D02*
X129651905Y-64514819D01*
X129651905Y-64514819D02*
X130032857Y-64514819D01*
X130032857Y-64514819D02*
X130128095Y-64562438D01*
X130128095Y-64562438D02*
X130175714Y-64610057D01*
X130175714Y-64610057D02*
X130223333Y-64705295D01*
X130223333Y-64705295D02*
X130223333Y-64848152D01*
X130223333Y-64848152D02*
X130175714Y-64943390D01*
X130175714Y-64943390D02*
X130128095Y-64991009D01*
X130128095Y-64991009D02*
X130032857Y-65038628D01*
X130032857Y-65038628D02*
X129651905Y-65038628D01*
X131128095Y-64514819D02*
X130651905Y-64514819D01*
X130651905Y-64514819D02*
X130604286Y-64991009D01*
X130604286Y-64991009D02*
X130651905Y-64943390D01*
X130651905Y-64943390D02*
X130747143Y-64895771D01*
X130747143Y-64895771D02*
X130985238Y-64895771D01*
X130985238Y-64895771D02*
X131080476Y-64943390D01*
X131080476Y-64943390D02*
X131128095Y-64991009D01*
X131128095Y-64991009D02*
X131175714Y-65086247D01*
X131175714Y-65086247D02*
X131175714Y-65324342D01*
X131175714Y-65324342D02*
X131128095Y-65419580D01*
X131128095Y-65419580D02*
X131080476Y-65467200D01*
X131080476Y-65467200D02*
X130985238Y-65514819D01*
X130985238Y-65514819D02*
X130747143Y-65514819D01*
X130747143Y-65514819D02*
X130651905Y-65467200D01*
X130651905Y-65467200D02*
X130604286Y-65419580D01*
X108500476Y-132312319D02*
X108500476Y-131312319D01*
X108500476Y-131312319D02*
X108833809Y-132026604D01*
X108833809Y-132026604D02*
X109167142Y-131312319D01*
X109167142Y-131312319D02*
X109167142Y-132312319D01*
X109548095Y-131312319D02*
X110167142Y-131312319D01*
X110167142Y-131312319D02*
X109833809Y-131693271D01*
X109833809Y-131693271D02*
X109976666Y-131693271D01*
X109976666Y-131693271D02*
X110071904Y-131740890D01*
X110071904Y-131740890D02*
X110119523Y-131788509D01*
X110119523Y-131788509D02*
X110167142Y-131883747D01*
X110167142Y-131883747D02*
X110167142Y-132121842D01*
X110167142Y-132121842D02*
X110119523Y-132217080D01*
X110119523Y-132217080D02*
X110071904Y-132264700D01*
X110071904Y-132264700D02*
X109976666Y-132312319D01*
X109976666Y-132312319D02*
X109690952Y-132312319D01*
X109690952Y-132312319D02*
X109595714Y-132264700D01*
X109595714Y-132264700D02*
X109548095Y-132217080D01*
X131157142Y-88639580D02*
X131109523Y-88687200D01*
X131109523Y-88687200D02*
X130966666Y-88734819D01*
X130966666Y-88734819D02*
X130871428Y-88734819D01*
X130871428Y-88734819D02*
X130728571Y-88687200D01*
X130728571Y-88687200D02*
X130633333Y-88591961D01*
X130633333Y-88591961D02*
X130585714Y-88496723D01*
X130585714Y-88496723D02*
X130538095Y-88306247D01*
X130538095Y-88306247D02*
X130538095Y-88163390D01*
X130538095Y-88163390D02*
X130585714Y-87972914D01*
X130585714Y-87972914D02*
X130633333Y-87877676D01*
X130633333Y-87877676D02*
X130728571Y-87782438D01*
X130728571Y-87782438D02*
X130871428Y-87734819D01*
X130871428Y-87734819D02*
X130966666Y-87734819D01*
X130966666Y-87734819D02*
X131109523Y-87782438D01*
X131109523Y-87782438D02*
X131157142Y-87830057D01*
X132109523Y-88734819D02*
X131538095Y-88734819D01*
X131823809Y-88734819D02*
X131823809Y-87734819D01*
X131823809Y-87734819D02*
X131728571Y-87877676D01*
X131728571Y-87877676D02*
X131633333Y-87972914D01*
X131633333Y-87972914D02*
X131538095Y-88020533D01*
X132728571Y-87734819D02*
X132823809Y-87734819D01*
X132823809Y-87734819D02*
X132919047Y-87782438D01*
X132919047Y-87782438D02*
X132966666Y-87830057D01*
X132966666Y-87830057D02*
X133014285Y-87925295D01*
X133014285Y-87925295D02*
X133061904Y-88115771D01*
X133061904Y-88115771D02*
X133061904Y-88353866D01*
X133061904Y-88353866D02*
X133014285Y-88544342D01*
X133014285Y-88544342D02*
X132966666Y-88639580D01*
X132966666Y-88639580D02*
X132919047Y-88687200D01*
X132919047Y-88687200D02*
X132823809Y-88734819D01*
X132823809Y-88734819D02*
X132728571Y-88734819D01*
X132728571Y-88734819D02*
X132633333Y-88687200D01*
X132633333Y-88687200D02*
X132585714Y-88639580D01*
X132585714Y-88639580D02*
X132538095Y-88544342D01*
X132538095Y-88544342D02*
X132490476Y-88353866D01*
X132490476Y-88353866D02*
X132490476Y-88115771D01*
X132490476Y-88115771D02*
X132538095Y-87925295D01*
X132538095Y-87925295D02*
X132585714Y-87830057D01*
X132585714Y-87830057D02*
X132633333Y-87782438D01*
X132633333Y-87782438D02*
X132728571Y-87734819D01*
X124494819Y-107633333D02*
X125209104Y-107633333D01*
X125209104Y-107633333D02*
X125351961Y-107680952D01*
X125351961Y-107680952D02*
X125447200Y-107776190D01*
X125447200Y-107776190D02*
X125494819Y-107919047D01*
X125494819Y-107919047D02*
X125494819Y-108014285D01*
X125494819Y-107157142D02*
X124494819Y-107157142D01*
X124494819Y-107157142D02*
X124494819Y-106776190D01*
X124494819Y-106776190D02*
X124542438Y-106680952D01*
X124542438Y-106680952D02*
X124590057Y-106633333D01*
X124590057Y-106633333D02*
X124685295Y-106585714D01*
X124685295Y-106585714D02*
X124828152Y-106585714D01*
X124828152Y-106585714D02*
X124923390Y-106633333D01*
X124923390Y-106633333D02*
X124971009Y-106680952D01*
X124971009Y-106680952D02*
X125018628Y-106776190D01*
X125018628Y-106776190D02*
X125018628Y-107157142D01*
X125494819Y-105633333D02*
X125494819Y-106204761D01*
X125494819Y-105919047D02*
X124494819Y-105919047D01*
X124494819Y-105919047D02*
X124637676Y-106014285D01*
X124637676Y-106014285D02*
X124732914Y-106109523D01*
X124732914Y-106109523D02*
X124780533Y-106204761D01*
X94514819Y-114510357D02*
X94038628Y-114843690D01*
X94514819Y-115081785D02*
X93514819Y-115081785D01*
X93514819Y-115081785D02*
X93514819Y-114700833D01*
X93514819Y-114700833D02*
X93562438Y-114605595D01*
X93562438Y-114605595D02*
X93610057Y-114557976D01*
X93610057Y-114557976D02*
X93705295Y-114510357D01*
X93705295Y-114510357D02*
X93848152Y-114510357D01*
X93848152Y-114510357D02*
X93943390Y-114557976D01*
X93943390Y-114557976D02*
X93991009Y-114605595D01*
X93991009Y-114605595D02*
X94038628Y-114700833D01*
X94038628Y-114700833D02*
X94038628Y-115081785D01*
X94514819Y-113557976D02*
X94514819Y-114129404D01*
X94514819Y-113843690D02*
X93514819Y-113843690D01*
X93514819Y-113843690D02*
X93657676Y-113938928D01*
X93657676Y-113938928D02*
X93752914Y-114034166D01*
X93752914Y-114034166D02*
X93800533Y-114129404D01*
X93943390Y-112986547D02*
X93895771Y-113081785D01*
X93895771Y-113081785D02*
X93848152Y-113129404D01*
X93848152Y-113129404D02*
X93752914Y-113177023D01*
X93752914Y-113177023D02*
X93705295Y-113177023D01*
X93705295Y-113177023D02*
X93610057Y-113129404D01*
X93610057Y-113129404D02*
X93562438Y-113081785D01*
X93562438Y-113081785D02*
X93514819Y-112986547D01*
X93514819Y-112986547D02*
X93514819Y-112796071D01*
X93514819Y-112796071D02*
X93562438Y-112700833D01*
X93562438Y-112700833D02*
X93610057Y-112653214D01*
X93610057Y-112653214D02*
X93705295Y-112605595D01*
X93705295Y-112605595D02*
X93752914Y-112605595D01*
X93752914Y-112605595D02*
X93848152Y-112653214D01*
X93848152Y-112653214D02*
X93895771Y-112700833D01*
X93895771Y-112700833D02*
X93943390Y-112796071D01*
X93943390Y-112796071D02*
X93943390Y-112986547D01*
X93943390Y-112986547D02*
X93991009Y-113081785D01*
X93991009Y-113081785D02*
X94038628Y-113129404D01*
X94038628Y-113129404D02*
X94133866Y-113177023D01*
X94133866Y-113177023D02*
X94324342Y-113177023D01*
X94324342Y-113177023D02*
X94419580Y-113129404D01*
X94419580Y-113129404D02*
X94467200Y-113081785D01*
X94467200Y-113081785D02*
X94514819Y-112986547D01*
X94514819Y-112986547D02*
X94514819Y-112796071D01*
X94514819Y-112796071D02*
X94467200Y-112700833D01*
X94467200Y-112700833D02*
X94419580Y-112653214D01*
X94419580Y-112653214D02*
X94324342Y-112605595D01*
X94324342Y-112605595D02*
X94133866Y-112605595D01*
X94133866Y-112605595D02*
X94038628Y-112653214D01*
X94038628Y-112653214D02*
X93991009Y-112700833D01*
X93991009Y-112700833D02*
X93943390Y-112796071D01*
X156924819Y-76304166D02*
X156448628Y-76637499D01*
X156924819Y-76875594D02*
X155924819Y-76875594D01*
X155924819Y-76875594D02*
X155924819Y-76494642D01*
X155924819Y-76494642D02*
X155972438Y-76399404D01*
X155972438Y-76399404D02*
X156020057Y-76351785D01*
X156020057Y-76351785D02*
X156115295Y-76304166D01*
X156115295Y-76304166D02*
X156258152Y-76304166D01*
X156258152Y-76304166D02*
X156353390Y-76351785D01*
X156353390Y-76351785D02*
X156401009Y-76399404D01*
X156401009Y-76399404D02*
X156448628Y-76494642D01*
X156448628Y-76494642D02*
X156448628Y-76875594D01*
X155924819Y-75970832D02*
X155924819Y-75351785D01*
X155924819Y-75351785D02*
X156305771Y-75685118D01*
X156305771Y-75685118D02*
X156305771Y-75542261D01*
X156305771Y-75542261D02*
X156353390Y-75447023D01*
X156353390Y-75447023D02*
X156401009Y-75399404D01*
X156401009Y-75399404D02*
X156496247Y-75351785D01*
X156496247Y-75351785D02*
X156734342Y-75351785D01*
X156734342Y-75351785D02*
X156829580Y-75399404D01*
X156829580Y-75399404D02*
X156877200Y-75447023D01*
X156877200Y-75447023D02*
X156924819Y-75542261D01*
X156924819Y-75542261D02*
X156924819Y-75827975D01*
X156924819Y-75827975D02*
X156877200Y-75923213D01*
X156877200Y-75923213D02*
X156829580Y-75970832D01*
X178679488Y-117233333D02*
X179393773Y-117233333D01*
X179393773Y-117233333D02*
X179536630Y-117280952D01*
X179536630Y-117280952D02*
X179631869Y-117376190D01*
X179631869Y-117376190D02*
X179679488Y-117519047D01*
X179679488Y-117519047D02*
X179679488Y-117614285D01*
X178679488Y-116852380D02*
X178679488Y-116233333D01*
X178679488Y-116233333D02*
X179060440Y-116566666D01*
X179060440Y-116566666D02*
X179060440Y-116423809D01*
X179060440Y-116423809D02*
X179108059Y-116328571D01*
X179108059Y-116328571D02*
X179155678Y-116280952D01*
X179155678Y-116280952D02*
X179250916Y-116233333D01*
X179250916Y-116233333D02*
X179489011Y-116233333D01*
X179489011Y-116233333D02*
X179584249Y-116280952D01*
X179584249Y-116280952D02*
X179631869Y-116328571D01*
X179631869Y-116328571D02*
X179679488Y-116423809D01*
X179679488Y-116423809D02*
X179679488Y-116709523D01*
X179679488Y-116709523D02*
X179631869Y-116804761D01*
X179631869Y-116804761D02*
X179584249Y-116852380D01*
X124818095Y-76404819D02*
X124818095Y-77214342D01*
X124818095Y-77214342D02*
X124865714Y-77309580D01*
X124865714Y-77309580D02*
X124913333Y-77357200D01*
X124913333Y-77357200D02*
X125008571Y-77404819D01*
X125008571Y-77404819D02*
X125199047Y-77404819D01*
X125199047Y-77404819D02*
X125294285Y-77357200D01*
X125294285Y-77357200D02*
X125341904Y-77309580D01*
X125341904Y-77309580D02*
X125389523Y-77214342D01*
X125389523Y-77214342D02*
X125389523Y-76404819D01*
X126389523Y-77404819D02*
X125818095Y-77404819D01*
X126103809Y-77404819D02*
X126103809Y-76404819D01*
X126103809Y-76404819D02*
X126008571Y-76547676D01*
X126008571Y-76547676D02*
X125913333Y-76642914D01*
X125913333Y-76642914D02*
X125818095Y-76690533D01*
X124064761Y-132072557D02*
X123969523Y-132024938D01*
X123969523Y-132024938D02*
X123874285Y-131929700D01*
X123874285Y-131929700D02*
X123731428Y-131786842D01*
X123731428Y-131786842D02*
X123636190Y-131739223D01*
X123636190Y-131739223D02*
X123540952Y-131739223D01*
X123588571Y-131977319D02*
X123493333Y-131929700D01*
X123493333Y-131929700D02*
X123398095Y-131834461D01*
X123398095Y-131834461D02*
X123350476Y-131643985D01*
X123350476Y-131643985D02*
X123350476Y-131310652D01*
X123350476Y-131310652D02*
X123398095Y-131120176D01*
X123398095Y-131120176D02*
X123493333Y-131024938D01*
X123493333Y-131024938D02*
X123588571Y-130977319D01*
X123588571Y-130977319D02*
X123779047Y-130977319D01*
X123779047Y-130977319D02*
X123874285Y-131024938D01*
X123874285Y-131024938D02*
X123969523Y-131120176D01*
X123969523Y-131120176D02*
X124017142Y-131310652D01*
X124017142Y-131310652D02*
X124017142Y-131643985D01*
X124017142Y-131643985D02*
X123969523Y-131834461D01*
X123969523Y-131834461D02*
X123874285Y-131929700D01*
X123874285Y-131929700D02*
X123779047Y-131977319D01*
X123779047Y-131977319D02*
X123588571Y-131977319D01*
X124874285Y-131310652D02*
X124874285Y-131977319D01*
X124636190Y-130929700D02*
X124398095Y-131643985D01*
X124398095Y-131643985D02*
X125017142Y-131643985D01*
X150690476Y-144564819D02*
X150690476Y-143564819D01*
X150690476Y-143564819D02*
X151023809Y-144279104D01*
X151023809Y-144279104D02*
X151357142Y-143564819D01*
X151357142Y-143564819D02*
X151357142Y-144564819D01*
X152357142Y-144564819D02*
X151785714Y-144564819D01*
X152071428Y-144564819D02*
X152071428Y-143564819D01*
X152071428Y-143564819D02*
X151976190Y-143707676D01*
X151976190Y-143707676D02*
X151880952Y-143802914D01*
X151880952Y-143802914D02*
X151785714Y-143850533D01*
X119304819Y-133838094D02*
X118304819Y-133838094D01*
X118304819Y-133838094D02*
X118304819Y-133599999D01*
X118304819Y-133599999D02*
X118352438Y-133457142D01*
X118352438Y-133457142D02*
X118447676Y-133361904D01*
X118447676Y-133361904D02*
X118542914Y-133314285D01*
X118542914Y-133314285D02*
X118733390Y-133266666D01*
X118733390Y-133266666D02*
X118876247Y-133266666D01*
X118876247Y-133266666D02*
X119066723Y-133314285D01*
X119066723Y-133314285D02*
X119161961Y-133361904D01*
X119161961Y-133361904D02*
X119257200Y-133457142D01*
X119257200Y-133457142D02*
X119304819Y-133599999D01*
X119304819Y-133599999D02*
X119304819Y-133838094D01*
X118304819Y-132409523D02*
X118304819Y-132599999D01*
X118304819Y-132599999D02*
X118352438Y-132695237D01*
X118352438Y-132695237D02*
X118400057Y-132742856D01*
X118400057Y-132742856D02*
X118542914Y-132838094D01*
X118542914Y-132838094D02*
X118733390Y-132885713D01*
X118733390Y-132885713D02*
X119114342Y-132885713D01*
X119114342Y-132885713D02*
X119209580Y-132838094D01*
X119209580Y-132838094D02*
X119257200Y-132790475D01*
X119257200Y-132790475D02*
X119304819Y-132695237D01*
X119304819Y-132695237D02*
X119304819Y-132504761D01*
X119304819Y-132504761D02*
X119257200Y-132409523D01*
X119257200Y-132409523D02*
X119209580Y-132361904D01*
X119209580Y-132361904D02*
X119114342Y-132314285D01*
X119114342Y-132314285D02*
X118876247Y-132314285D01*
X118876247Y-132314285D02*
X118781009Y-132361904D01*
X118781009Y-132361904D02*
X118733390Y-132409523D01*
X118733390Y-132409523D02*
X118685771Y-132504761D01*
X118685771Y-132504761D02*
X118685771Y-132695237D01*
X118685771Y-132695237D02*
X118733390Y-132790475D01*
X118733390Y-132790475D02*
X118781009Y-132838094D01*
X118781009Y-132838094D02*
X118876247Y-132885713D01*
X128738095Y-88154819D02*
X128738095Y-88964342D01*
X128738095Y-88964342D02*
X128785714Y-89059580D01*
X128785714Y-89059580D02*
X128833333Y-89107200D01*
X128833333Y-89107200D02*
X128928571Y-89154819D01*
X128928571Y-89154819D02*
X129119047Y-89154819D01*
X129119047Y-89154819D02*
X129214285Y-89107200D01*
X129214285Y-89107200D02*
X129261904Y-89059580D01*
X129261904Y-89059580D02*
X129309523Y-88964342D01*
X129309523Y-88964342D02*
X129309523Y-88154819D01*
X130214285Y-88488152D02*
X130214285Y-89154819D01*
X129976190Y-88107200D02*
X129738095Y-88821485D01*
X129738095Y-88821485D02*
X130357142Y-88821485D01*
X121019580Y-61642857D02*
X121067200Y-61690476D01*
X121067200Y-61690476D02*
X121114819Y-61833333D01*
X121114819Y-61833333D02*
X121114819Y-61928571D01*
X121114819Y-61928571D02*
X121067200Y-62071428D01*
X121067200Y-62071428D02*
X120971961Y-62166666D01*
X120971961Y-62166666D02*
X120876723Y-62214285D01*
X120876723Y-62214285D02*
X120686247Y-62261904D01*
X120686247Y-62261904D02*
X120543390Y-62261904D01*
X120543390Y-62261904D02*
X120352914Y-62214285D01*
X120352914Y-62214285D02*
X120257676Y-62166666D01*
X120257676Y-62166666D02*
X120162438Y-62071428D01*
X120162438Y-62071428D02*
X120114819Y-61928571D01*
X120114819Y-61928571D02*
X120114819Y-61833333D01*
X120114819Y-61833333D02*
X120162438Y-61690476D01*
X120162438Y-61690476D02*
X120210057Y-61642857D01*
X121114819Y-60690476D02*
X121114819Y-61261904D01*
X121114819Y-60976190D02*
X120114819Y-60976190D01*
X120114819Y-60976190D02*
X120257676Y-61071428D01*
X120257676Y-61071428D02*
X120352914Y-61166666D01*
X120352914Y-61166666D02*
X120400533Y-61261904D01*
X120210057Y-60309523D02*
X120162438Y-60261904D01*
X120162438Y-60261904D02*
X120114819Y-60166666D01*
X120114819Y-60166666D02*
X120114819Y-59928571D01*
X120114819Y-59928571D02*
X120162438Y-59833333D01*
X120162438Y-59833333D02*
X120210057Y-59785714D01*
X120210057Y-59785714D02*
X120305295Y-59738095D01*
X120305295Y-59738095D02*
X120400533Y-59738095D01*
X120400533Y-59738095D02*
X120543390Y-59785714D01*
X120543390Y-59785714D02*
X121114819Y-60357142D01*
X121114819Y-60357142D02*
X121114819Y-59738095D01*
X106237142Y-55699580D02*
X106189523Y-55747200D01*
X106189523Y-55747200D02*
X106046666Y-55794819D01*
X106046666Y-55794819D02*
X105951428Y-55794819D01*
X105951428Y-55794819D02*
X105808571Y-55747200D01*
X105808571Y-55747200D02*
X105713333Y-55651961D01*
X105713333Y-55651961D02*
X105665714Y-55556723D01*
X105665714Y-55556723D02*
X105618095Y-55366247D01*
X105618095Y-55366247D02*
X105618095Y-55223390D01*
X105618095Y-55223390D02*
X105665714Y-55032914D01*
X105665714Y-55032914D02*
X105713333Y-54937676D01*
X105713333Y-54937676D02*
X105808571Y-54842438D01*
X105808571Y-54842438D02*
X105951428Y-54794819D01*
X105951428Y-54794819D02*
X106046666Y-54794819D01*
X106046666Y-54794819D02*
X106189523Y-54842438D01*
X106189523Y-54842438D02*
X106237142Y-54890057D01*
X107189523Y-55794819D02*
X106618095Y-55794819D01*
X106903809Y-55794819D02*
X106903809Y-54794819D01*
X106903809Y-54794819D02*
X106808571Y-54937676D01*
X106808571Y-54937676D02*
X106713333Y-55032914D01*
X106713333Y-55032914D02*
X106618095Y-55080533D01*
X107522857Y-54794819D02*
X108141904Y-54794819D01*
X108141904Y-54794819D02*
X107808571Y-55175771D01*
X107808571Y-55175771D02*
X107951428Y-55175771D01*
X107951428Y-55175771D02*
X108046666Y-55223390D01*
X108046666Y-55223390D02*
X108094285Y-55271009D01*
X108094285Y-55271009D02*
X108141904Y-55366247D01*
X108141904Y-55366247D02*
X108141904Y-55604342D01*
X108141904Y-55604342D02*
X108094285Y-55699580D01*
X108094285Y-55699580D02*
X108046666Y-55747200D01*
X108046666Y-55747200D02*
X107951428Y-55794819D01*
X107951428Y-55794819D02*
X107665714Y-55794819D01*
X107665714Y-55794819D02*
X107570476Y-55747200D01*
X107570476Y-55747200D02*
X107522857Y-55699580D01*
X125351905Y-116739819D02*
X125351905Y-115739819D01*
X125351905Y-115739819D02*
X125590000Y-115739819D01*
X125590000Y-115739819D02*
X125732857Y-115787438D01*
X125732857Y-115787438D02*
X125828095Y-115882676D01*
X125828095Y-115882676D02*
X125875714Y-115977914D01*
X125875714Y-115977914D02*
X125923333Y-116168390D01*
X125923333Y-116168390D02*
X125923333Y-116311247D01*
X125923333Y-116311247D02*
X125875714Y-116501723D01*
X125875714Y-116501723D02*
X125828095Y-116596961D01*
X125828095Y-116596961D02*
X125732857Y-116692200D01*
X125732857Y-116692200D02*
X125590000Y-116739819D01*
X125590000Y-116739819D02*
X125351905Y-116739819D01*
X126304286Y-115835057D02*
X126351905Y-115787438D01*
X126351905Y-115787438D02*
X126447143Y-115739819D01*
X126447143Y-115739819D02*
X126685238Y-115739819D01*
X126685238Y-115739819D02*
X126780476Y-115787438D01*
X126780476Y-115787438D02*
X126828095Y-115835057D01*
X126828095Y-115835057D02*
X126875714Y-115930295D01*
X126875714Y-115930295D02*
X126875714Y-116025533D01*
X126875714Y-116025533D02*
X126828095Y-116168390D01*
X126828095Y-116168390D02*
X126256667Y-116739819D01*
X126256667Y-116739819D02*
X126875714Y-116739819D01*
D11*
X188666666Y-54404663D02*
X188333333Y-53928472D01*
X188095238Y-54404663D02*
X188095238Y-53404663D01*
X188095238Y-53404663D02*
X188476190Y-53404663D01*
X188476190Y-53404663D02*
X188571428Y-53452282D01*
X188571428Y-53452282D02*
X188619047Y-53499901D01*
X188619047Y-53499901D02*
X188666666Y-53595139D01*
X188666666Y-53595139D02*
X188666666Y-53737996D01*
X188666666Y-53737996D02*
X188619047Y-53833234D01*
X188619047Y-53833234D02*
X188571428Y-53880853D01*
X188571428Y-53880853D02*
X188476190Y-53928472D01*
X188476190Y-53928472D02*
X188095238Y-53928472D01*
X189095238Y-53880853D02*
X189428571Y-53880853D01*
X189571428Y-54404663D02*
X189095238Y-54404663D01*
X189095238Y-54404663D02*
X189095238Y-53404663D01*
X189095238Y-53404663D02*
X189571428Y-53404663D01*
X190333333Y-53880853D02*
X190000000Y-53880853D01*
X190000000Y-54404663D02*
X190000000Y-53404663D01*
X190000000Y-53404663D02*
X190476190Y-53404663D01*
X191000000Y-53404663D02*
X191000000Y-53642758D01*
X190761905Y-53547520D02*
X191000000Y-53642758D01*
X191000000Y-53642758D02*
X191238095Y-53547520D01*
X190857143Y-53833234D02*
X191000000Y-53642758D01*
X191000000Y-53642758D02*
X191142857Y-53833234D01*
X191761905Y-53404663D02*
X191761905Y-53642758D01*
X191523810Y-53547520D02*
X191761905Y-53642758D01*
X191761905Y-53642758D02*
X192000000Y-53547520D01*
X191619048Y-53833234D02*
X191761905Y-53642758D01*
X191761905Y-53642758D02*
X191904762Y-53833234D01*
D10*
X118038095Y-66604819D02*
X118038095Y-67414342D01*
X118038095Y-67414342D02*
X118085714Y-67509580D01*
X118085714Y-67509580D02*
X118133333Y-67557200D01*
X118133333Y-67557200D02*
X118228571Y-67604819D01*
X118228571Y-67604819D02*
X118419047Y-67604819D01*
X118419047Y-67604819D02*
X118514285Y-67557200D01*
X118514285Y-67557200D02*
X118561904Y-67509580D01*
X118561904Y-67509580D02*
X118609523Y-67414342D01*
X118609523Y-67414342D02*
X118609523Y-66604819D01*
X119514285Y-66604819D02*
X119323809Y-66604819D01*
X119323809Y-66604819D02*
X119228571Y-66652438D01*
X119228571Y-66652438D02*
X119180952Y-66700057D01*
X119180952Y-66700057D02*
X119085714Y-66842914D01*
X119085714Y-66842914D02*
X119038095Y-67033390D01*
X119038095Y-67033390D02*
X119038095Y-67414342D01*
X119038095Y-67414342D02*
X119085714Y-67509580D01*
X119085714Y-67509580D02*
X119133333Y-67557200D01*
X119133333Y-67557200D02*
X119228571Y-67604819D01*
X119228571Y-67604819D02*
X119419047Y-67604819D01*
X119419047Y-67604819D02*
X119514285Y-67557200D01*
X119514285Y-67557200D02*
X119561904Y-67509580D01*
X119561904Y-67509580D02*
X119609523Y-67414342D01*
X119609523Y-67414342D02*
X119609523Y-67176247D01*
X119609523Y-67176247D02*
X119561904Y-67081009D01*
X119561904Y-67081009D02*
X119514285Y-67033390D01*
X119514285Y-67033390D02*
X119419047Y-66985771D01*
X119419047Y-66985771D02*
X119228571Y-66985771D01*
X119228571Y-66985771D02*
X119133333Y-67033390D01*
X119133333Y-67033390D02*
X119085714Y-67081009D01*
X119085714Y-67081009D02*
X119038095Y-67176247D01*
X161691904Y-64831009D02*
X161358571Y-64831009D01*
X161358571Y-65354819D02*
X161358571Y-64354819D01*
X161358571Y-64354819D02*
X161834761Y-64354819D01*
X162215714Y-65354819D02*
X162215714Y-64354819D01*
X162691904Y-65354819D02*
X162691904Y-64354819D01*
X162691904Y-64354819D02*
X163263332Y-65354819D01*
X163263332Y-65354819D02*
X163263332Y-64354819D01*
X163691904Y-65069104D02*
X164168094Y-65069104D01*
X163596666Y-65354819D02*
X163929999Y-64354819D01*
X163929999Y-64354819D02*
X164263332Y-65354819D01*
X165072856Y-65354819D02*
X164596666Y-65354819D01*
X164596666Y-65354819D02*
X164596666Y-64354819D01*
X165977618Y-65259580D02*
X165929999Y-65307200D01*
X165929999Y-65307200D02*
X165787142Y-65354819D01*
X165787142Y-65354819D02*
X165691904Y-65354819D01*
X165691904Y-65354819D02*
X165549047Y-65307200D01*
X165549047Y-65307200D02*
X165453809Y-65211961D01*
X165453809Y-65211961D02*
X165406190Y-65116723D01*
X165406190Y-65116723D02*
X165358571Y-64926247D01*
X165358571Y-64926247D02*
X165358571Y-64783390D01*
X165358571Y-64783390D02*
X165406190Y-64592914D01*
X165406190Y-64592914D02*
X165453809Y-64497676D01*
X165453809Y-64497676D02*
X165549047Y-64402438D01*
X165549047Y-64402438D02*
X165691904Y-64354819D01*
X165691904Y-64354819D02*
X165787142Y-64354819D01*
X165787142Y-64354819D02*
X165929999Y-64402438D01*
X165929999Y-64402438D02*
X165977618Y-64450057D01*
X166358571Y-65069104D02*
X166834761Y-65069104D01*
X166263333Y-65354819D02*
X166596666Y-64354819D01*
X166596666Y-64354819D02*
X166929999Y-65354819D01*
X167834761Y-65354819D02*
X167501428Y-64878628D01*
X167263333Y-65354819D02*
X167263333Y-64354819D01*
X167263333Y-64354819D02*
X167644285Y-64354819D01*
X167644285Y-64354819D02*
X167739523Y-64402438D01*
X167739523Y-64402438D02*
X167787142Y-64450057D01*
X167787142Y-64450057D02*
X167834761Y-64545295D01*
X167834761Y-64545295D02*
X167834761Y-64688152D01*
X167834761Y-64688152D02*
X167787142Y-64783390D01*
X167787142Y-64783390D02*
X167739523Y-64831009D01*
X167739523Y-64831009D02*
X167644285Y-64878628D01*
X167644285Y-64878628D02*
X167263333Y-64878628D01*
X168834761Y-65354819D02*
X168501428Y-64878628D01*
X168263333Y-65354819D02*
X168263333Y-64354819D01*
X168263333Y-64354819D02*
X168644285Y-64354819D01*
X168644285Y-64354819D02*
X168739523Y-64402438D01*
X168739523Y-64402438D02*
X168787142Y-64450057D01*
X168787142Y-64450057D02*
X168834761Y-64545295D01*
X168834761Y-64545295D02*
X168834761Y-64688152D01*
X168834761Y-64688152D02*
X168787142Y-64783390D01*
X168787142Y-64783390D02*
X168739523Y-64831009D01*
X168739523Y-64831009D02*
X168644285Y-64878628D01*
X168644285Y-64878628D02*
X168263333Y-64878628D01*
X169263333Y-64831009D02*
X169596666Y-64831009D01*
X169739523Y-65354819D02*
X169263333Y-65354819D01*
X169263333Y-65354819D02*
X169263333Y-64354819D01*
X169263333Y-64354819D02*
X169739523Y-64354819D01*
X170739523Y-65354819D02*
X170406190Y-64878628D01*
X170168095Y-65354819D02*
X170168095Y-64354819D01*
X170168095Y-64354819D02*
X170549047Y-64354819D01*
X170549047Y-64354819D02*
X170644285Y-64402438D01*
X170644285Y-64402438D02*
X170691904Y-64450057D01*
X170691904Y-64450057D02*
X170739523Y-64545295D01*
X170739523Y-64545295D02*
X170739523Y-64688152D01*
X170739523Y-64688152D02*
X170691904Y-64783390D01*
X170691904Y-64783390D02*
X170644285Y-64831009D01*
X170644285Y-64831009D02*
X170549047Y-64878628D01*
X170549047Y-64878628D02*
X170168095Y-64878628D01*
X171120476Y-65069104D02*
X171596666Y-65069104D01*
X171025238Y-65354819D02*
X171358571Y-64354819D01*
X171358571Y-64354819D02*
X171691904Y-65354819D01*
X171977619Y-64450057D02*
X172025238Y-64402438D01*
X172025238Y-64402438D02*
X172120476Y-64354819D01*
X172120476Y-64354819D02*
X172358571Y-64354819D01*
X172358571Y-64354819D02*
X172453809Y-64402438D01*
X172453809Y-64402438D02*
X172501428Y-64450057D01*
X172501428Y-64450057D02*
X172549047Y-64545295D01*
X172549047Y-64545295D02*
X172549047Y-64640533D01*
X172549047Y-64640533D02*
X172501428Y-64783390D01*
X172501428Y-64783390D02*
X171930000Y-65354819D01*
X171930000Y-65354819D02*
X172549047Y-65354819D01*
X162159523Y-70659580D02*
X162111904Y-70707200D01*
X162111904Y-70707200D02*
X161969047Y-70754819D01*
X161969047Y-70754819D02*
X161873809Y-70754819D01*
X161873809Y-70754819D02*
X161730952Y-70707200D01*
X161730952Y-70707200D02*
X161635714Y-70611961D01*
X161635714Y-70611961D02*
X161588095Y-70516723D01*
X161588095Y-70516723D02*
X161540476Y-70326247D01*
X161540476Y-70326247D02*
X161540476Y-70183390D01*
X161540476Y-70183390D02*
X161588095Y-69992914D01*
X161588095Y-69992914D02*
X161635714Y-69897676D01*
X161635714Y-69897676D02*
X161730952Y-69802438D01*
X161730952Y-69802438D02*
X161873809Y-69754819D01*
X161873809Y-69754819D02*
X161969047Y-69754819D01*
X161969047Y-69754819D02*
X162111904Y-69802438D01*
X162111904Y-69802438D02*
X162159523Y-69850057D01*
X171224286Y-70754819D02*
X171224286Y-69754819D01*
X171224286Y-69754819D02*
X171795714Y-70754819D01*
X171795714Y-70754819D02*
X171795714Y-69754819D01*
X172843333Y-70659580D02*
X172795714Y-70707200D01*
X172795714Y-70707200D02*
X172652857Y-70754819D01*
X172652857Y-70754819D02*
X172557619Y-70754819D01*
X172557619Y-70754819D02*
X172414762Y-70707200D01*
X172414762Y-70707200D02*
X172319524Y-70611961D01*
X172319524Y-70611961D02*
X172271905Y-70516723D01*
X172271905Y-70516723D02*
X172224286Y-70326247D01*
X172224286Y-70326247D02*
X172224286Y-70183390D01*
X172224286Y-70183390D02*
X172271905Y-69992914D01*
X172271905Y-69992914D02*
X172319524Y-69897676D01*
X172319524Y-69897676D02*
X172414762Y-69802438D01*
X172414762Y-69802438D02*
X172557619Y-69754819D01*
X172557619Y-69754819D02*
X172652857Y-69754819D01*
X172652857Y-69754819D02*
X172795714Y-69802438D01*
X172795714Y-69802438D02*
X172843333Y-69850057D01*
X166120476Y-70754819D02*
X166120476Y-69754819D01*
X166120476Y-69754819D02*
X166691904Y-70754819D01*
X166691904Y-70754819D02*
X166691904Y-69754819D01*
X167358571Y-69754819D02*
X167549047Y-69754819D01*
X167549047Y-69754819D02*
X167644285Y-69802438D01*
X167644285Y-69802438D02*
X167739523Y-69897676D01*
X167739523Y-69897676D02*
X167787142Y-70088152D01*
X167787142Y-70088152D02*
X167787142Y-70421485D01*
X167787142Y-70421485D02*
X167739523Y-70611961D01*
X167739523Y-70611961D02*
X167644285Y-70707200D01*
X167644285Y-70707200D02*
X167549047Y-70754819D01*
X167549047Y-70754819D02*
X167358571Y-70754819D01*
X167358571Y-70754819D02*
X167263333Y-70707200D01*
X167263333Y-70707200D02*
X167168095Y-70611961D01*
X167168095Y-70611961D02*
X167120476Y-70421485D01*
X167120476Y-70421485D02*
X167120476Y-70088152D01*
X167120476Y-70088152D02*
X167168095Y-69897676D01*
X167168095Y-69897676D02*
X167263333Y-69802438D01*
X167263333Y-69802438D02*
X167358571Y-69754819D01*
X119419580Y-113886666D02*
X119467200Y-113934285D01*
X119467200Y-113934285D02*
X119514819Y-114077142D01*
X119514819Y-114077142D02*
X119514819Y-114172380D01*
X119514819Y-114172380D02*
X119467200Y-114315237D01*
X119467200Y-114315237D02*
X119371961Y-114410475D01*
X119371961Y-114410475D02*
X119276723Y-114458094D01*
X119276723Y-114458094D02*
X119086247Y-114505713D01*
X119086247Y-114505713D02*
X118943390Y-114505713D01*
X118943390Y-114505713D02*
X118752914Y-114458094D01*
X118752914Y-114458094D02*
X118657676Y-114410475D01*
X118657676Y-114410475D02*
X118562438Y-114315237D01*
X118562438Y-114315237D02*
X118514819Y-114172380D01*
X118514819Y-114172380D02*
X118514819Y-114077142D01*
X118514819Y-114077142D02*
X118562438Y-113934285D01*
X118562438Y-113934285D02*
X118610057Y-113886666D01*
X118610057Y-113505713D02*
X118562438Y-113458094D01*
X118562438Y-113458094D02*
X118514819Y-113362856D01*
X118514819Y-113362856D02*
X118514819Y-113124761D01*
X118514819Y-113124761D02*
X118562438Y-113029523D01*
X118562438Y-113029523D02*
X118610057Y-112981904D01*
X118610057Y-112981904D02*
X118705295Y-112934285D01*
X118705295Y-112934285D02*
X118800533Y-112934285D01*
X118800533Y-112934285D02*
X118943390Y-112981904D01*
X118943390Y-112981904D02*
X119514819Y-113553332D01*
X119514819Y-113553332D02*
X119514819Y-112934285D01*
X178789580Y-130692857D02*
X178837200Y-130740476D01*
X178837200Y-130740476D02*
X178884819Y-130883333D01*
X178884819Y-130883333D02*
X178884819Y-130978571D01*
X178884819Y-130978571D02*
X178837200Y-131121428D01*
X178837200Y-131121428D02*
X178741961Y-131216666D01*
X178741961Y-131216666D02*
X178646723Y-131264285D01*
X178646723Y-131264285D02*
X178456247Y-131311904D01*
X178456247Y-131311904D02*
X178313390Y-131311904D01*
X178313390Y-131311904D02*
X178122914Y-131264285D01*
X178122914Y-131264285D02*
X178027676Y-131216666D01*
X178027676Y-131216666D02*
X177932438Y-131121428D01*
X177932438Y-131121428D02*
X177884819Y-130978571D01*
X177884819Y-130978571D02*
X177884819Y-130883333D01*
X177884819Y-130883333D02*
X177932438Y-130740476D01*
X177932438Y-130740476D02*
X177980057Y-130692857D01*
X178884819Y-129740476D02*
X178884819Y-130311904D01*
X178884819Y-130026190D02*
X177884819Y-130026190D01*
X177884819Y-130026190D02*
X178027676Y-130121428D01*
X178027676Y-130121428D02*
X178122914Y-130216666D01*
X178122914Y-130216666D02*
X178170533Y-130311904D01*
X178884819Y-128788095D02*
X178884819Y-129359523D01*
X178884819Y-129073809D02*
X177884819Y-129073809D01*
X177884819Y-129073809D02*
X178027676Y-129169047D01*
X178027676Y-129169047D02*
X178122914Y-129264285D01*
X178122914Y-129264285D02*
X178170533Y-129359523D01*
X115107142Y-80992319D02*
X114773809Y-80516128D01*
X114535714Y-80992319D02*
X114535714Y-79992319D01*
X114535714Y-79992319D02*
X114916666Y-79992319D01*
X114916666Y-79992319D02*
X115011904Y-80039938D01*
X115011904Y-80039938D02*
X115059523Y-80087557D01*
X115059523Y-80087557D02*
X115107142Y-80182795D01*
X115107142Y-80182795D02*
X115107142Y-80325652D01*
X115107142Y-80325652D02*
X115059523Y-80420890D01*
X115059523Y-80420890D02*
X115011904Y-80468509D01*
X115011904Y-80468509D02*
X114916666Y-80516128D01*
X114916666Y-80516128D02*
X114535714Y-80516128D01*
X116059523Y-80992319D02*
X115488095Y-80992319D01*
X115773809Y-80992319D02*
X115773809Y-79992319D01*
X115773809Y-79992319D02*
X115678571Y-80135176D01*
X115678571Y-80135176D02*
X115583333Y-80230414D01*
X115583333Y-80230414D02*
X115488095Y-80278033D01*
X116678571Y-79992319D02*
X116773809Y-79992319D01*
X116773809Y-79992319D02*
X116869047Y-80039938D01*
X116869047Y-80039938D02*
X116916666Y-80087557D01*
X116916666Y-80087557D02*
X116964285Y-80182795D01*
X116964285Y-80182795D02*
X117011904Y-80373271D01*
X117011904Y-80373271D02*
X117011904Y-80611366D01*
X117011904Y-80611366D02*
X116964285Y-80801842D01*
X116964285Y-80801842D02*
X116916666Y-80897080D01*
X116916666Y-80897080D02*
X116869047Y-80944700D01*
X116869047Y-80944700D02*
X116773809Y-80992319D01*
X116773809Y-80992319D02*
X116678571Y-80992319D01*
X116678571Y-80992319D02*
X116583333Y-80944700D01*
X116583333Y-80944700D02*
X116535714Y-80897080D01*
X116535714Y-80897080D02*
X116488095Y-80801842D01*
X116488095Y-80801842D02*
X116440476Y-80611366D01*
X116440476Y-80611366D02*
X116440476Y-80373271D01*
X116440476Y-80373271D02*
X116488095Y-80182795D01*
X116488095Y-80182795D02*
X116535714Y-80087557D01*
X116535714Y-80087557D02*
X116583333Y-80039938D01*
X116583333Y-80039938D02*
X116678571Y-79992319D01*
X134134819Y-82580357D02*
X133658628Y-82913690D01*
X134134819Y-83151785D02*
X133134819Y-83151785D01*
X133134819Y-83151785D02*
X133134819Y-82770833D01*
X133134819Y-82770833D02*
X133182438Y-82675595D01*
X133182438Y-82675595D02*
X133230057Y-82627976D01*
X133230057Y-82627976D02*
X133325295Y-82580357D01*
X133325295Y-82580357D02*
X133468152Y-82580357D01*
X133468152Y-82580357D02*
X133563390Y-82627976D01*
X133563390Y-82627976D02*
X133611009Y-82675595D01*
X133611009Y-82675595D02*
X133658628Y-82770833D01*
X133658628Y-82770833D02*
X133658628Y-83151785D01*
X134134819Y-81627976D02*
X134134819Y-82199404D01*
X134134819Y-81913690D02*
X133134819Y-81913690D01*
X133134819Y-81913690D02*
X133277676Y-82008928D01*
X133277676Y-82008928D02*
X133372914Y-82104166D01*
X133372914Y-82104166D02*
X133420533Y-82199404D01*
X133134819Y-80770833D02*
X133134819Y-80961309D01*
X133134819Y-80961309D02*
X133182438Y-81056547D01*
X133182438Y-81056547D02*
X133230057Y-81104166D01*
X133230057Y-81104166D02*
X133372914Y-81199404D01*
X133372914Y-81199404D02*
X133563390Y-81247023D01*
X133563390Y-81247023D02*
X133944342Y-81247023D01*
X133944342Y-81247023D02*
X134039580Y-81199404D01*
X134039580Y-81199404D02*
X134087200Y-81151785D01*
X134087200Y-81151785D02*
X134134819Y-81056547D01*
X134134819Y-81056547D02*
X134134819Y-80866071D01*
X134134819Y-80866071D02*
X134087200Y-80770833D01*
X134087200Y-80770833D02*
X134039580Y-80723214D01*
X134039580Y-80723214D02*
X133944342Y-80675595D01*
X133944342Y-80675595D02*
X133706247Y-80675595D01*
X133706247Y-80675595D02*
X133611009Y-80723214D01*
X133611009Y-80723214D02*
X133563390Y-80770833D01*
X133563390Y-80770833D02*
X133515771Y-80866071D01*
X133515771Y-80866071D02*
X133515771Y-81056547D01*
X133515771Y-81056547D02*
X133563390Y-81151785D01*
X133563390Y-81151785D02*
X133611009Y-81199404D01*
X133611009Y-81199404D02*
X133706247Y-81247023D01*
X106061905Y-66914819D02*
X106061905Y-65914819D01*
X106061905Y-65914819D02*
X106300000Y-65914819D01*
X106300000Y-65914819D02*
X106442857Y-65962438D01*
X106442857Y-65962438D02*
X106538095Y-66057676D01*
X106538095Y-66057676D02*
X106585714Y-66152914D01*
X106585714Y-66152914D02*
X106633333Y-66343390D01*
X106633333Y-66343390D02*
X106633333Y-66486247D01*
X106633333Y-66486247D02*
X106585714Y-66676723D01*
X106585714Y-66676723D02*
X106538095Y-66771961D01*
X106538095Y-66771961D02*
X106442857Y-66867200D01*
X106442857Y-66867200D02*
X106300000Y-66914819D01*
X106300000Y-66914819D02*
X106061905Y-66914819D01*
X106966667Y-65914819D02*
X107585714Y-65914819D01*
X107585714Y-65914819D02*
X107252381Y-66295771D01*
X107252381Y-66295771D02*
X107395238Y-66295771D01*
X107395238Y-66295771D02*
X107490476Y-66343390D01*
X107490476Y-66343390D02*
X107538095Y-66391009D01*
X107538095Y-66391009D02*
X107585714Y-66486247D01*
X107585714Y-66486247D02*
X107585714Y-66724342D01*
X107585714Y-66724342D02*
X107538095Y-66819580D01*
X107538095Y-66819580D02*
X107490476Y-66867200D01*
X107490476Y-66867200D02*
X107395238Y-66914819D01*
X107395238Y-66914819D02*
X107109524Y-66914819D01*
X107109524Y-66914819D02*
X107014286Y-66867200D01*
X107014286Y-66867200D02*
X106966667Y-66819580D01*
X90237142Y-127264819D02*
X89903809Y-126788628D01*
X89665714Y-127264819D02*
X89665714Y-126264819D01*
X89665714Y-126264819D02*
X90046666Y-126264819D01*
X90046666Y-126264819D02*
X90141904Y-126312438D01*
X90141904Y-126312438D02*
X90189523Y-126360057D01*
X90189523Y-126360057D02*
X90237142Y-126455295D01*
X90237142Y-126455295D02*
X90237142Y-126598152D01*
X90237142Y-126598152D02*
X90189523Y-126693390D01*
X90189523Y-126693390D02*
X90141904Y-126741009D01*
X90141904Y-126741009D02*
X90046666Y-126788628D01*
X90046666Y-126788628D02*
X89665714Y-126788628D01*
X91189523Y-127264819D02*
X90618095Y-127264819D01*
X90903809Y-127264819D02*
X90903809Y-126264819D01*
X90903809Y-126264819D02*
X90808571Y-126407676D01*
X90808571Y-126407676D02*
X90713333Y-126502914D01*
X90713333Y-126502914D02*
X90618095Y-126550533D01*
X92141904Y-127264819D02*
X91570476Y-127264819D01*
X91856190Y-127264819D02*
X91856190Y-126264819D01*
X91856190Y-126264819D02*
X91760952Y-126407676D01*
X91760952Y-126407676D02*
X91665714Y-126502914D01*
X91665714Y-126502914D02*
X91570476Y-126550533D01*
X98461905Y-141069819D02*
X98461905Y-140069819D01*
X99033333Y-141069819D02*
X98604762Y-140498390D01*
X99033333Y-140069819D02*
X98461905Y-140641247D01*
X99890476Y-140403152D02*
X99890476Y-141069819D01*
X99652381Y-140022200D02*
X99414286Y-140736485D01*
X99414286Y-140736485D02*
X100033333Y-140736485D01*
X125977030Y-60734580D02*
X125929411Y-60782200D01*
X125929411Y-60782200D02*
X125786554Y-60829819D01*
X125786554Y-60829819D02*
X125691316Y-60829819D01*
X125691316Y-60829819D02*
X125548459Y-60782200D01*
X125548459Y-60782200D02*
X125453221Y-60686961D01*
X125453221Y-60686961D02*
X125405602Y-60591723D01*
X125405602Y-60591723D02*
X125357983Y-60401247D01*
X125357983Y-60401247D02*
X125357983Y-60258390D01*
X125357983Y-60258390D02*
X125405602Y-60067914D01*
X125405602Y-60067914D02*
X125453221Y-59972676D01*
X125453221Y-59972676D02*
X125548459Y-59877438D01*
X125548459Y-59877438D02*
X125691316Y-59829819D01*
X125691316Y-59829819D02*
X125786554Y-59829819D01*
X125786554Y-59829819D02*
X125929411Y-59877438D01*
X125929411Y-59877438D02*
X125977030Y-59925057D01*
X126929411Y-60829819D02*
X126357983Y-60829819D01*
X126643697Y-60829819D02*
X126643697Y-59829819D01*
X126643697Y-59829819D02*
X126548459Y-59972676D01*
X126548459Y-59972676D02*
X126453221Y-60067914D01*
X126453221Y-60067914D02*
X126357983Y-60115533D01*
X127786554Y-60163152D02*
X127786554Y-60829819D01*
X127548459Y-59782200D02*
X127310364Y-60496485D01*
X127310364Y-60496485D02*
X127929411Y-60496485D01*
X118107142Y-95539580D02*
X118059523Y-95587200D01*
X118059523Y-95587200D02*
X117916666Y-95634819D01*
X117916666Y-95634819D02*
X117821428Y-95634819D01*
X117821428Y-95634819D02*
X117678571Y-95587200D01*
X117678571Y-95587200D02*
X117583333Y-95491961D01*
X117583333Y-95491961D02*
X117535714Y-95396723D01*
X117535714Y-95396723D02*
X117488095Y-95206247D01*
X117488095Y-95206247D02*
X117488095Y-95063390D01*
X117488095Y-95063390D02*
X117535714Y-94872914D01*
X117535714Y-94872914D02*
X117583333Y-94777676D01*
X117583333Y-94777676D02*
X117678571Y-94682438D01*
X117678571Y-94682438D02*
X117821428Y-94634819D01*
X117821428Y-94634819D02*
X117916666Y-94634819D01*
X117916666Y-94634819D02*
X118059523Y-94682438D01*
X118059523Y-94682438D02*
X118107142Y-94730057D01*
X119059523Y-95634819D02*
X118488095Y-95634819D01*
X118773809Y-95634819D02*
X118773809Y-94634819D01*
X118773809Y-94634819D02*
X118678571Y-94777676D01*
X118678571Y-94777676D02*
X118583333Y-94872914D01*
X118583333Y-94872914D02*
X118488095Y-94920533D01*
X119392857Y-94634819D02*
X120059523Y-94634819D01*
X120059523Y-94634819D02*
X119630952Y-95634819D01*
X96674642Y-100704819D02*
X96341309Y-100228628D01*
X96103214Y-100704819D02*
X96103214Y-99704819D01*
X96103214Y-99704819D02*
X96484166Y-99704819D01*
X96484166Y-99704819D02*
X96579404Y-99752438D01*
X96579404Y-99752438D02*
X96627023Y-99800057D01*
X96627023Y-99800057D02*
X96674642Y-99895295D01*
X96674642Y-99895295D02*
X96674642Y-100038152D01*
X96674642Y-100038152D02*
X96627023Y-100133390D01*
X96627023Y-100133390D02*
X96579404Y-100181009D01*
X96579404Y-100181009D02*
X96484166Y-100228628D01*
X96484166Y-100228628D02*
X96103214Y-100228628D01*
X97055595Y-99800057D02*
X97103214Y-99752438D01*
X97103214Y-99752438D02*
X97198452Y-99704819D01*
X97198452Y-99704819D02*
X97436547Y-99704819D01*
X97436547Y-99704819D02*
X97531785Y-99752438D01*
X97531785Y-99752438D02*
X97579404Y-99800057D01*
X97579404Y-99800057D02*
X97627023Y-99895295D01*
X97627023Y-99895295D02*
X97627023Y-99990533D01*
X97627023Y-99990533D02*
X97579404Y-100133390D01*
X97579404Y-100133390D02*
X97007976Y-100704819D01*
X97007976Y-100704819D02*
X97627023Y-100704819D01*
X98579404Y-100704819D02*
X98007976Y-100704819D01*
X98293690Y-100704819D02*
X98293690Y-99704819D01*
X98293690Y-99704819D02*
X98198452Y-99847676D01*
X98198452Y-99847676D02*
X98103214Y-99942914D01*
X98103214Y-99942914D02*
X98007976Y-99990533D01*
X132453333Y-111784819D02*
X132120000Y-111308628D01*
X131881905Y-111784819D02*
X131881905Y-110784819D01*
X131881905Y-110784819D02*
X132262857Y-110784819D01*
X132262857Y-110784819D02*
X132358095Y-110832438D01*
X132358095Y-110832438D02*
X132405714Y-110880057D01*
X132405714Y-110880057D02*
X132453333Y-110975295D01*
X132453333Y-110975295D02*
X132453333Y-111118152D01*
X132453333Y-111118152D02*
X132405714Y-111213390D01*
X132405714Y-111213390D02*
X132358095Y-111261009D01*
X132358095Y-111261009D02*
X132262857Y-111308628D01*
X132262857Y-111308628D02*
X131881905Y-111308628D01*
X132786667Y-110784819D02*
X133453333Y-110784819D01*
X133453333Y-110784819D02*
X133024762Y-111784819D01*
X127774642Y-125884819D02*
X127441309Y-125408628D01*
X127203214Y-125884819D02*
X127203214Y-124884819D01*
X127203214Y-124884819D02*
X127584166Y-124884819D01*
X127584166Y-124884819D02*
X127679404Y-124932438D01*
X127679404Y-124932438D02*
X127727023Y-124980057D01*
X127727023Y-124980057D02*
X127774642Y-125075295D01*
X127774642Y-125075295D02*
X127774642Y-125218152D01*
X127774642Y-125218152D02*
X127727023Y-125313390D01*
X127727023Y-125313390D02*
X127679404Y-125361009D01*
X127679404Y-125361009D02*
X127584166Y-125408628D01*
X127584166Y-125408628D02*
X127203214Y-125408628D01*
X128727023Y-125884819D02*
X128155595Y-125884819D01*
X128441309Y-125884819D02*
X128441309Y-124884819D01*
X128441309Y-124884819D02*
X128346071Y-125027676D01*
X128346071Y-125027676D02*
X128250833Y-125122914D01*
X128250833Y-125122914D02*
X128155595Y-125170533D01*
X129584166Y-125218152D02*
X129584166Y-125884819D01*
X129346071Y-124837200D02*
X129107976Y-125551485D01*
X129107976Y-125551485D02*
X129727023Y-125551485D01*
D11*
X158219424Y-103946666D02*
X158267044Y-103994285D01*
X158267044Y-103994285D02*
X158314663Y-104137142D01*
X158314663Y-104137142D02*
X158314663Y-104232380D01*
X158314663Y-104232380D02*
X158267044Y-104375237D01*
X158267044Y-104375237D02*
X158171805Y-104470475D01*
X158171805Y-104470475D02*
X158076567Y-104518094D01*
X158076567Y-104518094D02*
X157886091Y-104565713D01*
X157886091Y-104565713D02*
X157743234Y-104565713D01*
X157743234Y-104565713D02*
X157552758Y-104518094D01*
X157552758Y-104518094D02*
X157457520Y-104470475D01*
X157457520Y-104470475D02*
X157362282Y-104375237D01*
X157362282Y-104375237D02*
X157314663Y-104232380D01*
X157314663Y-104232380D02*
X157314663Y-104137142D01*
X157314663Y-104137142D02*
X157362282Y-103994285D01*
X157362282Y-103994285D02*
X157409901Y-103946666D01*
X157743234Y-103375237D02*
X157695615Y-103470475D01*
X157695615Y-103470475D02*
X157647996Y-103518094D01*
X157647996Y-103518094D02*
X157552758Y-103565713D01*
X157552758Y-103565713D02*
X157505139Y-103565713D01*
X157505139Y-103565713D02*
X157409901Y-103518094D01*
X157409901Y-103518094D02*
X157362282Y-103470475D01*
X157362282Y-103470475D02*
X157314663Y-103375237D01*
X157314663Y-103375237D02*
X157314663Y-103184761D01*
X157314663Y-103184761D02*
X157362282Y-103089523D01*
X157362282Y-103089523D02*
X157409901Y-103041904D01*
X157409901Y-103041904D02*
X157505139Y-102994285D01*
X157505139Y-102994285D02*
X157552758Y-102994285D01*
X157552758Y-102994285D02*
X157647996Y-103041904D01*
X157647996Y-103041904D02*
X157695615Y-103089523D01*
X157695615Y-103089523D02*
X157743234Y-103184761D01*
X157743234Y-103184761D02*
X157743234Y-103375237D01*
X157743234Y-103375237D02*
X157790853Y-103470475D01*
X157790853Y-103470475D02*
X157838472Y-103518094D01*
X157838472Y-103518094D02*
X157933710Y-103565713D01*
X157933710Y-103565713D02*
X158124186Y-103565713D01*
X158124186Y-103565713D02*
X158219424Y-103518094D01*
X158219424Y-103518094D02*
X158267044Y-103470475D01*
X158267044Y-103470475D02*
X158314663Y-103375237D01*
X158314663Y-103375237D02*
X158314663Y-103184761D01*
X158314663Y-103184761D02*
X158267044Y-103089523D01*
X158267044Y-103089523D02*
X158219424Y-103041904D01*
X158219424Y-103041904D02*
X158124186Y-102994285D01*
X158124186Y-102994285D02*
X157933710Y-102994285D01*
X157933710Y-102994285D02*
X157838472Y-103041904D01*
X157838472Y-103041904D02*
X157790853Y-103089523D01*
X157790853Y-103089523D02*
X157743234Y-103184761D01*
D10*
X100344642Y-132624819D02*
X100011309Y-132148628D01*
X99773214Y-132624819D02*
X99773214Y-131624819D01*
X99773214Y-131624819D02*
X100154166Y-131624819D01*
X100154166Y-131624819D02*
X100249404Y-131672438D01*
X100249404Y-131672438D02*
X100297023Y-131720057D01*
X100297023Y-131720057D02*
X100344642Y-131815295D01*
X100344642Y-131815295D02*
X100344642Y-131958152D01*
X100344642Y-131958152D02*
X100297023Y-132053390D01*
X100297023Y-132053390D02*
X100249404Y-132101009D01*
X100249404Y-132101009D02*
X100154166Y-132148628D01*
X100154166Y-132148628D02*
X99773214Y-132148628D01*
X100725595Y-131720057D02*
X100773214Y-131672438D01*
X100773214Y-131672438D02*
X100868452Y-131624819D01*
X100868452Y-131624819D02*
X101106547Y-131624819D01*
X101106547Y-131624819D02*
X101201785Y-131672438D01*
X101201785Y-131672438D02*
X101249404Y-131720057D01*
X101249404Y-131720057D02*
X101297023Y-131815295D01*
X101297023Y-131815295D02*
X101297023Y-131910533D01*
X101297023Y-131910533D02*
X101249404Y-132053390D01*
X101249404Y-132053390D02*
X100677976Y-132624819D01*
X100677976Y-132624819D02*
X101297023Y-132624819D01*
X101677976Y-131720057D02*
X101725595Y-131672438D01*
X101725595Y-131672438D02*
X101820833Y-131624819D01*
X101820833Y-131624819D02*
X102058928Y-131624819D01*
X102058928Y-131624819D02*
X102154166Y-131672438D01*
X102154166Y-131672438D02*
X102201785Y-131720057D01*
X102201785Y-131720057D02*
X102249404Y-131815295D01*
X102249404Y-131815295D02*
X102249404Y-131910533D01*
X102249404Y-131910533D02*
X102201785Y-132053390D01*
X102201785Y-132053390D02*
X101630357Y-132624819D01*
X101630357Y-132624819D02*
X102249404Y-132624819D01*
D11*
X155293333Y-101639424D02*
X155245714Y-101687044D01*
X155245714Y-101687044D02*
X155102857Y-101734663D01*
X155102857Y-101734663D02*
X155007619Y-101734663D01*
X155007619Y-101734663D02*
X154864762Y-101687044D01*
X154864762Y-101687044D02*
X154769524Y-101591805D01*
X154769524Y-101591805D02*
X154721905Y-101496567D01*
X154721905Y-101496567D02*
X154674286Y-101306091D01*
X154674286Y-101306091D02*
X154674286Y-101163234D01*
X154674286Y-101163234D02*
X154721905Y-100972758D01*
X154721905Y-100972758D02*
X154769524Y-100877520D01*
X154769524Y-100877520D02*
X154864762Y-100782282D01*
X154864762Y-100782282D02*
X155007619Y-100734663D01*
X155007619Y-100734663D02*
X155102857Y-100734663D01*
X155102857Y-100734663D02*
X155245714Y-100782282D01*
X155245714Y-100782282D02*
X155293333Y-100829901D01*
X156198095Y-100734663D02*
X155721905Y-100734663D01*
X155721905Y-100734663D02*
X155674286Y-101210853D01*
X155674286Y-101210853D02*
X155721905Y-101163234D01*
X155721905Y-101163234D02*
X155817143Y-101115615D01*
X155817143Y-101115615D02*
X156055238Y-101115615D01*
X156055238Y-101115615D02*
X156150476Y-101163234D01*
X156150476Y-101163234D02*
X156198095Y-101210853D01*
X156198095Y-101210853D02*
X156245714Y-101306091D01*
X156245714Y-101306091D02*
X156245714Y-101544186D01*
X156245714Y-101544186D02*
X156198095Y-101639424D01*
X156198095Y-101639424D02*
X156150476Y-101687044D01*
X156150476Y-101687044D02*
X156055238Y-101734663D01*
X156055238Y-101734663D02*
X155817143Y-101734663D01*
X155817143Y-101734663D02*
X155721905Y-101687044D01*
X155721905Y-101687044D02*
X155674286Y-101639424D01*
D10*
X110773333Y-80424819D02*
X110440000Y-79948628D01*
X110201905Y-80424819D02*
X110201905Y-79424819D01*
X110201905Y-79424819D02*
X110582857Y-79424819D01*
X110582857Y-79424819D02*
X110678095Y-79472438D01*
X110678095Y-79472438D02*
X110725714Y-79520057D01*
X110725714Y-79520057D02*
X110773333Y-79615295D01*
X110773333Y-79615295D02*
X110773333Y-79758152D01*
X110773333Y-79758152D02*
X110725714Y-79853390D01*
X110725714Y-79853390D02*
X110678095Y-79901009D01*
X110678095Y-79901009D02*
X110582857Y-79948628D01*
X110582857Y-79948628D02*
X110201905Y-79948628D01*
X111249524Y-80424819D02*
X111440000Y-80424819D01*
X111440000Y-80424819D02*
X111535238Y-80377200D01*
X111535238Y-80377200D02*
X111582857Y-80329580D01*
X111582857Y-80329580D02*
X111678095Y-80186723D01*
X111678095Y-80186723D02*
X111725714Y-79996247D01*
X111725714Y-79996247D02*
X111725714Y-79615295D01*
X111725714Y-79615295D02*
X111678095Y-79520057D01*
X111678095Y-79520057D02*
X111630476Y-79472438D01*
X111630476Y-79472438D02*
X111535238Y-79424819D01*
X111535238Y-79424819D02*
X111344762Y-79424819D01*
X111344762Y-79424819D02*
X111249524Y-79472438D01*
X111249524Y-79472438D02*
X111201905Y-79520057D01*
X111201905Y-79520057D02*
X111154286Y-79615295D01*
X111154286Y-79615295D02*
X111154286Y-79853390D01*
X111154286Y-79853390D02*
X111201905Y-79948628D01*
X111201905Y-79948628D02*
X111249524Y-79996247D01*
X111249524Y-79996247D02*
X111344762Y-80043866D01*
X111344762Y-80043866D02*
X111535238Y-80043866D01*
X111535238Y-80043866D02*
X111630476Y-79996247D01*
X111630476Y-79996247D02*
X111678095Y-79948628D01*
X111678095Y-79948628D02*
X111725714Y-79853390D01*
X132433333Y-59394819D02*
X132100000Y-58918628D01*
X131861905Y-59394819D02*
X131861905Y-58394819D01*
X131861905Y-58394819D02*
X132242857Y-58394819D01*
X132242857Y-58394819D02*
X132338095Y-58442438D01*
X132338095Y-58442438D02*
X132385714Y-58490057D01*
X132385714Y-58490057D02*
X132433333Y-58585295D01*
X132433333Y-58585295D02*
X132433333Y-58728152D01*
X132433333Y-58728152D02*
X132385714Y-58823390D01*
X132385714Y-58823390D02*
X132338095Y-58871009D01*
X132338095Y-58871009D02*
X132242857Y-58918628D01*
X132242857Y-58918628D02*
X131861905Y-58918628D01*
X133290476Y-58394819D02*
X133100000Y-58394819D01*
X133100000Y-58394819D02*
X133004762Y-58442438D01*
X133004762Y-58442438D02*
X132957143Y-58490057D01*
X132957143Y-58490057D02*
X132861905Y-58632914D01*
X132861905Y-58632914D02*
X132814286Y-58823390D01*
X132814286Y-58823390D02*
X132814286Y-59204342D01*
X132814286Y-59204342D02*
X132861905Y-59299580D01*
X132861905Y-59299580D02*
X132909524Y-59347200D01*
X132909524Y-59347200D02*
X133004762Y-59394819D01*
X133004762Y-59394819D02*
X133195238Y-59394819D01*
X133195238Y-59394819D02*
X133290476Y-59347200D01*
X133290476Y-59347200D02*
X133338095Y-59299580D01*
X133338095Y-59299580D02*
X133385714Y-59204342D01*
X133385714Y-59204342D02*
X133385714Y-58966247D01*
X133385714Y-58966247D02*
X133338095Y-58871009D01*
X133338095Y-58871009D02*
X133290476Y-58823390D01*
X133290476Y-58823390D02*
X133195238Y-58775771D01*
X133195238Y-58775771D02*
X133004762Y-58775771D01*
X133004762Y-58775771D02*
X132909524Y-58823390D01*
X132909524Y-58823390D02*
X132861905Y-58871009D01*
X132861905Y-58871009D02*
X132814286Y-58966247D01*
X173704819Y-88975357D02*
X173228628Y-89308690D01*
X173704819Y-89546785D02*
X172704819Y-89546785D01*
X172704819Y-89546785D02*
X172704819Y-89165833D01*
X172704819Y-89165833D02*
X172752438Y-89070595D01*
X172752438Y-89070595D02*
X172800057Y-89022976D01*
X172800057Y-89022976D02*
X172895295Y-88975357D01*
X172895295Y-88975357D02*
X173038152Y-88975357D01*
X173038152Y-88975357D02*
X173133390Y-89022976D01*
X173133390Y-89022976D02*
X173181009Y-89070595D01*
X173181009Y-89070595D02*
X173228628Y-89165833D01*
X173228628Y-89165833D02*
X173228628Y-89546785D01*
X173704819Y-88022976D02*
X173704819Y-88594404D01*
X173704819Y-88308690D02*
X172704819Y-88308690D01*
X172704819Y-88308690D02*
X172847676Y-88403928D01*
X172847676Y-88403928D02*
X172942914Y-88499166D01*
X172942914Y-88499166D02*
X172990533Y-88594404D01*
X172704819Y-87689642D02*
X172704819Y-87022976D01*
X172704819Y-87022976D02*
X173704819Y-87451547D01*
X116839580Y-61692857D02*
X116887200Y-61740476D01*
X116887200Y-61740476D02*
X116934819Y-61883333D01*
X116934819Y-61883333D02*
X116934819Y-61978571D01*
X116934819Y-61978571D02*
X116887200Y-62121428D01*
X116887200Y-62121428D02*
X116791961Y-62216666D01*
X116791961Y-62216666D02*
X116696723Y-62264285D01*
X116696723Y-62264285D02*
X116506247Y-62311904D01*
X116506247Y-62311904D02*
X116363390Y-62311904D01*
X116363390Y-62311904D02*
X116172914Y-62264285D01*
X116172914Y-62264285D02*
X116077676Y-62216666D01*
X116077676Y-62216666D02*
X115982438Y-62121428D01*
X115982438Y-62121428D02*
X115934819Y-61978571D01*
X115934819Y-61978571D02*
X115934819Y-61883333D01*
X115934819Y-61883333D02*
X115982438Y-61740476D01*
X115982438Y-61740476D02*
X116030057Y-61692857D01*
X116934819Y-60740476D02*
X116934819Y-61311904D01*
X116934819Y-61026190D02*
X115934819Y-61026190D01*
X115934819Y-61026190D02*
X116077676Y-61121428D01*
X116077676Y-61121428D02*
X116172914Y-61216666D01*
X116172914Y-61216666D02*
X116220533Y-61311904D01*
X115934819Y-59883333D02*
X115934819Y-60073809D01*
X115934819Y-60073809D02*
X115982438Y-60169047D01*
X115982438Y-60169047D02*
X116030057Y-60216666D01*
X116030057Y-60216666D02*
X116172914Y-60311904D01*
X116172914Y-60311904D02*
X116363390Y-60359523D01*
X116363390Y-60359523D02*
X116744342Y-60359523D01*
X116744342Y-60359523D02*
X116839580Y-60311904D01*
X116839580Y-60311904D02*
X116887200Y-60264285D01*
X116887200Y-60264285D02*
X116934819Y-60169047D01*
X116934819Y-60169047D02*
X116934819Y-59978571D01*
X116934819Y-59978571D02*
X116887200Y-59883333D01*
X116887200Y-59883333D02*
X116839580Y-59835714D01*
X116839580Y-59835714D02*
X116744342Y-59788095D01*
X116744342Y-59788095D02*
X116506247Y-59788095D01*
X116506247Y-59788095D02*
X116411009Y-59835714D01*
X116411009Y-59835714D02*
X116363390Y-59883333D01*
X116363390Y-59883333D02*
X116315771Y-59978571D01*
X116315771Y-59978571D02*
X116315771Y-60169047D01*
X116315771Y-60169047D02*
X116363390Y-60264285D01*
X116363390Y-60264285D02*
X116411009Y-60311904D01*
X116411009Y-60311904D02*
X116506247Y-60359523D01*
X163200476Y-134154819D02*
X163200476Y-133154819D01*
X163200476Y-133154819D02*
X163533809Y-133869104D01*
X163533809Y-133869104D02*
X163867142Y-133154819D01*
X163867142Y-133154819D02*
X163867142Y-134154819D01*
X164295714Y-133250057D02*
X164343333Y-133202438D01*
X164343333Y-133202438D02*
X164438571Y-133154819D01*
X164438571Y-133154819D02*
X164676666Y-133154819D01*
X164676666Y-133154819D02*
X164771904Y-133202438D01*
X164771904Y-133202438D02*
X164819523Y-133250057D01*
X164819523Y-133250057D02*
X164867142Y-133345295D01*
X164867142Y-133345295D02*
X164867142Y-133440533D01*
X164867142Y-133440533D02*
X164819523Y-133583390D01*
X164819523Y-133583390D02*
X164248095Y-134154819D01*
X164248095Y-134154819D02*
X164867142Y-134154819D01*
X140227200Y-110053332D02*
X140274819Y-109910475D01*
X140274819Y-109910475D02*
X140274819Y-109672380D01*
X140274819Y-109672380D02*
X140227200Y-109577142D01*
X140227200Y-109577142D02*
X140179580Y-109529523D01*
X140179580Y-109529523D02*
X140084342Y-109481904D01*
X140084342Y-109481904D02*
X139989104Y-109481904D01*
X139989104Y-109481904D02*
X139893866Y-109529523D01*
X139893866Y-109529523D02*
X139846247Y-109577142D01*
X139846247Y-109577142D02*
X139798628Y-109672380D01*
X139798628Y-109672380D02*
X139751009Y-109862856D01*
X139751009Y-109862856D02*
X139703390Y-109958094D01*
X139703390Y-109958094D02*
X139655771Y-110005713D01*
X139655771Y-110005713D02*
X139560533Y-110053332D01*
X139560533Y-110053332D02*
X139465295Y-110053332D01*
X139465295Y-110053332D02*
X139370057Y-110005713D01*
X139370057Y-110005713D02*
X139322438Y-109958094D01*
X139322438Y-109958094D02*
X139274819Y-109862856D01*
X139274819Y-109862856D02*
X139274819Y-109624761D01*
X139274819Y-109624761D02*
X139322438Y-109481904D01*
X139274819Y-109148570D02*
X140274819Y-108910475D01*
X140274819Y-108910475D02*
X139560533Y-108719999D01*
X139560533Y-108719999D02*
X140274819Y-108529523D01*
X140274819Y-108529523D02*
X139274819Y-108291428D01*
X139274819Y-108005713D02*
X139274819Y-107386666D01*
X139274819Y-107386666D02*
X139655771Y-107719999D01*
X139655771Y-107719999D02*
X139655771Y-107577142D01*
X139655771Y-107577142D02*
X139703390Y-107481904D01*
X139703390Y-107481904D02*
X139751009Y-107434285D01*
X139751009Y-107434285D02*
X139846247Y-107386666D01*
X139846247Y-107386666D02*
X140084342Y-107386666D01*
X140084342Y-107386666D02*
X140179580Y-107434285D01*
X140179580Y-107434285D02*
X140227200Y-107481904D01*
X140227200Y-107481904D02*
X140274819Y-107577142D01*
X140274819Y-107577142D02*
X140274819Y-107862856D01*
X140274819Y-107862856D02*
X140227200Y-107958094D01*
X140227200Y-107958094D02*
X140179580Y-108005713D01*
D11*
X157374124Y-106992266D02*
X157421744Y-107039885D01*
X157421744Y-107039885D02*
X157469363Y-107182742D01*
X157469363Y-107182742D02*
X157469363Y-107277980D01*
X157469363Y-107277980D02*
X157421744Y-107420837D01*
X157421744Y-107420837D02*
X157326505Y-107516075D01*
X157326505Y-107516075D02*
X157231267Y-107563694D01*
X157231267Y-107563694D02*
X157040791Y-107611313D01*
X157040791Y-107611313D02*
X156897934Y-107611313D01*
X156897934Y-107611313D02*
X156707458Y-107563694D01*
X156707458Y-107563694D02*
X156612220Y-107516075D01*
X156612220Y-107516075D02*
X156516982Y-107420837D01*
X156516982Y-107420837D02*
X156469363Y-107277980D01*
X156469363Y-107277980D02*
X156469363Y-107182742D01*
X156469363Y-107182742D02*
X156516982Y-107039885D01*
X156516982Y-107039885D02*
X156564601Y-106992266D01*
X156469363Y-106135123D02*
X156469363Y-106325599D01*
X156469363Y-106325599D02*
X156516982Y-106420837D01*
X156516982Y-106420837D02*
X156564601Y-106468456D01*
X156564601Y-106468456D02*
X156707458Y-106563694D01*
X156707458Y-106563694D02*
X156897934Y-106611313D01*
X156897934Y-106611313D02*
X157278886Y-106611313D01*
X157278886Y-106611313D02*
X157374124Y-106563694D01*
X157374124Y-106563694D02*
X157421744Y-106516075D01*
X157421744Y-106516075D02*
X157469363Y-106420837D01*
X157469363Y-106420837D02*
X157469363Y-106230361D01*
X157469363Y-106230361D02*
X157421744Y-106135123D01*
X157421744Y-106135123D02*
X157374124Y-106087504D01*
X157374124Y-106087504D02*
X157278886Y-106039885D01*
X157278886Y-106039885D02*
X157040791Y-106039885D01*
X157040791Y-106039885D02*
X156945553Y-106087504D01*
X156945553Y-106087504D02*
X156897934Y-106135123D01*
X156897934Y-106135123D02*
X156850315Y-106230361D01*
X156850315Y-106230361D02*
X156850315Y-106420837D01*
X156850315Y-106420837D02*
X156897934Y-106516075D01*
X156897934Y-106516075D02*
X156945553Y-106563694D01*
X156945553Y-106563694D02*
X157040791Y-106611313D01*
D10*
X125960833Y-110859819D02*
X125627500Y-110383628D01*
X125389405Y-110859819D02*
X125389405Y-109859819D01*
X125389405Y-109859819D02*
X125770357Y-109859819D01*
X125770357Y-109859819D02*
X125865595Y-109907438D01*
X125865595Y-109907438D02*
X125913214Y-109955057D01*
X125913214Y-109955057D02*
X125960833Y-110050295D01*
X125960833Y-110050295D02*
X125960833Y-110193152D01*
X125960833Y-110193152D02*
X125913214Y-110288390D01*
X125913214Y-110288390D02*
X125865595Y-110336009D01*
X125865595Y-110336009D02*
X125770357Y-110383628D01*
X125770357Y-110383628D02*
X125389405Y-110383628D01*
X126532262Y-110288390D02*
X126437024Y-110240771D01*
X126437024Y-110240771D02*
X126389405Y-110193152D01*
X126389405Y-110193152D02*
X126341786Y-110097914D01*
X126341786Y-110097914D02*
X126341786Y-110050295D01*
X126341786Y-110050295D02*
X126389405Y-109955057D01*
X126389405Y-109955057D02*
X126437024Y-109907438D01*
X126437024Y-109907438D02*
X126532262Y-109859819D01*
X126532262Y-109859819D02*
X126722738Y-109859819D01*
X126722738Y-109859819D02*
X126817976Y-109907438D01*
X126817976Y-109907438D02*
X126865595Y-109955057D01*
X126865595Y-109955057D02*
X126913214Y-110050295D01*
X126913214Y-110050295D02*
X126913214Y-110097914D01*
X126913214Y-110097914D02*
X126865595Y-110193152D01*
X126865595Y-110193152D02*
X126817976Y-110240771D01*
X126817976Y-110240771D02*
X126722738Y-110288390D01*
X126722738Y-110288390D02*
X126532262Y-110288390D01*
X126532262Y-110288390D02*
X126437024Y-110336009D01*
X126437024Y-110336009D02*
X126389405Y-110383628D01*
X126389405Y-110383628D02*
X126341786Y-110478866D01*
X126341786Y-110478866D02*
X126341786Y-110669342D01*
X126341786Y-110669342D02*
X126389405Y-110764580D01*
X126389405Y-110764580D02*
X126437024Y-110812200D01*
X126437024Y-110812200D02*
X126532262Y-110859819D01*
X126532262Y-110859819D02*
X126722738Y-110859819D01*
X126722738Y-110859819D02*
X126817976Y-110812200D01*
X126817976Y-110812200D02*
X126865595Y-110764580D01*
X126865595Y-110764580D02*
X126913214Y-110669342D01*
X126913214Y-110669342D02*
X126913214Y-110478866D01*
X126913214Y-110478866D02*
X126865595Y-110383628D01*
X126865595Y-110383628D02*
X126817976Y-110336009D01*
X126817976Y-110336009D02*
X126722738Y-110288390D01*
X188266666Y-143404819D02*
X187933333Y-142928628D01*
X187695238Y-143404819D02*
X187695238Y-142404819D01*
X187695238Y-142404819D02*
X188076190Y-142404819D01*
X188076190Y-142404819D02*
X188171428Y-142452438D01*
X188171428Y-142452438D02*
X188219047Y-142500057D01*
X188219047Y-142500057D02*
X188266666Y-142595295D01*
X188266666Y-142595295D02*
X188266666Y-142738152D01*
X188266666Y-142738152D02*
X188219047Y-142833390D01*
X188219047Y-142833390D02*
X188171428Y-142881009D01*
X188171428Y-142881009D02*
X188076190Y-142928628D01*
X188076190Y-142928628D02*
X187695238Y-142928628D01*
X188695238Y-142881009D02*
X189028571Y-142881009D01*
X189171428Y-143404819D02*
X188695238Y-143404819D01*
X188695238Y-143404819D02*
X188695238Y-142404819D01*
X188695238Y-142404819D02*
X189171428Y-142404819D01*
X189933333Y-142881009D02*
X189600000Y-142881009D01*
X189600000Y-143404819D02*
X189600000Y-142404819D01*
X189600000Y-142404819D02*
X190076190Y-142404819D01*
X190600000Y-142404819D02*
X190600000Y-142642914D01*
X190361905Y-142547676D02*
X190600000Y-142642914D01*
X190600000Y-142642914D02*
X190838095Y-142547676D01*
X190457143Y-142833390D02*
X190600000Y-142642914D01*
X190600000Y-142642914D02*
X190742857Y-142833390D01*
X191361905Y-142404819D02*
X191361905Y-142642914D01*
X191123810Y-142547676D02*
X191361905Y-142642914D01*
X191361905Y-142642914D02*
X191600000Y-142547676D01*
X191219048Y-142833390D02*
X191361905Y-142642914D01*
X191361905Y-142642914D02*
X191504762Y-142833390D01*
X131224819Y-134770357D02*
X130748628Y-135103690D01*
X131224819Y-135341785D02*
X130224819Y-135341785D01*
X130224819Y-135341785D02*
X130224819Y-134960833D01*
X130224819Y-134960833D02*
X130272438Y-134865595D01*
X130272438Y-134865595D02*
X130320057Y-134817976D01*
X130320057Y-134817976D02*
X130415295Y-134770357D01*
X130415295Y-134770357D02*
X130558152Y-134770357D01*
X130558152Y-134770357D02*
X130653390Y-134817976D01*
X130653390Y-134817976D02*
X130701009Y-134865595D01*
X130701009Y-134865595D02*
X130748628Y-134960833D01*
X130748628Y-134960833D02*
X130748628Y-135341785D01*
X130320057Y-134389404D02*
X130272438Y-134341785D01*
X130272438Y-134341785D02*
X130224819Y-134246547D01*
X130224819Y-134246547D02*
X130224819Y-134008452D01*
X130224819Y-134008452D02*
X130272438Y-133913214D01*
X130272438Y-133913214D02*
X130320057Y-133865595D01*
X130320057Y-133865595D02*
X130415295Y-133817976D01*
X130415295Y-133817976D02*
X130510533Y-133817976D01*
X130510533Y-133817976D02*
X130653390Y-133865595D01*
X130653390Y-133865595D02*
X131224819Y-134437023D01*
X131224819Y-134437023D02*
X131224819Y-133817976D01*
X130224819Y-133484642D02*
X130224819Y-132865595D01*
X130224819Y-132865595D02*
X130605771Y-133198928D01*
X130605771Y-133198928D02*
X130605771Y-133056071D01*
X130605771Y-133056071D02*
X130653390Y-132960833D01*
X130653390Y-132960833D02*
X130701009Y-132913214D01*
X130701009Y-132913214D02*
X130796247Y-132865595D01*
X130796247Y-132865595D02*
X131034342Y-132865595D01*
X131034342Y-132865595D02*
X131129580Y-132913214D01*
X131129580Y-132913214D02*
X131177200Y-132960833D01*
X131177200Y-132960833D02*
X131224819Y-133056071D01*
X131224819Y-133056071D02*
X131224819Y-133341785D01*
X131224819Y-133341785D02*
X131177200Y-133437023D01*
X131177200Y-133437023D02*
X131129580Y-133484642D01*
X137924819Y-72629166D02*
X137448628Y-72962499D01*
X137924819Y-73200594D02*
X136924819Y-73200594D01*
X136924819Y-73200594D02*
X136924819Y-72819642D01*
X136924819Y-72819642D02*
X136972438Y-72724404D01*
X136972438Y-72724404D02*
X137020057Y-72676785D01*
X137020057Y-72676785D02*
X137115295Y-72629166D01*
X137115295Y-72629166D02*
X137258152Y-72629166D01*
X137258152Y-72629166D02*
X137353390Y-72676785D01*
X137353390Y-72676785D02*
X137401009Y-72724404D01*
X137401009Y-72724404D02*
X137448628Y-72819642D01*
X137448628Y-72819642D02*
X137448628Y-73200594D01*
X137020057Y-72248213D02*
X136972438Y-72200594D01*
X136972438Y-72200594D02*
X136924819Y-72105356D01*
X136924819Y-72105356D02*
X136924819Y-71867261D01*
X136924819Y-71867261D02*
X136972438Y-71772023D01*
X136972438Y-71772023D02*
X137020057Y-71724404D01*
X137020057Y-71724404D02*
X137115295Y-71676785D01*
X137115295Y-71676785D02*
X137210533Y-71676785D01*
X137210533Y-71676785D02*
X137353390Y-71724404D01*
X137353390Y-71724404D02*
X137924819Y-72295832D01*
X137924819Y-72295832D02*
X137924819Y-71676785D01*
X173704819Y-84210357D02*
X173228628Y-84543690D01*
X173704819Y-84781785D02*
X172704819Y-84781785D01*
X172704819Y-84781785D02*
X172704819Y-84400833D01*
X172704819Y-84400833D02*
X172752438Y-84305595D01*
X172752438Y-84305595D02*
X172800057Y-84257976D01*
X172800057Y-84257976D02*
X172895295Y-84210357D01*
X172895295Y-84210357D02*
X173038152Y-84210357D01*
X173038152Y-84210357D02*
X173133390Y-84257976D01*
X173133390Y-84257976D02*
X173181009Y-84305595D01*
X173181009Y-84305595D02*
X173228628Y-84400833D01*
X173228628Y-84400833D02*
X173228628Y-84781785D01*
X173704819Y-83257976D02*
X173704819Y-83829404D01*
X173704819Y-83543690D02*
X172704819Y-83543690D01*
X172704819Y-83543690D02*
X172847676Y-83638928D01*
X172847676Y-83638928D02*
X172942914Y-83734166D01*
X172942914Y-83734166D02*
X172990533Y-83829404D01*
X172800057Y-82877023D02*
X172752438Y-82829404D01*
X172752438Y-82829404D02*
X172704819Y-82734166D01*
X172704819Y-82734166D02*
X172704819Y-82496071D01*
X172704819Y-82496071D02*
X172752438Y-82400833D01*
X172752438Y-82400833D02*
X172800057Y-82353214D01*
X172800057Y-82353214D02*
X172895295Y-82305595D01*
X172895295Y-82305595D02*
X172990533Y-82305595D01*
X172990533Y-82305595D02*
X173133390Y-82353214D01*
X173133390Y-82353214D02*
X173704819Y-82924642D01*
X173704819Y-82924642D02*
X173704819Y-82305595D01*
X89366666Y-99374819D02*
X89366666Y-100089104D01*
X89366666Y-100089104D02*
X89319047Y-100231961D01*
X89319047Y-100231961D02*
X89223809Y-100327200D01*
X89223809Y-100327200D02*
X89080952Y-100374819D01*
X89080952Y-100374819D02*
X88985714Y-100374819D01*
X90366666Y-100374819D02*
X89795238Y-100374819D01*
X90080952Y-100374819D02*
X90080952Y-99374819D01*
X90080952Y-99374819D02*
X89985714Y-99517676D01*
X89985714Y-99517676D02*
X89890476Y-99612914D01*
X89890476Y-99612914D02*
X89795238Y-99660533D01*
X145429580Y-92356666D02*
X145477200Y-92404285D01*
X145477200Y-92404285D02*
X145524819Y-92547142D01*
X145524819Y-92547142D02*
X145524819Y-92642380D01*
X145524819Y-92642380D02*
X145477200Y-92785237D01*
X145477200Y-92785237D02*
X145381961Y-92880475D01*
X145381961Y-92880475D02*
X145286723Y-92928094D01*
X145286723Y-92928094D02*
X145096247Y-92975713D01*
X145096247Y-92975713D02*
X144953390Y-92975713D01*
X144953390Y-92975713D02*
X144762914Y-92928094D01*
X144762914Y-92928094D02*
X144667676Y-92880475D01*
X144667676Y-92880475D02*
X144572438Y-92785237D01*
X144572438Y-92785237D02*
X144524819Y-92642380D01*
X144524819Y-92642380D02*
X144524819Y-92547142D01*
X144524819Y-92547142D02*
X144572438Y-92404285D01*
X144572438Y-92404285D02*
X144620057Y-92356666D01*
X144524819Y-92023332D02*
X144524819Y-91404285D01*
X144524819Y-91404285D02*
X144905771Y-91737618D01*
X144905771Y-91737618D02*
X144905771Y-91594761D01*
X144905771Y-91594761D02*
X144953390Y-91499523D01*
X144953390Y-91499523D02*
X145001009Y-91451904D01*
X145001009Y-91451904D02*
X145096247Y-91404285D01*
X145096247Y-91404285D02*
X145334342Y-91404285D01*
X145334342Y-91404285D02*
X145429580Y-91451904D01*
X145429580Y-91451904D02*
X145477200Y-91499523D01*
X145477200Y-91499523D02*
X145524819Y-91594761D01*
X145524819Y-91594761D02*
X145524819Y-91880475D01*
X145524819Y-91880475D02*
X145477200Y-91975713D01*
X145477200Y-91975713D02*
X145429580Y-92023332D01*
X79048095Y-70404819D02*
X79619523Y-70404819D01*
X79333809Y-71404819D02*
X79333809Y-70404819D01*
X79952857Y-71404819D02*
X79952857Y-70404819D01*
X79952857Y-70404819D02*
X80333809Y-70404819D01*
X80333809Y-70404819D02*
X80429047Y-70452438D01*
X80429047Y-70452438D02*
X80476666Y-70500057D01*
X80476666Y-70500057D02*
X80524285Y-70595295D01*
X80524285Y-70595295D02*
X80524285Y-70738152D01*
X80524285Y-70738152D02*
X80476666Y-70833390D01*
X80476666Y-70833390D02*
X80429047Y-70881009D01*
X80429047Y-70881009D02*
X80333809Y-70928628D01*
X80333809Y-70928628D02*
X79952857Y-70928628D01*
X81476666Y-71404819D02*
X80905238Y-71404819D01*
X81190952Y-71404819D02*
X81190952Y-70404819D01*
X81190952Y-70404819D02*
X81095714Y-70547676D01*
X81095714Y-70547676D02*
X81000476Y-70642914D01*
X81000476Y-70642914D02*
X80905238Y-70690533D01*
X165765595Y-100569819D02*
X165765595Y-101379342D01*
X165765595Y-101379342D02*
X165813214Y-101474580D01*
X165813214Y-101474580D02*
X165860833Y-101522200D01*
X165860833Y-101522200D02*
X165956071Y-101569819D01*
X165956071Y-101569819D02*
X166146547Y-101569819D01*
X166146547Y-101569819D02*
X166241785Y-101522200D01*
X166241785Y-101522200D02*
X166289404Y-101474580D01*
X166289404Y-101474580D02*
X166337023Y-101379342D01*
X166337023Y-101379342D02*
X166337023Y-100569819D01*
X166860833Y-101569819D02*
X167051309Y-101569819D01*
X167051309Y-101569819D02*
X167146547Y-101522200D01*
X167146547Y-101522200D02*
X167194166Y-101474580D01*
X167194166Y-101474580D02*
X167289404Y-101331723D01*
X167289404Y-101331723D02*
X167337023Y-101141247D01*
X167337023Y-101141247D02*
X167337023Y-100760295D01*
X167337023Y-100760295D02*
X167289404Y-100665057D01*
X167289404Y-100665057D02*
X167241785Y-100617438D01*
X167241785Y-100617438D02*
X167146547Y-100569819D01*
X167146547Y-100569819D02*
X166956071Y-100569819D01*
X166956071Y-100569819D02*
X166860833Y-100617438D01*
X166860833Y-100617438D02*
X166813214Y-100665057D01*
X166813214Y-100665057D02*
X166765595Y-100760295D01*
X166765595Y-100760295D02*
X166765595Y-100998390D01*
X166765595Y-100998390D02*
X166813214Y-101093628D01*
X166813214Y-101093628D02*
X166860833Y-101141247D01*
X166860833Y-101141247D02*
X166956071Y-101188866D01*
X166956071Y-101188866D02*
X167146547Y-101188866D01*
X167146547Y-101188866D02*
X167241785Y-101141247D01*
X167241785Y-101141247D02*
X167289404Y-101093628D01*
X167289404Y-101093628D02*
X167337023Y-100998390D01*
X127529580Y-102066666D02*
X127577200Y-102114285D01*
X127577200Y-102114285D02*
X127624819Y-102257142D01*
X127624819Y-102257142D02*
X127624819Y-102352380D01*
X127624819Y-102352380D02*
X127577200Y-102495237D01*
X127577200Y-102495237D02*
X127481961Y-102590475D01*
X127481961Y-102590475D02*
X127386723Y-102638094D01*
X127386723Y-102638094D02*
X127196247Y-102685713D01*
X127196247Y-102685713D02*
X127053390Y-102685713D01*
X127053390Y-102685713D02*
X126862914Y-102638094D01*
X126862914Y-102638094D02*
X126767676Y-102590475D01*
X126767676Y-102590475D02*
X126672438Y-102495237D01*
X126672438Y-102495237D02*
X126624819Y-102352380D01*
X126624819Y-102352380D02*
X126624819Y-102257142D01*
X126624819Y-102257142D02*
X126672438Y-102114285D01*
X126672438Y-102114285D02*
X126720057Y-102066666D01*
X127624819Y-101114285D02*
X127624819Y-101685713D01*
X127624819Y-101399999D02*
X126624819Y-101399999D01*
X126624819Y-101399999D02*
X126767676Y-101495237D01*
X126767676Y-101495237D02*
X126862914Y-101590475D01*
X126862914Y-101590475D02*
X126910533Y-101685713D01*
X154304819Y-128721904D02*
X155114342Y-128721904D01*
X155114342Y-128721904D02*
X155209580Y-128674285D01*
X155209580Y-128674285D02*
X155257200Y-128626666D01*
X155257200Y-128626666D02*
X155304819Y-128531428D01*
X155304819Y-128531428D02*
X155304819Y-128340952D01*
X155304819Y-128340952D02*
X155257200Y-128245714D01*
X155257200Y-128245714D02*
X155209580Y-128198095D01*
X155209580Y-128198095D02*
X155114342Y-128150476D01*
X155114342Y-128150476D02*
X154304819Y-128150476D01*
X154304819Y-127769523D02*
X154304819Y-127102857D01*
X154304819Y-127102857D02*
X155304819Y-127531428D01*
D12*
%TO.C,R15*%
X120027500Y-82032776D02*
X120027500Y-82542224D01*
X121072500Y-82032776D02*
X121072500Y-82542224D01*
D10*
%TO.C,U3*%
X161270000Y-125890000D02*
X161270000Y-130040000D01*
X166420000Y-125890000D02*
X166420000Y-130040000D01*
D12*
X166650000Y-125530000D02*
X166320000Y-125290000D01*
X166650000Y-125050000D01*
X166650000Y-125530000D01*
G36*
X166650000Y-125530000D02*
G01*
X166320000Y-125290000D01*
X166650000Y-125050000D01*
X166650000Y-125530000D01*
G37*
%TO.C,Y1*%
X137310000Y-91635000D02*
X137310000Y-90655000D01*
X137420000Y-93905000D02*
X139220000Y-93905000D01*
X139330000Y-91635000D02*
X139330000Y-90655000D01*
%TO.C,SW2*%
X121930000Y-79880000D02*
X122230000Y-79880000D01*
X121930000Y-84020000D02*
X121930000Y-79880000D01*
X122230000Y-84020000D02*
X121930000Y-84020000D01*
X124770000Y-79880000D02*
X125070000Y-79880000D01*
X125070000Y-79880000D02*
X125070000Y-84020000D01*
X125070000Y-84020000D02*
X124770000Y-84020000D01*
%TO.C,K2*%
X115840000Y-136750000D02*
X117340000Y-136750000D01*
X115840000Y-138250000D02*
X115840000Y-136750000D01*
X116290000Y-142270000D02*
X116290000Y-139660000D01*
X116290000Y-142270000D02*
X144510000Y-142270000D01*
X136500000Y-137050000D02*
X116290000Y-137050000D01*
X138040000Y-137050000D02*
X141520000Y-137050000D01*
X143100000Y-137050000D02*
X144510000Y-137050000D01*
X144510000Y-142270000D02*
X144510000Y-137050000D01*
%TO.C,M5*%
X133847500Y-125782500D02*
X141167500Y-125782500D01*
X133847500Y-133822500D02*
X133847500Y-125782500D01*
X134655500Y-129202500D02*
X133847500Y-129202500D01*
X134655500Y-130202500D02*
X133847500Y-130202500D01*
X135924500Y-127902500D02*
X133847500Y-127902500D01*
X139587500Y-127902500D02*
X137010500Y-127902500D01*
X139587500Y-129202500D02*
X138279500Y-129202500D01*
X139587500Y-130202500D02*
X138279500Y-130202500D01*
X141767500Y-125782500D02*
X144587500Y-125782500D01*
X144587500Y-125782500D02*
X144587500Y-133822500D01*
X144587500Y-127902500D02*
X143347500Y-127902500D01*
X144587500Y-129202500D02*
X143347500Y-129202500D01*
X144587500Y-130202500D02*
X143347500Y-130202500D01*
X144587500Y-133822500D02*
X133847500Y-133822500D01*
X141467500Y-125782500D02*
X141027500Y-125172500D01*
X141907500Y-125172500D01*
X141467500Y-125782500D01*
G36*
X141467500Y-125782500D02*
G01*
X141027500Y-125172500D01*
X141907500Y-125172500D01*
X141467500Y-125782500D01*
G37*
%TO.C,SW1*%
X126980000Y-79830000D02*
X127280000Y-79830000D01*
X126980000Y-83970000D02*
X126980000Y-79830000D01*
X127280000Y-83970000D02*
X126980000Y-83970000D01*
X129820000Y-79830000D02*
X130120000Y-79830000D01*
X130120000Y-79830000D02*
X130120000Y-83970000D01*
X130120000Y-83970000D02*
X129820000Y-83970000D01*
%TO.C,J4*%
X78820000Y-74545000D02*
X80200000Y-74545000D01*
X78820000Y-75925000D02*
X78820000Y-74545000D01*
X78820000Y-77195000D02*
X78820000Y-79845000D01*
X78820000Y-77195000D02*
X81580000Y-77195000D01*
X78820000Y-79845000D02*
X81580000Y-79845000D01*
X81580000Y-77195000D02*
X81580000Y-79845000D01*
%TO.C,TP3*%
X129600000Y-71400000D02*
X133400000Y-71400000D01*
X133400000Y-73600000D01*
X129600000Y-73600000D01*
X129600000Y-71400000D01*
%TO.C,C4*%
X142298748Y-88655000D02*
X142821252Y-88655000D01*
X142298748Y-90125000D02*
X142821252Y-90125000D01*
%TO.C,K3*%
X79842500Y-103562500D02*
X79842500Y-131782500D01*
X79842500Y-103562500D02*
X82452500Y-103562500D01*
X79842500Y-131782500D02*
X85062500Y-131782500D01*
X83862500Y-103112500D02*
X85362500Y-103112500D01*
X85062500Y-123772500D02*
X85062500Y-103562500D01*
X85062500Y-125312500D02*
X85062500Y-128792500D01*
X85062500Y-130372500D02*
X85062500Y-131782500D01*
X85362500Y-103112500D02*
X85362500Y-104612500D01*
D13*
%TO.C,D4*%
X90050000Y-105230000D02*
G75*
G02*
X89950000Y-105230000I-50000J0D01*
G01*
X89950000Y-105230000D02*
G75*
G02*
X90050000Y-105230000I50000J0D01*
G01*
D12*
%TO.C,C15*%
X87840000Y-79960000D02*
X93000000Y-79960000D01*
X87840000Y-80000000D02*
X93000000Y-80000000D01*
X87841000Y-79920000D02*
X92999000Y-79920000D01*
X87843000Y-79880000D02*
X92997000Y-79880000D01*
X87845000Y-79840000D02*
X92995000Y-79840000D01*
X87848000Y-79800000D02*
X92992000Y-79800000D01*
X87851000Y-79760000D02*
X89380000Y-79760000D01*
X87855000Y-79720000D02*
X89380000Y-79720000D01*
X87860000Y-79680000D02*
X89380000Y-79680000D01*
X87865000Y-79640000D02*
X89380000Y-79640000D01*
X87871000Y-79600000D02*
X89380000Y-79600000D01*
X87877000Y-79560000D02*
X89380000Y-79560000D01*
X87884000Y-79520000D02*
X89380000Y-79520000D01*
X87892000Y-79480000D02*
X89380000Y-79480000D01*
X87901000Y-79440000D02*
X89380000Y-79440000D01*
X87910000Y-79400000D02*
X89380000Y-79400000D01*
X87919000Y-79360000D02*
X89380000Y-79360000D01*
X87930000Y-79320000D02*
X89380000Y-79320000D01*
X87941000Y-79280000D02*
X89380000Y-79280000D01*
X87953000Y-79240000D02*
X89380000Y-79240000D01*
X87965000Y-79200000D02*
X89380000Y-79200000D01*
X87978000Y-79160000D02*
X89380000Y-79160000D01*
X87992000Y-79120000D02*
X89380000Y-79120000D01*
X88007000Y-79080000D02*
X89380000Y-79080000D01*
X88022000Y-79040000D02*
X89380000Y-79040000D01*
X88038000Y-79000000D02*
X89380000Y-79000000D01*
X88055000Y-78960000D02*
X89380000Y-78960000D01*
X88073000Y-78920000D02*
X89380000Y-78920000D01*
X88091000Y-78880000D02*
X89380000Y-78880000D01*
X88111000Y-78840000D02*
X89380000Y-78840000D01*
X88131000Y-78800000D02*
X89380000Y-78800000D01*
X88152000Y-78760000D02*
X89380000Y-78760000D01*
X88174000Y-78720000D02*
X89380000Y-78720000D01*
X88197000Y-78680000D02*
X89380000Y-78680000D01*
X88221000Y-78640000D02*
X89380000Y-78640000D01*
X88245000Y-78600000D02*
X89380000Y-78600000D01*
X88271000Y-78560000D02*
X89380000Y-78560000D01*
X88298000Y-78520000D02*
X89380000Y-78520000D01*
X88326000Y-78480000D02*
X89380000Y-78480000D01*
X88355000Y-78440000D02*
X89380000Y-78440000D01*
X88385000Y-78400000D02*
X89380000Y-78400000D01*
X88417000Y-78360000D02*
X89380000Y-78360000D01*
X88450000Y-78320000D02*
X89380000Y-78320000D01*
X88484000Y-78280000D02*
X89380000Y-78280000D01*
X88519000Y-78240000D02*
X89380000Y-78240000D01*
X88556000Y-78200000D02*
X89380000Y-78200000D01*
X88595000Y-78160000D02*
X89380000Y-78160000D01*
X88635000Y-78120000D02*
X89380000Y-78120000D01*
X88677000Y-78080000D02*
X89380000Y-78080000D01*
X88695000Y-82554775D02*
X89195000Y-82554775D01*
X88721000Y-78040000D02*
X89380000Y-78040000D01*
X88768000Y-78000000D02*
X89380000Y-78000000D01*
X88816000Y-77960000D02*
X89380000Y-77960000D01*
X88867000Y-77920000D02*
X89380000Y-77920000D01*
X88921000Y-77880000D02*
X89380000Y-77880000D01*
X88945000Y-82804775D02*
X88945000Y-82304775D01*
X88977000Y-77840000D02*
X89380000Y-77840000D01*
X89037000Y-77800000D02*
X89380000Y-77800000D01*
X89101000Y-77760000D02*
X89380000Y-77760000D01*
X89169000Y-77720000D02*
X89380000Y-77720000D01*
X89243000Y-77680000D02*
X91597000Y-77680000D01*
X89322000Y-77640000D02*
X91518000Y-77640000D01*
X89409000Y-77600000D02*
X91431000Y-77600000D01*
X89506000Y-77560000D02*
X91334000Y-77560000D01*
X89615000Y-77520000D02*
X91225000Y-77520000D01*
X89743000Y-77480000D02*
X91097000Y-77480000D01*
X89903000Y-77440000D02*
X90937000Y-77440000D01*
X90137000Y-77400000D02*
X90703000Y-77400000D01*
X91460000Y-77720000D02*
X91671000Y-77720000D01*
X91460000Y-77760000D02*
X91739000Y-77760000D01*
X91460000Y-77800000D02*
X91803000Y-77800000D01*
X91460000Y-77840000D02*
X91863000Y-77840000D01*
X91460000Y-77880000D02*
X91919000Y-77880000D01*
X91460000Y-77920000D02*
X91973000Y-77920000D01*
X91460000Y-77960000D02*
X92024000Y-77960000D01*
X91460000Y-78000000D02*
X92072000Y-78000000D01*
X91460000Y-78040000D02*
X92119000Y-78040000D01*
X91460000Y-78080000D02*
X92163000Y-78080000D01*
X91460000Y-78120000D02*
X92205000Y-78120000D01*
X91460000Y-78160000D02*
X92245000Y-78160000D01*
X91460000Y-78200000D02*
X92284000Y-78200000D01*
X91460000Y-78240000D02*
X92321000Y-78240000D01*
X91460000Y-78280000D02*
X92356000Y-78280000D01*
X91460000Y-78320000D02*
X92390000Y-78320000D01*
X91460000Y-78360000D02*
X92423000Y-78360000D01*
X91460000Y-78400000D02*
X92455000Y-78400000D01*
X91460000Y-78440000D02*
X92485000Y-78440000D01*
X91460000Y-78480000D02*
X92514000Y-78480000D01*
X91460000Y-78520000D02*
X92542000Y-78520000D01*
X91460000Y-78560000D02*
X92569000Y-78560000D01*
X91460000Y-78600000D02*
X92595000Y-78600000D01*
X91460000Y-78640000D02*
X92619000Y-78640000D01*
X91460000Y-78680000D02*
X92643000Y-78680000D01*
X91460000Y-78720000D02*
X92666000Y-78720000D01*
X91460000Y-78760000D02*
X92688000Y-78760000D01*
X91460000Y-78800000D02*
X92709000Y-78800000D01*
X91460000Y-78840000D02*
X92729000Y-78840000D01*
X91460000Y-78880000D02*
X92749000Y-78880000D01*
X91460000Y-78920000D02*
X92767000Y-78920000D01*
X91460000Y-78960000D02*
X92785000Y-78960000D01*
X91460000Y-79000000D02*
X92802000Y-79000000D01*
X91460000Y-79040000D02*
X92818000Y-79040000D01*
X91460000Y-79080000D02*
X92833000Y-79080000D01*
X91460000Y-79120000D02*
X92848000Y-79120000D01*
X91460000Y-79160000D02*
X92862000Y-79160000D01*
X91460000Y-79200000D02*
X92875000Y-79200000D01*
X91460000Y-79240000D02*
X92887000Y-79240000D01*
X91460000Y-79280000D02*
X92899000Y-79280000D01*
X91460000Y-79320000D02*
X92910000Y-79320000D01*
X91460000Y-79360000D02*
X92921000Y-79360000D01*
X91460000Y-79400000D02*
X92930000Y-79400000D01*
X91460000Y-79440000D02*
X92939000Y-79440000D01*
X91460000Y-79480000D02*
X92948000Y-79480000D01*
X91460000Y-79520000D02*
X92956000Y-79520000D01*
X91460000Y-79560000D02*
X92963000Y-79560000D01*
X91460000Y-79600000D02*
X92969000Y-79600000D01*
X91460000Y-79640000D02*
X92975000Y-79640000D01*
X91460000Y-79680000D02*
X92980000Y-79680000D01*
X91460000Y-79720000D02*
X92985000Y-79720000D01*
X91460000Y-79760000D02*
X92989000Y-79760000D01*
X93040000Y-80000000D02*
G75*
G02*
X87800000Y-80000000I-2620000J0D01*
G01*
X87800000Y-80000000D02*
G75*
G02*
X93040000Y-80000000I2620000J0D01*
G01*
%TO.C,TP2*%
X88830000Y-58575000D02*
X92630000Y-58575000D01*
X92630000Y-60775000D01*
X88830000Y-60775000D01*
X88830000Y-58575000D01*
%TO.C,SW5*%
X100290000Y-110320000D02*
X100290000Y-109320000D01*
X100290000Y-110320000D02*
X101290000Y-110320000D01*
X100540000Y-99170000D02*
X102340000Y-99170000D01*
X100540000Y-100060000D02*
X100540000Y-99170000D01*
X100540000Y-105130000D02*
X100540000Y-104110000D01*
X100540000Y-110070000D02*
X100540000Y-109180000D01*
X102270000Y-110070000D02*
X100540000Y-110070000D01*
X104540000Y-99120000D02*
X104900000Y-99120000D01*
X104620000Y-110070000D02*
X104880000Y-110070000D01*
X107080000Y-99120000D02*
X107440000Y-99120000D01*
X107080000Y-110120000D02*
X107440000Y-110120000D01*
X108840001Y-108329999D02*
X108719999Y-108199999D01*
X109699999Y-107470001D02*
X109569999Y-107349999D01*
X111440000Y-99170000D02*
X109640000Y-99170000D01*
X111440000Y-100050000D02*
X111440000Y-99170000D01*
X111440000Y-105140000D02*
X111440000Y-104100000D01*
X111440000Y-109180000D02*
X111440000Y-110070000D01*
X111440000Y-110070000D02*
X109640000Y-110070000D01*
X101540001Y-105200000D02*
G75*
G02*
X101538569Y-104051093I4450099J580000D01*
G01*
X101949875Y-102684730D02*
G75*
G02*
X105050000Y-100240001I4040175J-1935310D01*
G01*
X103770000Y-108530000D02*
G75*
G02*
X101933081Y-106558532I2220000J3910000D01*
G01*
X105040000Y-109010000D02*
G75*
G02*
X104620703Y-108897803I950000J4389900D01*
G01*
X106940000Y-100230800D02*
G75*
G02*
X110024670Y-102647941I-950000J-4389200D01*
G01*
X108713142Y-108191005D02*
G75*
G02*
X106940000Y-109009199I-2723152J3571035D01*
G01*
X109699999Y-107470001D02*
G75*
G02*
X108840001Y-108329999I-429999J-429999D01*
G01*
X110033585Y-106596415D02*
G75*
G02*
X109568895Y-107349159I-4043585J1976415D01*
G01*
X110450000Y-104060000D02*
G75*
G02*
X110450000Y-105180000I-4459931J-560000D01*
G01*
X108940000Y-104620000D02*
G75*
G02*
X103040000Y-104620000I-2950000J0D01*
G01*
X103040000Y-104620000D02*
G75*
G02*
X108940000Y-104620000I2950000J0D01*
G01*
%TO.C,R13*%
X99542500Y-128802776D02*
X99542500Y-129312224D01*
X100587500Y-128802776D02*
X100587500Y-129312224D01*
%TO.C,Q2*%
X95447500Y-132470000D02*
X96967500Y-132470000D01*
X95447500Y-132520000D02*
X95447500Y-132470000D01*
X95447500Y-134420000D02*
X95447500Y-133640000D01*
X95447500Y-135590000D02*
X95447500Y-135540000D01*
X96967500Y-132470000D02*
X96967500Y-133470000D01*
X96967500Y-134590000D02*
X96967500Y-135590000D01*
X96967500Y-135590000D02*
X95447500Y-135590000D01*
X95147500Y-133980000D02*
X94667500Y-133980000D01*
X94907500Y-133650000D01*
X95147500Y-133980000D01*
G36*
X95147500Y-133980000D02*
G01*
X94667500Y-133980000D01*
X94907500Y-133650000D01*
X95147500Y-133980000D01*
G37*
%TO.C,Q3*%
X91990000Y-108552500D02*
X92990000Y-108552500D01*
X91990000Y-110072500D02*
X91990000Y-108552500D01*
X92040000Y-110072500D02*
X91990000Y-110072500D01*
X93940000Y-110072500D02*
X93160000Y-110072500D01*
X94110000Y-108552500D02*
X95110000Y-108552500D01*
X95110000Y-108552500D02*
X95110000Y-110072500D01*
X95110000Y-110072500D02*
X95060000Y-110072500D01*
X93500000Y-110852500D02*
X93170000Y-110612500D01*
X93500000Y-110372500D01*
X93500000Y-110852500D01*
G36*
X93500000Y-110852500D02*
G01*
X93170000Y-110612500D01*
X93500000Y-110372500D01*
X93500000Y-110852500D01*
G37*
%TO.C,C19*%
X170518748Y-85125000D02*
X171041252Y-85125000D01*
X170518748Y-86595000D02*
X171041252Y-86595000D01*
%TO.C,R4*%
X96232224Y-112347500D02*
X95722776Y-112347500D01*
X96232224Y-113392500D02*
X95722776Y-113392500D01*
D13*
%TO.C,D5*%
X97810000Y-131137500D02*
G75*
G02*
X97710000Y-131137500I-50000J0D01*
G01*
X97710000Y-131137500D02*
G75*
G02*
X97810000Y-131137500I50000J0D01*
G01*
D12*
%TO.C,L1*%
X105278733Y-64625000D02*
X105621267Y-64625000D01*
X105278733Y-65645000D02*
X105621267Y-65645000D01*
%TO.C,FINALCARRERA1*%
X140922000Y-63000000D02*
X140922000Y-71605000D01*
X143970000Y-71605000D02*
X146510000Y-71605000D01*
X151590000Y-71605000D02*
X149050000Y-71605000D01*
X154638000Y-63000000D02*
X140922000Y-63000000D01*
X154638000Y-71605000D02*
X154638000Y-63000000D01*
X146300000Y-62600000D02*
X145100000Y-62600000D01*
X145100000Y-63400000D01*
X146300000Y-63400000D01*
X146300000Y-62600000D01*
%TO.C,U8*%
X162230000Y-84590000D02*
X165450000Y-84590000D01*
X162230000Y-84815000D02*
X162230000Y-84590000D01*
X162230000Y-87810000D02*
X162230000Y-87585000D01*
X165450000Y-84590000D02*
X165450000Y-84815000D01*
X165450000Y-87585000D02*
X165450000Y-87810000D01*
X165450000Y-87810000D02*
X162230000Y-87810000D01*
X161700000Y-85220000D02*
X161370000Y-85460000D01*
X161370000Y-84980000D01*
X161700000Y-85220000D01*
G36*
X161700000Y-85220000D02*
G01*
X161370000Y-85460000D01*
X161370000Y-84980000D01*
X161700000Y-85220000D01*
G37*
%TO.C,U2*%
X95015000Y-62475000D02*
X96380000Y-62475000D01*
X95015000Y-72875000D02*
X96380000Y-72875000D01*
X96380000Y-62475000D02*
X96380000Y-63425000D01*
X96380000Y-72875000D02*
X96380000Y-71925000D01*
X99545000Y-72355000D02*
X98865000Y-72355000D01*
X99205000Y-71885000D01*
X99545000Y-72355000D01*
G36*
X99545000Y-72355000D02*
G01*
X98865000Y-72355000D01*
X99205000Y-71885000D01*
X99545000Y-72355000D01*
G37*
%TO.C,FB1*%
X118659932Y-126170068D02*
G75*
G02*
X118928000Y-121330000I2300068J2300068D01*
G01*
X119690000Y-120822000D02*
G75*
G02*
X122230000Y-120822000I1270000J-508000D01*
G01*
X122230000Y-126918000D02*
G75*
G02*
X119690000Y-126918000I-1270000J508000D01*
G01*
X122979572Y-121345535D02*
G75*
G02*
X123246000Y-126156000I-2019572J-2524465D01*
G01*
%TO.C,C7*%
X159003448Y-108790600D02*
X159525952Y-108790600D01*
X159003448Y-110260600D02*
X159525952Y-110260600D01*
%TO.C,C9*%
X175315000Y-103651252D02*
X175315000Y-103128748D01*
X176785000Y-103651252D02*
X176785000Y-103128748D01*
%TO.C,J2*%
X179170331Y-89790000D02*
X179603344Y-90040000D01*
X179170331Y-90290000D02*
X179170331Y-89790000D01*
X179603344Y-90040000D02*
X179170331Y-90290000D01*
X179864669Y-77900000D02*
X189004669Y-77900000D01*
X179864669Y-91100000D02*
X179864669Y-77900000D01*
X189004669Y-75890000D02*
X193104669Y-75890000D01*
X189004669Y-77900000D02*
X189004669Y-75890000D01*
X189004669Y-91100000D02*
X179864669Y-91100000D01*
X189004669Y-93110000D02*
X189004669Y-91100000D01*
X193104669Y-93110000D02*
X189004669Y-93110000D01*
%TO.C,R5*%
X129767500Y-67597224D02*
X129767500Y-67087776D01*
X130812500Y-67597224D02*
X130812500Y-67087776D01*
%TO.C,M3*%
X103980000Y-124980000D02*
X111300000Y-124980000D01*
X103980000Y-133020000D02*
X103980000Y-124980000D01*
X104788000Y-128400000D02*
X103980000Y-128400000D01*
X104788000Y-129400000D02*
X103980000Y-129400000D01*
X106057000Y-127100000D02*
X103980000Y-127100000D01*
X109720000Y-127100000D02*
X107143000Y-127100000D01*
X109720000Y-128400000D02*
X108412000Y-128400000D01*
X109720000Y-129400000D02*
X108412000Y-129400000D01*
X111900000Y-124980000D02*
X114720000Y-124980000D01*
X114720000Y-124980000D02*
X114720000Y-133020000D01*
X114720000Y-127100000D02*
X113480000Y-127100000D01*
X114720000Y-128400000D02*
X113480000Y-128400000D01*
X114720000Y-129400000D02*
X113480000Y-129400000D01*
X114720000Y-133020000D02*
X103980000Y-133020000D01*
X111600000Y-124980000D02*
X111160000Y-124370000D01*
X112040000Y-124370000D01*
X111600000Y-124980000D01*
G36*
X111600000Y-124980000D02*
G01*
X111160000Y-124370000D01*
X112040000Y-124370000D01*
X111600000Y-124980000D01*
G37*
%TO.C,C10*%
X132061252Y-85865000D02*
X131538748Y-85865000D01*
X132061252Y-87335000D02*
X131538748Y-87335000D01*
%TO.C,JP1*%
X126040000Y-108180000D02*
X126040000Y-106800000D01*
X127420000Y-108180000D02*
X126040000Y-108180000D01*
X128690000Y-105420000D02*
X133880000Y-105420000D01*
X128690000Y-108180000D02*
X128690000Y-105420000D01*
X128690000Y-108180000D02*
X133880000Y-108180000D01*
X133880000Y-108180000D02*
X133880000Y-105420000D01*
%TO.C,R18*%
X92107500Y-113612776D02*
X92107500Y-114122224D01*
X93152500Y-113612776D02*
X93152500Y-114122224D01*
%TO.C,R3*%
X157377500Y-76392224D02*
X157377500Y-75882776D01*
X158422500Y-76392224D02*
X158422500Y-75882776D01*
%TO.C,J3*%
X179270331Y-122190000D02*
X179703344Y-122440000D01*
X179270331Y-122690000D02*
X179270331Y-122190000D01*
X179703344Y-122440000D02*
X179270331Y-122690000D01*
X179964669Y-110300000D02*
X189104669Y-110300000D01*
X179964669Y-123500000D02*
X179964669Y-110300000D01*
X189104669Y-108290000D02*
X193204669Y-108290000D01*
X189104669Y-110300000D02*
X189104669Y-108290000D01*
X189104669Y-123500000D02*
X179964669Y-123500000D01*
X189104669Y-125510000D02*
X189104669Y-123500000D01*
X193204669Y-125510000D02*
X189104669Y-125510000D01*
%TO.C,U1*%
X122170000Y-68080000D02*
X122440000Y-68080000D01*
X122170000Y-74500000D02*
X122170000Y-68080000D01*
X129070000Y-68080000D02*
X128800000Y-68080000D01*
X129070000Y-74500000D02*
X129070000Y-68080000D01*
X129230000Y-66690000D02*
X128760000Y-66350000D01*
X129230000Y-66010000D01*
X129230000Y-66690000D01*
G36*
X129230000Y-66690000D02*
G01*
X128760000Y-66350000D01*
X129230000Y-66010000D01*
X129230000Y-66690000D01*
G37*
%TO.C,Q4*%
X123400000Y-127562500D02*
X124920000Y-127562500D01*
X123400000Y-128562500D02*
X123400000Y-127562500D01*
X123400000Y-130682500D02*
X123400000Y-129682500D01*
X124920000Y-127562500D02*
X124920000Y-127612500D01*
X124920000Y-128732500D02*
X124920000Y-129512500D01*
X124920000Y-130632500D02*
X124920000Y-130682500D01*
X124920000Y-130682500D02*
X123400000Y-130682500D01*
X125460000Y-129502500D02*
X125220000Y-129172500D01*
X125700000Y-129172500D01*
X125460000Y-129502500D01*
G36*
X125460000Y-129502500D02*
G01*
X125220000Y-129172500D01*
X125700000Y-129172500D01*
X125460000Y-129502500D01*
G37*
%TO.C,M1*%
X145880000Y-134760000D02*
X156620000Y-134760000D01*
X145880000Y-138380000D02*
X147120000Y-138380000D01*
X145880000Y-139380000D02*
X147120000Y-139380000D01*
X145880000Y-140680000D02*
X147120000Y-140680000D01*
X145880000Y-142800000D02*
X145880000Y-134760000D01*
X148700000Y-142800000D02*
X145880000Y-142800000D01*
X150880000Y-138380000D02*
X152188000Y-138380000D01*
X150880000Y-139380000D02*
X152188000Y-139380000D01*
X150880000Y-140680000D02*
X153457000Y-140680000D01*
X154543000Y-140680000D02*
X156620000Y-140680000D01*
X155812000Y-138380000D02*
X156620000Y-138380000D01*
X155812000Y-139380000D02*
X156620000Y-139380000D01*
X156620000Y-134760000D02*
X156620000Y-142800000D01*
X156620000Y-142800000D02*
X149300000Y-142800000D01*
X149440000Y-143410000D02*
X148560000Y-143410000D01*
X149000000Y-142800000D01*
X149440000Y-143410000D01*
G36*
X149440000Y-143410000D02*
G01*
X148560000Y-143410000D01*
X149000000Y-142800000D01*
X149440000Y-143410000D01*
G37*
D13*
%TO.C,D6*%
X119585000Y-133052500D02*
G75*
G02*
X119485000Y-133052500I-50000J0D01*
G01*
X119485000Y-133052500D02*
G75*
G02*
X119585000Y-133052500I50000J0D01*
G01*
D12*
%TO.C,U4*%
X125940400Y-89791600D02*
X126665400Y-89791600D01*
X125940400Y-90516600D02*
X125940400Y-89791600D01*
X125940400Y-97011600D02*
X125940400Y-96286600D01*
X126665400Y-97011600D02*
X125940400Y-97011600D01*
X132435400Y-89791600D02*
X133160400Y-89791600D01*
X133160400Y-89791600D02*
X133160400Y-90516600D01*
X133160400Y-96286600D02*
X133160400Y-97011600D01*
X133160400Y-97011600D02*
X132435400Y-97011600D01*
X125410400Y-90901600D02*
X125080400Y-91141600D01*
X125080400Y-90661600D01*
X125410400Y-90901600D01*
G36*
X125410400Y-90901600D02*
G01*
X125080400Y-91141600D01*
X125080400Y-90661600D01*
X125410400Y-90901600D01*
G37*
%TO.C,C12*%
X118245000Y-60738748D02*
X118245000Y-61261252D01*
X119715000Y-60738748D02*
X119715000Y-61261252D01*
%TO.C,C13*%
X104130000Y-59073000D02*
X104130000Y-58507000D01*
X104170000Y-59307000D02*
X104170000Y-58273000D01*
X104210000Y-59467000D02*
X104210000Y-58113000D01*
X104250000Y-59595000D02*
X104250000Y-57985000D01*
X104290000Y-59704000D02*
X104290000Y-57876000D01*
X104330000Y-59801000D02*
X104330000Y-57779000D01*
X104370000Y-59888000D02*
X104370000Y-57692000D01*
X104410000Y-59967000D02*
X104410000Y-57613000D01*
X104450000Y-57750000D02*
X104450000Y-57539000D01*
X104450000Y-60041000D02*
X104450000Y-59830000D01*
X104490000Y-57750000D02*
X104490000Y-57471000D01*
X104490000Y-60109000D02*
X104490000Y-59830000D01*
X104530000Y-57750000D02*
X104530000Y-57407000D01*
X104530000Y-60173000D02*
X104530000Y-59830000D01*
X104570000Y-57750000D02*
X104570000Y-57347000D01*
X104570000Y-60233000D02*
X104570000Y-59830000D01*
X104610000Y-57750000D02*
X104610000Y-57291000D01*
X104610000Y-60289000D02*
X104610000Y-59830000D01*
X104650000Y-57750000D02*
X104650000Y-57237000D01*
X104650000Y-60343000D02*
X104650000Y-59830000D01*
X104690000Y-57750000D02*
X104690000Y-57186000D01*
X104690000Y-60394000D02*
X104690000Y-59830000D01*
X104730000Y-57750000D02*
X104730000Y-57138000D01*
X104730000Y-60442000D02*
X104730000Y-59830000D01*
X104770000Y-57750000D02*
X104770000Y-57091000D01*
X104770000Y-60489000D02*
X104770000Y-59830000D01*
X104810000Y-57750000D02*
X104810000Y-57047000D01*
X104810000Y-60533000D02*
X104810000Y-59830000D01*
X104850000Y-57750000D02*
X104850000Y-57005000D01*
X104850000Y-60575000D02*
X104850000Y-59830000D01*
X104890000Y-57750000D02*
X104890000Y-56965000D01*
X104890000Y-60615000D02*
X104890000Y-59830000D01*
X104930000Y-57750000D02*
X104930000Y-56926000D01*
X104930000Y-60654000D02*
X104930000Y-59830000D01*
X104970000Y-57750000D02*
X104970000Y-56889000D01*
X104970000Y-60691000D02*
X104970000Y-59830000D01*
X105010000Y-57750000D02*
X105010000Y-56854000D01*
X105010000Y-60726000D02*
X105010000Y-59830000D01*
X105050000Y-57750000D02*
X105050000Y-56820000D01*
X105050000Y-60760000D02*
X105050000Y-59830000D01*
X105090000Y-57750000D02*
X105090000Y-56787000D01*
X105090000Y-60793000D02*
X105090000Y-59830000D01*
X105130000Y-57750000D02*
X105130000Y-56755000D01*
X105130000Y-60825000D02*
X105130000Y-59830000D01*
X105170000Y-57750000D02*
X105170000Y-56725000D01*
X105170000Y-60855000D02*
X105170000Y-59830000D01*
X105210000Y-57750000D02*
X105210000Y-56696000D01*
X105210000Y-60884000D02*
X105210000Y-59830000D01*
X105250000Y-57750000D02*
X105250000Y-56668000D01*
X105250000Y-60912000D02*
X105250000Y-59830000D01*
X105290000Y-57750000D02*
X105290000Y-56641000D01*
X105290000Y-60939000D02*
X105290000Y-59830000D01*
X105330000Y-57750000D02*
X105330000Y-56615000D01*
X105330000Y-60965000D02*
X105330000Y-59830000D01*
X105370000Y-57750000D02*
X105370000Y-56591000D01*
X105370000Y-60989000D02*
X105370000Y-59830000D01*
X105410000Y-57750000D02*
X105410000Y-56567000D01*
X105410000Y-61013000D02*
X105410000Y-59830000D01*
X105450000Y-57750000D02*
X105450000Y-56544000D01*
X105450000Y-61036000D02*
X105450000Y-59830000D01*
X105490000Y-57750000D02*
X105490000Y-56522000D01*
X105490000Y-61058000D02*
X105490000Y-59830000D01*
X105530000Y-57750000D02*
X105530000Y-56501000D01*
X105530000Y-61079000D02*
X105530000Y-59830000D01*
X105570000Y-57750000D02*
X105570000Y-56481000D01*
X105570000Y-61099000D02*
X105570000Y-59830000D01*
X105610000Y-57750000D02*
X105610000Y-56461000D01*
X105610000Y-61119000D02*
X105610000Y-59830000D01*
X105650000Y-57750000D02*
X105650000Y-56443000D01*
X105650000Y-61137000D02*
X105650000Y-59830000D01*
X105690000Y-57750000D02*
X105690000Y-56425000D01*
X105690000Y-61155000D02*
X105690000Y-59830000D01*
X105730000Y-57750000D02*
X105730000Y-56408000D01*
X105730000Y-61172000D02*
X105730000Y-59830000D01*
X105770000Y-57750000D02*
X105770000Y-56392000D01*
X105770000Y-61188000D02*
X105770000Y-59830000D01*
X105810000Y-57750000D02*
X105810000Y-56377000D01*
X105810000Y-61203000D02*
X105810000Y-59830000D01*
X105850000Y-57750000D02*
X105850000Y-56362000D01*
X105850000Y-61218000D02*
X105850000Y-59830000D01*
X105890000Y-57750000D02*
X105890000Y-56348000D01*
X105890000Y-61232000D02*
X105890000Y-59830000D01*
X105930000Y-57750000D02*
X105930000Y-56335000D01*
X105930000Y-61245000D02*
X105930000Y-59830000D01*
X105970000Y-57750000D02*
X105970000Y-56323000D01*
X105970000Y-61257000D02*
X105970000Y-59830000D01*
X106010000Y-57750000D02*
X106010000Y-56311000D01*
X106010000Y-61269000D02*
X106010000Y-59830000D01*
X106050000Y-57750000D02*
X106050000Y-56300000D01*
X106050000Y-61280000D02*
X106050000Y-59830000D01*
X106090000Y-57750000D02*
X106090000Y-56289000D01*
X106090000Y-61291000D02*
X106090000Y-59830000D01*
X106130000Y-57750000D02*
X106130000Y-56280000D01*
X106130000Y-61300000D02*
X106130000Y-59830000D01*
X106170000Y-57750000D02*
X106170000Y-56271000D01*
X106170000Y-61309000D02*
X106170000Y-59830000D01*
X106210000Y-57750000D02*
X106210000Y-56262000D01*
X106210000Y-61318000D02*
X106210000Y-59830000D01*
X106250000Y-57750000D02*
X106250000Y-56254000D01*
X106250000Y-61326000D02*
X106250000Y-59830000D01*
X106290000Y-57750000D02*
X106290000Y-56247000D01*
X106290000Y-61333000D02*
X106290000Y-59830000D01*
X106330000Y-57750000D02*
X106330000Y-56241000D01*
X106330000Y-61339000D02*
X106330000Y-59830000D01*
X106370000Y-57750000D02*
X106370000Y-56235000D01*
X106370000Y-61345000D02*
X106370000Y-59830000D01*
X106410000Y-57750000D02*
X106410000Y-56230000D01*
X106410000Y-61350000D02*
X106410000Y-59830000D01*
X106450000Y-57750000D02*
X106450000Y-56225000D01*
X106450000Y-61355000D02*
X106450000Y-59830000D01*
X106490000Y-57750000D02*
X106490000Y-56221000D01*
X106490000Y-61359000D02*
X106490000Y-59830000D01*
X106530000Y-61362000D02*
X106530000Y-56218000D01*
X106570000Y-61365000D02*
X106570000Y-56215000D01*
X106610000Y-61367000D02*
X106610000Y-56213000D01*
X106650000Y-61369000D02*
X106650000Y-56211000D01*
X106690000Y-61370000D02*
X106690000Y-56210000D01*
X106730000Y-61370000D02*
X106730000Y-56210000D01*
X109284775Y-60515000D02*
X109284775Y-60015000D01*
X109534775Y-60265000D02*
X109034775Y-60265000D01*
X109350000Y-58790000D02*
G75*
G02*
X104110000Y-58790000I-2620000J0D01*
G01*
X104110000Y-58790000D02*
G75*
G02*
X109350000Y-58790000I2620000J0D01*
G01*
%TO.C,D2*%
X125090000Y-115595000D02*
X127950000Y-115595000D01*
X127950000Y-113675000D02*
X125090000Y-113675000D01*
X127950000Y-115595000D02*
X127950000Y-113675000D01*
%TO.C,U6*%
X114280000Y-66790000D02*
X114280000Y-69590000D01*
X117680000Y-66790000D02*
X117680000Y-69790000D01*
X114580000Y-70170000D02*
X114300000Y-69890000D01*
X114580000Y-69890000D01*
X114580000Y-70170000D01*
G36*
X114580000Y-70170000D02*
G01*
X114300000Y-69890000D01*
X114580000Y-69890000D01*
X114580000Y-70170000D01*
G37*
%TO.C,FINALCARRERA2*%
X160072000Y-62800000D02*
X160072000Y-71405000D01*
X163120000Y-71405000D02*
X165660000Y-71405000D01*
X170740000Y-71405000D02*
X168200000Y-71405000D01*
X173788000Y-62800000D02*
X160072000Y-62800000D01*
X173788000Y-71405000D02*
X173788000Y-62800000D01*
X165450000Y-62400000D02*
X164250000Y-62400000D01*
X164250000Y-63200000D01*
X165450000Y-63200000D01*
X165450000Y-62400000D01*
%TO.C,C2*%
X120005000Y-113981252D02*
X120005000Y-113458748D01*
X121475000Y-113981252D02*
X121475000Y-113458748D01*
%TO.C,C11*%
X176015000Y-129788748D02*
X176015000Y-130311252D01*
X177485000Y-129788748D02*
X177485000Y-130311252D01*
%TO.C,R10*%
X115527776Y-78687500D02*
X116037224Y-78687500D01*
X115527776Y-79732500D02*
X116037224Y-79732500D01*
%TO.C,R16*%
X131727500Y-81682776D02*
X131727500Y-82192224D01*
X132772500Y-81682776D02*
X132772500Y-82192224D01*
%TO.C,D3*%
X103140000Y-67310000D02*
X103140000Y-71610000D01*
X103140000Y-67310000D02*
X108950000Y-67310000D01*
X103140000Y-71610000D02*
X108950000Y-71610000D01*
%TO.C,R11*%
X93057064Y-122470000D02*
X88702936Y-122470000D01*
X93057064Y-125890000D02*
X88702936Y-125890000D01*
%TO.C,K4*%
X86480000Y-136740000D02*
X87980000Y-136740000D01*
X86480000Y-138240000D02*
X86480000Y-136740000D01*
X86930000Y-142260000D02*
X86930000Y-139650000D01*
X86930000Y-142260000D02*
X115150000Y-142260000D01*
X107140000Y-137040000D02*
X86930000Y-137040000D01*
X108680000Y-137040000D02*
X112160000Y-137040000D01*
X113740000Y-137040000D02*
X115150000Y-137040000D01*
X115150000Y-142260000D02*
X115150000Y-137040000D01*
%TO.C,C14*%
X123975000Y-60658000D02*
X123975000Y-60092000D01*
X124015000Y-60892000D02*
X124015000Y-59858000D01*
X124055000Y-61052000D02*
X124055000Y-59698000D01*
X124095000Y-61180000D02*
X124095000Y-59570000D01*
X124135000Y-61289000D02*
X124135000Y-59461000D01*
X124175000Y-61386000D02*
X124175000Y-59364000D01*
X124215000Y-61473000D02*
X124215000Y-59277000D01*
X124255000Y-61552000D02*
X124255000Y-59198000D01*
X124295000Y-59335000D02*
X124295000Y-59124000D01*
X124295000Y-61626000D02*
X124295000Y-61415000D01*
X124335000Y-59335000D02*
X124335000Y-59056000D01*
X124335000Y-61694000D02*
X124335000Y-61415000D01*
X124375000Y-59335000D02*
X124375000Y-58992000D01*
X124375000Y-61758000D02*
X124375000Y-61415000D01*
X124415000Y-59335000D02*
X124415000Y-58932000D01*
X124415000Y-61818000D02*
X124415000Y-61415000D01*
X124455000Y-59335000D02*
X124455000Y-58876000D01*
X124455000Y-61874000D02*
X124455000Y-61415000D01*
X124495000Y-59335000D02*
X124495000Y-58822000D01*
X124495000Y-61928000D02*
X124495000Y-61415000D01*
X124535000Y-59335000D02*
X124535000Y-58771000D01*
X124535000Y-61979000D02*
X124535000Y-61415000D01*
X124575000Y-59335000D02*
X124575000Y-58723000D01*
X124575000Y-62027000D02*
X124575000Y-61415000D01*
X124615000Y-59335000D02*
X124615000Y-58676000D01*
X124615000Y-62074000D02*
X124615000Y-61415000D01*
X124655000Y-59335000D02*
X124655000Y-58632000D01*
X124655000Y-62118000D02*
X124655000Y-61415000D01*
X124695000Y-59335000D02*
X124695000Y-58590000D01*
X124695000Y-62160000D02*
X124695000Y-61415000D01*
X124735000Y-59335000D02*
X124735000Y-58550000D01*
X124735000Y-62200000D02*
X124735000Y-61415000D01*
X124775000Y-59335000D02*
X124775000Y-58511000D01*
X124775000Y-62239000D02*
X124775000Y-61415000D01*
X124815000Y-59335000D02*
X124815000Y-58474000D01*
X124815000Y-62276000D02*
X124815000Y-61415000D01*
X124855000Y-59335000D02*
X124855000Y-58439000D01*
X124855000Y-62311000D02*
X124855000Y-61415000D01*
X124895000Y-59335000D02*
X124895000Y-58405000D01*
X124895000Y-62345000D02*
X124895000Y-61415000D01*
X124935000Y-59335000D02*
X124935000Y-58372000D01*
X124935000Y-62378000D02*
X124935000Y-61415000D01*
X124975000Y-59335000D02*
X124975000Y-58340000D01*
X124975000Y-62410000D02*
X124975000Y-61415000D01*
X125015000Y-59335000D02*
X125015000Y-58310000D01*
X125015000Y-62440000D02*
X125015000Y-61415000D01*
X125055000Y-59335000D02*
X125055000Y-58281000D01*
X125055000Y-62469000D02*
X125055000Y-61415000D01*
X125095000Y-59335000D02*
X125095000Y-58253000D01*
X125095000Y-62497000D02*
X125095000Y-61415000D01*
X125135000Y-59335000D02*
X125135000Y-58226000D01*
X125135000Y-62524000D02*
X125135000Y-61415000D01*
X125175000Y-59335000D02*
X125175000Y-58200000D01*
X125175000Y-62550000D02*
X125175000Y-61415000D01*
X125215000Y-59335000D02*
X125215000Y-58176000D01*
X125215000Y-62574000D02*
X125215000Y-61415000D01*
X125255000Y-59335000D02*
X125255000Y-58152000D01*
X125255000Y-62598000D02*
X125255000Y-61415000D01*
X125295000Y-59335000D02*
X125295000Y-58129000D01*
X125295000Y-62621000D02*
X125295000Y-61415000D01*
X125335000Y-59335000D02*
X125335000Y-58107000D01*
X125335000Y-62643000D02*
X125335000Y-61415000D01*
X125375000Y-59335000D02*
X125375000Y-58086000D01*
X125375000Y-62664000D02*
X125375000Y-61415000D01*
X125415000Y-59335000D02*
X125415000Y-58066000D01*
X125415000Y-62684000D02*
X125415000Y-61415000D01*
X125455000Y-59335000D02*
X125455000Y-58046000D01*
X125455000Y-62704000D02*
X125455000Y-61415000D01*
X125495000Y-59335000D02*
X125495000Y-58028000D01*
X125495000Y-62722000D02*
X125495000Y-61415000D01*
X125535000Y-59335000D02*
X125535000Y-58010000D01*
X125535000Y-62740000D02*
X125535000Y-61415000D01*
X125575000Y-59335000D02*
X125575000Y-57993000D01*
X125575000Y-62757000D02*
X125575000Y-61415000D01*
X125615000Y-59335000D02*
X125615000Y-57977000D01*
X125615000Y-62773000D02*
X125615000Y-61415000D01*
X125655000Y-59335000D02*
X125655000Y-57962000D01*
X125655000Y-62788000D02*
X125655000Y-61415000D01*
X125695000Y-59335000D02*
X125695000Y-57947000D01*
X125695000Y-62803000D02*
X125695000Y-61415000D01*
X125735000Y-59335000D02*
X125735000Y-57933000D01*
X125735000Y-62817000D02*
X125735000Y-61415000D01*
X125775000Y-59335000D02*
X125775000Y-57920000D01*
X125775000Y-62830000D02*
X125775000Y-61415000D01*
X125815000Y-59335000D02*
X125815000Y-57908000D01*
X125815000Y-62842000D02*
X125815000Y-61415000D01*
X125855000Y-59335000D02*
X125855000Y-57896000D01*
X125855000Y-62854000D02*
X125855000Y-61415000D01*
X125895000Y-59335000D02*
X125895000Y-57885000D01*
X125895000Y-62865000D02*
X125895000Y-61415000D01*
X125935000Y-59335000D02*
X125935000Y-57874000D01*
X125935000Y-62876000D02*
X125935000Y-61415000D01*
X125975000Y-59335000D02*
X125975000Y-57865000D01*
X125975000Y-62885000D02*
X125975000Y-61415000D01*
X126015000Y-59335000D02*
X126015000Y-57856000D01*
X126015000Y-62894000D02*
X126015000Y-61415000D01*
X126055000Y-59335000D02*
X126055000Y-57847000D01*
X126055000Y-62903000D02*
X126055000Y-61415000D01*
X126095000Y-59335000D02*
X126095000Y-57839000D01*
X126095000Y-62911000D02*
X126095000Y-61415000D01*
X126135000Y-59335000D02*
X126135000Y-57832000D01*
X126135000Y-62918000D02*
X126135000Y-61415000D01*
X126175000Y-59335000D02*
X126175000Y-57826000D01*
X126175000Y-62924000D02*
X126175000Y-61415000D01*
X126215000Y-59335000D02*
X126215000Y-57820000D01*
X126215000Y-62930000D02*
X126215000Y-61415000D01*
X126255000Y-59335000D02*
X126255000Y-57815000D01*
X126255000Y-62935000D02*
X126255000Y-61415000D01*
X126295000Y-59335000D02*
X126295000Y-57810000D01*
X126295000Y-62940000D02*
X126295000Y-61415000D01*
X126335000Y-59335000D02*
X126335000Y-57806000D01*
X126335000Y-62944000D02*
X126335000Y-61415000D01*
X126375000Y-62947000D02*
X126375000Y-57803000D01*
X126415000Y-62950000D02*
X126415000Y-57800000D01*
X126455000Y-62952000D02*
X126455000Y-57798000D01*
X126495000Y-62954000D02*
X126495000Y-57796000D01*
X126535000Y-62955000D02*
X126535000Y-57795000D01*
X126575000Y-62955000D02*
X126575000Y-57795000D01*
X129129775Y-62100000D02*
X129129775Y-61600000D01*
X129379775Y-61850000D02*
X128879775Y-61850000D01*
X129195000Y-60375000D02*
G75*
G02*
X123955000Y-60375000I-2620000J0D01*
G01*
X123955000Y-60375000D02*
G75*
G02*
X129195000Y-60375000I2620000J0D01*
G01*
%TO.C,C17*%
X119011252Y-92765000D02*
X118488748Y-92765000D01*
X119011252Y-94235000D02*
X118488748Y-94235000D01*
%TO.C,R7*%
X133145276Y-109277500D02*
X133654724Y-109277500D01*
X133145276Y-110322500D02*
X133654724Y-110322500D01*
%TO.C,R14*%
X127895000Y-125175276D02*
X127895000Y-125684724D01*
X128940000Y-125175276D02*
X128940000Y-125684724D01*
%TO.C,C8*%
X159903448Y-103090600D02*
X160425952Y-103090600D01*
X159903448Y-104560600D02*
X160425952Y-104560600D01*
%TO.C,R22*%
X100732776Y-133077500D02*
X101242224Y-133077500D01*
X100732776Y-134122500D02*
X101242224Y-134122500D01*
%TO.C,C5*%
X154768900Y-103563548D02*
X154768900Y-104086052D01*
X156238900Y-103563548D02*
X156238900Y-104086052D01*
%TO.C,R9*%
X110607776Y-77977500D02*
X111117224Y-77977500D01*
X110607776Y-79022500D02*
X111117224Y-79022500D01*
%TO.C,R6*%
X132127500Y-61082776D02*
X132127500Y-61592224D01*
X133172500Y-61082776D02*
X133172500Y-61592224D01*
%TO.C,C16*%
X114065000Y-60788748D02*
X114065000Y-61311252D01*
X115535000Y-60788748D02*
X115535000Y-61311252D01*
%TO.C,M2*%
X158640000Y-134700000D02*
X169380000Y-134700000D01*
X158640000Y-138320000D02*
X159880000Y-138320000D01*
X158640000Y-139320000D02*
X159880000Y-139320000D01*
X158640000Y-140620000D02*
X159880000Y-140620000D01*
X158640000Y-142740000D02*
X158640000Y-134700000D01*
X161460000Y-142740000D02*
X158640000Y-142740000D01*
X163640000Y-138320000D02*
X164948000Y-138320000D01*
X163640000Y-139320000D02*
X164948000Y-139320000D01*
X163640000Y-140620000D02*
X166217000Y-140620000D01*
X167303000Y-140620000D02*
X169380000Y-140620000D01*
X168572000Y-138320000D02*
X169380000Y-138320000D01*
X168572000Y-139320000D02*
X169380000Y-139320000D01*
X169380000Y-134700000D02*
X169380000Y-142740000D01*
X169380000Y-142740000D02*
X162060000Y-142740000D01*
X162200000Y-143350000D02*
X161320000Y-143350000D01*
X161760000Y-142740000D01*
X162200000Y-143350000D01*
G36*
X162200000Y-143350000D02*
G01*
X161320000Y-143350000D01*
X161760000Y-142740000D01*
X162200000Y-143350000D01*
G37*
%TO.C,SW3*%
X135730000Y-105630000D02*
X136030000Y-105630000D01*
X135730000Y-109770000D02*
X135730000Y-105630000D01*
X136030000Y-109770000D02*
X135730000Y-109770000D01*
X138570000Y-105630000D02*
X138870000Y-105630000D01*
X138870000Y-105630000D02*
X138870000Y-109770000D01*
X138870000Y-109770000D02*
X138570000Y-109770000D01*
%TO.C,C6*%
X159725952Y-106090600D02*
X159203448Y-106090600D01*
X159725952Y-107560600D02*
X159203448Y-107560600D01*
%TO.C,R8*%
X125872776Y-111312500D02*
X126382224Y-111312500D01*
X125872776Y-112357500D02*
X126382224Y-112357500D01*
%TO.C,R23*%
X128817500Y-133872776D02*
X128817500Y-134382224D01*
X129862500Y-133872776D02*
X129862500Y-134382224D01*
%TO.C,R2*%
X138377500Y-72717224D02*
X138377500Y-72207776D01*
X139422500Y-72717224D02*
X139422500Y-72207776D01*
%TO.C,J1*%
X88320000Y-96270000D02*
X88320000Y-86000000D01*
X91080000Y-86000000D02*
X88320000Y-86000000D01*
X91080000Y-96270000D02*
X88320000Y-96270000D01*
X91080000Y-96270000D02*
X91080000Y-86000000D01*
X91080000Y-97540000D02*
X91080000Y-98920000D01*
X91080000Y-98920000D02*
X89700000Y-98920000D01*
%TO.C,C3*%
X142308748Y-91255000D02*
X142831252Y-91255000D01*
X142308748Y-92725000D02*
X142831252Y-92725000D01*
%TO.C,TP1*%
X78410000Y-69850000D02*
X82210000Y-69850000D01*
X82210000Y-72050000D01*
X78410000Y-72050000D01*
X78410000Y-69850000D01*
%TO.C,U9*%
X164467500Y-101955000D02*
X168587500Y-101955000D01*
X164467500Y-101985000D02*
X164467500Y-101955000D01*
X164467500Y-112075000D02*
X164467500Y-112045000D01*
X168587500Y-101955000D02*
X168587500Y-101985000D01*
X168587500Y-112045000D02*
X168587500Y-112075000D01*
X168587500Y-112075000D02*
X164467500Y-112075000D01*
X163657500Y-101985000D02*
X163417500Y-101655000D01*
X163897500Y-101655000D01*
X163657500Y-101985000D01*
G36*
X163657500Y-101985000D02*
G01*
X163417500Y-101655000D01*
X163897500Y-101655000D01*
X163657500Y-101985000D01*
G37*
%TO.C,C1*%
X128115000Y-102161252D02*
X128115000Y-101638748D01*
X129585000Y-102161252D02*
X129585000Y-101638748D01*
D10*
%TO.C,U7*%
X148775000Y-125885000D02*
X148775000Y-130035000D01*
X153925000Y-125885000D02*
X153925000Y-130035000D01*
D12*
X154155000Y-125525000D02*
X153825000Y-125285000D01*
X154155000Y-125045000D01*
X154155000Y-125525000D01*
G36*
X154155000Y-125525000D02*
G01*
X153825000Y-125285000D01*
X154155000Y-125045000D01*
X154155000Y-125525000D01*
G37*
%TD*%
M02*
