%TF.GenerationSoftware,KiCad,Pcbnew,9.0.7*%
%TF.CreationDate,2026-04-30T13:09:42+02:00*%
%TF.ProjectId,projecte_neteja_parabrises,70726f6a-6563-4746-955f-6e6574656a61,rev?*%
%TF.SameCoordinates,Original*%
%TF.FileFunction,Paste,Top*%
%TF.FilePolarity,Positive*%
%FSLAX46Y46*%
G04 Gerber Fmt 4.6, Leading zero omitted, Abs format (unit mm)*
G04 Created by KiCad (PCBNEW 9.0.7) date 2026-04-30 13:09:42*
%MOMM*%
%LPD*%
G01*
G04 APERTURE LIST*
G04 Aperture macros list*
%AMRoundRect*
0 Rectangle with rounded corners*
0 $1 Rounding radius*
0 $2 $3 $4 $5 $6 $7 $8 $9 X,Y pos of 4 corners*
0 Add a 4 corners polygon primitive as box body*
4,1,4,$2,$3,$4,$5,$6,$7,$8,$9,$2,$3,0*
0 Add four circle primitives for the rounded corners*
1,1,$1+$1,$2,$3*
1,1,$1+$1,$4,$5*
1,1,$1+$1,$6,$7*
1,1,$1+$1,$8,$9*
0 Add four rect primitives between the rounded corners*
20,1,$1+$1,$2,$3,$4,$5,0*
20,1,$1+$1,$4,$5,$6,$7,0*
20,1,$1+$1,$6,$7,$8,$9,0*
20,1,$1+$1,$8,$9,$2,$3,0*%
G04 Aperture macros list end*
%ADD10RoundRect,0.237500X-0.237500X0.250000X-0.237500X-0.250000X0.237500X-0.250000X0.237500X0.250000X0*%
%ADD11R,3.100000X2.400000*%
%ADD12R,0.500000X2.200000*%
%ADD13RoundRect,0.250000X0.650000X-0.625000X0.650000X0.625000X-0.650000X0.625000X-0.650000X-0.625000X0*%
%ADD14RoundRect,0.200000X0.800000X-0.200000X0.800000X0.200000X-0.800000X0.200000X-0.800000X-0.200000X0*%
%ADD15RoundRect,0.250000X-1.450000X-0.650000X1.450000X-0.650000X1.450000X0.650000X-1.450000X0.650000X0*%
%ADD16RoundRect,0.250000X-0.250000X-0.475000X0.250000X-0.475000X0.250000X0.475000X-0.250000X0.475000X0*%
%ADD17RoundRect,0.090000X-0.090000X0.139000X-0.090000X-0.139000X0.090000X-0.139000X0.090000X0.139000X0*%
%ADD18RoundRect,0.090000X-0.139000X-0.090000X0.139000X-0.090000X0.139000X0.090000X-0.139000X0.090000X0*%
%ADD19RoundRect,0.090000X-0.110000X-0.090000X0.110000X-0.090000X0.110000X0.090000X-0.110000X0.090000X0*%
%ADD20RoundRect,0.150000X-0.587500X-0.150000X0.587500X-0.150000X0.587500X0.150000X-0.587500X0.150000X0*%
%ADD21RoundRect,0.150000X0.150000X-0.587500X0.150000X0.587500X-0.150000X0.587500X-0.150000X-0.587500X0*%
%ADD22RoundRect,0.237500X0.250000X0.237500X-0.250000X0.237500X-0.250000X-0.237500X0.250000X-0.237500X0*%
%ADD23RoundRect,0.237500X-0.287500X-0.237500X0.287500X-0.237500X0.287500X0.237500X-0.287500X0.237500X0*%
%ADD24RoundRect,0.160000X-0.160000X-0.325000X0.160000X-0.325000X0.160000X0.325000X-0.160000X0.325000X0*%
%ADD25RoundRect,0.075000X-0.350000X-0.075000X0.350000X-0.075000X0.350000X0.075000X-0.350000X0.075000X0*%
%ADD26RoundRect,0.250000X2.025000X2.375000X-2.025000X2.375000X-2.025000X-2.375000X2.025000X-2.375000X0*%
%ADD27RoundRect,0.250000X2.050000X0.300000X-2.050000X0.300000X-2.050000X-0.300000X2.050000X-0.300000X0*%
%ADD28RoundRect,0.250000X0.475000X-0.250000X0.475000X0.250000X-0.475000X0.250000X-0.475000X-0.250000X0*%
%ADD29RoundRect,0.237500X0.237500X-0.250000X0.237500X0.250000X-0.237500X0.250000X-0.237500X-0.250000X0*%
%ADD30RoundRect,0.250000X0.250000X0.475000X-0.250000X0.475000X-0.250000X-0.475000X0.250000X-0.475000X0*%
%ADD31RoundRect,0.250000X-1.125000X1.275000X-1.125000X-1.275000X1.125000X-1.275000X1.125000X1.275000X0*%
%ADD32RoundRect,0.250000X-0.350000X0.850000X-0.350000X-0.850000X0.350000X-0.850000X0.350000X0.850000X0*%
%ADD33RoundRect,0.150000X0.587500X0.150000X-0.587500X0.150000X-0.587500X-0.150000X0.587500X-0.150000X0*%
%ADD34RoundRect,0.250000X-0.275000X-0.275000X0.275000X-0.275000X0.275000X0.275000X-0.275000X0.275000X0*%
%ADD35RoundRect,0.062500X-0.475000X-0.062500X0.475000X-0.062500X0.475000X0.062500X-0.475000X0.062500X0*%
%ADD36RoundRect,0.062500X-0.062500X-0.475000X0.062500X-0.475000X0.062500X0.475000X-0.062500X0.475000X0*%
%ADD37RoundRect,0.250000X-0.475000X0.250000X-0.475000X-0.250000X0.475000X-0.250000X0.475000X0.250000X0*%
%ADD38RoundRect,0.250000X0.325000X0.450000X-0.325000X0.450000X-0.325000X-0.450000X0.325000X-0.450000X0*%
%ADD39RoundRect,0.150000X0.350000X-0.150000X0.350000X0.150000X-0.350000X0.150000X-0.350000X-0.150000X0*%
%ADD40RoundRect,0.100000X0.100000X-0.200000X0.100000X0.200000X-0.100000X0.200000X-0.100000X-0.200000X0*%
%ADD41RoundRect,0.237500X-0.250000X-0.237500X0.250000X-0.237500X0.250000X0.237500X-0.250000X0.237500X0*%
%ADD42RoundRect,0.250000X-1.000000X-0.900000X1.000000X-0.900000X1.000000X0.900000X-1.000000X0.900000X0*%
%ADD43RoundRect,0.249999X0.450001X1.425001X-0.450001X1.425001X-0.450001X-1.425001X0.450001X-1.425001X0*%
%ADD44RoundRect,0.090000X0.139000X0.090000X-0.139000X0.090000X-0.139000X-0.090000X0.139000X-0.090000X0*%
%ADD45RoundRect,0.162500X-0.575000X-0.162500X0.575000X-0.162500X0.575000X0.162500X-0.575000X0.162500X0*%
G04 APERTURE END LIST*
D10*
%TO.C,R15*%
X120550000Y-81375000D03*
X120550000Y-83200000D03*
%TD*%
D11*
%TO.C,U3*%
X163845000Y-127965000D03*
D12*
X165750000Y-125090000D03*
X164480000Y-125090000D03*
X163210000Y-125090000D03*
X161940000Y-125090000D03*
X161940000Y-130840000D03*
X163210000Y-130840000D03*
X164480000Y-130840000D03*
X165750000Y-130840000D03*
%TD*%
D13*
%TO.C,Y1*%
X138320000Y-92770000D03*
X138320000Y-89520000D03*
%TD*%
D14*
%TO.C,SW2*%
X123500000Y-84050000D03*
X123500000Y-79850000D03*
%TD*%
%TO.C,SW1*%
X128550000Y-84000000D03*
X128550000Y-79800000D03*
%TD*%
D15*
%TO.C,TP3*%
X131500000Y-72500000D03*
%TD*%
D16*
%TO.C,C4*%
X141610000Y-89390000D03*
X143510000Y-89390000D03*
%TD*%
D17*
%TO.C,D4*%
X90000000Y-105832500D03*
X90000000Y-106697500D03*
%TD*%
D15*
%TO.C,TP2*%
X90730000Y-59675000D03*
%TD*%
D10*
%TO.C,R13*%
X100065000Y-128145000D03*
X100065000Y-129970000D03*
%TD*%
D18*
%TO.C,R20*%
X114765000Y-96100000D03*
D19*
X115630000Y-96100000D03*
%TD*%
D20*
%TO.C,Q2*%
X95270000Y-133080000D03*
X95270000Y-134980000D03*
X97145000Y-134030000D03*
%TD*%
D21*
%TO.C,Q3*%
X92600000Y-110250000D03*
X94500000Y-110250000D03*
X93550000Y-108375000D03*
%TD*%
D18*
%TO.C,R19*%
X104485000Y-112250000D03*
X105350000Y-112250000D03*
%TD*%
D16*
%TO.C,C19*%
X169830000Y-85860000D03*
X171730000Y-85860000D03*
%TD*%
D22*
%TO.C,R4*%
X96890000Y-112870000D03*
X95065000Y-112870000D03*
%TD*%
D17*
%TO.C,D5*%
X97760000Y-131740000D03*
X97760000Y-132605000D03*
%TD*%
D23*
%TO.C,L1*%
X104575000Y-65135000D03*
X106325000Y-65135000D03*
%TD*%
D24*
%TO.C,U8*%
X163440000Y-85600000D03*
X163440000Y-86800000D03*
X164240000Y-85600000D03*
X164240000Y-86800000D03*
D25*
X162390000Y-85225000D03*
X162390000Y-85875000D03*
X162390000Y-86525000D03*
X162390000Y-87175000D03*
X165290000Y-87175000D03*
X165290000Y-86525000D03*
X165290000Y-85875000D03*
X165290000Y-85225000D03*
%TD*%
D26*
%TO.C,U2*%
X92480000Y-70450000D03*
X92480000Y-64900000D03*
X87630000Y-70450000D03*
X87630000Y-64900000D03*
D27*
X99205000Y-71075000D03*
X99205000Y-69375000D03*
X99205000Y-67675000D03*
X99205000Y-65975000D03*
X99205000Y-64275000D03*
%TD*%
D16*
%TO.C,C7*%
X158314700Y-109525600D03*
X160214700Y-109525600D03*
%TD*%
D28*
%TO.C,C9*%
X176050000Y-104340000D03*
X176050000Y-102440000D03*
%TD*%
D29*
%TO.C,R5*%
X130290000Y-68255000D03*
X130290000Y-66430000D03*
%TD*%
D30*
%TO.C,C10*%
X132750000Y-86600000D03*
X130850000Y-86600000D03*
%TD*%
D10*
%TO.C,R18*%
X92630000Y-112955000D03*
X92630000Y-114780000D03*
%TD*%
D29*
%TO.C,R3*%
X157900000Y-77050000D03*
X157900000Y-75225000D03*
%TD*%
D31*
%TO.C,U1*%
X127145000Y-70975000D03*
X124095000Y-70975000D03*
X127145000Y-74325000D03*
X124095000Y-74325000D03*
D32*
X127900000Y-66350000D03*
X125620000Y-66350000D03*
X123340000Y-66350000D03*
%TD*%
D33*
%TO.C,Q4*%
X125097500Y-130072500D03*
X125097500Y-128172500D03*
X123222500Y-129122500D03*
%TD*%
D19*
%TO.C,D6*%
X120137500Y-133052500D03*
D18*
X121002500Y-133052500D03*
%TD*%
D34*
%TO.C,U4*%
X127600400Y-91451600D03*
X127600400Y-92751600D03*
X127600400Y-94051600D03*
X127600400Y-95351600D03*
X128900400Y-91451600D03*
X128900400Y-92751600D03*
X128900400Y-94051600D03*
X128900400Y-95351600D03*
X130200400Y-91451600D03*
X130200400Y-92751600D03*
X130200400Y-94051600D03*
X130200400Y-95351600D03*
X131500400Y-91451600D03*
X131500400Y-92751600D03*
X131500400Y-94051600D03*
X131500400Y-95351600D03*
D35*
X126212900Y-90901600D03*
X126212900Y-91401600D03*
X126212900Y-91901600D03*
X126212900Y-92401600D03*
X126212900Y-92901600D03*
X126212900Y-93401600D03*
X126212900Y-93901600D03*
X126212900Y-94401600D03*
X126212900Y-94901600D03*
X126212900Y-95401600D03*
X126212900Y-95901600D03*
D36*
X127050400Y-96739100D03*
X127550400Y-96739100D03*
X128050400Y-96739100D03*
X128550400Y-96739100D03*
X129050400Y-96739100D03*
X129550400Y-96739100D03*
X130050400Y-96739100D03*
X130550400Y-96739100D03*
X131050400Y-96739100D03*
X131550400Y-96739100D03*
X132050400Y-96739100D03*
D35*
X132887900Y-95901600D03*
X132887900Y-95401600D03*
X132887900Y-94901600D03*
X132887900Y-94401600D03*
X132887900Y-93901600D03*
X132887900Y-93401600D03*
X132887900Y-92901600D03*
X132887900Y-92401600D03*
X132887900Y-91901600D03*
X132887900Y-91401600D03*
X132887900Y-90901600D03*
D36*
X132050400Y-90064100D03*
X131550400Y-90064100D03*
X131050400Y-90064100D03*
X130550400Y-90064100D03*
X130050400Y-90064100D03*
X129550400Y-90064100D03*
X129050400Y-90064100D03*
X128550400Y-90064100D03*
X128050400Y-90064100D03*
X127550400Y-90064100D03*
X127050400Y-90064100D03*
%TD*%
D37*
%TO.C,C12*%
X118980000Y-60050000D03*
X118980000Y-61950000D03*
%TD*%
D38*
%TO.C,D2*%
X127115000Y-114635000D03*
X125065000Y-114635000D03*
%TD*%
D39*
%TO.C,U6*%
X115330000Y-68690000D03*
X116630000Y-68690000D03*
X115330000Y-67890000D03*
X116630000Y-67890000D03*
D40*
X115030000Y-69690000D03*
X115980000Y-69690000D03*
X116930000Y-69690000D03*
X116930000Y-66890000D03*
X115980000Y-66890000D03*
X115030000Y-66890000D03*
%TD*%
D28*
%TO.C,C2*%
X120740000Y-114670000D03*
X120740000Y-112770000D03*
%TD*%
D37*
%TO.C,C11*%
X176750000Y-129100000D03*
X176750000Y-131000000D03*
%TD*%
D41*
%TO.C,R10*%
X114870000Y-79210000D03*
X116695000Y-79210000D03*
%TD*%
D10*
%TO.C,R16*%
X132250000Y-81025000D03*
X132250000Y-82850000D03*
%TD*%
D42*
%TO.C,D3*%
X104650000Y-69460000D03*
X108950000Y-69460000D03*
%TD*%
D43*
%TO.C,R11*%
X93930000Y-124180000D03*
X87830000Y-124180000D03*
%TD*%
D30*
%TO.C,C17*%
X119700000Y-93500000D03*
X117800000Y-93500000D03*
%TD*%
D44*
%TO.C,R21*%
X97750000Y-99200000D03*
X96885000Y-99200000D03*
%TD*%
D41*
%TO.C,R7*%
X132487500Y-109800000D03*
X134312500Y-109800000D03*
%TD*%
D10*
%TO.C,R14*%
X128417500Y-124517500D03*
X128417500Y-126342500D03*
%TD*%
D16*
%TO.C,C8*%
X159214700Y-103825600D03*
X161114700Y-103825600D03*
%TD*%
D41*
%TO.C,R22*%
X100075000Y-133600000D03*
X101900000Y-133600000D03*
%TD*%
D37*
%TO.C,C5*%
X155503900Y-102874800D03*
X155503900Y-104774800D03*
%TD*%
D41*
%TO.C,R9*%
X109950000Y-78500000D03*
X111775000Y-78500000D03*
%TD*%
D10*
%TO.C,R6*%
X132650000Y-60425000D03*
X132650000Y-62250000D03*
%TD*%
D17*
%TO.C,R17*%
X172200000Y-87900000D03*
X172200000Y-88765000D03*
%TD*%
D37*
%TO.C,C16*%
X114800000Y-60100000D03*
X114800000Y-62000000D03*
%TD*%
D14*
%TO.C,SW3*%
X137300000Y-109800000D03*
X137300000Y-105600000D03*
%TD*%
D30*
%TO.C,C6*%
X160414700Y-106825600D03*
X158514700Y-106825600D03*
%TD*%
D41*
%TO.C,R8*%
X125215000Y-111835000D03*
X127040000Y-111835000D03*
%TD*%
D10*
%TO.C,R23*%
X129340000Y-133215000D03*
X129340000Y-135040000D03*
%TD*%
D29*
%TO.C,R2*%
X138900000Y-73375000D03*
X138900000Y-71550000D03*
%TD*%
D17*
%TO.C,R12*%
X172200000Y-83135000D03*
X172200000Y-84000000D03*
%TD*%
D16*
%TO.C,C3*%
X141620000Y-91990000D03*
X143520000Y-91990000D03*
%TD*%
D15*
%TO.C,TP1*%
X80310000Y-70950000D03*
%TD*%
D45*
%TO.C,U9*%
X163665000Y-102570000D03*
X163665000Y-103840000D03*
X163665000Y-105110000D03*
X163665000Y-106380000D03*
X163665000Y-107650000D03*
X163665000Y-108920000D03*
X163665000Y-110190000D03*
X163665000Y-111460000D03*
X169390000Y-111460000D03*
X169390000Y-110190000D03*
X169390000Y-108920000D03*
X169390000Y-107650000D03*
X169390000Y-106380000D03*
X169390000Y-105110000D03*
X169390000Y-103840000D03*
X169390000Y-102570000D03*
%TD*%
D28*
%TO.C,C1*%
X128850000Y-102850000D03*
X128850000Y-100950000D03*
%TD*%
D11*
%TO.C,U7*%
X151350000Y-127960000D03*
D12*
X153255000Y-125085000D03*
X151985000Y-125085000D03*
X150715000Y-125085000D03*
X149445000Y-125085000D03*
X149445000Y-130835000D03*
X150715000Y-130835000D03*
X151985000Y-130835000D03*
X153255000Y-130835000D03*
%TD*%
M02*
