%TF.GenerationSoftware,KiCad,Pcbnew,9.0.7*%
%TF.CreationDate,2026-04-30T13:09:42+02:00*%
%TF.ProjectId,projecte_neteja_parabrises,70726f6a-6563-4746-955f-6e6574656a61,rev?*%
%TF.SameCoordinates,Original*%
%TF.FileFunction,Soldermask,Bot*%
%TF.FilePolarity,Negative*%
%FSLAX46Y46*%
G04 Gerber Fmt 4.6, Leading zero omitted, Abs format (unit mm)*
G04 Created by KiCad (PCBNEW 9.0.7) date 2026-04-30 13:09:42*
%MOMM*%
%LPD*%
G01*
G04 APERTURE LIST*
G04 Aperture macros list*
%AMRoundRect*
0 Rectangle with rounded corners*
0 $1 Rounding radius*
0 $2 $3 $4 $5 $6 $7 $8 $9 X,Y pos of 4 corners*
0 Add a 4 corners polygon primitive as box body*
4,1,4,$2,$3,$4,$5,$6,$7,$8,$9,$2,$3,0*
0 Add four circle primitives for the rounded corners*
1,1,$1+$1,$2,$3*
1,1,$1+$1,$4,$5*
1,1,$1+$1,$6,$7*
1,1,$1+$1,$8,$9*
0 Add four rect primitives between the rounded corners*
20,1,$1+$1,$2,$3,$4,$5,0*
20,1,$1+$1,$4,$5,$6,$7,0*
20,1,$1+$1,$6,$7,$8,$9,0*
20,1,$1+$1,$8,$9,$2,$3,0*%
G04 Aperture macros list end*
%ADD10C,0.770000*%
%ADD11C,3.800000*%
%ADD12C,2.400000*%
%ADD13R,2.000000X2.000000*%
%ADD14C,2.000000*%
%ADD15RoundRect,0.250001X1.149999X1.149999X-1.149999X1.149999X-1.149999X-1.149999X1.149999X-1.149999X0*%
%ADD16C,2.800000*%
%ADD17R,1.700000X1.700000*%
%ADD18C,1.700000*%
%ADD19RoundRect,0.250000X0.550000X-0.550000X0.550000X0.550000X-0.550000X0.550000X-0.550000X-0.550000X0*%
%ADD20C,1.600000*%
%ADD21R,1.800000X1.800000*%
%ADD22C,1.800000*%
%ADD23RoundRect,0.375000X0.375000X-1.375000X0.375000X1.375000X-0.375000X1.375000X-0.375000X-1.375000X0*%
%ADD24R,1.600000X1.600000*%
%ADD25RoundRect,0.250001X-1.149999X-1.149999X1.149999X-1.149999X1.149999X1.149999X-1.149999X1.149999X0*%
%ADD26RoundRect,0.250000X0.550000X0.550000X-0.550000X0.550000X-0.550000X-0.550000X0.550000X-0.550000X0*%
G04 APERTURE END LIST*
D10*
%TO.C,U3*%
X165145000Y-127315000D03*
X163845000Y-127315000D03*
X162545000Y-127315000D03*
X165145000Y-128615000D03*
X163845000Y-128615000D03*
X162545000Y-128615000D03*
%TD*%
D11*
%TO.C,REF\u002A\u002A*%
X80350000Y-56650000D03*
%TD*%
D12*
%TO.C,K2*%
X137260000Y-138360000D03*
X142300000Y-138360000D03*
D13*
X117100000Y-138360000D03*
D14*
X120880000Y-138360000D03*
%TD*%
D15*
%TO.C,M5*%
X141467500Y-129702500D03*
D16*
X136467500Y-129702500D03*
%TD*%
D17*
%TO.C,J4*%
X80200000Y-75925000D03*
D18*
X80200000Y-78465000D03*
%TD*%
D12*
%TO.C,K3*%
X83752500Y-124532500D03*
X83752500Y-129572500D03*
D13*
X83752500Y-104372500D03*
D14*
X83752500Y-108152500D03*
%TD*%
D19*
%TO.C,C15*%
X90420000Y-81250000D03*
D20*
X90420000Y-78750000D03*
%TD*%
D21*
%TO.C,SW5*%
X103450000Y-109700000D03*
D22*
X103450000Y-99540000D03*
X105990000Y-99540000D03*
X108530000Y-99540000D03*
X108530000Y-109700000D03*
X105990000Y-109700000D03*
D23*
X100910000Y-107160000D03*
X111070000Y-107160000D03*
X100910000Y-102080000D03*
X111070000Y-102080000D03*
%TD*%
D11*
%TO.C,REF\u002A\u002A*%
X80550000Y-146150000D03*
%TD*%
D13*
%TO.C,FINALCARRERA1*%
X142700000Y-72100000D03*
D14*
X147780000Y-72100000D03*
X152860000Y-72100000D03*
%TD*%
%TO.C,FB1*%
X120960000Y-126410000D03*
X120960000Y-121330000D03*
%TD*%
D24*
%TO.C,J2*%
X180924669Y-90040000D03*
D20*
X180924669Y-87270000D03*
X180924669Y-84500000D03*
X180924669Y-81730000D03*
X180924669Y-78960000D03*
X183764669Y-88655000D03*
X183764669Y-85885000D03*
X183764669Y-83115000D03*
X183764669Y-80345000D03*
%TD*%
D15*
%TO.C,M3*%
X111600000Y-128900000D03*
D16*
X106600000Y-128900000D03*
%TD*%
D17*
%TO.C,JP1*%
X127420000Y-106800000D03*
D18*
X129960000Y-106800000D03*
X132500000Y-106800000D03*
%TD*%
D24*
%TO.C,J3*%
X181024669Y-122440000D03*
D20*
X181024669Y-119670000D03*
X181024669Y-116900000D03*
X181024669Y-114130000D03*
X181024669Y-111360000D03*
X183864669Y-121055000D03*
X183864669Y-118285000D03*
X183864669Y-115515000D03*
X183864669Y-112745000D03*
%TD*%
D25*
%TO.C,M1*%
X149000000Y-138880000D03*
D16*
X154000000Y-138880000D03*
%TD*%
D26*
%TO.C,C13*%
X107980000Y-58790000D03*
D20*
X105480000Y-58790000D03*
%TD*%
D11*
%TO.C,REF\u002A\u002A*%
X190000000Y-56800000D03*
%TD*%
D13*
%TO.C,FINALCARRERA2*%
X161850000Y-71900000D03*
D14*
X166930000Y-71900000D03*
X172010000Y-71900000D03*
%TD*%
D12*
%TO.C,K4*%
X107900000Y-138350000D03*
X112940000Y-138350000D03*
D13*
X87740000Y-138350000D03*
D14*
X91520000Y-138350000D03*
%TD*%
D26*
%TO.C,C14*%
X127825000Y-60375000D03*
D20*
X125325000Y-60375000D03*
%TD*%
D25*
%TO.C,M2*%
X161760000Y-138820000D03*
D16*
X166760000Y-138820000D03*
%TD*%
D11*
%TO.C,REF\u002A\u002A*%
X189600000Y-145800000D03*
%TD*%
D17*
%TO.C,J1*%
X89700000Y-97540000D03*
D18*
X89700000Y-95000000D03*
X89700000Y-92460000D03*
X89700000Y-89920000D03*
X89700000Y-87380000D03*
%TD*%
D10*
%TO.C,U7*%
X152650000Y-127310000D03*
X151350000Y-127310000D03*
X150050000Y-127310000D03*
X152650000Y-128610000D03*
X151350000Y-128610000D03*
X150050000Y-128610000D03*
%TD*%
M02*
